<svg width="100" height="87" viewBox="0 0 100 87" fill="none" xmlns="http://www.w3.org/2000/svg">
<g clip-path="url(#clip0_123_1833)">
<path d="M78.7893 0.00239314C91.775 -0.210063 100.573 10.4378 97.0254 23.004C96.5427 24.7129 96.3711 24.9878 96.3706 26.7891C96.3681 35.9119 97.3562 45.8255 98.1182 54.9216L99.8158 76.4561C99.9011 77.7909 100.171 79.4429 99.8254 80.7508C98.6122 85.3474 85.2009 80.6508 82.2772 80.1433C73.8959 78.6881 65.2094 78.5449 57.1312 81.5834C55.1301 82.3361 53.3535 83.4829 51.4226 84.3696C44.1224 87.7224 36.1981 87.7408 28.6383 85.3878C25.8039 84.5057 23.0607 83.3732 20.1965 82.5801C16.9331 81.7057 13.5678 81.6351 10.3309 82.6629C7.46203 83.5741 5.65515 85.3262 5.47052 80.8476L4.94652 66.2849C4.90517 64.8429 5.06581 61.69 4.77947 60.4896C4.57595 59.6363 3.74862 58.8447 3.33297 58.0654C-0.313531 51.2263 -1.10006 44.2567 1.72349 36.8742C2.12151 35.8338 2.53242 34.7948 3.16515 33.8711C2.71231 32.1639 2.65966 30.3021 2.4582 28.5456C1.89305 23.6183 1.14104 18.7205 0.400573 13.8177C-0.331245 8.97211 -0.556561 8.71399 4.65504 6.75326C13.7254 3.34034 23.0871 6.81071 32.0419 8.79068C42.505 11.1041 47.8739 11.7924 58.3882 9.64062C60.4304 9.22253 62.9113 8.56391 64.9838 8.5881C67.5844 3.57893 73.3075 0.50746 78.7893 0.00239314ZM3.29741 11.0005C3.2111 13.1792 3.47223 15.4186 3.59666 17.5982C3.82407 21.5801 4.3584 28.0648 3.95297 31.9987L4.02589 31.9371C4.64286 31.4063 5.12413 30.6413 5.62724 30.0014C10.3152 24.0397 21.4265 18.7389 28.837 22.3149C26.5149 23.1024 23.9783 23.3325 21.5907 23.8858C5.58256 27.5956 -3.00001 45.842 7.94165 58.8763C7.6163 57.9964 6.97997 57.2047 6.56798 56.3537C1.54418 45.9747 6.02137 32.3365 16.5045 27.3111C21.8645 24.7415 29.4273 24.2827 34.7428 27.3108C35.3992 27.6847 35.9618 28.199 36.6984 28.4202C34.8979 26.807 31.7722 25.0227 29.5356 24.0593C34.5697 24.1348 39.0954 26.6393 42.5439 30.1844C51.4301 39.319 50.3411 54.7025 41.316 63.3277C31.3135 72.8873 14.5111 72.4186 5.81369 61.4704C6.61336 67.6535 7.67415 73.845 8.23944 80.0548C14.2334 77.8104 20.2158 78.7964 25.9626 81.1857C28.6309 75.1842 34.3943 70.6495 40.7089 69.0227C42.8389 68.4738 45.1728 68.3122 47.194 67.4292C52.0863 65.2929 54.8232 60.9984 54.6518 55.6401C54.602 54.0868 54.429 52.5521 54.4681 50.9941C54.6535 43.594 60.805 35.9572 67.4849 33.0597C64.1422 26.0725 60.9422 20.1919 63.3926 12.0552C50.4488 14.5747 45.1204 15.1116 32.3215 12.2036L24.1664 10.2687C17.5642 8.73104 9.45708 7.17631 3.29741 11.0005ZM7.94165 58.8763C12.2403 64.9613 20.5089 68.0678 27.7607 66.6948C46.7802 63.0938 51.1474 38.1189 36.6984 28.4202C35.9618 28.199 35.3992 27.6847 34.7428 27.3108C29.4273 24.2827 21.8645 24.7415 16.5045 27.3111C6.02137 32.3365 1.54418 45.9747 6.56798 56.3537C6.97997 57.2047 7.6163 57.9964 7.94165 58.8763ZM94.8031 29.1844C91.4337 35.8382 88.7017 40.8573 82.1896 45.3398C82.194 46.6636 82.343 49.7934 82.1279 50.9091C81.7513 52.8619 78.7494 53.2173 78.7893 50.1337C75.3006 49.5705 70.9764 50.7346 70.3714 54.7366C69.7397 58.9145 73.2615 61.8533 71.7529 66.8608C70.3965 71.3631 66.4086 73.2864 63.3926 76.5179C63.6929 76.5248 64.0086 76.5523 64.3069 76.5179C68.5642 74.7807 80.7821 76.4308 85.2031 77.3679C88.5945 78.0867 92.9058 79.6428 96.3827 79.1057C96.6422 74.9811 95.937 68.8861 95.813 64.5625L94.8513 31.1061C94.8353 30.5104 94.9359 29.7542 94.8031 29.1844ZM69.8174 30.0434C69.7981 29.1814 69.4549 28.2391 69.3089 27.3815C68.5929 23.1714 70.3794 24.4408 73.0361 25.2476C86.6838 29.392 96.246 16.5671 87.4433 6.04572C87.0546 5.58117 86.651 5.08336 86.1662 4.71722C79.4956 1.29824 70.8323 4.30104 67.4538 10.8878C64.6833 16.2889 66.2562 25.2701 69.8174 30.0434ZM35.5631 83.8017C40.9618 83.4867 44.3598 84.1132 49.8579 81.5389C54.0675 79.568 56.0039 78.5754 60.5979 77.0985C64.4403 72.837 71.245 68.9677 70.1662 62.9154C69.7091 60.3527 68.4411 58.0756 68.5124 55.3894C68.6637 49.7194 73.921 48.0325 78.7893 48.1719V45.6817C76.6111 44.2353 74.7617 42.5156 72.9651 40.6305C69.2695 42.172 65.7973 44.1127 64.1981 48.0045C62.8717 51.2321 63.9248 54.5051 63.7361 57.851C63.3254 65.1348 57.5967 72.426 50.943 75.259C45.2447 77.6851 38.062 76.7439 35.5631 83.8017Z" fill="#704FE6"/>
<path d="M86.1645 4.71713C86.7301 4.62917 87.7337 5.43347 88.1714 5.75151C92.3934 8.82111 95.2119 13.9955 94.5127 19.2823C93.6406 25.8786 87.6659 36.5753 82.7863 40.6928C82.0392 41.3231 81.2089 41.8489 80.4706 42.4894C77.1788 40.8302 71.2304 33.7902 69.8158 30.0433C69.7965 29.1813 69.4532 28.239 69.3072 27.3814C68.5912 23.1713 70.3777 24.4407 73.0345 25.2475C86.6822 29.3919 96.2444 16.567 87.4416 6.04563C87.0529 5.58108 86.6494 5.08327 86.1645 4.71713Z" fill="#FED161"/>
<path d="M79.4573 13.1314C82.6314 13.0113 82.8697 16.5122 80.4705 17.1678C77.6854 17.5906 76.8352 13.9423 79.4573 13.1314Z" fill="#FED161"/>
<path d="M80.6854 9.77002C87.1529 10.5342 86.619 19.7081 80.6353 20.3552C77.478 20.6968 74.8504 18.064 74.5196 15.0532C74.5149 13.8438 74.8788 11.2566 76.5215 11.1422C77.5623 11.6579 75.0113 16.2721 78.897 17.5654C80.6518 18.1495 82.494 17.2812 83.0422 15.4873C84.0058 12.3336 77.6962 11.2082 80.6854 9.77002Z" fill="#704FE6"/>
<path d="M67.4833 33.0598C69.3298 35.9639 71.0615 37.9618 72.9634 40.6306C69.2678 42.1721 65.7957 44.1128 64.1965 48.0046C62.87 51.2322 63.9232 54.5052 63.7345 57.8511C63.3237 65.1349 57.5951 72.4261 50.9414 75.2591C45.243 77.6852 38.0604 76.744 35.5615 83.8018C32.289 83.0825 29.1265 82.3156 25.9609 81.1858C28.6293 75.1843 34.3926 70.6496 40.7072 69.0228C42.8372 68.4739 45.1711 68.3123 47.1923 67.4294C52.0846 65.293 54.8215 60.9985 54.6502 55.6402C54.6003 54.0869 54.4273 52.5522 54.4664 50.9942C54.6518 43.5941 60.8034 35.9573 67.4833 33.0598Z" fill="#FED161"/>
<path d="M82.1894 57.1891C84.7392 57.0847 83.9773 60.1732 84.4318 61.3794C85.1009 63.154 87.0621 64.1763 87.5346 66.0752C87.9737 67.8389 86.8817 69.1165 85.2252 69.5222C79.7263 69.8053 77.5921 58.0987 82.1894 57.1891Z" fill="#FED161"/>
<path d="M7.94165 58.8762C7.61631 57.9963 6.97997 57.2047 6.56799 56.3536C1.54419 45.9747 6.02138 32.3364 16.5045 27.311C21.8645 24.7414 29.4273 24.2827 34.7428 27.3108C35.3992 27.6846 35.9618 28.1989 36.6984 28.4202C51.1474 38.1188 46.7802 63.0937 27.7607 66.6947C20.5089 68.0677 12.2403 64.9613 7.94165 58.8762ZM7.48959 44.8433C7.38821 45.6553 7.24992 46.5093 7.48959 47.3106C7.64083 55.7121 15.2273 64.9365 23.9841 64.0462C24.489 64.2213 24.6414 64.2631 25.1309 64.0462C25.7879 64.1201 26.4802 63.9654 27.1257 63.8535C34.9334 62.4995 41.5529 55.8682 42.2392 47.8725C43.0232 38.7348 36.7524 29.5442 27.2028 28.7935C17.1185 28.0007 8.25846 34.7232 7.48959 44.8433Z" fill="#FED161"/>
<path d="M12.3275 34.8454C13.8481 34.7742 15.9952 36.9892 14.0178 38.0022C12.447 38.2215 10.3647 35.7066 12.3275 34.8454Z" fill="#704FE6"/>
<path d="M38.3702 44.8434C41.7901 44.2032 42.6521 46.6216 40.3656 47.3107C39.6253 47.1862 38.6118 47.3096 37.9532 46.9633C36.8231 46.3692 37.2705 45.0636 38.3702 44.8434Z" fill="#704FE6"/>
<path d="M7.48825 44.8432C9.10202 44.6838 13.1971 44.7322 10.894 47.3106C10.2034 47.3906 8.18605 47.382 7.48825 47.3106C7.24858 46.5093 7.38687 45.6552 7.48825 44.8432Z" fill="#704FE6"/>
<path d="M36.186 33.8711C37.1653 33.7087 37.4477 34.2301 37.7174 35.0877C37.3802 35.95 36.1758 37.1235 35.3309 37.5105C32.3948 37.748 34.3926 34.3997 36.186 33.8711Z" fill="#704FE6"/>
<path d="M24.539 59.9429C26.352 60.4019 26.239 62.9253 25.1302 64.0463C24.6407 64.2632 24.4883 64.2214 23.9834 64.0463C22.8382 63.0177 22.5181 60.5413 24.539 59.9429Z" fill="#704FE6"/>
<path d="M24.5382 29.6246C26.5068 29.571 26.5288 33.0043 25.1294 33.8713C22.4815 33.9752 22.9275 30.2508 24.5382 29.6246Z" fill="#704FE6"/>
<path d="M34.1164 54.4314C35.6227 54.4597 38.2687 57.1566 36.1863 58.3254C34.8045 58.4359 33.4759 56.9232 33.0957 55.7159C33.2844 55.0557 33.4566 54.7503 34.1164 54.4314Z" fill="#704FE6"/>
<path d="M31.743 34.8455L31.9146 34.8685L32.0066 34.9917C32.0656 35.7479 28.4521 47.8856 28.0733 49.119C27.1061 49.8793 25.1295 50.8735 23.9656 51.5473L19.3066 54.2441C18.173 54.8989 17.0113 55.6251 15.7887 56.1007L15.6289 56.1326L15.5449 56.0487C15.6719 54.5053 17.6298 50.0698 18.2854 48.3658C19.4278 45.3957 19.1083 44.5488 21.6838 42.5199L24.032 40.6614C25.84 39.2309 29.8868 35.6138 31.743 34.8455ZM21.5904 45.6818C20.6711 47.3539 19.7119 50.1553 19.0598 51.9898C19.9334 51.5662 20.7686 51.0387 21.5904 50.5231C22.8827 49.7589 24.1413 48.9461 25.424 48.172C24.0182 47.52 22.8959 46.4859 21.5904 45.6818Z" fill="#704FE6"/>
<path d="M28.8354 39.4404L28.8624 39.4819C28.1856 41.9083 27.3018 44.3372 26.6239 46.8218C25.9197 46.3405 25.2305 45.8377 24.5382 45.3397C23.9993 44.9661 23.4734 44.5763 22.9473 44.1854C24.2418 42.8896 27.3902 40.3539 28.8354 39.4404Z" fill="#FED161"/>
</g>
<defs>
<clipPath id="clip0_123_1833">
<rect width="100" height="87" fill="white"/>
</clipPath>
</defs>
</svg>
