<svg xmlns="http://www.w3.org/2000/svg" viewBox="0 0 500 500"><g id="freepik--Device--inject-99"><path d="M289.83,384.28l-122.56-.07a26.7,26.7,0,0,1-26.68-26.7l.06-307.24a26.7,26.7,0,0,1,26.71-26.69l122.56.07a26.7,26.7,0,0,1,26.68,26.7l-.06,307.24A26.7,26.7,0,0,1,289.83,384.28Z" style="fill:#455a64"></path><path d="M289.51,34.61l-23.76,0a5.91,5.91,0,0,0-5.77,6v4.31a5.9,5.9,0,0,1-5.77,6l-46.31,0a5.9,5.9,0,0,1-5.77-6V40.59a5.91,5.91,0,0,0-5.77-6H167.21A18.69,18.69,0,0,0,148.5,53.23l-.06,299.89a18.7,18.7,0,0,0,18.68,18.7l122.31.07a18.69,18.69,0,0,0,18.71-18.69l.06-299.89A18.69,18.69,0,0,0,289.51,34.61Z" style="fill:#fff"></path><path d="M165.14,71.15a.48.48,0,0,1-.33-.13l-4.66-4.08a.46.46,0,0,1-.16-.38.48.48,0,0,1,.17-.37l4.66-3.87a.49.49,0,0,1,.63.75l-4.22,3.51,4.23,3.71a.49.49,0,0,1,0,.69A.48.48,0,0,1,165.14,71.15Z" style="fill:#263238"></path><path d="M207.71,69.8h-2.92l-.56,1.35h-1.49l2.8-6.28H207l2.81,6.28h-1.53Zm-.46-1.1-1-2.41-1,2.41Z" style="fill:#263238"></path><path d="M215.22,64.49v6.66h-1.34v-.56a1.86,1.86,0,0,1-1.51.63,2.49,2.49,0,0,1,0-5,1.88,1.88,0,0,1,1.45.58V64.49Zm-1.38,4.24a1.23,1.23,0,1,0-1.23,1.34A1.22,1.22,0,0,0,213.84,68.73Z" style="fill:#263238"></path><path d="M221.42,64.49v6.66h-1.33v-.56a1.86,1.86,0,0,1-1.51.63,2.49,2.49,0,0,1,0-5,1.88,1.88,0,0,1,1.45.58V64.49Zm-1.37,4.24a1.23,1.23,0,1,0-1.23,1.34A1.22,1.22,0,0,0,220.05,68.73Z" style="fill:#263238"></path><path d="M226.81,66v1.66h2.9v1.17h-2.9v2.29h-1.46V64.87h4.75V66Z" style="fill:#263238"></path><path d="M233.9,66.25v1.29l-.32,0a1.19,1.19,0,0,0-1.28,1.35v2.28h-1.4V66.32h1.34V67A1.93,1.93,0,0,1,233.9,66.25Z" style="fill:#263238"></path><path d="M234.56,64.87a.81.81,0,0,1,.87-.79.79.79,0,0,1,.87.76.87.87,0,0,1-1.74,0Zm.17,1.45h1.4v4.83h-1.4Z" style="fill:#263238"></path><path d="M242.13,69.13h-3.65a1.29,1.29,0,0,0,1.38,1,1.65,1.65,0,0,0,1.21-.47l.75.81a2.82,2.82,0,0,1-4.75-1.71,2.46,2.46,0,0,1,2.58-2.48,2.39,2.39,0,0,1,2.51,2.5C242.16,68.86,242.14,69,242.13,69.13Zm-3.67-.82h2.38a1.21,1.21,0,0,0-2.38,0Z" style="fill:#263238"></path><path d="M248,68.38v2.77h-1.4V68.6c0-.78-.36-1.14-1-1.14s-1.16.41-1.16,1.3v2.39h-1.4V66.32h1.34v.56a2.12,2.12,0,0,1,1.6-.63A1.89,1.89,0,0,1,248,68.38Z" style="fill:#263238"></path><path d="M254.26,64.49v6.66h-1.33v-.56a1.86,1.86,0,0,1-1.51.63,2.49,2.49,0,0,1,0-5,1.86,1.86,0,0,1,1.44.58V64.49Zm-1.37,4.24a1.24,1.24,0,1,0-1.23,1.34A1.22,1.22,0,0,0,252.89,68.73Z" style="fill:#263238"></path><path d="M255.09,70.7l.47-1a3.26,3.26,0,0,0,1.67.47c.65,0,.89-.17.89-.44,0-.79-2.91,0-2.91-1.91,0-.92.82-1.56,2.23-1.56a4,4,0,0,1,1.86.42l-.47,1a2.84,2.84,0,0,0-1.39-.35c-.63,0-.9.19-.9.44,0,.83,2.92,0,2.92,1.93,0,.9-.84,1.54-2.28,1.54A4.2,4.2,0,0,1,255.09,70.7Z" style="fill:#263238"></path><rect x="255.13" y="143.75" width="43.22" height="20.45" rx="7.41" style="fill:#FF725E"></rect><path d="M270.09,154.26a1.72,1.72,0,0,0,1-1.6,1.62,1.62,0,1,0-3.24,0,1.74,1.74,0,0,0,1,1.61,2.77,2.77,0,0,0-2.06,2.09h5.25A2.84,2.84,0,0,0,270.09,154.26Z" style="fill:#fff"></path><path d="M278.8,155H277l-.34.83h-.92l1.73-3.88h.88l1.74,3.88h-.95Zm-.28-.68-.62-1.49-.61,1.49Z" style="fill:#fff"></path><path d="M283.44,151.68v4.11h-.83v-.35a1.13,1.13,0,0,1-.92.39,1.54,1.54,0,0,1,0-3.07,1.17,1.17,0,0,1,.89.36v-1.44Zm-.85,2.62a.76.76,0,1,0-.76.82A.76.76,0,0,0,282.59,154.3Z" style="fill:#fff"></path><path d="M287.28,151.68v4.11h-.83v-.35a1.15,1.15,0,0,1-.93.39,1.54,1.54,0,0,1,0-3.07,1.14,1.14,0,0,1,.89.36v-1.44Zm-.85,2.62a.76.76,0,1,0-.76.82A.76.76,0,0,0,286.43,154.3Z" style="fill:#fff"></path><path d="M265.44,154.36a.34.34,0,0,1-.35-.34v-1.83a.35.35,0,1,1,.69,0V154A.34.34,0,0,1,265.44,154.36Z" style="fill:#fff"></path><path d="M266.35,153.45h-1.83a.35.35,0,0,1-.34-.35.34.34,0,0,1,.34-.34h1.83a.34.34,0,0,1,.34.34A.35.35,0,0,1,266.35,153.45Z" style="fill:#fff"></path><path d="M307.47,81.1c0,.14-35.77.26-79.88.26s-79.88-.12-79.88-.26,35.76-.26,79.88-.26S307.47,81,307.47,81.1Z" style="fill:#e0e0e0"></path><path d="M307.47,122.89c0,.15-35.77.26-79.88.26s-79.88-.11-79.88-.26,35.76-.26,79.88-.26S307.47,122.75,307.47,122.89Z" style="fill:#e0e0e0"></path><path d="M308.46,179.64c0,.14-35.77.26-79.88.26s-79.88-.12-79.88-.26,35.76-.27,79.88-.27S308.46,179.49,308.46,179.64Z" style="fill:#e0e0e0"></path><path d="M308.48,234.48c0,.14-35.77.26-79.88.26s-79.88-.12-79.88-.26,35.75-.26,79.88-.26S308.48,234.34,308.48,234.48Z" style="fill:#e0e0e0"></path><path d="M308.48,289.94c0,.14-35.77.26-79.88.26s-79.88-.12-79.88-.26,35.75-.26,79.88-.26S308.48,289.8,308.48,289.94Z" style="fill:#e0e0e0"></path><rect x="162.81" y="93.23" width="135.17" height="19.57" rx="7.09" style="fill:#ebebeb"></rect><path d="M285.66,106.18a4.64,4.64,0,1,1,4.64-4.64A4.64,4.64,0,0,1,285.66,106.18Zm0-8.78a4.14,4.14,0,1,0,4.14,4.14A4.14,4.14,0,0,0,285.66,97.4Z" style="fill:#263238"></path><path d="M291.62,106.94a.24.24,0,0,1-.14,0l-2.83-2.09a.25.25,0,1,1,.3-.4l2.82,2.09a.25.25,0,0,1,.06.35A.28.28,0,0,1,291.62,106.94Z" style="fill:#263238"></path><path d="M244.69,151.73c0,.15-8.45.26-18.87.26s-18.87-.11-18.87-.26,8.45-.26,18.87-.26S244.69,151.59,244.69,151.73Z" style="fill:#263238"></path><path d="M229.77,158.09c0,.15-5.1.26-11.41.26s-11.41-.11-11.41-.26,5.11-.26,11.41-.26S229.77,158,229.77,158.09Z" style="fill:#e0e0e0"></path><rect x="255.13" y="198.92" width="43.22" height="20.45" rx="7.41" style="fill:#FF725E"></rect><path d="M270.09,209.43a1.73,1.73,0,0,0,1-1.6,1.62,1.62,0,1,0-3.24,0,1.75,1.75,0,0,0,1,1.62,2.77,2.77,0,0,0-2.06,2.09h5.25A2.84,2.84,0,0,0,270.09,209.43Z" style="fill:#fff"></path><path d="M278.8,210.12H277l-.34.83h-.92l1.73-3.87h.88l1.74,3.87h-.95Zm-.28-.68L277.9,208l-.61,1.48Z" style="fill:#fff"></path><path d="M283.44,206.84V211h-.83v-.34a1.13,1.13,0,0,1-.92.39,1.54,1.54,0,0,1,0-3.07,1.13,1.13,0,0,1,.89.36v-1.45Zm-.85,2.62a.76.76,0,1,0-.76.83A.75.75,0,0,0,282.59,209.46Z" style="fill:#fff"></path><path d="M287.28,206.84V211h-.83v-.34a1.15,1.15,0,0,1-.93.39,1.54,1.54,0,0,1,0-3.07,1.11,1.11,0,0,1,.89.36v-1.45Zm-.85,2.62a.76.76,0,1,0-.76.83A.75.75,0,0,0,286.43,209.46Z" style="fill:#fff"></path><path d="M265.44,209.53a.35.35,0,0,1-.35-.35v-1.83a.35.35,0,0,1,.69,0v1.83A.35.35,0,0,1,265.44,209.53Z" style="fill:#fff"></path><path d="M266.35,208.61h-1.83a.34.34,0,0,1-.34-.34.35.35,0,0,1,.34-.35h1.83a.35.35,0,0,1,.34.35A.34.34,0,0,1,266.35,208.61Z" style="fill:#fff"></path><path d="M244.69,206.9c0,.14-8.45.26-18.87.26S207,207,207,206.9s8.45-.26,18.87-.26S244.69,206.75,244.69,206.9Z" style="fill:#263238"></path><path d="M229.77,213.26c0,.14-5.1.26-11.41.26S207,213.4,207,213.26s5.11-.26,11.41-.26S229.77,213.12,229.77,213.26Z" style="fill:#e0e0e0"></path><rect x="255.13" y="254.08" width="43.22" height="20.45" rx="7.41" style="fill:#FF725E"></rect><path d="M270.09,264.59a1.72,1.72,0,0,0,1-1.6,1.62,1.62,0,1,0-3.24,0,1.74,1.74,0,0,0,1,1.61,2.77,2.77,0,0,0-2.06,2.09h5.25A2.84,2.84,0,0,0,270.09,264.59Z" style="fill:#fff"></path><path d="M278.8,265.29H277l-.34.83h-.92l1.73-3.88h.88l1.74,3.88h-.95Zm-.28-.68-.62-1.49-.61,1.49Z" style="fill:#fff"></path><path d="M283.44,262v4.11h-.83v-.35a1.1,1.1,0,0,1-.92.39,1.54,1.54,0,0,1,0-3.07,1.17,1.17,0,0,1,.89.36V262Zm-.85,2.62a.76.76,0,1,0-.76.82A.76.76,0,0,0,282.59,264.63Z" style="fill:#fff"></path><path d="M287.28,262v4.11h-.83v-.35a1.12,1.12,0,0,1-.93.39,1.54,1.54,0,0,1,0-3.07,1.14,1.14,0,0,1,.89.36V262Zm-.85,2.62a.76.76,0,1,0-.76.82A.76.76,0,0,0,286.43,264.63Z" style="fill:#fff"></path><path d="M265.44,264.69a.34.34,0,0,1-.35-.34v-1.83a.35.35,0,1,1,.69,0v1.83A.34.34,0,0,1,265.44,264.69Z" style="fill:#fff"></path><path d="M266.35,263.78h-1.83a.35.35,0,0,1-.34-.35.34.34,0,0,1,.34-.34h1.83a.34.34,0,0,1,.34.34A.35.35,0,0,1,266.35,263.78Z" style="fill:#fff"></path><path d="M244.69,262.06c0,.15-8.45.26-18.87.26s-18.87-.11-18.87-.26,8.45-.26,18.87-.26S244.69,261.92,244.69,262.06Z" style="fill:#263238"></path><path d="M229.77,268.42c0,.15-5.1.26-11.41.26s-11.41-.11-11.41-.26,5.11-.26,11.41-.26S229.77,268.28,229.77,268.42Z" style="fill:#e0e0e0"></path><rect x="255.13" y="309.25" width="43.22" height="20.45" rx="7.41" style="fill:#FF725E"></rect><path d="M270.09,319.76a1.73,1.73,0,0,0,1-1.6,1.62,1.62,0,1,0-3.24,0,1.75,1.75,0,0,0,1,1.62,2.77,2.77,0,0,0-2.06,2.09h5.25A2.84,2.84,0,0,0,270.09,319.76Z" style="fill:#fff"></path><path d="M278.8,320.45H277l-.34.83h-.92l1.73-3.87h.88l1.74,3.87h-.95Zm-.28-.68-.62-1.48-.61,1.48Z" style="fill:#fff"></path><path d="M283.44,317.17v4.11h-.83v-.34a1.13,1.13,0,0,1-.92.39,1.54,1.54,0,0,1,0-3.07,1.13,1.13,0,0,1,.89.36v-1.45Zm-.85,2.62a.76.76,0,1,0-.76.83A.75.75,0,0,0,282.59,319.79Z" style="fill:#fff"></path><path d="M287.28,317.17v4.11h-.83v-.34a1.15,1.15,0,0,1-.93.39,1.54,1.54,0,0,1,0-3.07,1.11,1.11,0,0,1,.89.36v-1.45Zm-.85,2.62a.76.76,0,1,0-.76.83A.75.75,0,0,0,286.43,319.79Z" style="fill:#fff"></path><path d="M265.44,319.85a.34.34,0,0,1-.35-.34v-1.83a.35.35,0,0,1,.69,0v1.83A.34.34,0,0,1,265.44,319.85Z" style="fill:#fff"></path><path d="M266.35,318.94h-1.83a.34.34,0,0,1-.34-.34.35.35,0,0,1,.34-.35h1.83a.35.35,0,0,1,.34.35A.34.34,0,0,1,266.35,318.94Z" style="fill:#fff"></path><path d="M244.69,317.23c0,.14-8.45.26-18.87.26s-18.87-.12-18.87-.26,8.45-.26,18.87-.26S244.69,317.08,244.69,317.23Z" style="fill:#263238"></path><path d="M229.77,323.59c0,.14-5.1.26-11.41.26s-11.41-.12-11.41-.26,5.11-.26,11.41-.26S229.77,323.45,229.77,323.59Z" style="fill:#e0e0e0"></path><circle cx="220.82" cy="353.06" r="2.61" style="fill:#ebebeb"></circle><circle cx="230.48" cy="353.06" r="2.61" style="fill:#ebebeb"></circle><circle cx="240.14" cy="353.06" r="2.61" style="fill:#ebebeb"></circle><path d="M288.47,62.61a5.15,5.15,0,0,1,1.16-.5l.23-1.14,1.93,0,.27,1.13a4.52,4.52,0,0,1,1.17.46l1-.64,1.39,1.34-.6,1a5.15,5.15,0,0,1,.5,1.16l1.14.23,0,1.93-1.13.27a4.52,4.52,0,0,1-.46,1.17l.64,1-1.34,1.39-1-.6a5.28,5.28,0,0,1-1.15.5L292,72.38l-1.93,0-.27-1.13a4.52,4.52,0,0,1-1.17-.46l-1,.64-1.39-1.34.6-1a5.15,5.15,0,0,1-.5-1.16l-1.14-.23,0-1.93,1.13-.27a4.52,4.52,0,0,1,.46-1.17l-.64-1L287.48,62l1,.6Zm1,2.57a2.07,2.07,0,1,0,2.92-.05A2.07,2.07,0,0,0,289.5,65.18Z" style="fill:#263238"></path><ellipse cx="178.54" cy="152.86" rx="21.32" ry="21.27" style="fill:#f5f5f5"></ellipse><path d="M168.58,158.18l5.58-.47L187.79,160l1.61,10.26-.23,1.19a21.42,21.42,0,0,1-20.2.47l-.39-13.74" style="fill:#FF725E"></path><path d="M184.88,159.84A7.29,7.29,0,0,1,192,163a39.33,39.33,0,0,1,2.53,4c-2.41,2.26-4.08,4.2-7.1,5.32Z" style="fill:#FF725E"></path><path d="M168.58,158.18s-3.69.45-5.12,3.6-1.76,4.13-1.76,4.13c1.91,2.29,4.33,4.84,7.3,5.86,0,0,.69-7.75.78-10C169.88,159.32,170,158.11,168.58,158.18Z" style="fill:#FF725E"></path><path d="M172,138a10.09,10.09,0,0,1,7.81-3.88,10.69,10.69,0,0,1,3.79.69,5.55,5.55,0,0,1,3.19,2.1,9.35,9.35,0,0,1,1.84,4.28,26,26,0,0,1,.23,4.82,8.75,8.75,0,0,1-1.51,4.53l-4.09.71a26,26,0,0,1-6.77-.36,8.69,8.69,0,0,1-5.52-3.63C169.29,144.61,170,140.46,172,138Z" style="fill:#263238"></path><path d="M186.07,152.87a.68.68,0,0,0,.25.22,2,2,0,0,0,.84.28,2.24,2.24,0,0,0,1.31-.26,2.11,2.11,0,0,0,1-1.3,2.06,2.06,0,0,0-.19-1.61,2.1,2.1,0,0,0-1-.88,2,2,0,0,0-.87-.18.72.72,0,0,0-.32.06,3.18,3.18,0,0,1,1.12.27,2.17,2.17,0,0,1,.87.84,2,2,0,0,1-.71,2.61,2.1,2.1,0,0,1-1.17.28A3,3,0,0,1,186.07,152.87Z" style="fill:#e0e0e0"></path><path d="M168,149.9a3,3,0,0,1,1.39-2.3,2.2,2.2,0,0,1,2.58.23l.65.76a2.65,2.65,0,0,1,1.52,2.66,2.89,2.89,0,0,1-2,2.37,3.22,3.22,0,0,1-3.06-.74A3.58,3.58,0,0,1,168,149.9Z" style="fill:#263238"></path><path d="M168.8,152.66a1.41,1.41,0,0,1-.22-.81,3.67,3.67,0,0,1,.94-1.84,5.37,5.37,0,0,1,1.64-1.31c.48-.26.81-.36.8-.39a2.32,2.32,0,0,0-.86.26,4.93,4.93,0,0,0-1.74,1.31,5.22,5.22,0,0,0-.66,1,2.35,2.35,0,0,0-.26,1,1.17,1.17,0,0,0,.18.65C168.71,152.62,168.79,152.67,168.8,152.66Z" style="fill:#455a64"></path><path d="M170.78,153.87a9,9,0,0,1,.19-2.7,9.2,9.2,0,0,1,1.16-2.45,2.56,2.56,0,0,0-.54.61,5.67,5.67,0,0,0-1,3.74A2.31,2.31,0,0,0,170.78,153.87Z" style="fill:#455a64"></path><path d="M183.18,159.11l0-3.8s3.34-.36,4.26-4.64a45.33,45.33,0,0,0,.52-8.53c0-2.59-2.23-6.12-5.44-6.14l-1.43-.16L175.61,138a1.52,1.52,0,0,0-1.45,1.46L174,157.72l9.12,12.79.06-11.4Z" style="fill:#a26760"></path><path d="M181,149.67a.92.92,0,0,1,1.44-.62,1.24,1.24,0,0,1,.48,1.17h0a1.18,1.18,0,0,1-.81.47H182a1,1,0,0,1-.68-.27A.89.89,0,0,1,181,149.67Z" style="fill:#7b4b45"></path><path d="M186.93,145.1a.56.56,0,0,1-.57.53.53.53,0,0,1-.54-.53.55.55,0,0,1,.56-.53A.54.54,0,0,1,186.93,145.1Z" style="fill:#263238"></path><path d="M186.88,143.74c-.07.07-.48-.26-1.07-.29s-1.05.24-1.11.17,0-.16.24-.29a1.46,1.46,0,0,1,.9-.22,1.42,1.42,0,0,1,.84.32C186.86,143.58,186.91,143.71,186.88,143.74Z" style="fill:#263238"></path><path d="M183.13,148.25a4.12,4.12,0,0,1,1-.12c.15,0,.3,0,.33-.13a.76.76,0,0,0-.08-.46l-.38-1.18a19.3,19.3,0,0,1-.85-3.08,19.44,19.44,0,0,1,1.09,3c.13.41.25.81.37,1.18a.87.87,0,0,1,0,.6.38.38,0,0,1-.27.21.8.8,0,0,1-.26,0A3.62,3.62,0,0,1,183.13,148.25Z" style="fill:#263238"></path><path d="M183.16,155.31a11,11,0,0,1-5.7-1.85s1.37,3.07,5.72,2.9Z" style="fill:#7b4b45"></path><path d="M181.35,148.57c.1,0,.07.64.6,1.13s1.22.46,1.22.55-.16.11-.45.11a1.66,1.66,0,0,1-1-.42,1.43,1.43,0,0,1-.45-.95C181.23,148.72,181.31,148.56,181.35,148.57Z" style="fill:#263238"></path><path d="M186.76,141.5c-.11.14-.56,0-1.1,0s-1,.13-1.09,0,0-.21.21-.34a1.67,1.67,0,0,1,1.76,0C186.74,141.3,186.81,141.43,186.76,141.5Z" style="fill:#263238"></path><path d="M180.09,145.06a.57.57,0,0,0,.53.57.54.54,0,0,0,.58-.49.55.55,0,0,0-.53-.57A.54.54,0,0,0,180.09,145.06Z" style="fill:#263238"></path><path d="M178.71,143.53c.07.08.49-.23,1.09-.22s1,.32,1.09.25,0-.16-.22-.31a1.47,1.47,0,0,0-.87-.28,1.45,1.45,0,0,0-.87.26C178.74,143.37,178.68,143.5,178.71,143.53Z" style="fill:#263238"></path><path d="M178.37,142.25c.11.14.57,0,1.13,0s1,.11,1.13,0,0-.2-.23-.34a1.65,1.65,0,0,0-.91-.23,1.73,1.73,0,0,0-.91.25C178.38,142.05,178.32,142.19,178.37,142.25Z" style="fill:#263238"></path><path d="M174.9,146.71c0-.32-.31-1.09-.62-1.16a1.87,1.87,0,0,0-2.51,1.95,2.21,2.21,0,0,0,2.82,2.43C174.6,149.87,174.85,147.82,174.9,146.71Z" style="fill:#a26760"></path><path d="M173.85,148.81s-.06,0-.15.07a.51.51,0,0,1-.38,0,1.25,1.25,0,0,1-.52-1.17A1.71,1.71,0,0,1,173,147a.57.57,0,0,1,.41-.36.25.25,0,0,1,.29.15.53.53,0,0,1,0,.15s.07,0,.05-.17a.39.39,0,0,0-.1-.19.43.43,0,0,0-.28-.09.73.73,0,0,0-.57.42,1.77,1.77,0,0,0-.22.81,1.34,1.34,0,0,0,.67,1.32.58.58,0,0,0,.47-.05C173.84,148.88,173.86,148.82,173.85,148.81Z" style="fill:#7b4b45"></path><path d="M174.16,145.56l.74.77c3.23-3.08,9.55-10.81,9.19-10.35a9.38,9.38,0,0,0-4.61-.5c-2.4.41-7,1.61-6.89,4.44A14.71,14.71,0,0,0,174.16,145.56Z" style="fill:#263238"></path><path d="M174.22,152.87s-.06.11-.24.22a2,2,0,0,1-.84.28,2.24,2.24,0,0,1-1.31-.26,2.18,2.18,0,0,1-.79-2.91,2.12,2.12,0,0,1,1-.88,2,2,0,0,1,.87-.18.72.72,0,0,1,.32.06,3.18,3.18,0,0,0-1.12.27,2.17,2.17,0,0,0-.87.84,2,2,0,0,0,.71,2.61,2.1,2.1,0,0,0,1.17.28A2.84,2.84,0,0,0,174.22,152.87Z" style="fill:#e0e0e0"></path><path d="M169.88,144.91s0-.06,0-.17a4.25,4.25,0,0,1,.2-.47,4.45,4.45,0,0,1,1.23-1.38,8.18,8.18,0,0,1,2.48-1.19,33.43,33.43,0,0,0,3.19-1,14.32,14.32,0,0,0,2.9-1.63,14.86,14.86,0,0,0,2.06-1.79c.53-.56.92-1.06,1.19-1.4l.29-.41.11-.14s0,.06-.08.16-.15.24-.28.42a12.67,12.67,0,0,1-1.15,1.44,14.16,14.16,0,0,1-2.05,1.83,14.46,14.46,0,0,1-2.94,1.66,32.58,32.58,0,0,1-3.2,1,8,8,0,0,0-2.45,1.14,4.5,4.5,0,0,0-1.25,1.32A6.73,6.73,0,0,0,169.88,144.91Z" style="fill:#455a64"></path><path d="M170.73,145.37a1.49,1.49,0,0,1,.12-.64,3,3,0,0,1,1.1-1.39,6.91,6.91,0,0,1,2.46-1,14.26,14.26,0,0,0,3.05-1,13.17,13.17,0,0,0,2.73-1.68,14.09,14.09,0,0,0,1.86-1.83,12.65,12.65,0,0,0,1-1.43c.1-.16.19-.3.25-.41a.68.68,0,0,1,.1-.14.84.84,0,0,1-.07.16l-.23.42a11.35,11.35,0,0,1-1,1.47,13.16,13.16,0,0,1-1.87,1.87,12.63,12.63,0,0,1-2.74,1.7,14.4,14.4,0,0,1-3.09,1,6.72,6.72,0,0,0-2.42.91,3,3,0,0,0-1.12,1.32A4.33,4.33,0,0,0,170.73,145.37Z" style="fill:#455a64"></path><path d="M169,172.13a22.5,22.5,0,0,1-.1-2.92,22.27,22.27,0,0,1,.1-2.91,42.54,42.54,0,0,1,0,5.83Z" style="fill:#263238"></path><path d="M189.18,171.68a6,6,0,0,1,0-1,11.63,11.63,0,0,0-.08-2.44,12.58,12.58,0,0,0-.69-2.34,5.27,5.27,0,0,1-.34-1,4.79,4.79,0,0,1,.47.91,8.41,8.41,0,0,1,.78,4.84A3.91,3.91,0,0,1,189.18,171.68Z" style="fill:#263238"></path><path d="M199.89,152.94a1.41,1.41,0,0,1,0-.35c0-.25,0-.59-.07-1,0-.22,0-.47-.05-.74s-.09-.57-.14-.89a16.1,16.1,0,0,0-.46-2.2,20.54,20.54,0,0,0-2.37-5.64,21.17,21.17,0,0,0-25.41-9A19,19,0,0,0,166,136a22.83,22.83,0,0,0-2.4,2,24.27,24.27,0,0,0-2.06,2.45,20.45,20.45,0,0,0-3,5.81,23.15,23.15,0,0,0-1.09,6.65,22.82,22.82,0,0,0,1.09,6.66,20.38,20.38,0,0,0,3,5.82,23.09,23.09,0,0,0,2.06,2.44,24.21,24.21,0,0,0,2.4,2,20.91,20.91,0,0,0,2.58,1.66,23.79,23.79,0,0,0,2.75,1.22,21.34,21.34,0,0,0,11.1.93,21,21,0,0,0,8.9-3.94,21.21,21.21,0,0,0,5.41-6,20.67,20.67,0,0,0,2.37-5.64,16.42,16.42,0,0,0,.46-2.2,11.69,11.69,0,0,0,.19-1.63c0-.43.06-.76.07-1a1.26,1.26,0,0,1,0-.34,1.72,1.72,0,0,1,0,.34q0,.39,0,1a9.79,9.79,0,0,1-.14,1.65,14.86,14.86,0,0,1-.41,2.23,20.3,20.3,0,0,1-2.32,5.73,21.59,21.59,0,0,1-5.43,6.15,21.37,21.37,0,0,1-9,4.06,21.6,21.6,0,0,1-11.34-.9,24.08,24.08,0,0,1-2.82-1.23,23.32,23.32,0,0,1-2.65-1.7,22.85,22.85,0,0,1-2.45-2.08,24.41,24.41,0,0,1-2.13-2.5,21.17,21.17,0,0,1-3.09-6,22.94,22.94,0,0,1-1.12-6.83,23.18,23.18,0,0,1,1.12-6.81,20.68,20.68,0,0,1,3.1-6,23.24,23.24,0,0,1,2.12-2.51,24,24,0,0,1,2.45-2.07,22,22,0,0,1,2.65-1.7,22.51,22.51,0,0,1,2.82-1.23,21.6,21.6,0,0,1,11.34-.91A21.53,21.53,0,0,1,197,142a20.35,20.35,0,0,1,2.32,5.74,15.86,15.86,0,0,1,.41,2.22c0,.33.09.63.12.9s0,.53,0,.75q0,.65,0,1A1.88,1.88,0,0,1,199.89,152.94Z" style="fill:#263238"></path><ellipse cx="178.54" cy="318.87" rx="21.32" ry="21.27" style="fill:#f5f5f5"></ellipse><path d="M168.58,324.2l5.58-.48,13.63,2.3,1.61,10.25-.23,1.2a21.39,21.39,0,0,1-20.2.46l-.39-13.73" style="fill:#455a64"></path><path d="M184.88,325.86A7.3,7.3,0,0,1,192,329a38.66,38.66,0,0,1,2.53,4c-2.41,2.25-4.08,4.2-7.1,5.32Z" style="fill:#455a64"></path><path d="M168.58,324.2s-3.69.45-5.12,3.59-1.76,4.14-1.76,4.14c1.91,2.29,4.33,4.84,7.3,5.86,0,0,.69-7.76.78-10C169.88,325.34,170,324.13,168.58,324.2Z" style="fill:#455a64"></path><path d="M172,304.05a10.09,10.09,0,0,1,7.81-3.88,10.93,10.93,0,0,1,3.79.68,5.56,5.56,0,0,1,3.19,2.11,9.3,9.3,0,0,1,1.84,4.28c.18,1.6.46,3.22.54,5.23.07,1.61.13,3.9.32,6.72l.52,5.65c-1.21,0-20.5-1.83-22-1.81,0,0,.65-6.32.92-9.28C169.43,308.28,170,306.48,172,304.05Z" style="fill:#263238"></path><path d="M183.18,325.12l0-3.79s3.34-.37,4.26-4.64a45.45,45.45,0,0,0,.52-8.53c0-2.59-2.23-6.13-5.44-6.14l-1.43-.17L175.61,304a1.53,1.53,0,0,0-1.45,1.46L174,323.74l1.75,1.87a4.8,4.8,0,0,0,7.43-.49Z" style="fill:#a26760"></path><path d="M181,315.69a.87.87,0,0,1,.31-.56.93.93,0,0,1,1.13-.07,1.25,1.25,0,0,1,.48,1.17h0a1.14,1.14,0,0,1-.81.47H182a1,1,0,0,1-.68-.27A.9.9,0,0,1,181,315.69Z" style="fill:#7b4b45"></path><path d="M186.67,311.38a.56.56,0,0,1-.56.53.54.54,0,0,1-.55-.53.56.56,0,0,1,.57-.53A.53.53,0,0,1,186.67,311.38Z" style="fill:#263238"></path><path d="M186.88,309.76c-.07.07-.48-.26-1.07-.3s-1.05.25-1.11.17,0-.16.24-.29a1.61,1.61,0,0,1,.9-.22,1.42,1.42,0,0,1,.84.33C186.86,309.6,186.91,309.73,186.88,309.76Z" style="fill:#263238"></path><path d="M183.13,314.27a3.56,3.56,0,0,1,1-.12c.15,0,.3,0,.33-.14a.74.74,0,0,0-.08-.45l-.38-1.18a19.3,19.3,0,0,1-.85-3.08,18.59,18.59,0,0,1,1.09,3l.37,1.19a.87.87,0,0,1,0,.6.4.4,0,0,1-.27.21,1.23,1.23,0,0,1-.26,0A4.21,4.21,0,0,1,183.13,314.27Z" style="fill:#263238"></path><path d="M183.16,321.33a11,11,0,0,1-5.7-1.86s1.37,3.08,5.72,2.91Z" style="fill:#7b4b45"></path><path d="M181.35,314.58c.1,0,.07.65.6,1.14s1.22.45,1.22.54-.16.12-.45.11a1.6,1.6,0,0,1-1-.42,1.41,1.41,0,0,1-.45-.95C181.23,314.73,181.31,314.58,181.35,314.58Z" style="fill:#263238"></path><path d="M186.76,307.52c-.11.14-.56,0-1.1,0s-1,.13-1.09,0,0-.2.21-.34a1.61,1.61,0,0,1,.88-.25,1.54,1.54,0,0,1,.88.23C186.74,307.31,186.81,307.45,186.76,307.52Z" style="fill:#263238"></path><path d="M179.76,311.34a.56.56,0,0,0,.53.57.54.54,0,0,0,.58-.49.55.55,0,0,0-.52-.57A.54.54,0,0,0,179.76,311.34Z" style="fill:#263238"></path><path d="M178.71,309.55c.07.07.49-.23,1.09-.22s1,.32,1.09.25,0-.17-.22-.31a1.54,1.54,0,0,0-.87-.29,1.45,1.45,0,0,0-.87.27C178.74,309.39,178.68,309.51,178.71,309.55Z" style="fill:#263238"></path><path d="M178.67,307.87c.12.14.58,0,1.13,0s1,.11,1.13,0,0-.2-.22-.34a1.68,1.68,0,0,0-.92-.23,1.73,1.73,0,0,0-.91.25C178.69,307.67,178.62,307.81,178.67,307.87Z" style="fill:#263238"></path><path d="M174.9,312.73c0-.32-.31-1.1-.62-1.17a1.88,1.88,0,0,0-2.51,2,2.22,2.22,0,0,0,2.82,2.43C174.6,315.88,174.85,313.84,174.9,312.73Z" style="fill:#a26760"></path><path d="M173.85,314.83s-.06,0-.15.06a.5.5,0,0,1-.38,0,1.28,1.28,0,0,1-.52-1.18A1.71,1.71,0,0,1,173,313a.59.59,0,0,1,.41-.37.25.25,0,0,1,.29.16.43.43,0,0,1,0,.15s.07-.05.05-.17a.35.35,0,0,0-.1-.19.38.38,0,0,0-.28-.09.71.71,0,0,0-.57.42,1.74,1.74,0,0,0-.22.81,1.32,1.32,0,0,0,.67,1.31.51.51,0,0,0,.47-.05C173.84,314.9,173.86,314.83,173.85,314.83Z" style="fill:#7b4b45"></path><path d="M174.16,311.57l.74.78c3.23-3.09,9.55-10.81,9.19-10.35a9.38,9.38,0,0,0-4.61-.5c-2.4.4-7,1.6-6.89,4.43A14.64,14.64,0,0,0,174.16,311.57Z" style="fill:#263238"></path><path d="M169,338.14a22.27,22.27,0,0,1-.1-2.91,22.5,22.5,0,0,1,.1-2.92,42.54,42.54,0,0,1,0,5.83Z" style="fill:#263238"></path><path d="M189.18,337.69a6,6,0,0,1,0-1,11.63,11.63,0,0,0-.08-2.44,12.82,12.82,0,0,0-.69-2.34,5,5,0,0,1-.34-1,4.79,4.79,0,0,1,.47.91,10.11,10.11,0,0,1,.75,2.36,9.89,9.89,0,0,1,0,2.48A3.91,3.91,0,0,1,189.18,337.69Z" style="fill:#263238"></path><path d="M199.89,319a1.26,1.26,0,0,1,0-.34c0-.26,0-.59-.07-1,0-.23,0-.48-.05-.75s-.09-.57-.14-.89a16.42,16.42,0,0,0-.46-2.2,20.67,20.67,0,0,0-2.37-5.64,21.17,21.17,0,0,0-25.41-9,23.79,23.79,0,0,0-2.75,1.22A20.91,20.91,0,0,0,166,302a24.21,24.21,0,0,0-2.4,2,23.09,23.09,0,0,0-2.06,2.44,20.51,20.51,0,0,0-3,5.82,20.86,20.86,0,0,0,0,13.31,20.2,20.2,0,0,0,3,5.81,19,19,0,0,0,4.46,4.49,19.33,19.33,0,0,0,5.33,2.87,21.22,21.22,0,0,0,25.41-9,20.54,20.54,0,0,0,2.37-5.64,16.1,16.1,0,0,0,.46-2.2,11.37,11.37,0,0,0,.19-1.63c0-.42.06-.76.07-1a1.41,1.41,0,0,1,0-.35,1.88,1.88,0,0,1,0,.35c0,.26,0,.59,0,1a9.79,9.79,0,0,1-.14,1.65,14.53,14.53,0,0,1-.41,2.22,20.35,20.35,0,0,1-2.32,5.74,21.45,21.45,0,0,1-25.82,9.3,22.51,22.51,0,0,1-2.82-1.23,22,22,0,0,1-2.65-1.7,24,24,0,0,1-2.45-2.07,24.53,24.53,0,0,1-2.13-2.51,21,21,0,0,1-3.09-6,22.87,22.87,0,0,1-1.12-6.82,23.25,23.25,0,0,1,1.12-6.82,20.81,20.81,0,0,1,3.1-5.95,23.13,23.13,0,0,1,2.12-2.5,22.85,22.85,0,0,1,2.45-2.08,21.94,21.94,0,0,1,2.65-1.69,22.58,22.58,0,0,1,2.82-1.24,21.6,21.6,0,0,1,11.34-.9,21.37,21.37,0,0,1,9,4.06A21.59,21.59,0,0,1,197,308a20.23,20.23,0,0,1,2.32,5.74,15.86,15.86,0,0,1,.41,2.22c0,.32.09.62.12.9s0,.52,0,.75q0,.63,0,1A1.72,1.72,0,0,1,199.89,319Z" style="fill:#263238"></path><circle cx="178.54" cy="208.27" r="22.36" style="fill:#f5f5f5"></circle><path d="M177.65,190.07a1.79,1.79,0,0,1,1.86-.95,2.48,2.48,0,0,1,3.05,0,2.26,2.26,0,0,1,2.17-.07,2.23,2.23,0,0,1,1.17,1.82,1.91,1.91,0,0,1,1.94.94,1.88,1.88,0,0,1-.29,2.13,1.77,1.77,0,0,1-.69,3.45L178,192.13A1.8,1.8,0,0,1,177.65,190.07Z" style="fill:#e0e0e0"></path><path d="M187.12,197.64a7.51,7.51,0,0,0-7.57-6.78h-.39c-4.18.3-6.26,4-5.83,8.19l.8,13.93.05.67,9.68,1.8-.06-3.55s4-.69,4-4.71C187.8,205.26,187.46,201.26,187.12,197.64Z" style="fill:#ffbe9d"></path><path d="M183.83,211.9a9.74,9.74,0,0,1-5.29-1.47s1.28,2.88,5.29,2.46Z" style="fill:#eb996e"></path><path d="M186.11,201.37a.57.57,0,0,1-.55.58.53.53,0,0,1-.59-.51.56.56,0,0,1,.54-.58A.54.54,0,0,1,186.11,201.37Z" style="fill:#263238"></path><path d="M186.28,199.62c-.07.08-.51-.24-1.13-.23s-1.06.33-1.13.26,0-.17.23-.32a1.6,1.6,0,0,1,1.81,0C186.25,199.45,186.32,199.59,186.28,199.62Z" style="fill:#263238"></path><path d="M180.36,201.52a.57.57,0,0,1-.54.58.54.54,0,0,1-.6-.51.57.57,0,0,1,.54-.58A.54.54,0,0,1,180.36,201.52Z" style="fill:#263238"></path><path d="M180.21,199.83c-.07.07-.51-.24-1.13-.23s-1.06.32-1.13.25,0-.17.23-.32a1.58,1.58,0,0,1,.91-.29,1.5,1.5,0,0,1,.9.28C180.18,199.66,180.24,199.79,180.21,199.83Z" style="fill:#263238"></path><path d="M182.52,204.38a3.81,3.81,0,0,1,1-.2c.16,0,.31-.05.33-.16a.79.79,0,0,0-.11-.47c-.15-.37-.32-.77-.48-1.19a19.83,19.83,0,0,1-1.1-3.13,20.73,20.73,0,0,1,1.34,3c.17.42.32.82.47,1.21a.9.9,0,0,1,.09.61.41.41,0,0,1-.26.24,1.51,1.51,0,0,1-.26,0A4.74,4.74,0,0,1,182.52,204.38Z" style="fill:#263238"></path><path d="M180.71,204.83c.1,0,.11.66.69,1.13s1.29.39,1.3.48-.16.13-.46.14a1.59,1.59,0,0,1-1.08-.36,1.39,1.39,0,0,1-.54-.95C180.59,205,180.66,204.83,180.71,204.83Z" style="fill:#263238"></path><path d="M180.33,197.4c-.05.17-.67.1-1.4.2s-1.3.3-1.4.15.05-.23.29-.39a2.22,2.22,0,0,1,1-.38,2.34,2.34,0,0,1,1.1.11C180.22,197.19,180.36,197.32,180.33,197.4Z" style="fill:#e0e0e0"></path><path d="M186,197.84c-.11.14-.54,0-1.05,0s-.94.11-1,0,0-.21.21-.34a1.42,1.42,0,0,1,.84-.25,1.49,1.49,0,0,1,.84.27C186,197.63,186.08,197.77,186,197.84Z" style="fill:#e0e0e0"></path><path d="M186.7,195.8s-1.09-2.5-2.32-3.07c-1.48-.69-2.09.93-3.49.56s-2.82-1-4.24.07-.8,2-.87,3.82c-.29,7.24-1.58,9.3-2,5.9,0-.37-1.08-.65-1.26-2.23a17.87,17.87,0,0,1,.09-6,5.72,5.72,0,0,1,2.29-3c2-1.5,4.67-1.58,6.51-1.42S186.83,192.65,186.7,195.8Z" style="fill:#e0e0e0"></path><path d="M174,203a1.1,1.1,0,0,0-1.19-1c-.75.09-1.58.52-1.51,2.07a2.07,2.07,0,0,0,2.86,2C174.19,205.92,174.09,204.12,174,203Z" style="fill:#ffbe9d"></path><path d="M173.55,205s-.05,0-.13.08a.47.47,0,0,1-.36,0,1.2,1.2,0,0,1-.6-1,1.7,1.7,0,0,1,.11-.69.53.53,0,0,1,.34-.38.25.25,0,0,1,.29.12c0,.07,0,.13,0,.13s.06-.05,0-.16a.32.32,0,0,0-.12-.17.39.39,0,0,0-.27-.06.69.69,0,0,0-.48.45,1.67,1.67,0,0,0-.13.78,1.25,1.25,0,0,0,.76,1.15.51.51,0,0,0,.43-.09A.26.26,0,0,0,173.55,205Z" style="fill:#eb996e"></path><path d="M174,197.64a2.63,2.63,0,0,0,1.17.52.89.89,0,0,0,1-.64c0-.2,0-.42.11-.57s.42-.12.65-.1a1.78,1.78,0,0,0,1.81-1.29.73.73,0,0,0,1,.08,3.82,3.82,0,0,0,.74-.81,1.15,1.15,0,0,1,.94-.49,2.47,2.47,0,0,0,.6.13c.36,0,.53-.47.58-.83s.08-.77.39-1a1.37,1.37,0,0,1,1,0c.33,0,.76,0,.84-.37a.66.66,0,0,0-.13-.5,1.79,1.79,0,0,0-2.11-.64,2.41,2.41,0,0,0-4.44-.4,2.44,2.44,0,0,0-3.9.95,1.82,1.82,0,0,0-1.85.65,1.85,1.85,0,0,0-.12,2,1.7,1.7,0,0,0-.91,1.35,1,1,0,0,0,1.11,1,1,1,0,0,0,1.72,1" style="fill:#e0e0e0"></path><path d="M172.23,196.6a.66.66,0,0,0,.18.53.88.88,0,0,0,.56.32,1,1,0,0,0,.78-.24l-.12,0a2.54,2.54,0,0,0,.56.68,1.52,1.52,0,0,0,.5.3,1.19,1.19,0,0,0,1.34-.42,1.54,1.54,0,0,0,.22-.57.8.8,0,0,0,0-.23s0,.08-.08.21a2.19,2.19,0,0,1-.25.53,1.12,1.12,0,0,1-1.65.06,2.62,2.62,0,0,1-.53-.64l0-.08-.07.07a.83.83,0,0,1-.66.22.78.78,0,0,1-.5-.26A1.31,1.31,0,0,1,172.23,196.6Z" style="fill:#fff"></path><path d="M177.33,190.25a1.57,1.57,0,0,1,.2.07.93.93,0,0,1,.43.35l0,.05,0-.05a3.33,3.33,0,0,1,1.32-1.09,2.64,2.64,0,0,1,1.07-.26,2.32,2.32,0,0,1,1.88,1,1.84,1.84,0,0,1,.31.82v.09l.08,0a1.54,1.54,0,0,1,1.15.13,1.42,1.42,0,0,1,.63.66,2.16,2.16,0,0,1,.19.81,1.45,1.45,0,0,0,0-.23,1.43,1.43,0,0,0-.14-.62,1.53,1.53,0,0,0-.65-.73,1.69,1.69,0,0,0-1.25-.16l.1.07a2,2,0,0,0-.34-.9,2.29,2.29,0,0,0-.75-.7,2.37,2.37,0,0,0-1.25-.33,2.73,2.73,0,0,0-1.13.28,3.41,3.41,0,0,0-1.33,1.17H178a1,1,0,0,0-.49-.35C177.41,190.23,177.33,190.24,177.33,190.25Z" style="fill:#fff"></path><path d="M179.77,205.24s0-.29.28-.53.51-.29.51-.33-.08,0-.2,0a.8.8,0,0,0-.42.24.83.83,0,0,0-.21.45C179.72,205.17,179.75,205.25,179.77,205.24Z" style="fill:#eb996e"></path><path d="M179.51,204.49s.14-.08.28-.14.28-.09.29-.14-.16-.1-.35,0S179.47,204.47,179.51,204.49Z" style="fill:#eb996e"></path><path d="M176.32,211s0,0-.07-.07a.24.24,0,0,1,0-.25c0-.1.16-.19.25-.37a.36.36,0,0,0,0-.32,1.15,1.15,0,0,0-.18-.23c-.21-.28.41-.47.32-.82a.4.4,0,0,0-.15-.29.19.19,0,0,0-.11-.05s.15.11.15.34a.44.44,0,0,1-.2.33.71.71,0,0,0-.18.23.34.34,0,0,0,0,.35,2,2,0,0,1,.17.21.18.18,0,0,1,0,.19c0,.14-.17.25-.22.39a.31.31,0,0,0,.07.33C176.27,211,176.33,211,176.32,211Z" style="fill:#eb996e"></path><path d="M175.47,210.85s0,0,0-.1a.73.73,0,0,1,.15-.23,1.42,1.42,0,0,0,.11-.18.4.4,0,0,0,0-.27c-.05-.2-.21-.32-.29-.46s0-.26.1-.38a.7.7,0,0,0,.15-.2.49.49,0,0,0,0-.23c0-.28-.22-.37-.22-.35s.12.13.11.35a.44.44,0,0,1-.18.33.6.6,0,0,0-.17.23.39.39,0,0,0,0,.33c.11.18.26.29.29.42a.48.48,0,0,1-.11.34.94.94,0,0,0-.12.29C175.44,210.81,175.46,210.85,175.47,210.85Z" style="fill:#eb996e"></path><path d="M193.85,219.69c-1.45-2.77-5.26-4.35-5.26-4.35l1.19,12.45a24.94,24.94,0,0,0,5.55-4.68S195.3,222.46,193.85,219.69Z" style="fill:#455a64"></path><path d="M190.34,217.18a3.57,3.57,0,0,1-.18.53c-.12.32-.28.77-.44,1.27s-.27,1-.36,1.3a5.48,5.48,0,0,1-.14.54s0-.06,0-.15,0-.23.08-.4a12.9,12.9,0,0,1,.34-1.31,11.62,11.62,0,0,1,.46-1.27c.06-.16.12-.29.16-.38Z" style="fill:#263238"></path><path d="M188.59,215.34l-4.89-1.25c-3.26,1.3-6.48.55-9.67-1.46l-8.41,3.57a7.09,7.09,0,0,0-3.39,5l-.54,1.8a20.29,20.29,0,0,0,7.06,5.52,23.41,23.41,0,0,0,21-.7Z" style="fill:#455a64"></path><path d="M169.36,226s0-.77,0-1.71,0-1.72,0-1.72,0,.77,0,1.72S169.38,226,169.36,226Z" style="fill:#263238"></path><path d="M168.38,220.88a1.38,1.38,0,0,1-.06-.19c0-.13-.09-.3-.16-.52a7.91,7.91,0,0,0-.74-1.63,8.28,8.28,0,0,0-1.06-1.44l-.38-.39-.14-.15.16.12c.1.09.24.21.4.38a7.87,7.87,0,0,1,1.09,1.44,7.61,7.61,0,0,1,.73,1.65c.06.22.11.4.13.53S168.39,220.88,168.38,220.88Z" style="fill:#263238"></path><path d="M200.63,208.54a1.45,1.45,0,0,1,0-.36c0-.26,0-.61-.08-1.05,0-.23,0-.49-.05-.77s-.09-.59-.14-.92a16.18,16.18,0,0,0-.47-2.27,21.35,21.35,0,0,0-2.46-5.84A21.88,21.88,0,0,0,171.09,188a21.63,21.63,0,0,0-2.85,1.25,22.42,22.42,0,0,0-2.67,1.72,23.46,23.46,0,0,0-2.48,2.11,26.22,26.22,0,0,0-2.14,2.53,21.25,21.25,0,0,0-3.12,6,21.72,21.72,0,0,0,0,13.77,21.12,21.12,0,0,0,3.12,6,25,25,0,0,0,2.14,2.54,24.6,24.6,0,0,0,2.48,2.1,23.83,23.83,0,0,0,2.67,1.73,23,23,0,0,0,2.85,1.25,22,22,0,0,0,11.49,1,21.68,21.68,0,0,0,9.21-4.07,21.93,21.93,0,0,0,5.59-6.21,21.18,21.18,0,0,0,2.46-5.83,16,16,0,0,0,.47-2.28c.05-.33.11-.64.14-.92s0-.54.05-.77c0-.44.06-.78.08-1.05a1.41,1.41,0,0,1,0-.35,2,2,0,0,1,0,.36l0,1q0,.35,0,.78c0,.28-.08.59-.12.92A14.55,14.55,0,0,1,200,214a20.75,20.75,0,0,1-2.4,5.93,22.23,22.23,0,0,1-15,10.56,22.42,22.42,0,0,1-11.72-.94,24.11,24.11,0,0,1-2.92-1.27,23.56,23.56,0,0,1-2.74-1.76,25.58,25.58,0,0,1-2.54-2.15,25,25,0,0,1-2.19-2.59,21.42,21.42,0,0,1-3.2-6.15,22.22,22.22,0,0,1,0-14.11,21.81,21.81,0,0,1,3.2-6.15,26,26,0,0,1,2.19-2.59,25.58,25.58,0,0,1,2.54-2.15,23.47,23.47,0,0,1,2.74-1.75,22.7,22.7,0,0,1,2.92-1.28,22.31,22.31,0,0,1,11.72-.93,22.24,22.24,0,0,1,15,10.55,20.69,20.69,0,0,1,2.4,5.94,14.65,14.65,0,0,1,.43,2.3c0,.34.1.64.12.93s0,.54,0,.78l0,1.05A2,2,0,0,1,200.63,208.54Z" style="fill:#263238"></path><circle cx="178.74" cy="263.72" r="21.99" transform="translate(-134.12 203.63) rotate(-45)" style="fill:#f5f5f5"></circle><path d="M186.31,250.45a5.65,5.65,0,0,0-2.81-3.34,7.17,7.17,0,0,0-4.81-.45,15,15,0,0,0-4.48,2,7.46,7.46,0,0,0-2.12,1.75,10.59,10.59,0,0,0-2,5.22,18.63,18.63,0,0,0,1.18,6,3.1,3.1,0,0,0,1.34,1.14,11.57,11.57,0,0,0,2.55,3.18l.87-2.76Z" style="fill:#263238"></path><path d="M185.48,248.8l-2.69-.4c1.56,3.44,2.18,11.4,3.12,15.06,1-1.46,3.12-5.89,2.94-7.62S188.65,248.41,185.48,248.8Z" style="fill:#263238"></path><path d="M173,255a4.55,4.55,0,0,1,3.31-4.3l6.12-1.75c2.66-.37,4.53,2.86,4.78,5.53a41.72,41.72,0,0,1,.2,8.32c-.57,4.48-4,5.15-4,5.15s.06,2.12.1,3.42l-1,5.83-8.06-6.88L172.94,255C172.94,254.94,173,255.06,173,255Z" style="fill:#ffbe9d"></path><path d="M186.48,258.3a.58.58,0,0,1-.53.6.56.56,0,0,1-.61-.5.58.58,0,0,1,.53-.6A.56.56,0,0,1,186.48,258.3Z" style="fill:#263238"></path><path d="M186.55,256.2c-.07.08-.51-.23-1.13-.21s-1,.34-1.12.27,0-.17.22-.32a1.57,1.57,0,0,1,.9-.3,1.48,1.48,0,0,1,.9.26C186.51,256,186.58,256.17,186.55,256.2Z" style="fill:#263238"></path><path d="M180.72,258.3a.58.58,0,0,1-.53.6.56.56,0,0,1-.61-.5.58.58,0,0,1,.54-.6A.55.55,0,0,1,180.72,258.3Z" style="fill:#263238"></path><path d="M180.71,256.37c-.07.07-.51-.23-1.13-.21s-1.05.34-1.12.27,0-.17.22-.32a1.57,1.57,0,0,1,.9-.31,1.51,1.51,0,0,1,.9.26C180.67,256.2,180.74,256.33,180.71,256.37Z" style="fill:#263238"></path><path d="M182.77,261.14a4.69,4.69,0,0,1,1-.21c.16,0,.31-.05.33-.16a.83.83,0,0,0-.12-.46c-.16-.38-.33-.77-.5-1.19a19.86,19.86,0,0,1-1.14-3.09,20,20,0,0,1,1.39,3c.16.41.33.81.48,1.18a1,1,0,0,1,.1.62.4.4,0,0,1-.25.24,1.47,1.47,0,0,1-.27,0A3.76,3.76,0,0,1,182.77,261.14Z" style="fill:#263238"></path><path d="M177.45,266.49s1.54,3,6,2.47l0-1A11.27,11.27,0,0,1,177.45,266.49Z" style="fill:#eb996e"></path><path d="M180.45,254.15c0,.17-.67.11-1.39.22s-1.29.32-1.39.18.05-.23.28-.4a2.29,2.29,0,0,1,1-.4,2.34,2.34,0,0,1,1.1.1C180.34,253.94,180.48,254.07,180.45,254.15Z" style="fill:#263238"></path><path d="M186.3,254.33c-.11.14-.54,0-1.05,0s-.93.12-1,0,0-.22.2-.35a1.45,1.45,0,0,1,.84-.26,1.42,1.42,0,0,1,.84.26C186.28,254.11,186.34,254.26,186.3,254.33Z" style="fill:#263238"></path><path d="M185.84,250.4a2,2,0,0,0-1.76-1.06,3.86,3.86,0,0,0-2,.66c-2.61,1.61-3.87,5.35-6.44,7-.64.41-1.49.08-2,.61a1.87,1.87,0,0,0-.54,2.05,6.14,6.14,0,0,1-1-1.51,2.11,2.11,0,0,1,0-1.74c.21-.4.6-.71.7-1.15a6,6,0,0,0-.07-1.19,2.52,2.52,0,0,1,.37-1.15,11.64,11.64,0,0,1,4.13-4.61,7.54,7.54,0,0,1,3.89-1.12,5.78,5.78,0,0,1,3.76,1.37c.6.53,1.23,1.08,1,1.83" style="fill:#263238"></path><path d="M173.66,258.17a1.56,1.56,0,0,0-2.36,1.58,1.81,1.81,0,0,0,2.45,1.79C173.75,261.47,173.66,258.17,173.66,258.17Z" style="fill:#ffbe9d"></path><path d="M173,260.64s0,0-.11.06a.4.4,0,0,1-.31,0,1,1,0,0,1-.5-.92,1.29,1.29,0,0,1,.11-.6c.07-.18.18-.31.3-.33a.21.21,0,0,1,.25.11c0,.07,0,.11,0,.12s0,0,0-.14a.27.27,0,0,0-.09-.15.32.32,0,0,0-.24-.06.62.62,0,0,0-.43.38,1.5,1.5,0,0,0-.13.68,1.08,1.08,0,0,0,.63,1,.44.44,0,0,0,.38-.07C173,260.7,173,260.64,173,260.64Z" style="fill:#eb996e"></path><path d="M172.67,257l.14-.09c.09-.06.23-.14.4-.27a8.86,8.86,0,0,0,1.26-1.21,23,23,0,0,0,1.52-2.11,19.7,19.7,0,0,1,1.91-2.52,8.1,8.1,0,0,1,1.25-1.05,6.62,6.62,0,0,1,1.37-.66,6.89,6.89,0,0,1,2.53-.39,6.7,6.7,0,0,1,1.71.29c.2,0,.35.12.45.15l.16,0-.15-.07c-.1,0-.25-.11-.44-.17a5.92,5.92,0,0,0-1.73-.32,6.83,6.83,0,0,0-2.57.36,6.26,6.26,0,0,0-1.38.67,7.14,7.14,0,0,0-1.27,1.07,18.24,18.24,0,0,0-1.92,2.54c-.54.81-1,1.54-1.5,2.11a8.76,8.76,0,0,1-1.23,1.23c-.16.13-.3.22-.38.28S172.67,257,172.67,257Z" style="fill:#fff"></path><path d="M173.29,257.63a3.66,3.66,0,0,0,.29,1.92,1.28,1.28,0,0,0,1.66.61,1.83,1.83,0,0,0,.64-1.41c.18-1.54.24-3.09.44-4.62Z" style="fill:#263238"></path><path d="M185.22,249.28a5.77,5.77,0,0,0-.6,0,4.08,4.08,0,0,0-1.58.34,5.05,5.05,0,0,0-1,.54,10.15,10.15,0,0,0-1,.81,12.15,12.15,0,0,0-1.95,2.22c-.3.44-.55.89-.83,1.31a6.34,6.34,0,0,1-.94,1.11,10.53,10.53,0,0,1-2,1.41c-.6.34-1.11.58-1.46.75l-.4.19-.15.05.14-.08.39-.21c.34-.18.84-.43,1.44-.78a10.9,10.9,0,0,0,1.95-1.43,6.57,6.57,0,0,0,.91-1.09c.27-.41.53-.86.82-1.3a12.17,12.17,0,0,1,2-2.24,10.09,10.09,0,0,1,1-.81,4.94,4.94,0,0,1,1-.54,4,4,0,0,1,1.62-.3,3.17,3.17,0,0,1,.45.05Z" style="fill:#455a64"></path><path d="M173.18,256.15s-.07.06-.21.15l-.59.37-.2.12a.58.58,0,0,1-.27.1.3.3,0,0,1-.16,0,.22.22,0,0,1-.09-.16.52.52,0,0,1,.1-.31c.21-.35.43-.74.68-1.15l.09.09a2.78,2.78,0,0,1-.76.41,2.5,2.5,0,0,1-.85.12.83.83,0,0,1-.22,0,.27.27,0,0,1-.19-.16.25.25,0,0,1,0-.24,1,1,0,0,1,.13-.15,4.92,4.92,0,0,0,.79-1.06,9.16,9.16,0,0,0,.49-1.12,1.17,1.17,0,0,1-.07.33,4.58,4.58,0,0,1-.34.84,4.65,4.65,0,0,1-.78,1.09c-.09.09-.17.19-.13.26s.16.11.29.11a2.28,2.28,0,0,0,.81-.12,2.47,2.47,0,0,0,.72-.38l.28-.22-.18.3-.69,1.14a.45.45,0,0,0-.09.24c0,.07.06.11.14.1a1.33,1.33,0,0,0,.42-.19l.62-.34Z" style="fill:#fff"></path><path d="M180.46,262.34a.81.81,0,0,1,.81-.63.84.84,0,0,1,.66.44,1,1,0,0,1,.06.8V263a.9.9,0,0,1-1,.25A.86.86,0,0,1,180.46,262.34Z" style="fill:#eb996e"></path><path d="M182.43,263c0-.09-.63,0-1.11-.54s-.46-1.17-.55-1.16-.11.15-.1.43a1.65,1.65,0,0,0,.43,1,1.36,1.36,0,0,0,.92.41C182.29,263.13,182.43,263.05,182.43,263Z" style="fill:#263238"></path><path d="M170.08,270l4.27-.36s2.36,3.11,5.56,2.87,3.55-2.39,3.55-2.39,5.72,1.1,8.82,4.38l.07.09,2.32,4.11c-1.94,1.75-3.68,3.66-5.76,4.52a23.62,23.62,0,0,1-20.54-.06Z" style="fill:#FF725E"></path><path d="M170.16,269.93a12.72,12.72,0,0,0-3.57,1.16c-3,1.77-4.56,7.14-4.56,7.14a23.43,23.43,0,0,0,7.33,5.3,24.62,24.62,0,0,0,3.29-6.11,21.78,21.78,0,0,0-.28-4.21S170.16,270,170.16,269.93Z" style="fill:#FF725E"></path><path d="M190.49,282.39c-.07,0-.07-.69-.26-1.49s-.49-1.43-.43-1.46a3.33,3.33,0,0,1,.63,1.41A3.08,3.08,0,0,1,190.49,282.39Z" style="fill:#263238"></path><path d="M169.36,283.48a8.61,8.61,0,0,1,.21-1.16,27.88,27.88,0,0,0,.4-2.8c.09-1.11.11-2.11.12-2.84a8.81,8.81,0,0,1,0-1.18,5,5,0,0,1,.12,1.18,20.34,20.34,0,0,1-.06,2.85,17.42,17.42,0,0,1-.46,2.82A4.65,4.65,0,0,1,169.36,283.48Z" style="fill:#263238"></path><path d="M200.53,263.61a1.41,1.41,0,0,1-.05-.35c0-.26,0-.61-.08-1.05,0-.23,0-.49-.05-.77s-.09-.59-.14-.92a17.07,17.07,0,0,0-.47-2.27,21.23,21.23,0,0,0-2.46-5.84,21.93,21.93,0,0,0-5.59-6.21,21.67,21.67,0,0,0-9.22-4.07,21.94,21.94,0,0,0-11.48,1,23.12,23.12,0,0,0-2.85,1.26,22.42,22.42,0,0,0-2.67,1.72,23.46,23.46,0,0,0-2.48,2.11,24.86,24.86,0,0,0-2.14,2.53,21.2,21.2,0,0,0-3.12,6,21.57,21.57,0,0,0,0,13.78,21,21,0,0,0,3.12,6,23.64,23.64,0,0,0,2.14,2.53,24.4,24.4,0,0,0,2.47,2.11,23.37,23.37,0,0,0,2.68,1.72,23.12,23.12,0,0,0,2.85,1.26,21.94,21.94,0,0,0,11.48,1,21.67,21.67,0,0,0,9.22-4.07,21.93,21.93,0,0,0,5.59-6.21,21.35,21.35,0,0,0,2.46-5.84,17.4,17.4,0,0,0,.47-2.27c0-.33.11-.64.14-.92s0-.54.05-.77c0-.44.06-.79.08-1a1.58,1.58,0,0,1,.05-.36,3.33,3.33,0,0,1,0,.36c0,.27,0,.61,0,1.06,0,.23,0,.49,0,.77s-.08.6-.12.93a14.65,14.65,0,0,1-.43,2.3,21,21,0,0,1-2.4,5.94,22.29,22.29,0,0,1-15,10.56,22.42,22.42,0,0,1-11.72-.94,20.76,20.76,0,0,1-5.66-3,24.49,24.49,0,0,1-2.54-2.15,26,26,0,0,1-2.19-2.59,21.55,21.55,0,0,1-3.2-6.15,22,22,0,0,1,0-14.11,21.42,21.42,0,0,1,3.2-6.15,25,25,0,0,1,2.19-2.59,24.49,24.49,0,0,1,2.54-2.15,23.47,23.47,0,0,1,2.74-1.75,22.7,22.7,0,0,1,2.92-1.28,22.42,22.42,0,0,1,11.72-.94,22.29,22.29,0,0,1,15,10.56,21,21,0,0,1,2.4,5.94,14.65,14.65,0,0,1,.43,2.3c0,.33.1.64.12.93s0,.54,0,.77c0,.44,0,.79,0,1.06A3.09,3.09,0,0,1,200.53,263.61Z" style="fill:#263238"></path></g></svg>