<svg width="259" height="333" viewBox="0 0 259 333" fill="none" xmlns="http://www.w3.org/2000/svg">
<path d="M241.871 9.20996H93.3115C84.0386 9.20996 76.5215 16.7271 76.5215 26V315.74C76.5215 325.013 84.0386 332.53 93.3115 332.53H241.871C251.144 332.53 258.661 325.013 258.661 315.74V26C258.661 16.7271 251.144 9.20996 241.871 9.20996Z" fill="#263238"/>
<path d="M76.5625 304.18H258.652V316.01C258.652 320.376 256.918 324.562 253.831 327.649C250.745 330.736 246.558 332.47 242.193 332.47H93.6525C89.1438 332.47 84.8198 330.679 81.6317 327.491C78.4436 324.303 76.6525 319.979 76.6525 315.47V304.18H76.5625Z" fill="#455A64"/>
<path d="M93.3625 9.20996H242.033C246.442 9.21526 250.67 10.9707 253.786 14.0908C256.902 17.2108 258.652 21.4402 258.652 25.85V30.45H76.5625V26.02C76.5612 23.8129 76.9948 21.6272 77.8385 19.5878C78.6821 17.5484 79.9194 15.6952 81.4796 14.1341C83.0397 12.573 84.8922 11.3346 86.9311 10.4897C88.97 9.64483 91.1555 9.20996 93.3625 9.20996Z" fill="#455A64"/>
<path d="M168.031 25.3499C170.423 25.3499 172.361 23.4113 172.361 21.0199C172.361 18.6286 170.423 16.6899 168.031 16.6899C165.64 16.6899 163.701 18.6286 163.701 21.0199C163.701 23.4113 165.64 25.3499 168.031 25.3499Z" fill="white"/>
<path d="M228.402 39.73C235.225 39.7326 241.767 42.4446 246.59 47.2697C251.413 52.0947 254.122 58.6377 254.122 65.46V304.17H83.6523V42.7L228.402 39.73Z" fill="#EBEBEB"/>
<g opacity="0.3">
<path d="M79.2823 324.65H189.652C198.576 324.647 207.134 321.101 213.444 314.791C219.754 308.481 223.3 299.924 223.302 291V68.6301C223.302 68.6301 224.032 46.6901 233.302 42.0601L177.002 51.3201L181.652 296.24L76.6523 315.42C76.6523 315.42 76.6523 321.52 79.2823 324.65Z" fill="black"/>
</g>
<path d="M49.4727 81.9898V320.17H179.043C199.313 320.17 215.753 308.3 215.753 275.55V40.5498H83.5826C64.7426 40.5298 49.4727 59.0898 49.4727 81.9898Z" fill="#F5F5F5"/>
<path d="M49.4722 269.96C49.4722 269.96 49.4722 269.72 49.4722 269.24C49.4722 268.76 49.4722 268.03 49.4722 267.11C49.4722 265.22 49.4722 262.47 49.4222 258.93C49.4222 251.81 49.3722 241.54 49.3422 228.85C49.3422 203.44 49.3422 168.35 49.2622 129.61V101.31C49.2622 96.7499 49.2622 92.2665 49.2622 87.8599C49.2622 83.4799 49.1222 79.1398 49.7922 74.9598C50.8281 66.9942 53.9616 59.4468 58.8722 53.0899C61.1269 50.2513 63.7851 47.7583 66.7622 45.6899C67.4726 45.1953 68.2105 44.7412 68.9722 44.3299L70.0722 43.6899C70.4422 43.4899 70.8322 43.3399 71.2122 43.1599C71.9822 42.8299 72.7322 42.4799 73.4922 42.1599L75.8022 41.4399C76.5531 41.2007 77.3223 41.0234 78.1022 40.9099C78.8722 40.7899 79.6222 40.5899 80.3822 40.5299C81.9022 40.4599 83.3822 40.2998 84.8122 40.3498H92.8922H105.832L92.8922 40.3998H84.8122C83.3722 40.3998 81.9222 40.5298 80.4222 40.5998C79.6722 40.6598 78.9322 40.8598 78.1722 40.9798C77.401 41.0921 76.6413 41.2728 75.9022 41.5198L73.6222 42.2398C72.8722 42.5398 72.1322 42.8898 71.3822 43.2398C71.0022 43.4198 70.6122 43.5598 70.2522 43.7698L69.1622 44.3998C68.415 44.8103 67.6906 45.261 66.9922 45.7499C64.051 47.7994 61.4293 50.2728 59.2122 53.0899C54.3447 59.3803 51.2385 66.8526 50.2122 74.7398C49.5422 78.8698 49.7322 83.1899 49.7022 87.5799V101.03C49.7022 110.17 49.7022 119.64 49.7022 129.33C49.7022 168.07 49.6422 203.16 49.6222 228.57C49.6222 241.26 49.5622 251.57 49.5422 258.65C49.5422 262.19 49.5422 264.94 49.5422 266.83C49.5422 267.75 49.5422 268.46 49.5422 268.96C49.5422 269.46 49.4722 269.96 49.4722 269.96Z" fill="#263238"/>
<path d="M85.5514 113.25C93.7584 113.25 100.411 106.597 100.411 98.3898C100.411 90.1828 93.7584 83.5298 85.5514 83.5298C77.3445 83.5298 70.6914 90.1828 70.6914 98.3898C70.6914 106.597 77.3445 113.25 85.5514 113.25Z" fill="#704FE6"/>
<path d="M84.6819 105.37L77.002 99.4401L79.0719 96.7601L84.222 100.74L91.5419 92.3101L94.1019 94.5301L84.6819 105.37Z" fill="white"/>
<path d="M235.932 40.93C225.442 44.54 215.693 52.58 215.723 67.55V92.62H204.312V40.29L230.633 39.79C232.456 39.8231 234.256 40.2103 235.932 40.93Z" fill="#F5F5F5"/>
<path d="M186.383 90.7402H112.543V99.4102H186.383V90.7402Z" fill="#E0E0E0"/>
<path d="M157.613 109.86H112.543V118.53H157.613V109.86Z" fill="#E0E0E0"/>
<path d="M85.5514 168.88C93.7584 168.88 100.411 162.227 100.411 154.02C100.411 145.813 93.7584 139.16 85.5514 139.16C77.3445 139.16 70.6914 145.813 70.6914 154.02C70.6914 162.227 77.3445 168.88 85.5514 168.88Z" fill="#704FE6"/>
<path d="M186.383 146.37H112.543V155.04H186.383V146.37Z" fill="#E0E0E0"/>
<path d="M157.613 165.5H112.543V174.17H157.613V165.5Z" fill="#E0E0E0"/>
<path d="M85.5514 225.02C82.5135 225.02 79.5438 224.119 77.0178 222.431C74.4919 220.743 72.5232 218.345 71.3606 215.538C70.1981 212.731 69.8939 209.643 70.4866 206.663C71.0792 203.684 72.5421 200.947 74.6902 198.799C76.8384 196.651 79.5753 195.188 82.5548 194.595C85.5344 194.002 88.6227 194.306 91.4294 195.469C94.2361 196.632 96.635 198.6 98.3228 201.126C100.011 203.652 100.911 206.622 100.911 209.66C100.906 213.732 99.2861 217.636 96.4067 220.515C93.5273 223.395 89.6235 225.015 85.5514 225.02ZM85.5514 195.3C82.7113 195.3 79.9349 196.142 77.5734 197.72C75.2119 199.298 73.3714 201.541 72.2845 204.164C71.1976 206.788 70.9132 209.676 71.4673 212.461C72.0214 215.247 73.3891 217.806 75.3973 219.814C77.4056 221.822 79.9643 223.19 82.7499 223.744C85.5355 224.298 88.4228 224.014 91.0467 222.927C93.6707 221.84 95.9134 219.999 97.4913 217.638C99.0692 215.276 99.9114 212.5 99.9114 209.66C99.9088 205.852 98.395 202.201 95.7025 199.509C93.0101 196.816 89.3591 195.302 85.5514 195.3Z" fill="#704FE6"/>
<path d="M186.383 202.01H112.543V210.68H186.383V202.01Z" fill="#E0E0E0"/>
<path d="M157.613 221.14H112.543V229.81H157.613V221.14Z" fill="#E0E0E0"/>
<path d="M85.5514 280.66C82.5135 280.66 79.5438 279.759 77.0178 278.071C74.4919 276.384 72.5232 273.985 71.3606 271.178C70.1981 268.371 69.8939 265.283 70.4866 262.303C71.0792 259.324 72.5421 256.587 74.6902 254.439C76.8384 252.291 79.5753 250.828 82.5548 250.235C85.5344 249.642 88.6227 249.947 91.4294 251.109C94.2361 252.272 96.635 254.24 98.3228 256.766C100.011 259.292 100.911 262.262 100.911 265.3C100.906 269.372 99.2861 273.276 96.4067 276.155C93.5273 279.035 89.6235 280.655 85.5514 280.66ZM85.5514 250.94C82.7113 250.94 79.9349 251.782 77.5734 253.36C75.2119 254.938 73.3714 257.181 72.2845 259.805C71.1976 262.429 70.9132 265.316 71.4673 268.101C72.0214 270.887 73.3891 273.446 75.3973 275.454C77.4056 277.462 79.9643 278.83 82.7499 279.384C85.5355 279.938 88.4228 279.654 91.0467 278.567C93.6707 277.48 95.9134 275.639 97.4913 273.278C99.0692 270.916 99.9114 268.14 99.9114 265.3C99.9088 261.492 98.395 257.841 95.7025 255.149C93.0101 252.456 89.3591 250.943 85.5514 250.94Z" fill="#704FE6"/>
<path d="M186.383 257.65H112.543V266.32H186.383V257.65Z" fill="#E0E0E0"/>
<path d="M157.613 276.77H112.543V285.44H157.613V276.77Z" fill="#E0E0E0"/>
<g opacity="0.3">
<path d="M173.482 280.16H158.652L150.922 295.63C150.922 295.97 171.082 320.17 171.082 320.17H182.802C161.772 312.97 173.482 280.16 173.482 280.16Z" fill="black"/>
</g>
<path d="M0.472401 269.96C0.472401 271.13 -3.84759 313.96 24.4724 320.17H182.812C182.812 320.17 152.942 310.09 159.652 269.96H0.472401Z" fill="#EBEBEB"/>
<path d="M84.6819 161.57L77.002 155.64L79.0719 152.96L84.222 156.94L91.5419 148.51L94.1019 150.73L84.6819 161.57Z" fill="white"/>
<path d="M179.043 320.17L179.833 320.12L182.173 320C183.173 320 184.463 319.74 185.963 319.58C186.713 319.5 187.493 319.27 188.343 319.11C189.249 318.947 190.141 318.716 191.013 318.42C195.588 317.125 199.795 314.771 203.293 311.55C207.856 307.198 211.164 301.7 212.873 295.63C213.907 292.126 214.62 288.534 215.003 284.9C215.103 283.95 215.193 283 215.293 282.03C215.393 281.06 215.373 280.08 215.423 279.09C215.493 277.09 215.563 275.09 215.533 273.03C215.533 264.8 215.533 256.03 215.533 246.74C215.533 228.23 215.533 207.87 215.533 186.51C215.533 143.77 215.583 105.08 215.593 77.0702C215.593 73.5602 215.593 70.2402 215.593 67.0702C215.682 64.0806 216.218 61.1213 217.183 58.2902C218.045 55.8361 219.28 53.5291 220.843 51.4502C222.149 49.7005 223.645 48.1007 225.303 46.6802C227.596 44.7166 230.184 43.127 232.973 41.9702C233.948 41.5651 234.95 41.2309 235.973 40.9702L235.223 41.2502C234.723 41.4202 233.983 41.6902 233.043 42.1002C230.289 43.2957 227.733 44.9042 225.463 46.8702C223.825 48.2906 222.353 49.8907 221.073 51.6402C219.535 53.7058 218.324 55.996 217.483 58.4302C216.547 61.2356 216.032 64.164 215.953 67.1202C215.903 70.2702 215.953 73.6102 215.953 77.1202C215.953 105.12 216.003 143.82 216.043 186.56C216.043 207.92 216.043 228.28 216.043 246.79C216.043 256.05 216.043 264.85 216.043 273.08C216.043 275.14 215.993 277.16 215.923 279.15C215.873 280.15 215.923 281.15 215.783 282.15L215.483 285.04C215.09 288.693 214.36 292.302 213.303 295.82C211.559 301.932 208.197 307.46 203.573 311.82C200.03 315.052 195.775 317.402 191.153 318.68C190.272 318.961 189.374 319.182 188.463 319.34C187.603 319.5 186.813 319.72 186.063 319.79C184.563 319.94 183.293 320.15 182.263 320.17L179.913 320.23L179.043 320.17Z" fill="#263238"/>
<path d="M24.4421 320.17C24.4421 320.17 24.0821 320.1 23.3721 319.92L22.0621 319.58C21.5421 319.43 20.9621 319.19 20.2921 318.96C16.4355 317.481 13.0014 315.078 10.2921 311.96C6.76211 307.96 3.75211 302.05 2.04211 294.81C0.207315 286.659 -0.396049 278.279 0.252108 269.95V269.74H0.452112L79.7021 269.69L159.602 269.74H159.852V269.99C158.352 278.93 158.602 287.38 160.552 294.43C161.881 299.435 164.197 304.124 167.364 308.221C170.531 312.318 174.484 315.742 178.992 318.29C179.914 318.817 180.862 319.298 181.832 319.73C182.482 320.02 182.832 320.16 182.832 320.16C182.491 320.059 182.157 319.935 181.832 319.79C180.85 319.385 179.892 318.924 178.962 318.41C175.403 316.454 172.179 313.942 169.412 310.97C165.065 306.314 161.921 300.667 160.252 294.52C158.252 287.42 157.972 278.91 159.462 269.92L159.672 270.17H79.7721H0.522112L0.742106 269.95C0.0751495 278.249 0.648108 286.6 2.44211 294.73C4.11211 301.93 7.07211 307.83 10.5421 311.8C13.2145 314.892 16.5935 317.293 20.3921 318.8C21.0521 319.04 21.6221 319.29 22.1421 319.45L23.4421 319.82L24.4421 320.17Z" fill="#263238"/>
<path d="M135.932 0.089952H136.192C136.106 0.0702764 136.017 0.0702764 135.932 0.089952Z" fill="#455A64"/>
<path d="M136.191 0.00999451L136.201 0L136.191 0.00999451Z" fill="#455A64"/>
</svg>
