<svg xmlns="http://www.w3.org/2000/svg" viewBox="0 0 500 500"><g id="freepik--Floor--inject-33"><path d="M472.38,416.45c0,.15-99.57.26-222.37.26s-222.39-.11-222.39-.26,99.55-.26,222.39-.26S472.38,416.31,472.38,416.45Z" style="fill:#263238"></path></g><g id="freepik--Device--inject-33"><rect x="191.87" y="109.12" width="182.14" height="323.32" rx="16.79" style="fill:#263238"></rect><path d="M191.91,404.09H374a0,0,0,0,1,0,0v11.83a16.46,16.46,0,0,1-16.46,16.46H209a17,17,0,0,1-17-17V404.09A0,0,0,0,1,191.91,404.09Z" style="fill:#455a64"></path><path d="M208.71,109.12H357.38A16.64,16.64,0,0,1,374,125.76v4.6a0,0,0,0,1,0,0H191.91a0,0,0,0,1,0,0v-4.43A16.8,16.8,0,0,1,208.71,109.12Z" style="fill:#455a64"></path><circle cx="283.38" cy="120.93" r="4.33" style="fill:#fff"></circle><path d="M343.75,139.64h0a25.73,25.73,0,0,1,25.72,25.73V404.08H199V142.61Z" style="fill:#ebebeb"></path><g style="opacity:0.30000000000000004"><path d="M194.63,424.56H305a33.66,33.66,0,0,0,33.65-33.65V168.54s.73-21.94,10-26.57l-56.3,9.26L297,396.15l-105,19.18S192,421.43,194.63,424.56Z"></path></g><path d="M164.82,181.9V420.08H294.39c20.27,0,36.71-11.87,36.71-44.62v-235H198.93C180.09,140.44,164.82,159,164.82,181.9Z" style="fill:#f5f5f5"></path><path d="M164.82,369.87s0-.24,0-.72,0-1.21,0-2.13c0-1.89,0-4.64-.05-8.18,0-7.12-.05-17.39-.08-30.08,0-25.41,0-60.5-.08-99.24v-28.3q0-6.84,0-13.45c0-4.38-.14-8.72.53-12.9A45.34,45.34,0,0,1,174.22,153a37.14,37.14,0,0,1,7.89-7.4,23,23,0,0,1,2.21-1.36l1.1-.64c.37-.2.76-.35,1.14-.53.77-.33,1.52-.68,2.28-1l2.31-.72a14.43,14.43,0,0,1,2.3-.53c.77-.12,1.52-.32,2.28-.38,1.52-.07,3-.23,4.43-.18l8.08,0,12.94,0,8.17,0,2.13,0,.73,0-.73,0-2.13,0-8.17,0-12.94.05-8.08,0c-1.44,0-2.89.13-4.39.2-.75.06-1.49.26-2.25.38a13.13,13.13,0,0,0-2.27.54l-2.28.72c-.75.3-1.49.65-2.24,1-.38.18-.77.32-1.13.53l-1.09.63a23.61,23.61,0,0,0-2.17,1.35,36.34,36.34,0,0,0-7.78,7.34,44.83,44.83,0,0,0-9,21.65c-.67,4.13-.48,8.45-.51,12.84v13.45c0,9.14,0,18.61,0,28.3,0,38.74-.06,73.83-.08,99.24,0,12.69-.06,23-.08,30.08,0,3.54,0,6.29,0,8.18,0,.92,0,1.63,0,2.13S164.82,369.87,164.82,369.87Z" style="fill:#263238"></path><circle cx="200.9" cy="198.3" r="14.86" style="fill:#FF725E"></circle><polygon points="200.03 205.28 192.35 199.35 194.42 196.67 199.57 200.65 206.89 192.22 209.45 194.44 200.03 205.28" style="fill:#fff"></polygon><path d="M351.28,140.84c-10.49,3.61-20.24,11.65-20.21,26.62v25.07H319.66V140.2l26.32-.5A14.08,14.08,0,0,1,351.28,140.84Z" style="fill:#f5f5f5"></path><rect x="227.89" y="190.65" width="73.84" height="8.67" style="fill:#e0e0e0"></rect><rect x="227.89" y="209.77" width="45.07" height="8.67" style="fill:#e0e0e0"></rect><circle cx="200.9" cy="253.93" r="14.86" style="fill:#FF725E"></circle><rect x="227.89" y="246.28" width="73.84" height="8.67" style="fill:#e0e0e0"></rect><rect x="227.89" y="265.41" width="45.07" height="8.67" style="fill:#e0e0e0"></rect><path d="M200.9,324.93a15.36,15.36,0,1,1,15.36-15.36A15.38,15.38,0,0,1,200.9,324.93Zm0-29.72a14.36,14.36,0,1,0,14.36,14.36A14.37,14.37,0,0,0,200.9,295.21Z" style="fill:#FF725E"></path><rect x="227.89" y="301.92" width="73.84" height="8.67" style="fill:#e0e0e0"></rect><rect x="227.89" y="321.05" width="45.07" height="8.67" style="fill:#e0e0e0"></rect><path d="M200.9,380.57a15.36,15.36,0,1,1,15.36-15.36A15.38,15.38,0,0,1,200.9,380.57Zm0-29.72a14.36,14.36,0,1,0,14.36,14.36A14.37,14.37,0,0,0,200.9,350.85Z" style="fill:#FF725E"></path><rect x="227.89" y="357.56" width="73.84" height="8.67" style="fill:#e0e0e0"></rect><rect x="227.89" y="376.68" width="45.07" height="8.67" style="fill:#e0e0e0"></rect><g style="opacity:0.30000000000000004"><path d="M288.83,380.07H274l-7.73,15.47c0,.34,20.16,24.54,20.16,24.54h11.72C277.12,412.88,288.83,380.07,288.83,380.07Z"></path></g><path d="M115.82,369.87c0,1.17-4.32,44,24,50.21H298.16S268.29,410,275,369.87Z" style="fill:#ebebeb"></path><polygon points="200.03 261.48 192.35 255.55 194.42 252.87 199.57 256.85 206.89 248.42 209.45 250.64 200.03 261.48" style="fill:#fff"></polygon><path d="M294.39,420.08l.79-.05,2.34-.12c1,0,2.29-.26,3.79-.42.75-.08,1.53-.31,2.38-.47a18.46,18.46,0,0,0,2.67-.69,30.33,30.33,0,0,0,12.28-6.87,35.17,35.17,0,0,0,9.58-15.92,60.14,60.14,0,0,0,2.13-10.73c.1-.95.19-1.9.29-2.87s.08-1.95.13-2.94c.07-2,.14-4,.11-6.06,0-8.23,0-17,0-26.29,0-18.51,0-38.87,0-60.23,0-42.74.05-81.43.06-109.44,0-3.51,0-6.83,0-10a30,30,0,0,1,1.59-8.78,25.37,25.37,0,0,1,3.66-6.84,29.58,29.58,0,0,1,4.46-4.77,28.7,28.7,0,0,1,7.67-4.71,21.91,21.91,0,0,1,3-1l-.75.28c-.5.17-1.24.44-2.18.85a29.54,29.54,0,0,0-7.58,4.77,28.91,28.91,0,0,0-4.39,4.77,25.08,25.08,0,0,0-3.59,6.79,30,30,0,0,0-1.53,8.69c-.05,3.15,0,6.49,0,10,0,28,.05,66.7.09,109.44,0,21.36,0,41.72,0,60.23,0,9.26,0,18.06,0,26.29,0,2.06-.05,4.08-.12,6.07-.05,1,0,2-.14,3l-.3,2.89a59.63,59.63,0,0,1-2.18,10.78,35.31,35.31,0,0,1-9.73,16,30.49,30.49,0,0,1-12.42,6.86,20.2,20.2,0,0,1-2.69.66c-.86.16-1.65.38-2.4.45-1.5.15-2.77.36-3.8.38l-2.35.06Z" style="fill:#263238"></path><path d="M139.79,420.08s-.36-.07-1.07-.25l-1.31-.34c-.52-.15-1.1-.39-1.77-.62a25.2,25.2,0,0,1-10-7c-3.53-4-6.54-9.91-8.25-17.15a83.65,83.65,0,0,1-1.79-24.86v-.21h.2l79.25-.05,79.9.05h.25l0,.25c-1.5,8.94-1.25,17.39.7,24.44a38.87,38.87,0,0,0,18.44,23.86,31.83,31.83,0,0,0,2.84,1.44c.65.29,1,.43,1,.43a8.14,8.14,0,0,1-1-.37,28,28,0,0,1-2.87-1.38,38.15,38.15,0,0,1-9.55-7.44,39.12,39.12,0,0,1-9.16-16.45c-2-7.1-2.28-15.61-.79-24.6l.21.25-79.9,0-79.25,0,.22-.22a83.83,83.83,0,0,0,1.7,24.78c1.67,7.2,4.63,13.1,8.1,17.07a25.4,25.4,0,0,0,9.85,7c.66.24,1.23.49,1.75.65l1.3.37Z" style="fill:#263238"></path><path d="M307.68,125.29c.46-5.29,4.78-9.4,9.21-12.33a7.5,7.5,0,0,0,1.94-1.6,2.34,2.34,0,0,0,.36-2.37c-.51-1-1.79-1.22-2.89-1.34l-5.33-.57,1-7.48a38.38,38.38,0,0,1,9.06,1.56,13.07,13.07,0,0,1,7.21,5.43,7.94,7.94,0,0,1-.25,8.68c-1.41,1.81-3.7,2.76-5.16,4.52a7,7,0,0,0-.9,7.28c.82,1.69,2.36,3.14,2.41,5,.07,2.57-2.74,4.31-5.3,4.53a10.46,10.46,0,0,1-11.34-11.33Z" style="fill:#FF725E"></path><path d="M311.1,109.71a17.24,17.24,0,0,0,1.48-16A19,19,0,0,0,300.34,83a21.18,21.18,0,0,0-16.2,2.17,45.23,45.23,0,0,1-5.5,3.2c-2,.79-9,1.83-10.72.6l-9.15,19.21,4.27,1.16Z" style="fill:#FF725E"></path><path d="M238.72,100.7s-5.47-4.57-5.29-6c.3-2.44,7.27-2.85,7.27-2.85s.1-2.14,3.79-4.93,5.63-2.78,5.63-2.78,1.8-8.6,4.38-8.5,6.22,9.29,6.22,9.29,7.52,1,8.33,8.12-1.26,14-5.32,14.89-19.72,5.25-22.8-2" style="fill:#FF725E"></path><path d="M251.28,100l.26,0A.58.58,0,0,0,251.28,100Z" style="fill:#455a64"></path><polygon points="251.54 99.92 251.54 99.92 251.55 99.91 251.54 99.92" style="fill:#455a64"></polygon><g style="opacity:0.30000000000000004"><path d="M252.23,84.21a21.12,21.12,0,0,1,5.88.44q-1-2.58-1.9-5.18c-.19-.5-.63-1.24-1.16-1.24a1.31,1.31,0,0,0-1,.68,18.86,18.86,0,0,0-1.71,5.16"></path></g><g style="opacity:0.30000000000000004"><path d="M294.72,97.48a31.18,31.18,0,0,0-3.17-5.55,7.56,7.56,0,0,0-3.2,8,8.07,8.07,0,0,0-6.08,3,5.2,5.2,0,0,0,.22,6.46l8.78-1.21a6.27,6.27,0,0,0,4.09-4.54A10.3,10.3,0,0,0,294.72,97.48Z"></path></g><path d="M297.06,88.82c-8.08-.5-8.69,8.29-5.37,13.3a10.83,10.83,0,0,0-7,1.07,5.34,5.34,0,0,0-2.39,2.21c-.49,1,.17,3.54,1,4.31h24" style="fill:#FF725E"></path><path d="M307.25,109.71a2.84,2.84,0,0,1-.47,0l-1.36,0-5.05,0-17.08.05h-.07l0-.05a4.89,4.89,0,0,1-1-2.14,3.82,3.82,0,0,1,.05-2.43,5.22,5.22,0,0,1,2-2,10.45,10.45,0,0,1,2.46-1.06,10.83,10.83,0,0,1,5-.26l-.15.22a11.78,11.78,0,0,1-1.86-7.08A6.87,6.87,0,0,1,292.17,90a6.63,6.63,0,0,1,3.54-1.23h1l.34,0-.35,0-1,0a6.8,6.8,0,0,0-3.44,1.28,6.68,6.68,0,0,0-2.32,5,11.64,11.64,0,0,0,1.85,6.9l.18.28-.33-.06a10.74,10.74,0,0,0-4.89.27,10.13,10.13,0,0,0-2.39,1,4.81,4.81,0,0,0-1.86,1.83,3.54,3.54,0,0,0,0,2.21,4.79,4.79,0,0,0,.91,2l-.11,0,17.08,0,5.05,0,1.36,0A2.42,2.42,0,0,1,307.25,109.71Z" style="fill:#263238"></path><path d="M313,94.82a7.25,7.25,0,0,1,.45,1.67,19,19,0,0,1,.31,4.16,19.35,19.35,0,0,1-.62,4.13,6.46,6.46,0,0,1-.58,1.63,13.91,13.91,0,0,1,.37-1.68,25.31,25.31,0,0,0,.52-4.09,24.32,24.32,0,0,0-.22-4.11A15.45,15.45,0,0,1,313,94.82Z" style="fill:#263238"></path><g style="opacity:0.30000000000000004"><path d="M262.61,109.74a8.84,8.84,0,0,1,4.11-7.45,6.23,6.23,0,0,1,1.06-6.15c.12,1.82,1.59,3.27,2.09,5a6.41,6.41,0,0,1-.69,4.74,15.64,15.64,0,0,1-3.12,3.77,5.61,5.61,0,0,1-1.48,1.09,2,2,0,0,1-1.78,0"></path></g><path d="M268.17,95.55a6.46,6.46,0,0,0,.29,6.64,1.81,1.81,0,0,1,.42.87c0,.55-.47,1-.91,1.3a22.36,22.36,0,0,0-5.59,6.16s-4.34,7.2.1,10.34,7.5-4.43,9.31-6.48a39.14,39.14,0,0,1,6-4.78c3.63-1.79,3.62-3.77,3.42-5.25a10.53,10.53,0,0,0-1.7-4.13,42,42,0,0,1-2.39-3.82" style="fill:#FF725E"></path><path d="M277.12,96.4a1.63,1.63,0,0,1,.15.25l.44.73c.38.63,1,1.51,1.78,2.66a10.49,10.49,0,0,1,1.87,4.62,4,4,0,0,1-.77,3,7.76,7.76,0,0,1-2.74,2.08h0c-1,.68-2.07,1.43-3.12,2.24a19.22,19.22,0,0,0-3,2.77c-.85,1.12-1.57,2.43-2.46,3.65a8.64,8.64,0,0,1-3.4,3.13,3.45,3.45,0,0,1-1.74.23c-.28-.06-.56-.17-.84-.25s-.5-.27-.75-.41a4.78,4.78,0,0,1-1.95-2.65,9.57,9.57,0,0,1,.76-6.1,17.55,17.55,0,0,1,3-4.72,22.65,22.65,0,0,1,3.56-3.32,2.75,2.75,0,0,0,.75-.73.82.82,0,0,0,0-.88,7.94,7.94,0,0,1-.9-1.66,6.61,6.61,0,0,1-.39-3,6.08,6.08,0,0,1,.49-1.86,3.53,3.53,0,0,1,.32-.59,7.13,7.13,0,0,0-.69,2.46,6.6,6.6,0,0,0,.43,2.93,8.52,8.52,0,0,0,.92,1.64,1,1,0,0,1,0,1.08,3.12,3.12,0,0,1-.79.79,22.45,22.45,0,0,0-3.5,3.32,17.1,17.1,0,0,0-2.93,4.66,9.31,9.31,0,0,0-.74,5.9,4.53,4.53,0,0,0,1.83,2.48,3.11,3.11,0,0,0,3,.4,8.48,8.48,0,0,0,3.27-3c.89-1.21,1.59-2.5,2.47-3.66a19.74,19.74,0,0,1,3.09-2.81c1.07-.81,2.12-1.55,3.15-2.23h0a7.77,7.77,0,0,0,2.67-2,3.77,3.77,0,0,0,.74-2.82,10.22,10.22,0,0,0-1.79-4.55c-.74-1.17-1.35-2.07-1.71-2.71A9.67,9.67,0,0,1,277.12,96.4Z" style="fill:#263238"></path><g style="opacity:0.4"><path d="M246.66,97.28l.33-.63a3.45,3.45,0,0,1,.47-1l-4.75-7.08a13.91,13.91,0,0,1,3.57-2.88,28,28,0,0,0,3.4,8.25,3.61,3.61,0,0,1,1-.18,4.06,4.06,0,0,1,2.87,7.09,4.14,4.14,0,0,1-6.87-3.56Z" style="fill:#fff"></path></g><path d="M249.88,94.24a4.11,4.11,0,0,0-2.24,1.7.31.31,0,0,0,.13.55l1.58.3a.31.31,0,0,0,.35-.21l.66-2A.31.31,0,0,0,249.88,94.24Z" style="fill:#263238"></path><path d="M249.46,96.65s0,.1.12.25a2.85,2.85,0,0,0,.47.6,2.81,2.81,0,0,0,.94.63,2.72,2.72,0,0,0,1.38.16,2.24,2.24,0,0,0,1.86-1.54,1.82,1.82,0,0,0,.09-.75,1,1,0,0,0,0-.28,2.66,2.66,0,0,1-.13,1,2.12,2.12,0,0,1-.6.9,2.3,2.3,0,0,1-1.19.54A2.47,2.47,0,0,1,251,98a2.78,2.78,0,0,1-.93-.57A4.62,4.62,0,0,1,249.46,96.65Z" style="fill:#263238"></path><path d="M247.22,100.38a.72.72,0,0,0,.24.1,3.87,3.87,0,0,0,.68.2,2,2,0,0,0,1.05-.05,1.74,1.74,0,0,0,.93-.9,2.34,2.34,0,0,0,.2-1.28,3.46,3.46,0,0,0-.32-1,4.09,4.09,0,0,0-.36-.61,1,1,0,0,0-.16-.2s.19.31.44.85a3.47,3.47,0,0,1,.27,1,2.13,2.13,0,0,1-.19,1.2,1.58,1.58,0,0,1-.85.84,2,2,0,0,1-1,.08C247.58,100.49,247.23,100.35,247.22,100.38Z" style="fill:#263238"></path><path d="M250.45,100.22a1,1,0,0,0,.43.1,1.89,1.89,0,0,0,1-.26,1.86,1.86,0,0,0,.71-.8c.11-.25.12-.42.1-.42s-.06.15-.19.38a1.93,1.93,0,0,1-1.65,1C250.62,100.23,250.46,100.2,250.45,100.22Z" style="fill:#263238"></path><path d="M248.78,85.35a7.66,7.66,0,0,1,2.84-2,2,2,0,0,0-.44,1.19,10.72,10.72,0,0,1,5.22-1l-.79,1L251.47,87Z" style="fill:#FF725E"></path><path d="M246.56,96.21a3.63,3.63,0,1,1-5-1.34A3.63,3.63,0,0,1,246.56,96.21Z" style="fill:#fff"></path><path d="M246.56,96.21a4.61,4.61,0,0,0-.55-.69,3.61,3.61,0,0,0-2.14-1,3.58,3.58,0,0,0-3.18,1.25,3.1,3.1,0,0,0-.54.87,3.27,3.27,0,0,0-.28,1,3.57,3.57,0,0,0,.45,2.17,3.52,3.52,0,0,0,1.65,1.48,3.25,3.25,0,0,0,1,.29,3.54,3.54,0,0,0,1,0,3.59,3.59,0,0,0,2.85-4.49,4.51,4.51,0,0,0-.32-.84s0,0,0,.05l.08.15a1.62,1.62,0,0,1,.12.26,2.12,2.12,0,0,1,.13.36,3.44,3.44,0,0,1,.15,1,3.6,3.6,0,0,1-.28,1.37,3.66,3.66,0,0,1-1,1.38,3.7,3.7,0,0,1-1.76.83,3.75,3.75,0,0,1-1.06,0,3.41,3.41,0,0,1-1.07-.29,3.62,3.62,0,0,1-1.71-1.53,3.72,3.72,0,0,1-.47-2.26,3.53,3.53,0,0,1,.29-1.07,3.59,3.59,0,0,1,.56-.9,3.65,3.65,0,0,1,3.3-1.26,3.54,3.54,0,0,1,1.32.45,3.28,3.28,0,0,1,.83.65,2.09,2.09,0,0,1,.25.3,1.38,1.38,0,0,1,.16.23l.09.15S246.57,96.21,246.56,96.21Z" style="fill:#263238"></path><path d="M241,100.25c-.92-1-1.23-2.16-.69-2.68s1.74-.18,2.66.78,1.24,2.16.69,2.69S241.94,101.21,241,100.25Z" style="fill:#FF725E"></path><path d="M242.93,97.6c.12.06,0,.5-.23,1s-.55.81-.67.75,0-.51.22-1S242.8,97.53,242.93,97.6Z" style="fill:#fff"></path><path d="M257.57,89.27a3.63,3.63,0,1,1-5-1.34A3.63,3.63,0,0,1,257.57,89.27Z" style="fill:#fff"></path><path d="M257.57,89.27a8.38,8.38,0,0,0-.56-.69,3.61,3.61,0,0,0-2.13-1,3.61,3.61,0,0,0-3.19,1.25,3.35,3.35,0,0,0-.54.87,3.27,3.27,0,0,0-.28,1A3.56,3.56,0,0,0,254,94.63a3.48,3.48,0,0,0,1,0,3.62,3.62,0,0,0,1.71-.8,3.51,3.51,0,0,0,1-1.33,3.62,3.62,0,0,0,.17-2.36,7.5,7.5,0,0,0-.32-.84l0,0,.08.15a1.06,1.06,0,0,1,.12.26,1.51,1.51,0,0,1,.13.36,3.2,3.2,0,0,1,.15,1,3.42,3.42,0,0,1-.28,1.37,3.66,3.66,0,0,1-1,1.38,3.7,3.7,0,0,1-1.76.83,3.13,3.13,0,0,1-1.06,0,3.22,3.22,0,0,1-1.07-.29,3.66,3.66,0,0,1-1.71-1.53,3.72,3.72,0,0,1-.47-2.26A3.53,3.53,0,0,1,251,89.6a3.75,3.75,0,0,1,2.17-2,3.69,3.69,0,0,1,1.69-.16,3.48,3.48,0,0,1,1.32.45,3.52,3.52,0,0,1,.83.65,2.09,2.09,0,0,1,.25.3,1.38,1.38,0,0,1,.16.23l.09.15Z" style="fill:#263238"></path><path d="M252.09,93.11c-.86-1-1.1-2.24-.52-2.73s1.74-.06,2.6,1,1.1,2.23.53,2.72S253,94.12,252.09,93.11Z" style="fill:#FF725E"></path><path d="M254.24,90.58c.11.08-.05.5-.36.94s-.66.73-.77.65,0-.5.36-.94S254.13,90.49,254.24,90.58Z" style="fill:#fff"></path><path d="M253,95.8s4-2.29,8.85-5.17,8.81-5.25,8.79-5.29-4,2.29-8.85,5.17S252.94,95.77,253,95.8Z" style="fill:#263238"></path><path d="M252.91,96.51s.06,0,.17-.06l.45-.19,1.67-.74c1.4-.64,3.32-1.55,5.41-2.63s3.95-2.1,5.29-2.87c.67-.38,1.2-.69,1.57-.92l.42-.26c.1-.06.15-.09.15-.1l-.16.08-.44.24-1.59.88c-1.34.75-3.21,1.76-5.3,2.84s-4,2-5.39,2.66l-1.65.77-.45.22Z" style="fill:#263238"></path><path d="M237.15,108.51s2.61-2.11,5.77-4.78,5.7-4.85,5.68-4.88-2.6,2.11-5.77,4.78S237.13,108.48,237.15,108.51Z" style="fill:#263238"></path><path d="M240.73,108.89s1.78-2,3.91-4.44,3.83-4.51,3.8-4.53-1.77,2-3.9,4.44S240.7,108.86,240.73,108.89Z" style="fill:#263238"></path><path d="M248.18,95.63s.36-.29.83-.6.9-.49.89-.52a2.29,2.29,0,0,0-1,.41A2.22,2.22,0,0,0,248.18,95.63Z" style="fill:#fff"></path><g style="opacity:0.30000000000000004"><path d="M314.81,101.19a1.67,1.67,0,0,0-1.15-1.36,70,70,0,0,1-1,7.3c1.18-.66,1.74-2.76,2-4.08A4.91,4.91,0,0,0,314.81,101.19Z"></path></g></g></svg>
