<svg width="177" height="362" viewBox="0 0 177 362" fill="none" xmlns="http://www.w3.org/2000/svg">
<path d="M149.83 361.28L27.2699 361.21C20.192 361.205 13.4059 358.389 8.40303 353.383C3.40013 348.376 0.589842 341.588 0.589844 334.51L0.649841 27.2701C0.651154 23.7638 1.34308 20.2921 2.6861 17.0532C4.02911 13.8143 5.99692 10.8717 8.47717 8.39326C10.9574 5.91486 13.9015 3.94926 17.1414 2.60867C20.3813 1.26808 23.8536 0.578767 27.3598 0.58008L149.92 0.65008C156.998 0.655381 163.784 3.47075 168.787 8.4774C173.79 13.484 176.6 20.2723 176.6 27.3501L176.54 334.59C176.539 338.096 175.847 341.568 174.504 344.807C173.161 348.046 171.193 350.989 168.713 353.467C166.232 355.945 163.288 357.911 160.048 359.251C156.808 360.592 153.336 361.281 149.83 361.28Z" fill="#455A64"/>
<path d="M149.509 11.6101H125.749C124.191 11.6468 122.71 12.2981 121.629 13.4219C120.548 14.5457 119.955 16.0511 119.979 17.6101V21.9201C120.006 23.4798 119.414 24.9867 118.333 26.1111C117.252 27.2355 115.769 27.886 114.209 27.9201H67.8994C66.3398 27.886 64.8572 27.2355 63.7759 26.1111C62.6946 24.9867 62.1026 23.4798 62.1295 21.9201V17.5901C62.1536 16.0311 61.5608 14.5257 60.48 13.4019C59.3993 12.2781 57.9182 11.6268 56.3595 11.5901H27.2095C22.2577 11.5848 17.5063 13.5447 13.9984 17.0395C10.4904 20.5343 8.51269 25.2784 8.49945 30.2301L8.43945 330.12C8.43945 335.076 10.4069 339.83 13.9095 343.336C17.4121 346.842 22.1634 348.815 27.1194 348.82L149.429 348.89C151.886 348.893 154.318 348.411 156.588 347.473C158.858 346.535 160.921 345.159 162.658 343.423C164.396 341.687 165.774 339.626 166.715 337.357C167.655 335.088 168.139 332.656 168.139 330.2L168.199 30.3101C168.201 27.8549 167.718 25.4234 166.78 23.1547C165.841 20.8859 164.464 18.8244 162.729 17.0878C160.993 15.3512 158.932 13.9736 156.664 13.0337C154.396 12.0939 151.965 11.6101 149.509 11.6101Z" fill="white"/>
<path d="M25.1393 48.1502C25.0167 48.1506 24.8986 48.104 24.8093 48.0202L20.1493 43.9402C20.0949 43.8936 20.0521 43.8351 20.0243 43.7691C19.9965 43.7031 19.9846 43.6316 19.9893 43.5602C19.9888 43.4898 20.0037 43.4202 20.0331 43.3562C20.0625 43.2923 20.1056 43.2356 20.1593 43.1902L24.8193 39.3202C24.9193 39.2415 25.046 39.2049 25.1725 39.2179C25.299 39.231 25.4156 39.2928 25.4974 39.3902C25.5792 39.4876 25.6199 39.613 25.611 39.7399C25.602 39.8668 25.544 39.9852 25.4493 40.0702L21.2293 43.5802L25.4593 47.2902C25.5503 47.3819 25.6013 47.5059 25.6013 47.6352C25.6013 47.7644 25.5503 47.8884 25.4593 47.9802C25.3789 48.0765 25.2641 48.1375 25.1393 48.1502Z" fill="#263238"/>
<path d="M150.939 120.75H122.539C118.446 120.75 115.129 124.068 115.129 128.16V133.79C115.129 137.882 118.446 141.2 122.539 141.2H150.939C155.031 141.2 158.349 137.882 158.349 133.79V128.16C158.349 124.068 155.031 120.75 150.939 120.75Z" fill="#704FE6"/>
<path d="M167.469 58.1001C167.469 58.2401 131.699 58.3601 87.589 58.3601C43.479 58.3601 7.70898 58.2401 7.70898 58.1001C7.70898 57.9601 43.469 57.8401 87.589 57.8401C131.709 57.8401 167.469 58.0001 167.469 58.1001Z" fill="#E0E0E0"/>
<path d="M167.469 99.8901C167.469 100.04 131.699 100.15 87.589 100.15C43.479 100.15 7.70898 100.04 7.70898 99.8901C7.70898 99.7401 43.469 99.6301 87.589 99.6301C131.709 99.6301 167.469 99.7501 167.469 99.8901Z" fill="#E0E0E0"/>
<path d="M168.459 156.64C168.459 156.78 132.689 156.9 88.5792 156.9C44.4692 156.9 8.69922 156.78 8.69922 156.64C8.69922 156.5 44.4592 156.37 88.5792 156.37C132.699 156.37 168.459 156.49 168.459 156.64Z" fill="#E0E0E0"/>
<path d="M168.481 211.48C168.481 211.62 132.711 211.74 88.6007 211.74C44.4907 211.74 8.7207 211.62 8.7207 211.48C8.7207 211.34 44.4707 211.22 88.6007 211.22C132.731 211.22 168.481 211.34 168.481 211.48Z" fill="#E0E0E0"/>
<path d="M168.481 266.94C168.481 267.08 132.711 267.2 88.6007 267.2C44.4907 267.2 8.7207 267.08 8.7207 266.94C8.7207 266.8 44.4707 266.68 88.6007 266.68C132.731 266.68 168.481 266.8 168.481 266.94Z" fill="#E0E0E0"/>
<path d="M150.891 70.23H29.9005C25.9848 70.23 22.8105 73.4043 22.8105 77.32V82.71C22.8105 86.6257 25.9848 89.8 29.9005 89.8H150.891C154.806 89.8 157.981 86.6257 157.981 82.71V77.32C157.981 73.4043 154.806 70.23 150.891 70.23Z" fill="#EBEBEB"/>
<path d="M145.66 83.1801C144.742 83.1801 143.845 82.908 143.082 82.3982C142.319 81.8883 141.724 81.1636 141.373 80.3158C141.022 79.4679 140.93 78.535 141.109 77.6349C141.288 76.7349 141.73 75.9081 142.379 75.2592C143.027 74.6103 143.854 74.1683 144.754 73.9893C145.654 73.8103 146.587 73.9022 147.435 74.2533C148.283 74.6045 149.008 75.1993 149.518 75.9623C150.027 76.7253 150.3 77.6224 150.3 78.5401C150.3 79.7708 149.811 80.951 148.941 81.8211C148.07 82.6913 146.89 83.1801 145.66 83.1801ZM145.66 74.4001C144.841 74.4001 144.04 74.643 143.359 75.0979C142.679 75.5528 142.148 76.1993 141.835 76.9558C141.521 77.7123 141.439 78.5447 141.599 79.3478C141.759 80.1509 142.153 80.8886 142.732 81.4676C143.311 82.0466 144.049 82.4409 144.852 82.6006C145.655 82.7603 146.487 82.6784 147.244 82.365C148 82.0517 148.647 81.521 149.102 80.8402C149.557 80.1594 149.8 79.359 149.8 78.5401C149.8 77.4422 149.363 76.3891 148.587 75.6127C147.811 74.8363 146.758 74.4001 145.66 74.4001Z" fill="#263238"/>
<path d="M151.621 83.9401C151.575 83.9541 151.526 83.9541 151.481 83.9401L148.651 81.8501C148.625 81.8304 148.602 81.8058 148.586 81.7775C148.569 81.7493 148.558 81.718 148.553 81.6855C148.549 81.653 148.55 81.6199 148.559 81.5881C148.567 81.5563 148.581 81.5264 148.601 81.5001C148.62 81.4739 148.645 81.4518 148.673 81.435C148.702 81.4183 148.733 81.4073 148.765 81.4027C148.798 81.398 148.831 81.3998 148.863 81.408C148.895 81.4161 148.925 81.4304 148.951 81.4501L151.771 83.5401C151.798 83.5591 151.821 83.5832 151.839 83.6111C151.856 83.639 151.868 83.6701 151.874 83.7026C151.879 83.7352 151.878 83.7685 151.871 83.8007C151.864 83.8329 151.85 83.8633 151.831 83.8901C151.801 83.912 151.767 83.9276 151.731 83.9362C151.695 83.9448 151.657 83.9461 151.621 83.9401Z" fill="#263238"/>
<path d="M104.689 128.73C104.689 128.88 96.2392 128.99 85.8192 128.99C75.3992 128.99 66.9492 128.88 66.9492 128.73C66.9492 128.58 75.3992 128.47 85.8192 128.47C96.2392 128.47 104.689 128.59 104.689 128.73Z" fill="#263238"/>
<path d="M89.7692 135.09C89.7692 135.24 84.6692 135.35 78.3592 135.35C72.0492 135.35 66.9492 135.24 66.9492 135.09C66.9492 134.94 72.0592 134.83 78.3592 134.83C84.6592 134.83 89.7692 135 89.7692 135.09Z" fill="#E0E0E0"/>
<path d="M150.939 175.92H122.539C118.446 175.92 115.129 179.238 115.129 183.33V188.96C115.129 193.053 118.446 196.37 122.539 196.37H150.939C155.031 196.37 158.349 193.053 158.349 188.96V183.33C158.349 179.238 155.031 175.92 150.939 175.92Z" fill="#704FE6"/>
<path d="M130.089 186.43C130.393 186.289 130.649 186.062 130.826 185.778C131.004 185.494 131.095 185.165 131.089 184.83C131.089 184.4 130.918 183.988 130.615 183.684C130.311 183.381 129.899 183.21 129.469 183.21C129.039 183.21 128.627 183.381 128.324 183.684C128.02 183.988 127.849 184.4 127.849 184.83C127.842 185.168 127.932 185.5 128.109 185.788C128.287 186.075 128.544 186.305 128.849 186.45C128.344 186.57 127.884 186.83 127.52 187.2C127.155 187.569 126.902 188.034 126.789 188.54H132.039C131.931 188.047 131.693 187.591 131.351 187.22C131.008 186.849 130.572 186.577 130.089 186.43Z" fill="white"/>
<path d="M138.8 187.12H137L136.66 187.95H135.74L137.47 184.08H138.35L140.09 187.95H139.14L138.8 187.12ZM138.52 186.44L137.9 185L137.29 186.48L138.52 186.44Z" fill="white"/>
<path d="M143.439 183.84V188H142.609V187.66C142.496 187.791 142.354 187.895 142.195 187.962C142.035 188.03 141.862 188.06 141.689 188.05C141.304 188.019 140.944 187.844 140.682 187.559C140.419 187.275 140.273 186.902 140.273 186.515C140.273 186.128 140.419 185.755 140.682 185.471C140.944 185.186 141.304 185.011 141.689 184.98C141.855 184.971 142.021 184.999 142.175 185.061C142.328 185.123 142.467 185.218 142.579 185.34V183.89L143.439 183.84ZM142.589 186.46C142.576 186.314 142.52 186.174 142.429 186.059C142.337 185.943 142.215 185.857 142.075 185.81C141.936 185.763 141.785 185.757 141.643 185.794C141.5 185.831 141.372 185.908 141.272 186.017C141.173 186.125 141.107 186.26 141.083 186.406C141.059 186.551 141.077 186.7 141.136 186.835C141.195 186.97 141.292 187.084 141.415 187.165C141.538 187.246 141.682 187.289 141.829 187.29C141.936 187.292 142.042 187.271 142.139 187.23C142.237 187.188 142.325 187.125 142.397 187.047C142.469 186.968 142.523 186.875 142.556 186.774C142.59 186.673 142.601 186.566 142.589 186.46Z" fill="white"/>
<path d="M147.28 183.84V188H146.45V187.66C146.334 187.791 146.191 187.895 146.03 187.962C145.868 188.03 145.694 188.06 145.52 188.05C145.134 188.019 144.774 187.844 144.512 187.559C144.249 187.275 144.104 186.902 144.104 186.515C144.104 186.128 144.249 185.755 144.512 185.471C144.774 185.186 145.134 185.011 145.52 184.98C145.685 184.97 145.851 184.997 146.005 185.059C146.159 185.121 146.298 185.217 146.41 185.34V183.89L147.28 183.84ZM146.43 186.46C146.416 186.314 146.36 186.174 146.269 186.059C146.177 185.943 146.055 185.857 145.915 185.81C145.776 185.763 145.625 185.757 145.483 185.794C145.34 185.831 145.212 185.908 145.112 186.017C145.013 186.125 144.947 186.26 144.923 186.406C144.899 186.551 144.917 186.7 144.977 186.835C145.036 186.97 145.132 187.084 145.255 187.165C145.378 187.246 145.522 187.289 145.67 187.29C145.776 187.292 145.882 187.271 145.979 187.23C146.077 187.188 146.165 187.125 146.237 187.047C146.309 186.968 146.363 186.875 146.396 186.774C146.43 186.673 146.441 186.566 146.43 186.46Z" fill="white"/>
<path d="M125.44 186.53C125.347 186.53 125.258 186.493 125.192 186.428C125.127 186.362 125.09 186.273 125.09 186.18V184.35C125.104 184.269 125.146 184.195 125.209 184.142C125.272 184.088 125.352 184.059 125.435 184.059C125.517 184.059 125.597 184.088 125.661 184.142C125.724 184.195 125.766 184.269 125.78 184.35V186.18C125.78 186.271 125.744 186.359 125.681 186.424C125.617 186.49 125.531 186.528 125.44 186.53Z" fill="white"/>
<path d="M126.35 185.61H124.52C124.43 185.61 124.343 185.574 124.279 185.511C124.216 185.447 124.18 185.36 124.18 185.27C124.18 185.179 124.215 185.092 124.279 185.026C124.342 184.961 124.429 184.923 124.52 184.92H126.35C126.441 184.923 126.527 184.961 126.591 185.026C126.654 185.092 126.69 185.179 126.69 185.27C126.69 185.36 126.654 185.447 126.59 185.511C126.526 185.574 126.44 185.61 126.35 185.61Z" fill="white"/>
<path d="M150.81 176H122.41C118.318 176 115 179.318 115 183.41V189.04C115 193.132 118.318 196.45 122.41 196.45H150.81C154.902 196.45 158.22 193.132 158.22 189.04V183.41C158.22 179.318 154.902 176 150.81 176Z" fill="#704FE6"/>
<path d="M104.69 183.9C104.69 184.04 96.24 184.16 85.82 184.16C75.4 184.16 67 184 67 183.9C67 183.8 75.45 183.64 85.87 183.64C96.29 183.64 104.69 183.75 104.69 183.9Z" fill="#263238"/>
<path d="M89.77 190.26C89.77 190.4 84.67 190.52 78.36 190.52C72.05 190.52 67 190.4 67 190.26C67 190.12 72.11 190 78.41 190C84.71 190 89.77 190.12 89.77 190.26Z" fill="#E0E0E0"/>
<path d="M150.939 231.08H122.539C118.446 231.08 115.129 234.398 115.129 238.49V244.12C115.129 248.213 118.446 251.53 122.539 251.53H150.939C155.031 251.53 158.349 248.213 158.349 244.12V238.49C158.349 234.398 155.031 231.08 150.939 231.08Z" fill="#704FE6"/>
<path d="M130.089 241.59C130.394 241.45 130.65 241.224 130.828 240.939C131.006 240.655 131.096 240.325 131.089 239.99C131.089 239.56 130.918 239.148 130.615 238.845C130.311 238.541 129.899 238.37 129.469 238.37C129.039 238.37 128.627 238.541 128.324 238.845C128.02 239.148 127.849 239.56 127.849 239.99C127.842 240.326 127.933 240.657 128.111 240.943C128.288 241.229 128.545 241.457 128.849 241.6C128.344 241.721 127.884 241.98 127.52 242.35C127.155 242.719 126.902 243.184 126.789 243.69H132.039C131.929 243.199 131.691 242.745 131.348 242.376C131.006 242.007 130.571 241.736 130.089 241.59Z" fill="white"/>
<path d="M138.8 242.29H137L136.66 243.12H135.74L137.47 239.24H138.35L140.09 243.12H139.14L138.8 242.29ZM138.52 241.61L137.9 240.12L137.29 241.61H138.52Z" fill="white"/>
<path d="M143.439 239V243.11H142.609V242.76C142.498 242.893 142.356 242.998 142.196 243.065C142.036 243.133 141.863 243.162 141.689 243.15C141.304 243.119 140.944 242.944 140.682 242.659C140.419 242.375 140.273 242.002 140.273 241.615C140.273 241.228 140.419 240.855 140.682 240.571C140.944 240.286 141.304 240.111 141.689 240.08C141.855 240.074 142.02 240.102 142.173 240.165C142.326 240.227 142.465 240.32 142.579 240.44V239H143.439ZM142.589 241.62C142.578 241.473 142.524 241.332 142.433 241.215C142.343 241.099 142.221 241.011 142.081 240.962C141.942 240.914 141.791 240.907 141.648 240.943C141.505 240.978 141.375 241.055 141.274 241.163C141.174 241.272 141.107 241.407 141.083 241.552C141.058 241.698 141.076 241.848 141.135 241.983C141.194 242.118 141.291 242.234 141.414 242.315C141.537 242.396 141.682 242.44 141.829 242.44C141.934 242.44 142.037 242.419 142.132 242.378C142.228 242.336 142.314 242.276 142.385 242.2C142.457 242.124 142.511 242.034 142.547 241.936C142.582 241.838 142.596 241.734 142.589 241.63V241.62Z" fill="white"/>
<path d="M147.28 239V243.11H146.45V242.76C146.336 242.893 146.192 242.998 146.031 243.066C145.869 243.133 145.694 243.162 145.52 243.15C145.134 243.119 144.774 242.944 144.512 242.659C144.249 242.375 144.104 242.002 144.104 241.615C144.104 241.228 144.249 240.855 144.512 240.571C144.774 240.286 145.134 240.111 145.52 240.08C145.685 240.072 145.851 240.1 146.004 240.162C146.158 240.224 146.296 240.319 146.41 240.44V239H147.28ZM146.43 241.62C146.418 241.473 146.364 241.332 146.273 241.215C146.183 241.099 146.061 241.011 145.921 240.962C145.782 240.914 145.631 240.907 145.488 240.943C145.345 240.978 145.215 241.055 145.114 241.163C145.014 241.272 144.947 241.407 144.923 241.552C144.898 241.698 144.916 241.848 144.975 241.983C145.034 242.118 145.131 242.234 145.254 242.315C145.378 242.396 145.522 242.44 145.67 242.44C145.774 242.44 145.877 242.419 145.972 242.378C146.068 242.336 146.154 242.276 146.225 242.2C146.297 242.124 146.352 242.034 146.387 241.936C146.422 241.838 146.436 241.734 146.43 241.63V241.62Z" fill="white"/>
<path d="M125.439 241.69C125.394 241.691 125.348 241.684 125.306 241.667C125.263 241.651 125.225 241.626 125.192 241.594C125.159 241.562 125.133 241.524 125.116 241.482C125.098 241.441 125.089 241.396 125.089 241.35V239.52C125.08 239.47 125.083 239.418 125.096 239.369C125.11 239.32 125.134 239.274 125.166 239.235C125.199 239.196 125.24 239.165 125.286 239.144C125.333 239.122 125.383 239.111 125.434 239.111C125.485 239.111 125.535 239.122 125.581 239.144C125.628 239.165 125.669 239.196 125.702 239.235C125.734 239.274 125.758 239.32 125.772 239.369C125.785 239.418 125.788 239.47 125.779 239.52V241.35C125.779 241.44 125.743 241.527 125.679 241.59C125.616 241.654 125.529 241.69 125.439 241.69Z" fill="white"/>
<path d="M126.35 240.78H124.52C124.429 240.777 124.342 240.739 124.279 240.674C124.215 240.609 124.18 240.521 124.18 240.43C124.18 240.34 124.216 240.253 124.279 240.19C124.343 240.126 124.43 240.09 124.52 240.09H126.35C126.44 240.09 126.526 240.126 126.59 240.19C126.654 240.253 126.69 240.34 126.69 240.43C126.69 240.521 126.654 240.609 126.591 240.674C126.527 240.739 126.441 240.777 126.35 240.78Z" fill="white"/>
<path d="M150.81 231H122.41C118.318 231 115 234.318 115 238.41V244.04C115 248.132 118.318 251.45 122.41 251.45H150.81C154.902 251.45 158.22 248.132 158.22 244.04V238.41C158.22 234.318 154.902 231 150.81 231Z" fill="#704FE6"/>
<path d="M104.689 239.06C104.689 239.21 96.2392 239.32 85.8192 239.32C75.3992 239.32 66.9492 239.21 66.9492 239.06C66.9492 238.91 75.3992 238.8 85.8192 238.8C96.2392 238.8 104.689 238.92 104.689 239.06Z" fill="#263238"/>
<path d="M89.7692 245.42C89.7692 245.57 84.6692 245.68 78.3592 245.68C72.0492 245.68 66.9492 245.57 66.9492 245.42C66.9492 245.27 72.0592 245.16 78.3592 245.16C84.6592 245.16 89.7692 245.28 89.7692 245.42Z" fill="#E0E0E0"/>
<path d="M150.939 286.25H122.539C118.446 286.25 115.129 289.568 115.129 293.66V299.29C115.129 303.382 118.446 306.7 122.539 306.7H150.939C155.031 306.7 158.349 303.382 158.349 299.29V293.66C158.349 289.568 155.031 286.25 150.939 286.25Z" fill="#704FE6"/>
<path d="M130.089 296.76C130.393 296.619 130.649 296.392 130.826 296.108C131.004 295.824 131.095 295.495 131.089 295.16C131.089 294.73 130.918 294.318 130.615 294.015C130.311 293.711 129.899 293.54 129.469 293.54C129.039 293.54 128.627 293.711 128.324 294.015C128.02 294.318 127.849 294.73 127.849 295.16C127.842 295.498 127.932 295.83 128.109 296.118C128.287 296.405 128.544 296.635 128.849 296.78C128.344 296.901 127.884 297.16 127.52 297.53C127.155 297.899 126.902 298.364 126.789 298.87H132.039C131.931 298.377 131.693 297.921 131.351 297.55C131.008 297.179 130.572 296.907 130.089 296.76Z" fill="white"/>
<path d="M138.8 297.45H137L136.66 298.28H135.74L137.47 294.41H138.35L140.09 298.28H139.14L138.8 297.45ZM138.52 296.77L137.9 295.29L137.29 296.77H138.52Z" fill="white"/>
<path d="M143.439 294.17V298.28H142.609V297.94C142.496 298.071 142.354 298.175 142.195 298.242C142.035 298.31 141.862 298.34 141.689 298.33C141.304 298.299 140.944 298.124 140.682 297.839C140.419 297.555 140.273 297.182 140.273 296.795C140.273 296.408 140.419 296.035 140.682 295.751C140.944 295.467 141.304 295.291 141.689 295.26C141.855 295.251 142.021 295.279 142.175 295.341C142.328 295.403 142.467 295.498 142.579 295.62V294.17H143.439ZM142.589 296.79C142.576 296.644 142.52 296.504 142.429 296.389C142.337 296.273 142.215 296.187 142.075 296.14C141.936 296.093 141.785 296.087 141.643 296.124C141.5 296.161 141.372 296.238 141.272 296.347C141.173 296.455 141.107 296.591 141.083 296.736C141.059 296.881 141.077 297.03 141.136 297.165C141.195 297.3 141.292 297.415 141.415 297.495C141.538 297.576 141.682 297.62 141.829 297.62C141.936 297.622 142.042 297.602 142.139 297.56C142.237 297.518 142.325 297.455 142.397 297.377C142.469 297.298 142.523 297.205 142.556 297.104C142.59 297.003 142.601 296.896 142.589 296.79Z" fill="white"/>
<path d="M147.28 294.17V298.28H146.45V297.94C146.334 298.072 146.191 298.175 146.03 298.243C145.868 298.31 145.694 298.34 145.52 298.33C145.134 298.299 144.774 298.124 144.512 297.839C144.249 297.555 144.104 297.182 144.104 296.795C144.104 296.408 144.249 296.035 144.512 295.751C144.774 295.467 145.134 295.291 145.52 295.26C145.685 295.25 145.851 295.277 146.005 295.339C146.159 295.401 146.298 295.497 146.41 295.62V294.17H147.28ZM146.43 296.79C146.416 296.644 146.36 296.504 146.269 296.389C146.177 296.273 146.055 296.187 145.915 296.14C145.776 296.093 145.625 296.087 145.483 296.124C145.34 296.161 145.212 296.238 145.112 296.347C145.013 296.455 144.947 296.591 144.923 296.736C144.899 296.881 144.917 297.03 144.977 297.165C145.036 297.3 145.132 297.415 145.255 297.495C145.378 297.576 145.522 297.62 145.67 297.62C145.776 297.622 145.882 297.602 145.979 297.56C146.077 297.518 146.165 297.455 146.237 297.377C146.309 297.298 146.363 297.205 146.396 297.104C146.43 297.003 146.441 296.896 146.43 296.79Z" fill="white"/>
<path d="M125.44 296.85C125.394 296.852 125.349 296.844 125.307 296.827C125.264 296.811 125.226 296.786 125.193 296.754C125.16 296.723 125.134 296.685 125.117 296.643C125.099 296.601 125.09 296.556 125.09 296.51V294.68C125.104 294.599 125.146 294.525 125.209 294.472C125.272 294.418 125.352 294.389 125.435 294.389C125.517 294.389 125.597 294.418 125.661 294.472C125.724 294.525 125.766 294.599 125.78 294.68V296.51C125.78 296.6 125.744 296.687 125.68 296.751C125.617 296.814 125.53 296.85 125.44 296.85Z" fill="white"/>
<path d="M126.35 295.94H124.52C124.43 295.94 124.343 295.904 124.279 295.84C124.216 295.777 124.18 295.69 124.18 295.6C124.18 295.509 124.215 295.421 124.279 295.356C124.342 295.291 124.429 295.253 124.52 295.25H126.35C126.441 295.253 126.527 295.291 126.591 295.356C126.654 295.421 126.69 295.509 126.69 295.6C126.69 295.69 126.654 295.777 126.59 295.84C126.526 295.904 126.44 295.94 126.35 295.94Z" fill="white"/>
<path d="M150.939 286.25H122.539C118.446 286.25 115.129 289.568 115.129 293.66V299.29C115.129 303.382 118.446 306.7 122.539 306.7H150.939C155.031 306.7 158.349 303.382 158.349 299.29V293.66C158.349 289.568 155.031 286.25 150.939 286.25Z" fill="#704FE6"/>
<path d="M104.689 294.23C104.689 294.37 96.2392 294.49 85.8192 294.49C75.3992 294.49 66.9492 294.37 66.9492 294.23C66.9492 294.09 75.3992 293.97 85.8192 293.97C96.2392 293.97 104.689 294.08 104.689 294.23Z" fill="#263238"/>
<path d="M89.7692 300.59C89.7692 300.73 84.6692 300.85 78.3592 300.85C72.0492 300.85 66.9492 300.73 66.9492 300.59C66.9492 300.45 72.0592 300.33 78.3592 300.33C84.6592 300.33 89.7692 300.45 89.7692 300.59Z" fill="#E0E0E0"/>
<path d="M80.819 332.67C82.2604 332.67 83.429 331.502 83.429 330.06C83.429 328.619 82.2604 327.45 80.819 327.45C79.3775 327.45 78.209 328.619 78.209 330.06C78.209 331.502 79.3775 332.67 80.819 332.67Z" fill="#EBEBEB"/>
<path d="M90.4791 332.67C91.9206 332.67 93.0891 331.502 93.0891 330.06C93.0891 328.619 91.9206 327.45 90.4791 327.45C89.0377 327.45 87.8691 328.619 87.8691 330.06C87.8691 331.502 89.0377 332.67 90.4791 332.67Z" fill="#EBEBEB"/>
<path d="M100.139 332.67C101.581 332.67 102.749 331.502 102.749 330.06C102.749 328.619 101.581 327.45 100.139 327.45C98.6978 327.45 97.5293 328.619 97.5293 330.06C97.5293 331.502 98.6978 332.67 100.139 332.67Z" fill="#EBEBEB"/>
<path d="M148.469 39.61C148.834 39.3963 149.223 39.2284 149.629 39.11L149.859 37.97H151.789L152.059 39.1C152.469 39.1981 152.863 39.3529 153.229 39.56L154.229 38.92L155.619 40.26L155.019 41.26C155.233 41.6247 155.401 42.0142 155.519 42.42L156.659 42.65V44.58L155.529 44.85C155.431 45.2595 155.276 45.6533 155.069 46.02L155.709 47.02L154.369 48.41L153.369 47.81C153.007 48.0217 152.621 48.1896 152.219 48.31L151.999 49.38H150.069L149.799 48.25C149.39 48.1519 148.996 47.9971 148.629 47.79L147.629 48.43L146.239 47.09L146.839 46.09C146.626 45.7253 146.458 45.3357 146.339 44.93L145.199 44.7V42.77L146.329 42.5C146.427 42.0904 146.582 41.6966 146.789 41.33L146.149 40.33L147.479 39L148.479 39.6L148.469 39.61ZM149.469 42.18C149.184 42.474 148.992 42.8462 148.918 43.2493C148.844 43.6524 148.892 44.0684 149.055 44.4445C149.218 44.8206 149.488 45.1398 149.833 45.3619C150.177 45.5839 150.58 45.6987 150.99 45.6917C151.4 45.6846 151.798 45.5561 152.135 45.3224C152.471 45.0888 152.731 44.7604 152.881 44.379C153.031 43.9975 153.064 43.5802 152.977 43.1798C152.889 42.7794 152.685 42.4141 152.389 42.13C151.996 41.7597 151.474 41.5577 150.934 41.567C150.394 41.5764 149.879 41.7963 149.499 42.18H149.469Z" fill="#263238"/>
<path d="M38.5407 151.13C50.3154 151.13 59.8607 141.607 59.8607 129.86C59.8607 118.113 50.3154 108.59 38.5407 108.59C26.766 108.59 17.2207 118.113 17.2207 129.86C17.2207 141.607 26.766 151.13 38.5407 151.13Z" fill="#F5F5F5"/>
<path d="M28.5801 135.18L34.1601 134.71L47.7901 137L49.4001 147.26L49.1701 148.45C46.1016 150.184 42.6526 151.134 39.129 151.216C35.6053 151.298 32.1159 150.51 28.9701 148.92L28.5801 135.18Z" fill="#704FE6"/>
<path d="M44.8789 136.84C46.2431 136.64 47.6361 136.83 48.8964 137.389C50.1566 137.949 51.2324 138.854 51.9989 140C52.9218 141.282 53.7666 142.617 54.5289 144C52.1189 146.26 50.4489 148.2 47.4289 149.32L44.8789 136.84Z" fill="#704FE6"/>
<path d="M28.5792 135.18C28.5792 135.18 24.8892 135.63 23.4592 138.78C22.0292 141.93 21.6992 142.91 21.6992 142.91C23.6092 145.2 26.0292 147.75 28.9992 148.77C28.9992 148.77 29.6892 141.02 29.7792 138.77C29.8792 136.32 29.9992 135.11 28.5792 135.18Z" fill="#704FE6"/>
<path d="M31.9997 115C32.9284 113.81 34.1122 112.844 35.4639 112.173C36.8155 111.501 38.3006 111.142 39.8097 111.12C41.1044 111.119 42.3886 111.353 43.5997 111.81C44.878 112.111 46.0083 112.855 46.7897 113.91C47.7543 115.159 48.3873 116.631 48.6297 118.19C48.8556 119.786 48.9326 121.4 48.8597 123.01C48.7861 124.631 48.2633 126.199 47.3497 127.54L43.2597 128.25C40.997 128.426 38.721 128.305 36.4897 127.89C34.2436 127.454 32.2601 126.15 30.9697 124.26C29.2897 121.61 29.9997 117.46 31.9997 115Z" fill="#263238"/>
<path d="M46.0703 129.87C46.1341 129.963 46.22 130.039 46.3203 130.09C46.5759 130.245 46.8629 130.341 47.1603 130.37C47.6133 130.419 48.0702 130.328 48.4703 130.11C48.7153 129.971 48.93 129.784 49.1018 129.561C49.2735 129.338 49.3988 129.083 49.4703 128.81C49.5492 128.543 49.573 128.262 49.5403 127.986C49.5077 127.709 49.4192 127.442 49.2803 127.2C49.0513 126.806 48.7003 126.497 48.2803 126.32C48.0075 126.196 47.7101 126.134 47.4103 126.14C47.3005 126.135 47.191 126.156 47.0903 126.2C47.477 126.221 47.8565 126.313 48.2103 126.47C48.5741 126.662 48.8758 126.953 49.0803 127.31C49.3103 127.755 49.3649 128.27 49.2334 128.753C49.102 129.237 48.794 129.653 48.3703 129.92C48.016 130.125 47.6093 130.223 47.2003 130.2C46.8055 130.166 46.4215 130.054 46.0703 129.87Z" fill="#E0E0E0"/>
<path d="M28.0005 126.9C28.0374 126.435 28.1823 125.985 28.4236 125.586C28.6649 125.186 28.9959 124.849 29.3905 124.6C29.7896 124.361 30.2544 124.254 30.7179 124.295C31.1815 124.336 31.6201 124.524 31.9705 124.83L32.6205 125.59C33.1181 125.821 33.5316 126.202 33.8039 126.678C34.0761 127.155 34.1938 127.704 34.1405 128.25C34.0668 128.794 33.8395 129.306 33.4853 129.726C33.1311 130.146 32.6646 130.456 32.1405 130.62C31.6098 130.769 31.0497 130.779 30.5139 130.649C29.9781 130.52 29.4846 130.255 29.0805 129.88C28.6838 129.5 28.38 129.033 28.1927 128.516C28.0055 127.999 27.9397 127.446 28.0005 126.9Z" fill="#263238"/>
<path d="M28.7997 129.66C28.6459 129.419 28.5691 129.136 28.5797 128.85C28.7104 128.159 29.0367 127.521 29.5197 127.01C29.9749 126.47 30.5322 126.025 31.1597 125.7C31.6397 125.44 31.9697 125.34 31.9597 125.31C31.6589 125.34 31.3667 125.428 31.0997 125.57C30.4293 125.872 29.8348 126.319 29.3597 126.88C29.1021 127.187 28.8806 127.523 28.6997 127.88C28.54 128.19 28.4511 128.532 28.4397 128.88C28.4346 129.11 28.4972 129.336 28.6197 129.53C28.7097 129.62 28.7897 129.67 28.7997 129.66Z" fill="#455A64"/>
<path d="M30.7799 130.87C30.7067 129.966 30.7708 129.055 30.9699 128.17C31.2335 127.301 31.6244 126.475 32.1299 125.72C31.9185 125.893 31.7362 126.099 31.5899 126.33C30.8281 127.421 30.4741 128.745 30.5899 130.07C30.6049 130.346 30.6692 130.617 30.7799 130.87Z" fill="#455A64"/>
<path d="M43.18 136.11V132.31C43.18 132.31 46.52 131.95 47.44 127.67C47.8816 124.849 48.0557 121.993 47.96 119.14C47.96 116.55 45.73 113.02 42.52 113L41.09 112.84L35.61 115C35.2293 115.017 34.8689 115.177 34.6004 115.447C34.3318 115.718 34.1747 116.079 34.16 116.46L34 134.72L43.12 147.51L43.18 136.11Z" fill="#A26760"/>
<path d="M41.0004 126.67C41.023 126.514 41.0851 126.367 41.1808 126.242C41.2765 126.118 41.4026 126.02 41.547 125.957C41.6914 125.895 41.8494 125.871 42.0058 125.887C42.1622 125.903 42.3118 125.96 42.4404 126.05C42.618 126.184 42.7563 126.363 42.8408 126.569C42.9252 126.775 42.9527 127 42.9204 127.22C42.8246 127.349 42.7033 127.458 42.564 127.539C42.4247 127.62 42.2703 127.671 42.1104 127.69H42.0004C41.7478 127.689 41.5048 127.593 41.3204 127.42C41.2112 127.33 41.1251 127.214 41.0695 127.084C41.0138 126.953 40.9901 126.811 41.0004 126.67Z" fill="#7B4B45"/>
<path d="M46.9303 122.1C46.9225 122.245 46.8588 122.381 46.7524 122.48C46.6461 122.579 46.5055 122.633 46.3603 122.63C46.2899 122.631 46.2199 122.619 46.1544 122.593C46.0889 122.567 46.0293 122.528 45.979 122.479C45.9288 122.429 45.8888 122.37 45.8616 122.305C45.8343 122.24 45.8203 122.171 45.8203 122.1C45.8255 121.956 45.8871 121.82 45.9919 121.721C46.0966 121.621 46.2361 121.567 46.3803 121.57C46.4512 121.569 46.5217 121.581 46.5877 121.607C46.6537 121.633 46.714 121.672 46.7651 121.721C46.8162 121.77 46.857 121.829 46.8854 121.894C46.9137 121.959 46.929 122.029 46.9303 122.1Z" fill="#263238"/>
<path d="M46.8794 120.74C46.8094 120.81 46.3994 120.48 45.8094 120.45C45.2194 120.42 44.7594 120.69 44.6994 120.62C44.6394 120.55 44.6994 120.46 44.9394 120.33C45.2075 120.161 45.5234 120.084 45.8394 120.11C46.1466 120.123 46.4414 120.235 46.6794 120.43C46.8594 120.58 46.9094 120.71 46.8794 120.74Z" fill="#263238"/>
<path d="M43.1289 125.25C43.4561 125.169 43.7919 125.129 44.1289 125.13C44.2789 125.13 44.4289 125.13 44.4589 125C44.4812 124.842 44.4532 124.681 44.3789 124.54L43.9989 123.36C43.6309 122.359 43.3466 121.328 43.1489 120.28C43.5938 121.248 43.9584 122.252 44.2389 123.28C44.3689 123.69 44.4889 124.09 44.6089 124.46C44.68 124.654 44.68 124.866 44.6089 125.06C44.5834 125.114 44.5458 125.161 44.4989 125.197C44.452 125.234 44.3972 125.259 44.3389 125.27C44.2528 125.284 44.165 125.284 44.0789 125.27C43.7627 125.305 43.4433 125.298 43.1289 125.25Z" fill="#263238"/>
<path d="M43.159 132.31C41.1244 132.233 39.1512 131.592 37.459 130.46C37.459 130.46 38.829 133.53 43.179 133.36L43.159 132.31Z" fill="#7B4B45"/>
<path d="M41.3507 125.57C41.4507 125.57 41.4207 126.21 41.9507 126.7C42.4807 127.19 43.1707 127.16 43.1707 127.25C43.1707 127.34 43.0107 127.36 42.7207 127.36C42.3497 127.336 41.9976 127.188 41.7207 126.94C41.4555 126.692 41.2946 126.352 41.2707 125.99C41.2307 125.72 41.3107 125.56 41.3507 125.57Z" fill="#263238"/>
<path d="M46.7599 118.5C46.6499 118.64 46.1999 118.5 45.6599 118.5C45.1199 118.5 44.6599 118.63 44.5699 118.5C44.4799 118.37 44.5699 118.29 44.7799 118.16C45.0442 117.996 45.349 117.909 45.6599 117.909C45.9709 117.909 46.2756 117.996 46.5399 118.16C46.7399 118.3 46.8099 118.43 46.7599 118.5Z" fill="#263238"/>
<path d="M40.0898 122.06C40.0895 122.204 40.144 122.344 40.2424 122.45C40.3408 122.555 40.4757 122.62 40.6198 122.63C40.7616 122.641 40.9019 122.596 41.0105 122.504C41.1191 122.412 41.1871 122.282 41.1998 122.14C41.2025 122.068 41.1909 121.996 41.1657 121.928C41.1405 121.86 41.1022 121.798 41.053 121.745C41.0038 121.692 40.9446 121.649 40.8789 121.619C40.8131 121.589 40.7421 121.573 40.6698 121.57C40.5281 121.559 40.3878 121.604 40.2792 121.696C40.1706 121.788 40.1026 121.918 40.0898 122.06Z" fill="#263238"/>
<path d="M38.7105 120.53C38.7805 120.61 39.2004 120.3 39.8004 120.31C40.4004 120.32 40.8004 120.63 40.8904 120.56C40.9804 120.49 40.8904 120.4 40.6704 120.25C40.4176 120.067 40.1128 119.969 39.8004 119.97C39.4901 119.961 39.1851 120.052 38.9304 120.23C38.7404 120.37 38.6805 120.5 38.7105 120.53Z" fill="#263238"/>
<path d="M38.3702 119.25C38.4802 119.39 38.9402 119.25 39.5002 119.25C40.0602 119.25 40.5002 119.36 40.6302 119.25C40.7602 119.14 40.6302 119.05 40.4002 118.91C40.1256 118.747 39.8094 118.667 39.4902 118.68C39.1696 118.677 38.8545 118.764 38.5802 118.93C38.3802 119.05 38.3202 119.19 38.3702 119.25Z" fill="#263238"/>
<path d="M34.9002 123.71C34.9002 123.39 34.5902 122.62 34.2802 122.55C33.9818 122.439 33.6601 122.407 33.3455 122.455C33.031 122.503 32.7339 122.631 32.4826 122.827C32.2312 123.022 32.0339 123.278 31.9093 123.571C31.7846 123.864 31.7367 124.184 31.7702 124.5C31.7178 124.867 31.7586 125.241 31.8888 125.589C32.0191 125.936 32.2345 126.245 32.5154 126.487C32.7963 126.729 33.1335 126.896 33.4961 126.974C33.8587 127.051 34.2349 127.036 34.5902 126.93C34.6002 126.87 34.8502 124.82 34.9002 123.71Z" fill="#A26760"/>
<path d="M33.8492 125.81C33.8492 125.81 33.7892 125.81 33.6992 125.88C33.5773 125.929 33.4412 125.929 33.3192 125.88C33.1351 125.75 32.9896 125.573 32.8981 125.367C32.8065 125.161 32.7724 124.934 32.7992 124.71C32.8135 124.462 32.8817 124.219 32.9992 124C33.032 123.911 33.0867 123.831 33.1584 123.768C33.23 123.705 33.3163 123.661 33.4092 123.64C33.4675 123.626 33.5289 123.634 33.5821 123.661C33.6353 123.689 33.6769 123.734 33.6992 123.79C33.7063 123.84 33.7063 123.89 33.6992 123.94C33.6992 123.94 33.7692 123.94 33.7492 123.77C33.7343 123.699 33.6997 123.633 33.6492 123.58C33.5694 123.518 33.4702 123.486 33.3692 123.49C33.2464 123.506 33.1296 123.553 33.0299 123.626C32.9302 123.7 32.8508 123.797 32.7992 123.91C32.662 124.159 32.5866 124.436 32.5792 124.72C32.5489 124.982 32.5963 125.246 32.7154 125.481C32.8346 125.716 33.0202 125.91 33.2492 126.04C33.3267 126.065 33.4086 126.074 33.4896 126.065C33.5705 126.056 33.6488 126.031 33.7192 125.99C33.8392 125.88 33.8592 125.82 33.8492 125.81Z" fill="#7B4B45"/>
<path d="M34.1598 122.56L34.8998 123.33C38.1298 120.25 44.4498 112.52 44.0898 112.98C42.6192 112.43 41.0341 112.258 39.4798 112.48C37.0798 112.89 32.4798 114.09 32.5898 116.92C32.73 118.886 33.2639 120.804 34.1598 122.56Z" fill="#263238"/>
<path d="M34.2208 129.87C34.2208 129.87 34.1608 129.98 33.9808 130.09C33.7252 130.245 33.4382 130.341 33.1408 130.37C32.6879 130.419 32.2309 130.328 31.8308 130.11C31.3495 129.82 30.9987 129.356 30.8515 128.814C30.7044 128.272 30.7722 127.693 31.0408 127.2C31.2709 126.807 31.6216 126.498 32.0408 126.32C32.3136 126.196 32.611 126.134 32.9108 126.14C33.0207 126.135 33.1301 126.156 33.2308 126.2C32.8441 126.221 32.4646 126.313 32.1108 126.47C31.7471 126.662 31.4454 126.953 31.2408 127.31C31.0109 127.755 30.9562 128.27 31.0877 128.753C31.2192 129.237 31.5272 129.653 31.9508 129.92C32.3052 130.125 32.7118 130.223 33.1208 130.2C33.5061 130.166 33.8804 130.054 34.2208 129.87Z" fill="#E0E0E0"/>
<path d="M29.8789 121.91C29.8789 121.91 29.8789 121.85 29.8789 121.74C29.9361 121.58 30.0029 121.423 30.0789 121.27C30.3878 120.729 30.8068 120.259 31.3089 119.89C32.0625 119.356 32.901 118.954 33.7889 118.7C34.8682 118.42 35.9329 118.086 36.9789 117.7C38.0056 117.271 38.9788 116.724 39.8789 116.07C40.619 115.538 41.3086 114.939 41.9389 114.28C42.4689 113.72 42.8589 113.22 43.1289 112.88L43.4189 112.47L43.5289 112.33C43.5289 112.33 43.5289 112.39 43.4489 112.49C43.3689 112.59 43.2989 112.73 43.1689 112.91C42.821 113.417 42.4367 113.899 42.0189 114.35C41.3965 115.025 40.71 115.638 39.9689 116.18C39.0571 116.846 38.0704 117.403 37.0289 117.84C35.9801 118.228 34.912 118.562 33.8289 118.84C32.9535 119.078 32.125 119.464 31.3789 119.98C30.8768 120.33 30.4514 120.78 30.1289 121.3C30.0357 121.499 29.9522 121.703 29.8789 121.91Z" fill="#455A64"/>
<path d="M30.7294 122.37C30.7218 122.151 30.7627 121.932 30.8494 121.73C31.0677 121.167 31.4511 120.682 31.9494 120.34C32.6971 119.851 33.5325 119.511 34.4094 119.34C35.4605 119.123 36.4836 118.787 37.4594 118.34C38.4344 117.893 39.3512 117.329 40.1894 116.66C40.8647 116.109 41.4874 115.496 42.0494 114.83C42.4153 114.377 42.7494 113.899 43.0494 113.4C43.1494 113.24 43.2394 113.1 43.2994 112.99C43.3267 112.939 43.3603 112.892 43.3994 112.85C43.3817 112.906 43.3583 112.959 43.3294 113.01L43.0994 113.43C42.8051 113.945 42.4707 114.437 42.0994 114.9C41.5405 115.585 40.914 116.211 40.2294 116.77C39.3925 117.452 38.4717 118.023 37.4894 118.47C36.5004 118.919 35.4638 119.254 34.3994 119.47C33.5415 119.614 32.7196 119.923 31.9794 120.38C31.4845 120.7 31.0949 121.16 30.8594 121.7C30.7985 121.92 30.7551 122.144 30.7294 122.37Z" fill="#455A64"/>
<path d="M28.9994 149.13C28.9029 148.16 28.8695 147.185 28.8994 146.21C28.8692 145.239 28.9026 144.267 28.9994 143.3C29.1327 145.241 29.1327 147.189 28.9994 149.13Z" fill="#263238"/>
<path d="M49.1803 148.68C49.1525 148.347 49.1525 148.013 49.1803 147.68C49.2393 146.866 49.2125 146.048 49.1003 145.24C48.9467 144.44 48.7156 143.656 48.4103 142.9C48.2638 142.579 48.1499 142.244 48.0703 141.9C48.2591 142.186 48.4166 142.491 48.5403 142.81C49.2752 144.31 49.5467 145.995 49.3203 147.65C49.3197 147.998 49.2726 148.345 49.1803 148.68Z" fill="#263238"/>
<path d="M59.8897 129.94C59.8752 129.824 59.8752 129.706 59.8897 129.59C59.8897 129.34 59.8897 129 59.8197 128.59C59.8197 128.37 59.8197 128.12 59.7697 127.85C59.7197 127.58 59.6797 127.28 59.6297 126.96C59.5278 126.217 59.3741 125.482 59.1697 124.76C58.6657 122.772 57.8668 120.871 56.7997 119.12C54.2696 114.901 50.3493 111.695 45.7123 110.053C41.0753 108.411 36.0111 108.434 31.3897 110.12C29.4494 110.783 27.6292 111.755 25.9997 113C25.155 113.611 24.3531 114.279 23.5997 115C22.8599 115.77 22.1717 116.589 21.5397 117.45C20.2345 119.213 19.2216 121.175 18.5397 123.26C17.8539 125.412 17.4867 127.652 17.4497 129.91C17.4809 132.172 17.8483 134.416 18.5397 136.57C19.2195 138.659 20.2325 140.624 21.5397 142.39C22.1692 143.25 22.8575 144.065 23.5997 144.83C24.3558 145.548 25.1575 146.216 25.9997 146.83C26.8179 147.446 27.6802 148.001 28.5797 148.49C29.4697 148.954 30.3882 149.362 31.3297 149.71C34.8821 150.997 38.7126 151.318 42.4297 150.64C45.664 150.042 48.7125 148.692 51.3297 146.7C53.5008 145.065 55.3374 143.028 56.7397 140.7C57.8051 138.948 58.6038 137.047 59.1097 135.06C59.3131 134.338 59.4668 133.603 59.5697 132.86C59.6711 132.322 59.7346 131.777 59.7597 131.23C59.7597 130.8 59.8197 130.47 59.8297 130.23C59.8143 130.117 59.8143 130.003 59.8297 129.89C59.8409 130.003 59.8409 130.117 59.8297 130.23C59.8297 130.49 59.8297 130.823 59.8297 131.23C59.8297 131.783 59.7829 132.335 59.6897 132.88C59.61 133.633 59.473 134.378 59.2797 135.11C58.8034 137.127 58.021 139.06 56.9597 140.84C55.5594 143.218 53.7161 145.306 51.5297 146.99C48.8877 149.027 45.8055 150.418 42.5297 151.05C38.7372 151.769 34.8214 151.458 31.1897 150.15C30.2244 149.801 29.2825 149.39 28.3697 148.92C27.4491 148.414 26.5637 147.846 25.7197 147.22C24.8552 146.585 24.0365 145.89 23.2697 145.14C22.5044 144.355 21.7928 143.52 21.1397 142.64C19.7955 140.818 18.7522 138.792 18.0497 136.64C17.3331 134.433 16.9554 132.13 16.9297 129.81C16.9611 127.497 17.3386 125.201 18.0497 123C18.7473 120.844 19.7946 118.817 21.1497 117C21.7963 116.114 22.5047 115.276 23.2697 114.49C24.0393 113.746 24.8578 113.055 25.7197 112.42C26.5613 111.791 27.4469 111.223 28.3697 110.72C29.2805 110.246 30.2227 109.835 31.1897 109.49C34.8205 108.179 38.7363 107.865 42.5297 108.58C45.546 109.182 48.3981 110.424 50.8941 112.222C53.3901 114.019 55.4721 116.33 56.9997 119C58.0613 120.784 58.8436 122.72 59.3197 124.74C59.5089 125.469 59.6459 126.211 59.7297 126.96C59.7297 127.29 59.8197 127.59 59.8497 127.86C59.8797 128.13 59.8497 128.39 59.8497 128.61C59.8497 129.043 59.8497 129.377 59.8497 129.61C59.8728 129.719 59.8861 129.829 59.8897 129.94Z" fill="#263238"/>
<path d="M38.5407 317.14C50.3154 317.14 59.8607 307.617 59.8607 295.87C59.8607 284.123 50.3154 274.6 38.5407 274.6C26.766 274.6 17.2207 284.123 17.2207 295.87C17.2207 307.617 26.766 317.14 38.5407 317.14Z" fill="#F5F5F5"/>
<path d="M28.5801 301.2L34.1601 300.72L47.7901 303.02L49.4001 313.27L49.1701 314.47C46.1017 316.205 42.652 317.155 39.1278 317.236C35.6037 317.316 32.1143 316.524 28.9701 314.93L28.5801 301.2Z" fill="#455A64"/>
<path d="M44.8789 302.86C46.241 302.659 47.6323 302.847 48.8922 303.402C50.152 303.958 51.229 304.858 51.9989 306C52.9231 307.28 53.7681 308.616 54.5289 310C52.1189 312.25 50.4489 314.2 47.4289 315.32L44.8789 302.86Z" fill="#455A64"/>
<path d="M28.5792 301.2C28.5792 301.2 24.8892 301.65 23.4592 304.79C22.0292 307.93 21.6992 308.93 21.6992 308.93C23.6092 311.22 26.0292 313.77 28.9992 314.79C28.9992 314.79 29.6892 307.03 29.7792 304.79C29.8792 302.34 29.9992 301.13 28.5792 301.2Z" fill="#455A64"/>
<path d="M31.9998 281.05C32.9285 279.86 34.1123 278.894 35.4639 278.223C36.8156 277.551 38.3007 277.192 39.8098 277.17C41.1034 277.171 42.3866 277.401 43.5998 277.85C44.8792 278.154 46.0094 278.902 46.7898 279.96C47.7563 281.208 48.3895 282.68 48.6298 284.24C48.8098 285.84 49.0898 287.46 49.1698 289.47C49.2398 291.08 49.2998 293.37 49.4898 296.19L50.0098 301.84C48.7998 301.84 29.5098 300.01 28.0098 300.03C28.0098 300.03 28.6598 293.71 28.9298 290.75C29.4298 285.28 29.9998 283.48 31.9998 281.05Z" fill="#263238"/>
<path d="M43.18 302.12V298.33C43.18 298.33 46.52 297.96 47.44 293.69C47.8809 290.869 48.055 288.013 47.96 285.16C47.96 282.57 45.73 279.03 42.52 279.02L41.09 278.85L35.61 281C35.23 281.02 34.871 281.18 34.6029 281.45C34.3348 281.72 34.1769 282.08 34.16 282.46L34 300.74L35.75 302.61C36.2355 303.132 36.8313 303.54 37.4941 303.803C38.1568 304.066 38.8699 304.179 39.5815 304.132C40.2931 304.085 40.9852 303.88 41.6077 303.532C42.2302 303.184 42.7673 302.702 43.18 302.12Z" fill="#A26760"/>
<path d="M40.9995 292.69C41.0279 292.471 41.1387 292.271 41.3095 292.13C41.4639 291.996 41.6583 291.916 41.8626 291.903C42.0669 291.891 42.2697 291.946 42.4395 292.06C42.6163 292.195 42.754 292.374 42.8384 292.58C42.9227 292.786 42.9507 293.01 42.9195 293.23C42.8254 293.361 42.7046 293.471 42.565 293.552C42.4253 293.633 42.2701 293.684 42.1095 293.7H41.9995C41.7468 293.699 41.5039 293.603 41.3195 293.43C41.2123 293.34 41.1275 293.226 41.072 293.098C41.0164 292.97 40.9916 292.83 40.9995 292.69Z" fill="#7B4B45"/>
<path d="M46.6705 288.38C46.6629 288.523 46.6005 288.658 46.4963 288.757C46.3921 288.856 46.254 288.91 46.1105 288.91C46.0396 288.912 45.9691 288.899 45.9031 288.873C45.8371 288.847 45.7768 288.808 45.7258 288.759C45.6747 288.71 45.6338 288.651 45.6055 288.586C45.5771 288.521 45.5618 288.451 45.5605 288.38C45.5683 288.235 45.6321 288.099 45.7384 288C45.8448 287.901 45.9854 287.847 46.1306 287.85C46.201 287.849 46.271 287.862 46.3364 287.888C46.4019 287.914 46.4615 287.952 46.5118 288.002C46.5621 288.051 46.602 288.11 46.6293 288.175C46.6565 288.24 46.6706 288.31 46.6705 288.38Z" fill="#263238"/>
<path d="M46.8794 286.76C46.8094 286.83 46.3994 286.5 45.8094 286.46C45.2194 286.42 44.7594 286.71 44.6994 286.63C44.6394 286.55 44.6994 286.47 44.9394 286.34C45.2113 286.18 45.5243 286.104 45.8394 286.12C46.1478 286.136 46.4427 286.252 46.6794 286.45C46.8594 286.6 46.9094 286.73 46.8794 286.76Z" fill="#263238"/>
<path d="M43.1289 291.27C43.4549 291.183 43.7916 291.142 44.1289 291.15C44.2789 291.15 44.4289 291.15 44.4589 291.01C44.4804 290.855 44.4524 290.698 44.3789 290.56L43.9989 289.38C43.6309 288.379 43.3466 287.348 43.1489 286.3C43.5976 287.267 43.9623 288.271 44.2389 289.3L44.6089 290.49C44.68 290.684 44.68 290.896 44.6089 291.09C44.5822 291.143 44.5442 291.189 44.4975 291.225C44.4508 291.262 44.3966 291.287 44.3389 291.3C44.2525 291.309 44.1653 291.309 44.0789 291.3C43.7621 291.326 43.4434 291.316 43.1289 291.27Z" fill="#263238"/>
<path d="M43.159 298.33C41.1234 298.25 39.1501 297.606 37.459 296.47C37.459 296.47 38.829 299.55 43.179 299.38L43.159 298.33Z" fill="#7B4B45"/>
<path d="M41.3507 291.58C41.4507 291.58 41.4207 292.23 41.9507 292.72C42.4807 293.21 43.1707 293.17 43.1707 293.26C43.1707 293.35 43.0107 293.38 42.7207 293.37C42.3486 293.351 41.9949 293.202 41.7207 292.95C41.4538 292.703 41.2926 292.363 41.2707 292C41.2307 291.73 41.3107 291.58 41.3507 291.58Z" fill="#263238"/>
<path d="M46.7599 284.52C46.6499 284.66 46.1999 284.52 45.6599 284.52C45.1199 284.52 44.6599 284.65 44.5699 284.52C44.4799 284.39 44.5699 284.32 44.7799 284.18C45.0429 284.014 45.3486 283.927 45.6599 283.93C45.9697 283.917 46.2764 283.997 46.5399 284.16C46.7399 284.31 46.8099 284.45 46.7599 284.52Z" fill="#263238"/>
<path d="M39.7599 288.34C39.7571 288.485 39.8108 288.626 39.9097 288.732C40.0085 288.839 40.1449 288.902 40.2899 288.91C40.4316 288.921 40.572 288.876 40.6805 288.784C40.7891 288.693 40.8571 288.562 40.8699 288.42C40.8753 288.276 40.8239 288.135 40.7266 288.029C40.6293 287.922 40.494 287.858 40.3499 287.85C40.2789 287.843 40.2073 287.851 40.1391 287.871C40.071 287.892 40.0076 287.927 39.9528 287.972C39.8979 288.018 39.8526 288.074 39.8195 288.137C39.7864 288.2 39.7661 288.269 39.7599 288.34Z" fill="#263238"/>
<path d="M38.7105 286.55C38.7805 286.62 39.2004 286.32 39.8004 286.33C40.4004 286.34 40.8004 286.65 40.8904 286.58C40.9804 286.51 40.8904 286.41 40.6704 286.27C40.4166 286.087 40.1132 285.986 39.8004 285.98C39.489 285.974 39.1839 286.069 38.9304 286.25C38.7404 286.39 38.6805 286.51 38.7105 286.55Z" fill="#263238"/>
<path d="M38.6699 284.87C38.7899 285.01 39.2499 284.87 39.7999 284.87C40.3499 284.87 40.7999 284.98 40.9299 284.87C41.0599 284.76 40.9299 284.67 40.7099 284.53C40.4317 284.367 40.1123 284.287 39.7899 284.3C39.4693 284.297 39.1542 284.384 38.8799 284.55C38.6899 284.67 38.6199 284.81 38.6699 284.87Z" fill="#263238"/>
<path d="M34.9001 289.73C34.9001 289.41 34.5901 288.63 34.2801 288.56C33.9774 288.45 33.6514 288.419 33.3334 288.47C33.0154 288.522 32.716 288.655 32.464 288.856C32.212 289.057 32.0158 289.319 31.8943 289.617C31.7728 289.916 31.73 290.24 31.7701 290.56C31.7204 290.926 31.7631 291.3 31.8942 291.645C32.0253 291.991 32.2407 292.299 32.5208 292.54C32.801 292.782 33.137 292.949 33.4984 293.028C33.8598 293.106 34.235 293.093 34.5901 292.99C34.6001 292.88 34.8501 290.84 34.9001 289.73Z" fill="#A26760"/>
<path d="M33.8496 291.83C33.8496 291.83 33.7896 291.83 33.6996 291.89C33.5778 291.94 33.4413 291.94 33.3196 291.89C33.1362 291.757 32.9915 291.578 32.9001 291.37C32.8088 291.163 32.7741 290.935 32.7996 290.71C32.8138 290.462 32.882 290.219 32.9996 290C33.0325 289.91 33.0871 289.829 33.1586 289.764C33.2301 289.7 33.3162 289.654 33.4096 289.63C33.4691 289.617 33.5314 289.626 33.5849 289.655C33.6383 289.685 33.6791 289.733 33.6996 289.79C33.7083 289.84 33.7083 289.891 33.6996 289.94C33.6996 289.94 33.7696 289.89 33.7496 289.77C33.737 289.698 33.702 289.631 33.6496 289.58C33.6112 289.547 33.5667 289.522 33.5186 289.507C33.4705 289.492 33.4199 289.486 33.3696 289.49C33.2461 289.504 33.1285 289.55 33.0285 289.624C32.9284 289.698 32.8495 289.796 32.7996 289.91C32.6612 290.158 32.5857 290.436 32.5796 290.72C32.5486 290.98 32.5958 291.244 32.7151 291.477C32.8344 291.711 33.0205 291.903 33.2496 292.03C33.3261 292.06 33.4088 292.072 33.4907 292.063C33.5725 292.054 33.6511 292.026 33.7196 291.98C33.8396 291.9 33.8596 291.83 33.8496 291.83Z" fill="#7B4B45"/>
<path d="M34.1598 288.57L34.8998 289.35C38.1298 286.26 44.4498 278.54 44.0898 279C42.6192 278.45 41.0341 278.278 39.4798 278.5C37.0798 278.9 32.4798 280.1 32.5898 282.93C32.7281 284.897 33.2621 286.815 34.1598 288.57Z" fill="#263238"/>
<path d="M28.9994 315.14C28.9026 314.173 28.8692 313.201 28.8994 312.23C28.8695 311.256 28.9029 310.28 28.9994 309.31C29.1327 311.251 29.1327 313.199 28.9994 315.14Z" fill="#263238"/>
<path d="M49.1803 314.69C49.1525 314.357 49.1525 314.023 49.1803 313.69C49.2393 312.876 49.2125 312.058 49.1003 311.25C48.9452 310.45 48.7142 309.666 48.4103 308.91C48.262 308.59 48.148 308.255 48.0703 307.91C48.2591 308.196 48.4166 308.501 48.5403 308.82C48.8861 309.573 49.1379 310.366 49.2903 311.18C49.3944 312.004 49.3944 312.837 49.2903 313.66C49.2995 314.007 49.2625 314.353 49.1803 314.69Z" fill="#263238"/>
<path d="M59.8889 296C59.8735 295.887 59.8735 295.773 59.8889 295.66C59.8889 295.4 59.8889 295.07 59.8189 294.66C59.8189 294.43 59.8189 294.18 59.7689 293.91C59.7189 293.64 59.6789 293.34 59.6289 293.02C59.526 292.277 59.3723 291.542 59.1689 290.82C58.663 288.833 57.8643 286.932 56.7989 285.18C54.2688 280.961 50.3485 277.755 45.7115 276.113C41.0745 274.471 36.0103 274.494 31.3889 276.18C30.4474 276.528 29.5289 276.936 28.6389 277.4C27.7207 277.868 26.8383 278.402 25.9989 279C25.1567 279.614 24.355 280.282 23.5989 281C22.8568 281.765 22.1684 282.58 21.5389 283.44C20.2337 285.207 19.2208 287.172 18.5389 289.26C17.0855 293.578 17.0855 298.252 18.5389 302.57C19.2167 304.657 20.23 306.619 21.5389 308.38C22.7641 310.116 24.2717 311.633 25.9989 312.87C27.6138 314.101 29.4125 315.069 31.3289 315.74C35.9512 317.416 41.012 317.435 45.6466 315.793C50.2812 314.152 54.2019 310.952 56.7389 306.74C57.806 304.989 58.6049 303.088 59.1089 301.1C59.3133 300.378 59.467 299.643 59.5689 298.9C59.6714 298.362 59.7349 297.817 59.7589 297.27C59.7589 296.85 59.8189 296.51 59.8289 296.27C59.8144 296.154 59.8144 296.036 59.8289 295.92C59.8398 296.037 59.8398 296.154 59.8289 296.27C59.8289 296.53 59.8289 296.86 59.8289 297.27C59.8289 297.823 59.7821 298.375 59.6889 298.92C59.61 299.67 59.4729 300.412 59.2789 301.14C58.8028 303.161 58.0205 305.096 56.9589 306.88C54.4203 311.203 50.4476 314.501 45.7308 316.2C41.014 317.899 35.8511 317.892 31.1389 316.18C30.1719 315.835 29.2298 315.424 28.3189 314.95C27.3961 314.447 26.5105 313.879 25.6689 313.25C24.807 312.616 23.9885 311.924 23.2189 311.18C22.4535 310.392 21.7419 309.554 21.0889 308.67C19.7422 306.85 18.6987 304.824 17.9989 302.67C17.2822 300.467 16.9046 298.167 16.8789 295.85C16.9104 293.534 17.2879 291.235 17.9989 289.03C18.7036 286.892 19.7506 284.883 21.0989 283.08C21.7456 282.198 22.454 281.362 23.2189 280.58C23.9857 279.83 24.8044 279.135 25.6689 278.5C26.5107 277.874 27.3963 277.309 28.3189 276.81C29.2296 276.333 30.1718 275.919 31.1389 275.57C34.7706 274.262 38.6864 273.951 42.4789 274.67C45.7547 275.302 48.8369 276.693 51.4789 278.73C53.7095 280.441 55.5846 282.571 56.9989 285C58.0622 286.783 58.8447 288.719 59.3189 290.74C59.5081 291.469 59.6451 292.211 59.7289 292.96C59.7289 293.28 59.8189 293.58 59.8489 293.86C59.8789 294.14 59.8489 294.38 59.8489 294.61C59.8489 295.03 59.8489 295.363 59.8489 295.61C59.8771 295.738 59.8905 295.869 59.8889 296Z" fill="#263238"/>
<path d="M38.5397 207.63C50.8888 207.63 60.8997 197.619 60.8997 185.27C60.8997 172.921 50.8888 162.91 38.5397 162.91C26.1906 162.91 16.1797 172.921 16.1797 185.27C16.1797 197.619 26.1906 207.63 38.5397 207.63Z" fill="#F5F5F5"/>
<path d="M37.6506 167.07C37.8222 166.737 38.094 166.466 38.4277 166.296C38.7614 166.125 39.1402 166.064 39.5106 166.12C39.9464 165.78 40.4831 165.596 41.0357 165.596C41.5882 165.596 42.1249 165.78 42.5606 166.12C42.8874 165.927 43.2575 165.82 43.6367 165.807C44.0159 165.795 44.3921 165.879 44.7306 166.05C45.0641 166.229 45.3465 166.49 45.5512 166.809C45.7558 167.127 45.8761 167.492 45.9006 167.87C46.2811 167.813 46.6698 167.872 47.0159 168.04C47.3621 168.208 47.6495 168.476 47.8406 168.81C48.0158 169.152 48.082 169.54 48.0301 169.921C47.9783 170.301 47.8109 170.657 47.5507 170.94C47.9657 171.072 48.3175 171.353 48.5387 171.728C48.7599 172.103 48.8349 172.547 48.7495 172.974C48.6641 173.401 48.4242 173.781 48.0757 174.043C47.7272 174.304 47.2946 174.428 46.8607 174.39L38.0007 169.13C37.7352 168.866 37.5589 168.525 37.4961 168.156C37.4334 167.787 37.4874 167.407 37.6506 167.07Z" fill="#E0E0E0"/>
<path d="M47.1189 174.64C46.9362 172.767 46.0568 171.031 44.6549 169.775C43.253 168.52 41.4308 167.836 39.5489 167.86H39.1589C34.9789 168.16 32.8989 171.86 33.3289 176.05L34.1289 189.98L34.1789 190.65L43.8589 192.45L43.7989 188.9C43.7989 188.9 47.7989 188.21 47.7989 184.19C47.7989 182.26 47.4589 178.26 47.1189 174.64Z" fill="#FFBE9D"/>
<path d="M43.8291 188.9C41.9613 188.928 40.1249 188.417 38.5391 187.43C38.5391 187.43 39.8191 190.31 43.8291 189.89V188.9Z" fill="#EB996E"/>
<path d="M46.1091 178.37C46.1118 178.52 46.0557 178.664 45.9528 178.773C45.8499 178.881 45.7085 178.945 45.5591 178.95C45.4863 178.958 45.4125 178.952 45.3425 178.93C45.2725 178.908 45.2077 178.872 45.1523 178.825C45.0968 178.777 45.0519 178.718 45.0204 178.652C44.9889 178.585 44.9714 178.513 44.9691 178.44C44.9664 178.367 44.9783 178.293 45.004 178.224C45.0297 178.155 45.0687 178.092 45.1189 178.038C45.169 177.984 45.2293 177.941 45.2963 177.91C45.3632 177.88 45.4356 177.863 45.5091 177.86C45.5824 177.852 45.6567 177.859 45.7273 177.88C45.7979 177.902 45.8633 177.937 45.9195 177.985C45.9757 178.033 46.0216 178.092 46.0542 178.158C46.0868 178.224 46.1055 178.296 46.1091 178.37Z" fill="#263238"/>
<path d="M46.2801 176.62C46.2101 176.7 45.7701 176.38 45.1501 176.39C44.5301 176.4 44.0901 176.72 44.0201 176.65C43.9501 176.58 44.0201 176.48 44.2501 176.33C44.5165 176.147 44.832 176.05 45.1551 176.05C45.4782 176.05 45.7937 176.147 46.0601 176.33C46.2501 176.45 46.3201 176.59 46.2801 176.62Z" fill="#263238"/>
<path d="M40.3608 178.52C40.3636 178.668 40.3088 178.811 40.2081 178.919C40.1073 179.027 39.9685 179.092 39.8208 179.1C39.7475 179.108 39.6732 179.101 39.6027 179.08C39.5321 179.058 39.4667 179.023 39.4104 178.975C39.3542 178.927 39.3084 178.868 39.2758 178.802C39.2431 178.736 39.2244 178.664 39.2208 178.59C39.218 178.442 39.2728 178.299 39.3735 178.191C39.4743 178.083 39.6131 178.018 39.7608 178.01C39.8341 178.002 39.9084 178.009 39.979 178.03C40.0495 178.052 40.115 178.087 40.1712 178.135C40.2274 178.183 40.2732 178.242 40.3059 178.308C40.3385 178.374 40.3572 178.446 40.3608 178.52Z" fill="#263238"/>
<path d="M40.2098 176.83C40.1398 176.9 39.6998 176.59 39.0798 176.6C38.4598 176.61 38.0198 176.92 37.9498 176.85C37.8798 176.78 37.9498 176.68 38.1798 176.53C38.4459 176.342 38.7638 176.24 39.0898 176.24C39.4121 176.234 39.7277 176.332 39.9898 176.52C40.1798 176.66 40.2398 176.79 40.2098 176.83Z" fill="#263238"/>
<path d="M42.5202 181.38C42.843 181.269 43.1794 181.202 43.5202 181.18C43.6802 181.18 43.8302 181.13 43.8502 181.02C43.8634 180.856 43.825 180.691 43.7402 180.55C43.5902 180.18 43.4201 179.78 43.2601 179.36C42.8067 178.349 42.4387 177.302 42.1602 176.23C42.6855 177.193 43.1336 178.196 43.5002 179.23C43.6702 179.65 43.8202 180.05 43.9702 180.44C44.071 180.626 44.1029 180.842 44.0602 181.05C44.0375 181.107 44.0024 181.158 43.9574 181.199C43.9124 181.241 43.8587 181.272 43.8002 181.29C43.7137 181.297 43.6267 181.297 43.5401 181.29C43.2044 181.357 42.8624 181.387 42.5202 181.38Z" fill="#263238"/>
<path d="M40.7105 181.83C40.8105 181.83 40.8205 182.49 41.4005 182.96C41.9805 183.43 42.6905 183.35 42.7005 183.44C42.7105 183.53 42.5405 183.57 42.2405 183.58C41.8484 183.597 41.4637 183.469 41.1605 183.22C41.011 183.106 40.886 182.964 40.7932 182.8C40.7004 182.637 40.6417 182.457 40.6205 182.27C40.5905 182 40.6605 181.83 40.7105 181.83Z" fill="#263238"/>
<path d="M40.3295 174.4C40.2795 174.57 39.6595 174.5 38.9295 174.6C38.1995 174.7 37.6295 174.9 37.5295 174.75C37.4295 174.6 37.5795 174.52 37.8195 174.36C38.1169 174.154 38.4602 174.023 38.8195 173.98C39.1897 173.928 39.5668 173.966 39.9195 174.09C40.2195 174.19 40.3595 174.32 40.3295 174.4Z" fill="#E0E0E0"/>
<path d="M45.9998 174.84C45.8898 174.98 45.4598 174.84 44.9498 174.84C44.4398 174.84 44.0098 174.95 43.9498 174.84C43.8898 174.73 43.9498 174.63 44.1598 174.5C44.4064 174.33 44.7004 174.243 44.9998 174.25C45.3006 174.253 45.5935 174.347 45.8398 174.52C45.9998 174.63 46.0798 174.77 45.9998 174.84Z" fill="#E0E0E0"/>
<path d="M46.6992 172.8C46.6992 172.8 45.6093 170.3 44.3793 169.73C42.8993 169.04 42.2892 170.66 40.8892 170.29C39.4892 169.92 38.0692 169.29 36.6492 170.36C35.2292 171.43 35.8492 172.36 35.7792 174.18C35.4892 181.42 34.1992 183.48 33.7792 180.08C33.7792 179.71 32.6993 179.43 32.5193 177.85C32.2108 175.859 32.2413 173.831 32.6092 171.85C33.0112 170.62 33.8185 169.562 34.8992 168.85C36.8992 167.35 39.5693 167.27 41.4093 167.43C43.2493 167.59 46.8292 169.65 46.6992 172.8Z" fill="#E0E0E0"/>
<path d="M33.9991 180C33.9736 179.71 33.8341 179.441 33.6109 179.254C33.3878 179.066 33.0994 178.975 32.8091 179C32.0591 179.09 31.2291 179.52 31.2991 181.07C31.2844 181.418 31.3575 181.763 31.5116 182.075C31.6657 182.387 31.8959 182.655 32.1809 182.854C32.466 183.053 32.7966 183.178 33.1423 183.215C33.4881 183.253 33.8377 183.203 34.1591 183.07C34.1891 182.92 34.0891 181.12 33.9991 180Z" fill="#FFBE9D"/>
<path d="M33.5499 182C33.5499 182 33.4999 182 33.4199 182.08C33.3628 182.104 33.3016 182.116 33.2399 182.116C33.1781 182.116 33.1169 182.104 33.0599 182.08C32.8831 181.978 32.7352 181.833 32.6302 181.658C32.5252 181.483 32.4666 181.284 32.4599 181.08C32.4484 180.845 32.4858 180.61 32.5699 180.39C32.59 180.303 32.6317 180.223 32.6912 180.156C32.7506 180.09 32.8258 180.04 32.9099 180.01C32.9646 179.994 33.0233 179.997 33.076 180.019C33.1288 180.041 33.1725 180.08 33.1999 180.13C33.1999 180.2 33.1999 180.26 33.1999 180.26C33.1999 180.26 33.2599 180.21 33.1999 180.1C33.1799 180.032 33.1377 179.972 33.0799 179.93C33.0002 179.878 32.9042 179.856 32.8099 179.87C32.6987 179.899 32.5966 179.956 32.5128 180.034C32.429 180.113 32.3661 180.211 32.3299 180.32C32.2247 180.566 32.1801 180.833 32.1999 181.1C32.1999 181.345 32.2719 181.585 32.407 181.789C32.5421 181.994 32.7344 182.154 32.9599 182.25C33.0337 182.268 33.1107 182.269 33.1851 182.254C33.2594 182.238 33.3294 182.206 33.3899 182.16C33.4269 182.147 33.4605 182.126 33.4882 182.098C33.5159 182.071 33.537 182.037 33.5499 182Z" fill="#EB996E"/>
<path d="M33.9992 174.64C34.3404 174.907 34.7423 175.086 35.1692 175.16C35.3854 175.195 35.607 175.149 35.7915 175.031C35.976 174.913 36.1105 174.731 36.1692 174.52C36.1692 174.32 36.1692 174.1 36.2792 173.95C36.3892 173.8 36.6992 173.83 36.9292 173.85C37.3325 173.872 37.7313 173.757 38.0603 173.522C38.3892 173.288 38.6286 172.948 38.7392 172.56C38.8641 172.699 39.0373 172.784 39.2232 172.799C39.4092 172.814 39.5938 172.757 39.7392 172.64C40.0235 172.407 40.2728 172.134 40.4792 171.83C40.585 171.679 40.7257 171.555 40.8893 171.47C41.0529 171.385 41.2347 171.34 41.4192 171.34C41.613 171.408 41.8145 171.452 42.0192 171.47C42.3792 171.47 42.5492 171 42.5992 170.64C42.6492 170.28 42.6792 169.87 42.9892 169.64C43.3106 169.514 43.6677 169.514 43.9892 169.64C44.3192 169.64 44.7492 169.64 44.8292 169.27C44.8422 169.182 44.8374 169.093 44.8151 169.007C44.7928 168.921 44.7533 168.84 44.6992 168.77C44.4693 168.443 44.1368 168.202 43.7544 168.087C43.372 167.971 42.9618 167.986 42.5892 168.13C42.4479 167.674 42.1742 167.269 41.8028 166.969C41.4313 166.669 40.979 166.485 40.5032 166.442C40.0274 166.399 39.5495 166.499 39.1304 166.728C38.7113 166.958 38.3697 167.306 38.1492 167.73C37.8542 167.468 37.5001 167.281 37.1171 167.185C36.734 167.09 36.3336 167.089 35.9501 167.182C35.5666 167.276 35.2115 167.461 34.9152 167.722C34.619 167.983 34.3904 168.311 34.2492 168.68C33.9109 168.6 33.557 168.619 33.2291 168.735C32.9013 168.85 32.6133 169.056 32.3992 169.33C32.1892 169.617 32.0663 169.958 32.045 170.312C32.0237 170.667 32.105 171.02 32.2792 171.33C32.0267 171.461 31.811 171.653 31.652 171.889C31.4931 172.125 31.3958 172.397 31.3692 172.68C31.3683 172.821 31.3973 172.961 31.4543 173.09C31.5113 173.219 31.595 173.335 31.6998 173.429C31.8047 173.523 31.9283 173.595 32.0626 173.638C32.1969 173.681 32.3389 173.695 32.4792 173.68C32.3772 173.906 32.3626 174.161 32.438 174.397C32.5135 174.632 32.6738 174.832 32.8878 174.956C33.1018 175.081 33.3544 175.121 33.5966 175.07C33.8389 175.019 34.0536 174.88 34.1992 174.68" fill="#E0E0E0"/>
<path d="M32.2306 173.6C32.2199 173.696 32.2305 173.794 32.2616 173.885C32.2927 173.977 32.3436 174.06 32.4106 174.13C32.55 174.304 32.7502 174.418 32.9706 174.45C33.1102 174.467 33.2518 174.455 33.3862 174.413C33.5206 174.372 33.6448 174.303 33.7506 174.21H33.6306C33.7762 174.468 33.9657 174.698 34.1906 174.89C34.3363 175.021 34.5061 175.123 34.6906 175.19C34.9296 175.271 35.1883 175.274 35.4291 175.199C35.67 175.123 35.8807 174.973 36.0306 174.77C36.1413 174.597 36.2161 174.403 36.2506 174.2C36.2617 174.124 36.2617 174.046 36.2506 173.97C36.2506 173.97 36.2506 174.05 36.1706 174.18C36.1114 174.367 36.0273 174.545 35.9206 174.71C35.8199 174.828 35.6957 174.924 35.556 174.992C35.4162 175.059 35.2639 175.097 35.1088 175.103C34.9536 175.109 34.799 175.082 34.6547 175.025C34.5104 174.967 34.3796 174.881 34.2706 174.77C34.061 174.586 33.8821 174.37 33.7406 174.13V174.05L33.6706 174.12C33.583 174.202 33.4787 174.265 33.3648 174.303C33.2508 174.341 33.13 174.353 33.0106 174.34C32.8173 174.319 32.639 174.226 32.5106 174.08C32.384 173.942 32.2885 173.778 32.2306 173.6Z" fill="white"/>
<path d="M37.3301 167.25C37.3982 167.269 37.4651 167.292 37.5301 167.32C37.7057 167.39 37.8557 167.512 37.9601 167.67C38.2976 167.198 38.7526 166.822 39.2801 166.58C39.6145 166.419 39.9791 166.331 40.3501 166.32C40.7205 166.325 41.0845 166.418 41.4116 166.592C41.7387 166.766 42.0193 167.015 42.2301 167.32C42.398 167.565 42.5043 167.846 42.5401 168.14V168.23H42.6201C43.0057 168.122 43.4182 168.169 43.7701 168.36C44.047 168.505 44.2684 168.737 44.4001 169.02C44.5153 169.275 44.5798 169.55 44.5901 169.83C44.5962 169.754 44.5962 169.677 44.5901 169.6C44.5905 169.386 44.5427 169.174 44.4501 168.98C44.3191 168.672 44.0907 168.416 43.8001 168.25C43.4196 168.038 42.9718 167.98 42.5501 168.09L42.6501 168.16C42.6117 167.837 42.4949 167.528 42.3101 167.26C42.1162 166.973 41.8598 166.734 41.5601 166.56C41.182 166.336 40.7493 166.222 40.3101 166.23C39.9177 166.241 39.5322 166.337 39.1801 166.51C38.6414 166.776 38.1826 167.18 37.8501 167.68H38.0001C37.8766 167.516 37.7055 167.394 37.5101 167.33C37.4101 167.23 37.3301 167.24 37.3301 167.25Z" fill="white"/>
<path d="M39.7705 182.24C39.7705 182.24 39.7705 181.95 40.0505 181.71C40.3305 181.47 40.5605 181.42 40.5605 181.38C40.5605 181.34 40.4805 181.38 40.3605 181.38C40.1991 181.415 40.0524 181.499 39.9405 181.62C39.8262 181.745 39.7529 181.902 39.7305 182.07C39.7205 182.17 39.7505 182.25 39.7705 182.24Z" fill="#EB996E"/>
<path d="M39.5089 181.49C39.5089 181.49 39.6489 181.41 39.7889 181.35C39.9289 181.29 40.0689 181.26 40.0789 181.21C40.0889 181.16 39.9189 181.11 39.7289 181.21C39.5389 181.31 39.4689 181.47 39.5089 181.49Z" fill="#EB996E"/>
<path d="M36.3206 188C36.3206 188 36.3206 188 36.2506 187.93C36.2277 187.892 36.2155 187.849 36.2155 187.805C36.2155 187.761 36.2277 187.718 36.2506 187.68C36.2506 187.58 36.4106 187.49 36.5006 187.31C36.5253 187.26 36.5381 187.206 36.5381 187.15C36.5381 187.095 36.5253 187.04 36.5006 186.99C36.4507 186.906 36.3902 186.829 36.3206 186.76C36.1106 186.48 36.7306 186.29 36.6406 185.94C36.6374 185.884 36.6224 185.829 36.5966 185.779C36.5707 185.729 36.5346 185.685 36.4906 185.65C36.4604 185.622 36.4218 185.604 36.3806 185.6C36.3806 185.6 36.5306 185.71 36.5306 185.94C36.5246 186.007 36.5034 186.071 36.4688 186.128C36.4341 186.185 36.3869 186.234 36.3306 186.27C36.2554 186.333 36.194 186.412 36.1506 186.5C36.1189 186.553 36.1021 186.613 36.1021 186.675C36.1021 186.737 36.1189 186.797 36.1506 186.85C36.212 186.916 36.2688 186.986 36.3206 187.06C36.3384 187.089 36.3477 187.122 36.3477 187.155C36.3477 187.189 36.3384 187.222 36.3206 187.25C36.3206 187.39 36.1506 187.5 36.1006 187.64C36.0792 187.696 36.0744 187.757 36.0868 187.815C36.0992 187.874 36.1284 187.928 36.1706 187.97C36.2706 188 36.3306 188 36.3206 188Z" fill="#EB996E"/>
<path d="M35.47 187.85C35.47 187.85 35.47 187.85 35.47 187.75C35.505 187.665 35.5559 187.587 35.62 187.52C35.6611 187.463 35.6978 187.403 35.73 187.34C35.7613 187.253 35.7613 187.157 35.73 187.07C35.68 186.87 35.52 186.75 35.44 186.61C35.36 186.47 35.44 186.35 35.54 186.23C35.6016 186.173 35.6524 186.105 35.69 186.03C35.7082 185.955 35.7082 185.876 35.69 185.8C35.69 185.52 35.47 185.43 35.47 185.45C35.47 185.47 35.59 185.58 35.58 185.8C35.5762 185.865 35.5581 185.928 35.527 185.985C35.4959 186.042 35.4525 186.092 35.4 186.13C35.3256 186.192 35.2673 186.271 35.23 186.36C35.2059 186.412 35.1934 186.468 35.1934 186.525C35.1934 186.582 35.2059 186.639 35.23 186.69C35.34 186.87 35.49 186.98 35.52 187.11C35.5284 187.233 35.489 187.355 35.41 187.45C35.354 187.539 35.3134 187.637 35.29 187.74C35.44 187.81 35.46 187.85 35.47 187.85Z" fill="#EB996E"/>
<path d="M53.8499 196.69C52.3999 193.92 48.5898 192.34 48.5898 192.34L49.7798 204.79C51.8482 203.509 53.718 201.932 55.3298 200.11C55.3298 200.11 55.2999 199.46 53.8499 196.69Z" fill="#455A64"/>
<path d="M50.3407 194.18C50.2947 194.361 50.2345 194.539 50.1607 194.71C50.0407 195.03 49.8807 195.48 49.7207 195.98C49.5607 196.48 49.4507 196.98 49.3607 197.28C49.3232 197.462 49.2765 197.643 49.2207 197.82C49.2207 197.82 49.2207 197.76 49.2207 197.67C49.2207 197.58 49.2207 197.44 49.3007 197.27C49.391 196.828 49.5045 196.391 49.6407 195.96C49.7693 195.528 49.9229 195.104 50.1007 194.69C50.1607 194.53 50.2207 194.4 50.2607 194.31L50.3407 194.18Z" fill="#263238"/>
<path d="M48.5894 192.34L43.6994 191.09C40.4394 192.39 37.2194 191.64 34.0294 189.63L25.6194 193.2C24.721 193.732 23.9513 194.457 23.3653 195.321C22.7793 196.185 22.3914 197.168 22.2294 198.2L21.6895 200C23.6019 202.343 26.0141 204.229 28.7495 205.52C32.0623 207.048 35.6863 207.78 39.3324 207.659C42.9785 207.537 46.5457 206.565 49.7495 204.82L48.5894 192.34Z" fill="#455A64"/>
<path d="M29.3594 203C29.3594 203 29.3594 202.23 29.3594 201.29C29.3594 200.35 29.3594 199.57 29.3594 199.57C29.3594 199.57 29.3594 200.34 29.3594 201.29C29.3594 202.24 29.3794 203 29.3594 203Z" fill="#263238"/>
<path d="M28.3799 197.88C28.3553 197.818 28.3353 197.755 28.3199 197.69C28.3199 197.56 28.2299 197.39 28.1599 197.17C27.9757 196.6 27.7274 196.054 27.4198 195.54C27.1195 195.023 26.7641 194.54 26.3598 194.1L25.9798 193.71L25.8398 193.56L25.9998 193.68C26.0998 193.77 26.2398 193.89 26.3998 194.06C26.8172 194.497 27.183 194.98 27.4899 195.5C27.7978 196.019 28.0428 196.573 28.2198 197.15C28.2798 197.37 28.3299 197.55 28.3499 197.68C28.3699 197.81 28.3899 197.88 28.3799 197.88Z" fill="#263238"/>
<path d="M60.6304 185.54C60.6154 185.421 60.6154 185.3 60.6304 185.18C60.6304 184.92 60.6304 184.57 60.5504 184.13C60.5504 183.9 60.5504 183.64 60.5004 183.36C60.4504 183.08 60.4104 182.77 60.3604 182.44C60.2582 181.673 60.1011 180.915 59.8904 180.17C59.3655 178.112 58.5363 176.144 57.4304 174.33C54.8168 169.948 50.7537 166.616 45.9438 164.913C41.1339 163.209 35.8798 163.24 31.0904 165C30.1116 165.348 29.1591 165.766 28.2404 166.25C27.3108 166.76 26.4186 167.334 25.5704 167.97C24.6959 168.615 23.8672 169.32 23.0904 170.08C22.3244 170.877 21.6097 171.723 20.9504 172.61C19.5968 174.431 18.5434 176.456 17.8304 178.61C16.3369 183.079 16.3369 187.912 17.8304 192.38C18.5414 194.535 19.5948 196.561 20.9504 198.38C21.6066 199.273 22.3215 200.122 23.0904 200.92C23.8699 201.674 24.6983 202.376 25.5704 203.02C26.4209 203.656 27.3128 204.234 28.2404 204.75C29.1611 205.231 30.1132 205.648 31.0904 206C34.7633 207.349 38.7296 207.695 42.5804 207C45.9273 206.385 49.0823 204.991 51.7904 202.93C54.0345 201.237 55.9323 199.129 57.3804 196.72C58.4877 194.911 59.3169 192.946 59.8404 190.89C60.0522 190.143 60.2093 189.381 60.3104 188.61C60.3604 188.28 60.4204 187.97 60.4504 187.69C60.4804 187.41 60.4504 187.15 60.5004 186.92C60.5004 186.48 60.5604 186.14 60.5804 185.87C60.5658 185.754 60.5658 185.636 60.5804 185.52C60.5912 185.64 60.5912 185.76 60.5804 185.88V186.88C60.5804 187.113 60.5804 187.373 60.5804 187.66C60.5804 187.94 60.5004 188.25 60.4604 188.58C60.3757 189.398 60.2218 190.208 60.0004 191C59.5117 193.089 58.7021 195.089 57.6004 196.93C55.9955 199.656 53.8272 202.008 51.2404 203.83C48.6537 205.651 45.7081 206.899 42.6004 207.49C38.6797 208.225 34.6339 207.9 30.8804 206.55C29.8801 206.192 28.9047 205.767 27.9604 205.28C27.0076 204.757 26.092 204.169 25.2204 203.52C24.3279 202.859 23.4795 202.141 22.6804 201.37C21.8926 200.557 21.1609 199.692 20.4904 198.78C19.0969 196.917 18.016 194.84 17.2904 192.63C15.7574 188.052 15.7574 183.099 17.2904 178.52C18.0223 176.313 19.1026 174.236 20.4904 172.37C21.1632 171.46 21.8948 170.595 22.6804 169.78C23.4795 169.009 24.3279 168.291 25.2204 167.63C26.0922 166.984 27.0077 166.399 27.9604 165.88C28.9025 165.386 29.8783 164.958 30.8804 164.6C34.6336 163.248 38.6808 162.927 42.6004 163.67C45.707 164.261 48.6518 165.508 51.2384 167.327C53.825 169.146 55.9939 171.496 57.6004 174.22C58.7039 176.063 59.5136 178.068 60.0004 180.16C60.2048 180.914 60.3486 181.683 60.4304 182.46C60.4304 182.8 60.5304 183.1 60.5504 183.39C60.5704 183.68 60.5504 183.93 60.5504 184.17V185.22C60.5858 185.324 60.6126 185.431 60.6304 185.54Z" fill="#263238"/>
<path d="M54.2963 256.269C62.8839 247.682 62.8839 233.758 54.2963 225.171C45.7086 216.583 31.7853 216.583 23.1977 225.171C14.6101 233.758 14.6101 247.682 23.1977 256.269C31.7853 264.857 45.7086 264.857 54.2963 256.269Z" fill="#F5F5F5"/>
<path d="M46.3098 227.45C46.0864 226.735 45.7228 226.071 45.2404 225.498C44.758 224.924 44.1663 224.453 43.4998 224.11C41.9968 223.408 40.297 223.249 38.6898 223.66C37.0969 224.076 35.5833 224.752 34.2099 225.66C33.4009 226.107 32.682 226.7 32.0898 227.41C30.9677 228.939 30.277 230.742 30.0898 232.63C30.15 234.681 30.5487 236.709 31.2699 238.63C31.5971 239.131 32.0625 239.527 32.6098 239.77C33.265 240.973 34.1284 242.049 35.1599 242.95L36.0298 240.19L46.3098 227.45Z" fill="#263238"/>
<path d="M45.4791 225.8L42.7891 225.4C44.3491 228.84 44.9691 236.8 45.9091 240.46C46.9091 239 49.0291 234.57 48.8491 232.84C48.6691 231.11 48.6491 225.41 45.4791 225.8Z" fill="#263238"/>
<path d="M32.9995 232C33.0162 231.023 33.3471 230.077 33.9433 229.303C34.5394 228.528 35.3691 227.966 36.3094 227.7L42.4294 225.95C45.0894 225.58 46.9595 228.81 47.2095 231.48C47.5533 234.24 47.6203 237.027 47.4095 239.8C46.8395 244.28 43.4095 244.95 43.4095 244.95C43.4095 244.95 43.4694 247.07 43.5094 248.37L42.5094 254.2L34.4494 247.32L32.9395 232C32.9395 231.94 32.9995 232.06 32.9995 232Z" fill="#FFBE9D"/>
<path d="M46.4803 235.3C46.486 235.449 46.4341 235.595 46.3354 235.706C46.2367 235.818 46.0988 235.887 45.9503 235.9C45.8032 235.914 45.6566 235.869 45.5423 235.776C45.4281 235.682 45.3554 235.547 45.3403 235.4C45.3346 235.251 45.3865 235.106 45.4851 234.994C45.5838 234.882 45.7217 234.813 45.8703 234.8C46.0173 234.786 46.164 234.831 46.2782 234.925C46.3925 235.018 46.4651 235.153 46.4803 235.3Z" fill="#263238"/>
<path d="M46.5494 233.2C46.4794 233.28 46.0394 232.97 45.4194 232.99C44.7994 233.01 44.4194 233.33 44.2994 233.26C44.1794 233.19 44.2994 233.09 44.5194 232.94C44.7813 232.75 45.0957 232.645 45.4194 232.64C45.7397 232.627 46.0555 232.718 46.3194 232.9C46.5094 233 46.5794 233.17 46.5494 233.2Z" fill="#263238"/>
<path d="M40.7205 235.3C40.7262 235.449 40.6743 235.594 40.5756 235.706C40.4769 235.818 40.339 235.887 40.1905 235.9C40.0434 235.914 39.8968 235.869 39.7825 235.776C39.6683 235.682 39.5956 235.547 39.5805 235.4C39.5749 235.25 39.6282 235.103 39.729 234.991C39.8298 234.879 39.9702 234.81 40.1205 234.8C40.1927 234.793 40.2657 234.801 40.335 234.822C40.4044 234.844 40.4688 234.879 40.5246 234.925C40.5804 234.972 40.6264 235.029 40.66 235.093C40.6937 235.157 40.7142 235.228 40.7205 235.3Z" fill="#263238"/>
<path d="M40.7097 233.37C40.6397 233.44 40.1997 233.14 39.5797 233.16C38.9597 233.18 38.5297 233.5 38.4597 233.43C38.3897 233.36 38.4597 233.26 38.6797 233.11C38.9404 232.916 39.2548 232.808 39.5797 232.8C39.8997 232.789 40.2148 232.88 40.4797 233.06C40.6697 233.2 40.7397 233.33 40.7097 233.37Z" fill="#263238"/>
<path d="M42.7699 238.14C43.0945 238.034 43.4299 237.963 43.7699 237.93C43.9299 237.93 44.0799 237.88 44.0999 237.77C44.1056 237.608 44.0638 237.448 43.9798 237.31C43.8198 236.93 43.6498 236.54 43.4798 236.12C43.0149 235.123 42.6336 234.09 42.3398 233.03C42.8852 233.99 43.3501 234.993 43.7298 236.03C43.8898 236.44 44.0599 236.84 44.2099 237.21C44.3089 237.401 44.344 237.618 44.3098 237.83C44.2888 237.886 44.2555 237.937 44.2122 237.979C44.1689 238.02 44.1168 238.051 44.0598 238.07C43.97 238.078 43.8797 238.078 43.7898 238.07C43.4546 238.14 43.1115 238.163 42.7699 238.14Z" fill="#263238"/>
<path d="M37.4492 243.49C37.4492 243.49 38.9892 246.49 43.4492 245.96V244.96C41.3513 245.038 39.2733 244.529 37.4492 243.49Z" fill="#EB996E"/>
<path d="M40.4502 231.15C40.4502 231.32 39.7802 231.26 39.0602 231.37C38.3402 231.48 37.7702 231.69 37.6702 231.55C37.5702 231.41 37.7202 231.32 37.9502 231.15C38.247 230.939 38.5898 230.802 38.9502 230.75C39.3196 230.695 39.6968 230.729 40.0502 230.85C40.3402 230.94 40.4802 231.07 40.4502 231.15Z" fill="#263238"/>
<path d="M46.2991 231.33C46.1891 231.47 45.7591 231.33 45.2491 231.33C44.7391 231.33 44.3191 231.45 44.2491 231.33C44.1791 231.21 44.2491 231.11 44.4491 230.98C44.6954 230.809 44.9889 230.718 45.2891 230.72C45.5895 230.716 45.8836 230.807 46.1291 230.98C46.2791 231.11 46.3391 231.26 46.2991 231.33Z" fill="#263238"/>
<path d="M45.8398 227.4C45.6698 227.081 45.4163 226.813 45.1063 226.627C44.7964 226.44 44.4416 226.341 44.0798 226.34C43.3649 226.37 42.6724 226.599 42.0798 227C39.4698 228.61 38.2098 232.35 35.6398 234C34.9998 234.41 34.1498 234.08 33.6398 234.61C33.3529 234.857 33.1477 235.185 33.0513 235.551C32.9548 235.917 32.9718 236.304 33.0998 236.66C32.6937 236.209 32.3567 235.7 32.0998 235.15C31.9761 234.877 31.9121 234.58 31.9121 234.28C31.9121 233.98 31.9761 233.683 32.0998 233.41C32.3098 233.01 32.6998 232.7 32.7998 232.26C32.816 231.862 32.7926 231.463 32.7298 231.07C32.7581 230.662 32.8851 230.268 33.0998 229.92C34.0352 228.039 35.4623 226.446 37.2298 225.31C38.4001 224.589 39.7453 224.202 41.1198 224.19C42.4963 224.184 43.8296 224.67 44.8798 225.56C45.4798 226.09 46.1098 226.64 45.8798 227.39" fill="#263238"/>
<path d="M33.66 235.17C33.4053 235.013 33.1107 234.932 32.8113 234.937C32.5118 234.942 32.2203 235.034 31.9714 235.2C31.7226 235.367 31.5269 235.602 31.4079 235.877C31.2888 236.151 31.2514 236.455 31.3 236.75C31.2837 237.051 31.3428 237.351 31.472 237.624C31.6011 237.896 31.7962 238.132 32.0396 238.31C32.2829 238.487 32.5668 238.602 32.8655 238.642C33.1642 238.682 33.4682 238.647 33.75 238.54C33.75 238.47 33.66 235.17 33.66 235.17Z" fill="#FFBE9D"/>
<path d="M32.9991 237.64C32.9991 237.64 32.9991 237.64 32.8891 237.7C32.84 237.721 32.7873 237.731 32.7341 237.731C32.6809 237.731 32.6282 237.721 32.5791 237.7C32.4189 237.608 32.2873 237.473 32.1991 237.311C32.1108 237.148 32.0693 236.965 32.0791 236.78C32.0673 236.574 32.105 236.368 32.1891 236.18C32.2591 236 32.3691 235.87 32.4891 235.85C32.537 235.836 32.5886 235.839 32.6344 235.859C32.6803 235.879 32.7174 235.915 32.7391 235.96C32.7391 236.03 32.7391 236.07 32.7391 236.08C32.7391 236.09 32.7391 236.08 32.7391 235.94C32.7266 235.881 32.6949 235.829 32.6491 235.79C32.6151 235.765 32.5763 235.746 32.5351 235.736C32.4939 235.726 32.4511 235.724 32.4091 235.73C32.3121 235.754 32.2224 235.801 32.1475 235.867C32.0726 235.933 32.0148 236.017 31.9791 236.11C31.8833 236.323 31.8388 236.556 31.8491 236.79C31.8456 237 31.9033 237.206 32.0152 237.384C32.1271 237.561 32.2883 237.703 32.4791 237.79C32.5436 237.808 32.6113 237.811 32.6772 237.799C32.7431 237.787 32.8053 237.76 32.8591 237.72C32.9991 237.7 32.9991 237.64 32.9991 237.64Z" fill="#EB996E"/>
<path d="M32.6699 234L32.8099 233.91C32.8999 233.85 33.0399 233.77 33.2099 233.64C33.6688 233.279 34.0908 232.874 34.4699 232.43C35.016 231.756 35.5235 231.051 35.9899 230.32C36.558 229.43 37.1968 228.587 37.8999 227.8C38.2802 227.409 38.699 227.057 39.1499 226.75C39.5797 226.478 40.0394 226.257 40.5199 226.09C41.3315 225.803 42.1896 225.671 43.0499 225.7C43.6301 225.722 44.2049 225.82 44.7599 225.99C44.9599 225.99 45.1099 226.11 45.2099 226.14H45.3699L45.2199 226.07C45.1199 226.07 44.9699 225.96 44.7799 225.9C44.2224 225.708 43.6393 225.6 43.0499 225.58C42.1781 225.535 41.3057 225.657 40.4799 225.94C39.9942 226.106 39.5307 226.331 39.0999 226.61C38.6364 226.916 38.2102 227.275 37.8299 227.68C37.1171 228.469 36.4747 229.319 35.9099 230.22C35.3699 231.03 34.9099 231.76 34.4099 232.33C34.0418 232.78 33.6297 233.192 33.1799 233.56C33.0199 233.69 32.8799 233.78 32.7999 233.84C32.7199 233.9 32.6699 234 32.6699 234Z" fill="white"/>
<path d="M33.2894 234.63C33.2114 235.285 33.3116 235.948 33.5794 236.55C33.7244 236.846 33.9779 237.074 34.2871 237.188C34.5963 237.302 34.9374 237.292 35.2394 237.16C35.4426 236.986 35.6053 236.77 35.7159 236.526C35.8264 236.283 35.8823 236.018 35.8794 235.75C36.0594 234.21 36.1194 232.66 36.3194 231.13L33.2894 234.63Z" fill="#263238"/>
<path d="M45.2206 226.28C45.0207 226.27 44.8204 226.27 44.6205 226.28C44.0765 226.287 43.5393 226.403 43.0405 226.62C42.688 226.762 42.3525 226.943 42.0405 227.16C41.6904 227.409 41.3564 227.679 41.0405 227.97C40.3026 228.628 39.6478 229.374 39.0905 230.19C38.7905 230.63 38.5405 231.08 38.2605 231.5C37.9908 231.905 37.6754 232.277 37.3206 232.61C36.711 233.156 36.0398 233.63 35.3206 234.02C34.7206 234.36 34.2105 234.6 33.8605 234.77L33.4606 234.96L33.3105 235.01L33.4505 234.93L33.8405 234.72C34.1805 234.54 34.6805 234.29 35.2805 233.94C35.9816 233.537 36.6356 233.058 37.2305 232.51C37.5724 232.181 37.8775 231.815 38.1405 231.42C38.4105 231.01 38.6706 230.56 38.9606 230.12C39.5322 229.294 40.204 228.541 40.9606 227.88C41.2763 227.589 41.6103 227.319 41.9606 227.07C42.272 226.852 42.6076 226.671 42.9606 226.53C43.4739 226.319 44.0256 226.217 44.5806 226.23C44.7316 226.236 44.8819 226.253 45.0305 226.28H45.2206Z" fill="#455A64"/>
<path d="M33.1792 233.15C33.1792 233.15 33.1092 233.21 32.9692 233.3L32.3792 233.67L32.1792 233.79C32.099 233.846 32.0062 233.88 31.9092 233.89C31.8568 233.905 31.8015 233.905 31.7492 233.89C31.7236 233.872 31.7022 233.848 31.6867 233.82C31.6712 233.792 31.6618 233.762 31.6592 233.73C31.6585 233.619 31.6935 233.51 31.7592 233.42C31.9692 233.07 32.1892 232.68 32.4392 232.27L32.5292 232.36C32.2988 232.536 32.0423 232.674 31.7692 232.77C31.4949 232.859 31.2073 232.899 30.9192 232.89C30.8462 232.9 30.7722 232.9 30.6992 232.89C30.657 232.881 30.6178 232.861 30.5847 232.833C30.5516 232.805 30.5257 232.77 30.5092 232.73C30.4891 232.693 30.4785 232.652 30.4785 232.61C30.4785 232.568 30.4891 232.527 30.5092 232.49C30.5474 232.436 30.591 232.386 30.6392 232.34C30.949 232.024 31.2147 231.667 31.4292 231.28C31.6173 230.918 31.781 230.544 31.9192 230.16C31.9119 230.273 31.8883 230.384 31.8492 230.49C31.7639 230.781 31.65 231.062 31.5092 231.33C31.3032 231.729 31.0405 232.096 30.7292 232.42C30.6392 232.51 30.5592 232.61 30.5992 232.68C30.6392 232.75 30.7592 232.79 30.8892 232.79C31.1642 232.799 31.4386 232.759 31.6992 232.67C31.9586 232.584 32.2019 232.456 32.4192 232.29L32.6992 232.07L32.5192 232.37L31.8292 233.51C31.7766 233.58 31.7453 233.663 31.7392 233.75C31.7392 233.82 31.7992 233.86 31.8792 233.85C32.0292 233.812 32.1713 233.747 32.2992 233.66L32.9192 233.32L33.1792 233.15Z" fill="white"/>
<path d="M40.4606 239.34C40.5021 239.158 40.6054 238.995 40.7531 238.88C40.9007 238.766 41.0836 238.705 41.2706 238.71C41.4083 238.723 41.5406 238.77 41.6558 238.847C41.7709 238.924 41.8653 239.028 41.9305 239.15C41.9952 239.272 42.034 239.406 42.0443 239.544C42.0546 239.681 42.0363 239.82 41.9906 239.95V240C41.8695 240.139 41.7087 240.238 41.5299 240.282C41.351 240.327 41.1628 240.316 40.9906 240.25C40.8139 240.178 40.6659 240.05 40.57 239.886C40.474 239.721 40.4356 239.529 40.4606 239.34Z" fill="#EB996E"/>
<path d="M42.4303 240C42.4303 239.91 41.8003 240 41.3203 239.46C40.8403 238.92 40.8603 238.29 40.7703 238.3C40.6803 238.31 40.6603 238.45 40.6703 238.73C40.6964 239.103 40.848 239.455 41.1003 239.73C41.3432 239.98 41.6725 240.126 42.0203 240.14C42.2903 240.13 42.4303 240.05 42.4303 240Z" fill="#263238"/>
<path d="M30.0791 247L34.3492 246.64C34.3492 246.64 36.7091 249.75 39.9091 249.51C43.1091 249.27 43.4592 247.12 43.4592 247.12C43.4592 247.12 49.1791 248.22 52.2791 251.5L52.3492 251.59L54.6691 255.7C52.7291 257.45 50.9891 259.36 48.9091 260.22C45.7019 261.757 42.1888 262.55 38.6323 262.54C35.0757 262.529 31.5674 261.716 28.3691 260.16L30.0791 247Z" fill="#704FE6"/>
<path d="M30.1593 246.93C28.9185 247.138 27.7154 247.529 26.5893 248.09C23.5893 249.86 22.0293 255.23 22.0293 255.23C24.1052 257.456 26.5949 259.256 29.3593 260.53C30.7389 258.659 31.8466 256.602 32.6493 254.42C32.6924 253.011 32.5987 251.601 32.3693 250.21C32.3693 250.21 30.1593 247 30.1593 246.93Z" fill="#704FE6"/>
<path d="M50.4908 259.39C50.4208 259.39 50.4208 258.7 50.2308 257.9C50.0408 257.1 49.7408 256.47 49.8008 256.44C50.1184 256.854 50.3341 257.337 50.4308 257.85C50.5809 258.35 50.6016 258.88 50.4908 259.39Z" fill="#263238"/>
<path d="M29.3594 260.48C29.4028 260.089 29.473 259.701 29.5694 259.32C29.75 258.394 29.8835 257.459 29.9694 256.52C30.0594 255.41 30.0794 254.41 30.0894 253.68C30.063 253.287 30.063 252.893 30.0894 252.5C30.176 252.887 30.2163 253.283 30.2094 253.68C30.2561 254.63 30.236 255.583 30.1494 256.53C30.0735 257.481 29.9197 258.424 29.6894 259.35C29.6277 259.739 29.5168 260.119 29.3594 260.48Z" fill="#263238"/>
<path d="M60.5293 240.61C60.498 240.496 60.4812 240.378 60.4793 240.26C60.4793 240 60.4793 239.65 60.3993 239.21C60.3993 238.98 60.3993 238.72 60.3493 238.44C60.2993 238.16 60.2593 237.85 60.2093 237.52C60.1043 236.754 59.9472 235.995 59.7393 235.25C59.2161 233.191 58.3869 231.223 57.2793 229.41C55.8312 227.001 53.9334 224.893 51.6893 223.2C48.9786 221.138 45.8198 219.743 42.4693 219.13C38.6219 218.435 34.6585 218.78 30.9893 220.13C30.0121 220.485 29.0599 220.906 28.1393 221.39C27.2098 221.9 26.3175 222.474 25.4693 223.11C24.5948 223.755 23.7661 224.46 22.9893 225.22C22.2205 226.015 21.5056 226.86 20.8493 227.75C19.495 229.57 18.4415 231.596 17.7293 233.75C16.2226 238.22 16.2226 243.06 17.7293 247.53C18.4383 249.685 19.492 251.712 20.8493 253.53C21.5026 254.422 22.2177 255.268 22.9893 256.06C23.7649 256.817 24.59 257.522 25.4593 258.17C26.3125 258.804 27.2079 259.378 28.1393 259.89C29.0599 260.374 30.0121 260.795 30.9893 261.15C34.6585 262.5 38.6219 262.846 42.4693 262.15C45.8198 261.537 48.9786 260.142 51.6893 258.08C53.9334 256.387 55.8312 254.279 57.2793 251.87C58.3852 250.057 59.2144 248.088 59.7393 246.03C59.9463 245.285 60.1033 244.526 60.2093 243.76C60.2093 243.43 60.3193 243.12 60.3493 242.84C60.3793 242.56 60.3493 242.3 60.3993 242.07C60.3993 241.63 60.4593 241.28 60.4793 241.07C60.4821 240.949 60.4988 240.828 60.5293 240.71C60.5358 240.83 60.5358 240.95 60.5293 241.07C60.5293 241.34 60.5293 241.68 60.5293 242.13C60.5293 242.36 60.5293 242.62 60.5293 242.9C60.5293 243.18 60.4493 243.5 60.4093 243.83C60.3275 244.607 60.1837 245.376 59.9793 246.13C59.4878 248.221 58.6784 250.224 57.5793 252.07C55.9714 254.794 53.8022 257.144 51.216 258.965C48.6298 260.785 45.6856 262.035 42.5793 262.63C38.6586 263.365 34.6128 263.04 30.8593 261.69C28.8288 260.989 26.9194 259.977 25.1993 258.69C24.3049 258.032 23.4562 257.313 22.6593 256.54C21.8737 255.725 21.1422 254.86 20.4693 253.95C19.0777 252.086 17.9971 250.009 17.2693 247.8C15.7201 243.224 15.7201 238.266 17.2693 233.69C17.995 231.48 19.0758 229.403 20.4693 227.54C21.1398 226.628 21.8715 225.763 22.6593 224.95C23.4562 224.177 24.3049 223.458 25.1993 222.8C26.0711 222.154 26.9866 221.569 27.9393 221.05C28.8814 220.555 29.8572 220.128 30.8593 219.77C34.6128 218.42 38.6586 218.095 42.5793 218.83C45.6856 219.425 48.6298 220.675 51.216 222.495C53.8022 224.316 55.9714 226.666 57.5793 229.39C58.6784 231.236 59.4878 233.239 59.9793 235.33C60.1837 236.084 60.3275 236.853 60.4093 237.63C60.4093 237.96 60.5093 238.27 60.5293 238.56C60.5493 238.85 60.5293 239.1 60.5293 239.33C60.5293 239.77 60.5293 240.12 60.5293 240.39C60.5319 240.463 60.5319 240.537 60.5293 240.61Z" fill="#263238"/>
</svg>
