<svg width="396" height="384" viewBox="0 0 396 384" fill="none" xmlns="http://www.w3.org/2000/svg">
<g clip-path="url(#clip0_179_2328)">
<path d="M43.9004 42.9399C43.942 43.0257 43.9722 43.1164 43.9904 43.2099L44.2104 44.0099C44.3213 44.451 44.4583 44.8851 44.6204 45.3099C44.8004 45.8099 44.9904 46.3999 45.2804 47.0299L45.7204 48.0299L46.2904 49.1099C46.486 49.5068 46.7064 49.8909 46.9504 50.2599C47.2004 50.6399 47.4204 51.0599 47.7204 51.4599C50.5295 55.5682 54.4632 58.7797 59.0504 60.7099C60.4421 61.2926 61.885 61.7445 63.3604 62.0599C64.9297 62.3713 66.5157 62.5917 68.1104 62.7199C71.3804 63.0399 74.9204 63.2199 78.3104 64.5799C81.7344 66.0979 84.7703 68.3714 87.1904 71.2299C89.7517 73.9461 91.8224 77.086 93.3104 80.5099C93.983 82.1629 94.3946 83.9105 94.5304 85.6899C94.6468 87.39 94.5392 89.098 94.2104 90.7699C93.5418 93.8346 92.6391 96.8434 91.5104 99.7699C90.5478 102.309 89.8312 104.934 89.3704 107.61C88.9966 109.817 89.0817 112.077 89.6204 114.25C90.0276 115.889 90.7661 117.427 91.7904 118.77C92.4374 119.622 93.2295 120.353 94.1304 120.93C94.7404 121.32 95.1304 121.47 95.1304 121.49C94.7832 121.352 94.4487 121.185 94.1304 120.99C93.2084 120.426 92.3954 119.702 91.7304 118.85C90.6707 117.507 89.9042 115.957 89.4804 114.3C88.9147 112.102 88.8092 109.811 89.1704 107.57C89.6269 104.879 90.3367 102.237 91.2904 99.6799C92.4006 96.7506 93.2898 93.7422 93.9504 90.6799C94.2611 89.0326 94.3619 87.3526 94.2504 85.6799C94.1166 83.9368 93.7082 82.2257 93.0404 80.6099C91.5629 77.2215 89.5129 74.1127 86.9804 71.4199C84.5924 68.6007 81.5977 66.3581 78.2204 64.8599C74.9104 63.5099 71.4004 63.3299 68.1204 62.9999C66.5161 62.8588 64.9204 62.6319 63.3404 62.3199C61.8359 62.0178 60.3628 61.5758 58.9404 60.9999C54.3143 59.0384 50.3624 55.7676 47.5704 51.5899C47.2704 51.1899 47.0404 50.7699 46.8004 50.3799C46.5631 50.0018 46.3461 49.6112 46.1504 49.2099L45.5904 48.1299L45.1604 47.1299C44.9136 46.5628 44.6999 45.9818 44.5204 45.3899C44.3701 44.9613 44.2466 44.5238 44.1504 44.0799C44.0704 43.7299 44.0004 43.4599 43.9604 43.2699C43.9321 43.1616 43.912 43.0513 43.9004 42.9399Z" fill="#455A64"/>
<path d="M64.2305 32.3398L64.4505 32.5398L65.0705 33.1398C65.3405 33.4098 65.6405 33.7698 66.0705 34.1398C66.5005 34.5098 66.8305 35.0599 67.2305 35.6599C68.2407 37.0996 69.0702 38.6579 69.7005 40.2999C70.5562 42.4702 71.0657 44.7614 71.2105 47.0898C71.2784 48.4416 71.2282 49.7968 71.0605 51.1398C70.8559 52.5948 70.5416 54.0322 70.1205 55.4398C69.2905 58.3598 68.1205 61.3598 67.2405 64.6498C66.8081 66.3276 66.5633 68.0481 66.5105 69.7798C66.4714 71.5857 66.6562 73.3894 67.0605 75.1498C67.9046 78.8832 69.5947 82.3728 72.0005 85.3499C74.4132 88.3013 77.3959 90.7364 80.7705 92.5098C83.9021 94.1839 87.2762 95.3581 90.7705 95.9899C94.1105 96.6099 97.3505 96.7698 100.35 97.2298C103.159 97.5653 105.887 98.3911 108.41 99.6698C112.011 101.688 114.829 104.857 116.41 108.67C116.839 109.694 117.174 110.755 117.41 111.84C117.47 112.21 117.51 112.49 117.55 112.7C117.557 112.796 117.557 112.893 117.55 112.99C117.55 112.99 117.55 112.89 117.48 112.7C117.41 112.51 117.38 112.22 117.31 111.86C117.064 110.788 116.729 109.737 116.31 108.72C115.609 107.124 114.69 105.633 113.58 104.29C112.11 102.51 110.31 101.03 108.28 99.9298C105.773 98.6788 103.065 97.8767 100.28 97.5598C97.2805 97.1098 94.0505 96.9599 90.6805 96.3499C87.1537 95.7101 83.7469 94.5296 80.5805 92.8499C77.1645 91.057 74.1445 88.5947 71.7005 85.6098C69.2795 82.6006 67.5702 79.0829 66.7005 75.3199C66.3047 73.5311 66.1234 71.7015 66.1605 69.8698C66.2145 68.1145 66.4627 66.3706 66.9005 64.6698C67.7505 61.3498 68.9805 58.3498 69.8205 55.4498C70.2605 54.0604 70.5948 52.6397 70.8205 51.1998C70.9989 49.8745 71.0558 48.5356 70.9905 47.1998C70.7607 43.1342 69.4299 39.2075 67.1405 35.8398C66.7505 35.2298 66.3405 34.7499 66.0105 34.2999C65.6805 33.8499 65.3505 33.5199 65.0905 33.2999L64.5005 32.6698C64.4007 32.5683 64.3103 32.4578 64.2305 32.3398Z" fill="#455A64"/>
<path d="M113.919 104C113.683 104.262 113.421 104.499 113.139 104.71C112.619 105.16 111.849 105.78 110.879 106.52C108.363 108.464 105.746 110.273 103.039 111.94C100.329 113.606 97.5357 115.132 94.6688 116.51C93.5688 117.04 92.6688 117.45 92.0488 117.71C91.73 117.872 91.3948 117.999 91.0488 118.09C91.3466 117.902 91.6574 117.734 91.9788 117.59L94.5588 116.3C96.7288 115.2 99.6888 113.6 102.849 111.65C106.009 109.7 108.769 107.77 110.729 106.33L113.039 104.61C113.316 104.384 113.61 104.18 113.919 104Z" fill="#455A64"/>
<path d="M108.549 99.7998C108.302 99.9826 108.038 100.14 107.759 100.27L105.579 101.45C103.739 102.45 101.219 103.87 98.4891 105.54C95.7591 107.21 93.3591 108.83 91.6391 110.02L89.6391 111.44C89.3948 111.622 89.1374 111.786 88.8691 111.93C89.0798 111.709 89.3108 111.508 89.5591 111.33C90.0191 110.96 90.6991 110.45 91.5591 109.83C93.2491 108.58 95.6491 106.94 98.3791 105.26C101.109 103.58 103.659 102.19 105.529 101.26C106.469 100.78 107.229 100.41 107.769 100.17C108.019 100.026 108.28 99.9019 108.549 99.7998Z" fill="#455A64"/>
<path d="M100.849 98.1799C100.367 98.601 99.848 98.9791 99.2995 99.3099C98.2995 99.9599 96.9495 100.84 95.4095 101.77C93.8695 102.7 92.4595 103.49 91.4095 104.05C90.8615 104.376 90.286 104.654 89.6895 104.88C90.1944 104.503 90.7296 104.169 91.2894 103.88L95.2294 101.52L99.1694 99.1499C99.6985 98.7758 100.261 98.4511 100.849 98.1799Z" fill="#455A64"/>
<path d="M93.6695 89.6799C93.3132 90.007 92.9207 90.2922 92.4995 90.5299L89.6095 92.4699L86.7395 94.4699C86.3621 94.7702 85.953 95.0284 85.5195 95.2399C85.8315 94.8582 86.1949 94.5216 86.5995 94.2399C87.2995 93.6799 88.2895 92.9499 89.4195 92.1799C90.5495 91.4099 91.5995 90.7599 92.4195 90.3199C92.8071 90.054 93.2272 89.8389 93.6695 89.6799Z" fill="#455A64"/>
<path d="M93.0995 82.0999C93.0995 82.1499 92.2495 82.6098 90.8795 83.3998C89.5095 84.1898 87.6395 85.3398 85.6695 86.7198C83.6995 88.0998 81.9795 89.4798 80.7695 90.4998C80.1318 91.0809 79.4642 91.6283 78.7695 92.1398C78.9059 91.9522 79.0599 91.778 79.2295 91.6198C79.5395 91.2998 80.0095 90.8599 80.5995 90.3199C83.6799 87.5387 87.0884 85.1443 90.7495 83.1898C91.4495 82.8198 92.0295 82.5399 92.4295 82.3499C92.6408 82.2373 92.8661 82.1532 93.0995 82.0999Z" fill="#455A64"/>
<path d="M89.3498 76.2199C89.3998 76.2999 85.8898 78.8299 81.5098 81.8899C77.1298 84.9499 73.5098 87.3499 73.5098 87.2799C73.5098 87.2099 76.9598 84.6599 81.3398 81.6099C85.7198 78.5599 89.2898 76.1399 89.3498 76.2199Z" fill="#455A64"/>
<path d="M86.3598 69.5898C86.1518 69.7804 85.9238 69.9481 85.6798 70.0898C85.1798 70.4298 84.5498 70.8598 83.7898 71.3598C82.1898 72.4298 79.9898 73.9299 77.5998 75.6299C75.2098 77.3299 73.0898 78.9298 71.5998 80.0898L69.7798 81.4698C69.5669 81.6502 69.3356 81.8077 69.0898 81.9398C69.27 81.7235 69.4747 81.5289 69.6998 81.3598C70.0998 81.0098 70.6998 80.5098 71.4498 79.8998C72.9498 78.6898 75.0498 77.0598 77.4498 75.3598C79.8498 73.6598 82.0698 72.1799 83.6998 71.1599C84.5198 70.6499 85.1898 70.2498 85.6998 69.9798C85.9059 69.8276 86.1271 69.6969 86.3598 69.5898Z" fill="#455A64"/>
<path d="M80.1901 65.92C80.2501 65.99 77.2701 68.15 73.5501 70.74C69.8301 73.33 66.7601 75.35 66.7001 75.28C66.6401 75.21 69.6301 73.04 73.3501 70.46C77.0701 67.88 80.1401 65.84 80.1901 65.92Z" fill="#455A64"/>
<path d="M73.7199 62.22C72.6603 63.2928 71.5167 64.2793 70.2999 65.17C69.1577 66.1547 67.9444 67.0538 66.6699 67.86C67.7338 66.7764 68.877 65.7736 70.0899 64.86C71.2338 63.8925 72.447 63.0101 73.7199 62.22Z" fill="#455A64"/>
<path d="M69.3595 52.9299C68.9142 53.4227 68.4256 53.8745 67.8995 54.2799C66.9695 55.0699 65.6495 56.1399 64.1495 57.2799C62.6495 58.4199 61.2595 59.3599 60.2295 60.0299C59.6937 60.4185 59.1209 60.7534 58.5195 61.0299C59.0145 60.5868 59.5427 60.1823 60.0995 59.8199C61.0995 59.0999 62.4595 58.1099 63.9495 56.9999C65.4395 55.8899 66.7795 54.8499 67.7495 54.0999C68.2541 53.6675 68.7925 53.2763 69.3595 52.9299Z" fill="#455A64"/>
<path d="M71.2393 46.6099C71.035 46.8065 70.8104 46.9808 70.5693 47.1299C70.1393 47.4499 69.4893 47.8899 68.6893 48.4199C67.0793 49.4899 64.8193 50.9199 62.2693 52.4199C59.7193 53.9199 57.3493 55.1399 55.6193 55.9999C54.7593 56.4299 54.0493 56.7699 53.5593 56.9999C53.3122 57.1357 53.0506 57.243 52.7793 57.3199C53.0055 57.1545 53.2465 57.0106 53.4993 56.8899L55.4993 55.7999C57.1993 54.8899 59.4993 53.6099 62.0893 52.1299C64.6793 50.6499 66.9093 49.2699 68.5493 48.2499L70.4893 47.0499C70.7216 46.8749 70.9732 46.7273 71.2393 46.6099Z" fill="#455A64"/>
<path d="M68.2391 39.8599C68.0115 40.0632 67.7673 40.2472 67.5091 40.4099C67.0291 40.7499 66.3291 41.2299 65.4491 41.8199C63.6991 42.9799 61.2591 44.5599 58.5291 46.2499C55.7991 47.9399 53.3091 49.4199 51.5291 50.4599C50.6191 50.9799 49.8791 51.3999 49.3591 51.6799C49.0967 51.8346 48.8225 51.9684 48.5391 52.0799C48.7721 51.8832 49.0232 51.7091 49.2891 51.5599L51.4091 50.2499L58.4091 45.9599L65.4091 41.6199L67.5291 40.2999C67.7513 40.1311 67.989 39.9837 68.2391 39.8599Z" fill="#455A64"/>
<path d="M331.36 239.21C331.31 239.26 330.57 238.52 329.13 237.29C328.41 236.68 327.52 235.94 326.44 235.15C325.222 234.255 323.938 233.453 322.6 232.75C321.828 232.353 321.025 232.019 320.2 231.75C319.335 231.434 318.421 231.271 317.5 231.27C317.045 231.269 316.596 231.376 316.19 231.58C315.792 231.787 315.475 232.121 315.29 232.53C315.096 232.977 315.004 233.462 315.02 233.95C315.029 234.476 315.096 234.999 315.22 235.51C315.488 236.593 315.877 237.643 316.38 238.64C316.907 239.698 317.498 240.724 318.15 241.71C320.951 245.847 324.458 249.458 328.51 252.38C329.468 253.066 330.47 253.687 331.51 254.24C332.492 254.777 333.532 255.2 334.61 255.5C335.116 255.641 335.636 255.724 336.16 255.75C336.644 255.778 337.129 255.699 337.58 255.52C338.002 255.352 338.355 255.045 338.58 254.65C338.794 254.249 338.913 253.804 338.93 253.35C338.959 252.427 338.824 251.506 338.53 250.63C338.258 249.796 337.923 248.984 337.53 248.2C336.863 246.843 336.097 245.536 335.24 244.29C334.48 243.19 333.78 242.29 333.18 241.54C332 240.07 331.28 239.3 331.33 239.25C331.38 239.2 331.55 239.4 331.92 239.75C332.29 240.1 332.8 240.62 333.43 241.33C334.205 242.189 334.936 243.087 335.62 244.02C336.536 245.26 337.352 246.57 338.06 247.94C338.467 248.748 338.818 249.583 339.11 250.44C339.446 251.403 339.605 252.42 339.58 253.44C339.569 254.002 339.425 254.554 339.16 255.05C338.872 255.581 338.415 256 337.86 256.24C337.31 256.47 336.716 256.576 336.12 256.55C335.536 256.532 334.955 256.448 334.39 256.3C333.255 255.99 332.158 255.554 331.12 255C330.036 254.405 328.993 253.737 328 253C323.846 250.036 320.264 246.343 317.43 242.1C316.756 241.088 316.151 240.033 315.62 238.94C315.101 237.884 314.702 236.774 314.43 235.63C314.294 235.063 314.227 234.482 314.23 233.9C314.214 233.303 314.337 232.711 314.59 232.17C314.846 231.621 315.279 231.174 315.82 230.9C316.324 230.654 316.879 230.527 317.44 230.53C318.445 230.54 319.441 230.73 320.38 231.09C321.227 231.404 322.049 231.782 322.84 232.22C324.186 232.966 325.47 233.818 326.68 234.77C327.75 235.61 328.62 236.38 329.31 237.04C330 237.7 330.51 238.23 330.84 238.6C331.17 238.97 331.38 239.19 331.36 239.21Z" fill="#455A64"/>
<path d="M321.77 241.61C321.83 241.61 321.54 242.61 321.16 244.39C320.97 245.29 320.76 246.39 320.59 247.67C320.396 249.118 320.316 250.579 320.35 252.04C320.369 252.882 320.456 253.722 320.61 254.55C320.755 255.43 321.057 256.276 321.5 257.05C321.726 257.429 322.034 257.753 322.4 258C322.765 258.237 323.195 258.356 323.63 258.34C324.106 258.327 324.573 258.211 325 258C325.453 257.768 325.876 257.483 326.26 257.15C327.078 256.442 327.812 255.643 328.45 254.77C329.124 253.849 329.736 252.883 330.28 251.88C332.552 247.616 334.026 242.973 334.63 238.18C334.76 237.048 334.817 235.909 334.8 234.77C334.784 233.688 334.646 232.611 334.39 231.56C334.26 231.069 334.079 230.593 333.85 230.14C333.638 229.72 333.338 229.352 332.97 229.06C332.626 228.791 332.206 228.637 331.77 228.62C331.329 228.611 330.892 228.7 330.49 228.88C329.683 229.255 328.948 229.77 328.32 230.4C327.718 230.992 327.163 231.631 326.66 232.31C325.776 233.475 324.987 234.709 324.3 236C323.7 237.14 323.24 238.16 322.88 239C322.16 240.69 321.83 241.65 321.77 241.63C321.779 241.38 321.829 241.133 321.92 240.9C322.05 240.43 322.26 239.75 322.57 238.9C322.88 238.05 323.31 236.99 323.88 235.81C324.527 234.465 325.287 233.177 326.15 231.96C326.653 231.244 327.219 230.575 327.84 229.96C328.512 229.251 329.309 228.672 330.19 228.25C330.683 228.027 331.219 227.914 331.76 227.92C332.345 227.935 332.911 228.13 333.38 228.48C333.836 228.833 334.211 229.28 334.48 229.79C334.747 230.291 334.955 230.821 335.1 231.37C335.384 232.475 335.539 233.609 335.56 234.75C335.594 235.929 335.544 237.108 335.41 238.28C334.827 243.186 333.317 247.937 330.96 252.28C330.395 253.324 329.757 254.326 329.05 255.28C328.374 256.198 327.592 257.034 326.72 257.77C326.287 258.133 325.814 258.445 325.31 258.7C324.796 258.967 324.229 259.117 323.65 259.14C323.068 259.154 322.496 258.99 322.01 258.67C321.564 258.359 321.189 257.957 320.91 257.49C320.436 256.637 320.121 255.705 319.98 254.74C319.831 253.878 319.757 253.005 319.76 252.13C319.753 250.635 319.877 249.143 320.13 247.67C320.31 246.565 320.547 245.47 320.84 244.39C321.08 243.5 321.31 242.82 321.47 242.39C321.521 242.114 321.623 241.849 321.77 241.61Z" fill="#455A64"/>
<path d="M325.049 237C325.049 237.07 324.049 237.33 322.359 237.95C321.499 238.26 320.459 238.66 319.269 239.19C317.936 239.788 316.652 240.49 315.429 241.29C314.719 241.745 314.05 242.26 313.429 242.83C312.756 243.412 312.197 244.114 311.779 244.9C311.574 245.29 311.458 245.72 311.439 246.16C311.43 246.598 311.559 247.029 311.809 247.39C312.068 247.774 312.409 248.095 312.809 248.33C313.244 248.59 313.707 248.801 314.189 248.96C315.224 249.276 316.29 249.478 317.369 249.56C318.508 249.635 319.65 249.635 320.789 249.56C323.196 249.418 325.583 249.046 327.919 248.45C330.259 247.866 332.54 247.062 334.729 246.05C335.763 245.564 336.765 245.013 337.729 244.4C338.641 243.834 339.483 243.162 340.239 242.4C340.594 242.036 340.904 241.63 341.159 241.19C341.407 240.792 341.564 240.345 341.619 239.88C341.664 239.447 341.577 239.011 341.369 238.63C341.144 238.236 340.837 237.895 340.469 237.63C339.722 237.153 338.895 236.815 338.029 236.63C337.211 236.428 336.378 236.291 335.539 236.22C334.081 236.105 332.617 236.105 331.159 236.22C329.869 236.32 328.759 236.46 327.849 236.59C326.049 236.87 325.059 237.1 325.039 237.03C325.258 236.911 325.494 236.827 325.739 236.78C326.199 236.64 326.889 236.46 327.799 236.27C328.709 236.08 329.799 235.9 331.119 235.76C332.603 235.602 334.099 235.569 335.589 235.66C336.461 235.712 337.328 235.839 338.179 236.04C339.137 236.233 340.05 236.607 340.869 237.14C341.321 237.439 341.7 237.835 341.979 238.3C342.275 238.803 342.405 239.388 342.349 239.97C342.298 240.546 342.116 241.103 341.819 241.6C341.538 242.086 341.202 242.539 340.819 242.95C340.027 243.777 339.141 244.509 338.179 245.13C337.192 245.775 336.163 246.353 335.099 246.86C332.851 247.907 330.506 248.734 328.099 249.33C325.711 249.939 323.269 250.311 320.809 250.44C319.632 250.505 318.453 250.485 317.279 250.38C316.14 250.29 315.015 250.065 313.929 249.71C313.389 249.535 312.872 249.297 312.389 249C311.897 248.698 311.475 248.296 311.149 247.82C310.831 247.333 310.671 246.761 310.689 246.18C310.714 245.634 310.861 245.101 311.119 244.62C311.591 243.767 312.214 243.008 312.959 242.38C313.619 241.804 314.325 241.282 315.069 240.82C316.344 240.043 317.682 239.374 319.069 238.82C320.106 238.393 321.164 238.019 322.239 237.7C323.119 237.44 323.819 237.27 324.289 237.17C324.531 237.072 324.788 237.015 325.049 237Z" fill="#455A64"/>
<path d="M330.091 242.77C330.219 243.284 330.192 243.825 330.013 244.324C329.835 244.823 329.512 245.258 329.086 245.573C328.66 245.889 328.15 246.071 327.621 246.097C327.091 246.122 326.566 245.991 326.112 245.718C325.657 245.445 325.294 245.044 325.067 244.565C324.841 244.085 324.762 243.55 324.84 243.025C324.918 242.501 325.149 242.012 325.506 241.619C325.862 241.227 326.326 240.948 326.841 240.82C327.53 240.65 328.258 240.76 328.867 241.125C329.476 241.491 329.916 242.082 330.091 242.77Z" fill="#455A64"/>
<path d="M384.72 196.86L384.42 196.72L383.55 196.28L380.2 194.54L367.89 188.07H368L330.08 202.56L329.74 202.69L329.84 202.34L331 198.15C333.65 188.59 336.16 179.54 338.36 171.58V171.52L359.36 155.78L365.36 151.34L366.95 150.17L367.36 149.88C367.447 149.807 367.497 149.777 367.51 149.79L367.38 149.9L366.98 150.22L365.42 151.42L359.5 155.93L338.56 171.78L338.62 171.69C336.42 179.69 333.93 188.69 331.29 198.28C330.89 199.71 330.5 201.14 330.13 202.47L329.89 202.25L367.89 187.86H367.95L380.2 194.43L383.51 196.22L384.37 196.7L384.72 196.86Z" fill="#FED161"/>
<path d="M334.95 202.1L332.68 202.77L331.95 205.02L330.61 203.07H328.24L329.68 201.19L328.95 198.94L331.18 199.73L333.09 198.34L333.03 200.71L334.95 202.1Z" fill="#704FE6"/>
<path d="M341.499 170.85L340.069 171.37L339.679 172.85L338.739 171.65L337.209 171.74L338.069 170.47L337.509 169.05L338.979 169.47L340.159 168.5L340.209 170.03L341.499 170.85Z" fill="#704FE6"/>
<path d="M370.209 148.82L369.169 150.39L369.859 152.13L368.049 151.62L366.609 152.82L366.529 150.94L364.949 149.94L366.709 149.29L367.169 147.47L368.339 148.94L370.209 148.82Z" fill="#704FE6"/>
<path d="M387.02 194.88L385.97 196.45L386.67 198.19L384.86 197.68L383.41 198.88L383.34 197L381.75 196L383.51 195.35L383.98 193.53L385.14 195L387.02 194.88Z" fill="#704FE6"/>
<path d="M369.38 187.17L368.71 188.17L369.16 189.28L368 188.95L367.08 189.72L367.04 188.52L366.02 187.88L367.15 187.46L367.44 186.3L368.19 187.25L369.38 187.17Z" fill="#704FE6"/>
<path d="M271.47 28.2279C273.178 17.7626 266.079 7.89398 255.614 6.18583C245.148 4.47768 235.28 11.5768 233.571 22.0422C231.863 32.5076 238.962 42.3762 249.428 44.0843C259.893 45.7925 269.762 38.6933 271.47 28.2279Z" fill="#704FE6"/>
<g opacity="0.3">
<path d="M250 31.14C250 31.7591 249.817 32.3642 249.473 32.8789C249.129 33.3937 248.64 33.7949 248.068 34.0318C247.496 34.2687 246.867 34.3306 246.26 34.2099C245.652 34.0891 245.095 33.791 244.657 33.3532C244.219 32.9155 243.921 32.3578 243.8 31.7506C243.68 31.1435 243.742 30.5141 243.979 29.9422C244.215 29.3703 244.617 28.8814 245.131 28.5375C245.646 28.1936 246.251 28.01 246.87 28.01C247.7 28.01 248.496 28.3398 249.083 28.9268C249.67 29.5138 250 30.3099 250 31.14Z" fill="white"/>
</g>
<g opacity="0.3">
<path d="M245.599 22.0998C245.599 22.4597 245.492 22.8116 245.292 23.1109C245.092 23.4102 244.808 23.6435 244.475 23.7812C244.143 23.919 243.777 23.955 243.424 23.8848C243.071 23.8146 242.747 23.6413 242.492 23.3867C242.238 23.1322 242.064 22.8079 241.994 22.4548C241.924 22.1018 241.96 21.7359 242.098 21.4033C242.235 21.0707 242.469 20.7865 242.768 20.5865C243.067 20.3865 243.419 20.2798 243.779 20.2798C244.262 20.2798 244.725 20.4715 245.066 20.8129C245.407 21.1542 245.599 21.6171 245.599 22.0998Z" fill="white"/>
</g>
<path d="M233.909 29.8199C233.999 30.1499 217.479 45.9999 221.739 49.3799C225.999 52.7599 243.909 44.0899 259.179 31.7599C274.449 19.4299 288.389 4.4499 284.569 0.489898C280.749 -3.4701 261.679 8.2599 261.679 8.2599L263.999 9.7099C263.999 9.7099 275.529 2.3099 279.179 5.1799C282.829 8.0499 272.429 19.2799 257.749 29.9999C243.069 40.7199 228.879 48.2399 226.679 45.2999C224.479 42.3599 234.869 32.5699 234.869 32.5699L233.909 29.8199Z" fill="#704FE6"/>
<g opacity="0.3">
<path d="M233.909 29.8199C233.999 30.1499 217.479 45.9999 221.739 49.3799C225.999 52.7599 243.909 44.0899 259.179 31.7599C274.449 19.4299 288.389 4.4499 284.569 0.489898C280.749 -3.4701 261.679 8.2599 261.679 8.2599L263.999 9.7099C263.999 9.7099 275.529 2.3099 279.179 5.1799C282.829 8.0499 272.429 19.2799 257.749 29.9999C243.069 40.7199 228.879 48.2399 226.679 45.2999C224.479 42.3599 234.869 32.5699 234.869 32.5699L233.909 29.8199Z" fill="black"/>
</g>
<g opacity="0.3">
<path d="M242 11.62C242.15 11.81 240.85 12.91 239.38 15.13C237.427 17.9756 236.349 21.3307 236.279 24.7817C236.21 28.2326 237.153 31.6283 238.99 34.55C240.38 36.82 241.63 37.98 241.47 38.16C241.31 38.34 239.83 37.4 238.12 35.16C237.13 33.8274 236.345 32.3545 235.79 30.79C234.372 26.8999 234.457 22.6203 236.03 18.79C236.645 17.2497 237.488 15.8104 238.53 14.52C240.29 12.32 241.87 11.49 242 11.62Z" fill="white"/>
</g>
<path d="M281.579 42.0699C281.631 39.8651 282.336 37.7253 283.604 35.921C284.873 34.1168 286.648 32.7291 288.704 31.9337C290.761 31.1382 293.008 30.9706 295.16 31.452C297.313 31.9335 299.274 33.0424 300.796 34.6385C302.318 36.2346 303.332 38.2462 303.711 40.4189C304.089 42.5916 303.815 44.8277 302.923 46.8445C302.03 48.8614 300.56 50.5683 298.698 51.7494C296.835 52.9305 294.664 53.5327 292.459 53.4799C289.504 53.4092 286.697 52.1674 284.657 50.0277C282.616 47.888 281.509 45.0256 281.579 42.0699Z" fill="#FED161"/>
<g opacity="0.4">
<path d="M296.36 38.0698C296.368 37.7096 296.483 37.3599 296.69 37.0649C296.897 36.77 297.187 36.5431 297.523 36.4131C297.859 36.2831 298.226 36.2558 298.578 36.3346C298.929 36.4134 299.25 36.5948 299.498 36.8559C299.746 37.1169 299.912 37.4458 299.973 37.8009C300.034 38.156 299.989 38.5213 299.842 38.8505C299.696 39.1797 299.455 39.458 299.15 39.6502C298.845 39.8423 298.49 39.9397 298.13 39.9299C297.892 39.9247 297.656 39.8724 297.438 39.7759C297.22 39.6795 297.023 39.5409 296.858 39.368C296.694 39.1952 296.565 38.9915 296.48 38.7687C296.394 38.5459 296.353 38.3084 296.36 38.0698Z" fill="black"/>
</g>
<g opacity="0.4">
<path d="M300 42.3098C300.007 42.0991 300.076 41.895 300.198 41.7237C300.321 41.5524 300.492 41.4216 300.69 41.348C300.888 41.2745 301.103 41.2616 301.308 41.3109C301.513 41.3602 301.698 41.4695 301.841 41.6249C301.983 41.7803 302.076 41.9746 302.108 42.1831C302.139 42.3915 302.108 42.6047 302.018 42.7952C301.928 42.9857 301.782 43.1451 301.601 43.2528C301.42 43.3605 301.211 43.4117 301 43.3998C300.725 43.3819 300.468 43.2585 300.282 43.0555C300.095 42.8524 299.994 42.5853 300 42.3098Z" fill="black"/>
</g>
<g opacity="0.4">
<path d="M298.57 45.5598C298.675 45.5624 298.774 45.6057 298.847 45.6805C298.919 45.7552 298.96 45.8554 298.96 45.9598C298.959 46.011 298.948 46.0615 298.927 46.1083C298.906 46.1551 298.876 46.1974 298.839 46.2327C298.802 46.268 298.758 46.2956 298.71 46.314C298.662 46.3324 298.611 46.3411 298.56 46.3398C298.509 46.3399 298.457 46.3294 298.41 46.3091C298.363 46.2888 298.32 46.259 298.284 46.2215C298.249 46.1841 298.221 46.1398 298.203 46.0914C298.185 46.0429 298.177 45.9914 298.18 45.9398C298.183 45.8381 298.225 45.7415 298.298 45.6705C298.371 45.5995 298.469 45.5598 298.57 45.5598Z" fill="black"/>
</g>
<path d="M327.619 125.25C327.519 125.25 327.449 111.13 327.449 93.7199C327.449 76.3099 327.519 62.1899 327.619 62.1899C327.719 62.1899 327.789 76.2999 327.789 93.7199C327.789 111.14 327.709 125.25 327.619 125.25Z" fill="#263238"/>
<path d="M329.5 62.7299C328.696 61.5652 327.981 60.3417 327.36 59.0699H327.66V59.1499C327.144 60.5016 326.533 61.8149 325.83 63.0799C326.224 61.6871 326.733 60.3292 327.35 59.0199V58.9399L327.49 58.6199L327.65 58.9199C328.368 60.1383 328.986 61.4124 329.5 62.7299Z" fill="#263238"/>
<path d="M327.269 54.7399C327.209 54.8099 326.689 54.4699 326.269 53.8399C325.849 53.2099 325.749 52.5999 325.839 52.5799C325.929 52.5599 326.169 53.0799 326.549 53.6599C326.929 54.2399 327.329 54.6699 327.269 54.7399Z" fill="#263238"/>
<path d="M326.279 56.5599C326.469 55.7846 326.737 55.0307 327.079 54.3099C327.307 53.546 327.616 52.8085 327.999 52.1099C327.938 52.9137 327.731 53.6998 327.389 54.4299C327.153 55.202 326.777 55.9241 326.279 56.5599Z" fill="#263238"/>
<path d="M323.1 70.4898C323.328 69.854 323.521 69.2064 323.68 68.5498C323.714 67.8836 323.714 67.216 323.68 66.5498C324.035 67.1819 324.138 67.9247 323.97 68.6298C323.921 69.3364 323.611 69.9994 323.1 70.4898Z" fill="#263238"/>
<path d="M323.719 67.8598C323.719 67.8598 323.639 68.1298 323.239 68.2298C323.002 68.2802 322.755 68.2372 322.549 68.1098C322.427 68.0223 322.327 67.9084 322.255 67.7767C322.183 67.645 322.142 67.4989 322.134 67.349C322.126 67.1992 322.153 67.0496 322.211 66.9112C322.269 66.7729 322.357 66.6494 322.469 66.5498C322.667 66.4094 322.908 66.3455 323.149 66.3698C323.559 66.3698 323.699 66.6698 323.659 66.6898C323.619 66.7098 323.449 66.5898 323.139 66.6098C323.046 66.6082 322.953 66.626 322.868 66.6621C322.782 66.6982 322.704 66.7519 322.64 66.8197C322.576 66.8874 322.527 66.9678 322.496 67.0556C322.465 67.1435 322.452 67.2369 322.459 67.3298C322.463 67.4232 322.485 67.5148 322.526 67.5991C322.566 67.6834 322.623 67.7587 322.693 67.8205C322.763 67.8822 322.845 67.929 322.934 67.9581C323.022 67.9872 323.116 67.998 323.209 67.9898C323.519 67.9998 323.679 67.8198 323.719 67.8598Z" fill="#263238"/>
<path d="M376.709 120.77C376.709 120.86 364.629 120.94 349.709 120.94C334.789 120.94 322.709 120.86 322.709 120.77C322.709 120.68 334.779 120.6 349.709 120.6C364.639 120.6 376.709 120.68 376.709 120.77Z" fill="#263238"/>
<path d="M377.26 120.7C376.477 120.578 375.716 120.342 375 120C374.257 119.766 373.55 119.43 372.9 119C373.671 119.125 374.42 119.365 375.12 119.71C375.878 119.934 376.599 120.268 377.26 120.7Z" fill="#263238"/>
<path d="M377.85 120.9C376.711 121.547 375.464 121.984 374.17 122.19C374.72 121.83 375.325 121.56 375.96 121.39C376.557 121.118 377.196 120.952 377.85 120.9Z" fill="#263238"/>
<path d="M325.08 122.48C325.267 122.609 325.425 122.775 325.546 122.967C325.666 123.16 325.746 123.375 325.78 123.6C325.9 124.089 325.861 124.604 325.67 125.07C325.559 125.358 325.373 125.61 325.13 125.8C324.981 125.896 324.807 125.948 324.63 125.948C324.452 125.948 324.279 125.896 324.13 125.8C323.875 125.612 323.671 125.363 323.535 125.077C323.399 124.791 323.335 124.476 323.35 124.16C323.342 123.904 323.393 123.65 323.496 123.417C323.6 123.183 323.755 122.976 323.95 122.81C324.079 122.698 324.23 122.612 324.393 122.559C324.557 122.506 324.729 122.486 324.9 122.5C325.14 122.5 325.25 122.61 325.24 122.62C325.23 122.63 325.11 122.62 324.9 122.62C324.603 122.647 324.324 122.774 324.11 122.98C323.955 123.129 323.835 123.311 323.758 123.511C323.68 123.711 323.647 123.926 323.66 124.14C323.653 124.401 323.708 124.659 323.819 124.896C323.93 125.132 324.095 125.339 324.3 125.5C324.398 125.563 324.513 125.597 324.63 125.597C324.747 125.597 324.861 125.563 324.96 125.5C325.158 125.349 325.313 125.149 325.41 124.92C325.585 124.511 325.641 124.06 325.57 123.62C325.465 123.217 325.3 122.833 325.08 122.48Z" fill="#263238"/>
<path d="M369 123.19C369 123.19 369.19 123.08 369.45 123.3C369.527 123.366 369.587 123.45 369.627 123.543C369.667 123.637 369.685 123.738 369.68 123.84C369.654 124.099 369.542 124.343 369.36 124.53C368.98 124.95 368.28 125.11 367.96 125.62C367.886 125.753 367.848 125.903 367.848 126.055C367.848 126.207 367.886 126.357 367.96 126.49C368.043 126.629 368.164 126.742 368.31 126.815C368.455 126.888 368.618 126.917 368.78 126.9C368.943 126.886 369.098 126.823 369.225 126.72C369.351 126.616 369.444 126.477 369.49 126.32C369.538 126.174 369.548 126.018 369.518 125.867C369.488 125.717 369.42 125.576 369.32 125.46C369.118 125.226 368.873 125.033 368.6 124.89C368.451 124.834 368.316 124.746 368.205 124.632C368.094 124.518 368.011 124.38 367.96 124.23C367.93 124.1 367.93 123.965 367.96 123.835C367.989 123.706 368.047 123.584 368.13 123.48C368.248 123.33 368.403 123.213 368.58 123.14C368.87 123.04 369.04 123.06 369.05 123.08C369.06 123.1 368.89 123.08 368.64 123.26C368.494 123.338 368.371 123.452 368.28 123.59C368.222 123.674 368.184 123.769 368.169 123.87C368.153 123.97 368.16 124.073 368.19 124.17C368.29 124.6 369.09 124.66 369.56 125.27C369.695 125.427 369.788 125.616 369.83 125.819C369.872 126.022 369.862 126.232 369.8 126.43C369.731 126.647 369.599 126.839 369.421 126.982C369.243 127.124 369.027 127.211 368.8 127.23C368.575 127.254 368.348 127.213 368.146 127.112C367.944 127.011 367.775 126.854 367.66 126.66C367.556 126.477 367.502 126.27 367.502 126.06C367.502 125.85 367.556 125.643 367.66 125.46C367.864 125.173 368.14 124.946 368.46 124.8C368.706 124.68 368.937 124.532 369.15 124.36C369.308 124.219 369.414 124.029 369.45 123.82C369.458 123.743 369.45 123.666 369.428 123.592C369.406 123.518 369.369 123.449 369.32 123.39C369.2 123.19 369 123.22 369 123.19Z" fill="#263238"/>
<path d="M368.86 121.93C368.63 120.943 368.63 119.917 368.86 118.93C369.09 119.917 369.09 120.943 368.86 121.93Z" fill="#263238"/>
<path d="M383.29 120.83C382.996 120.935 382.683 120.983 382.37 120.97L381.37 121.03C381.296 121.055 381.215 121.055 381.14 121.03C381.092 120.998 381.054 120.953 381.033 120.899C381.011 120.845 381.007 120.786 381.02 120.73C381.055 120.604 381.128 120.492 381.23 120.41L381.67 119.95C381.97 119.717 382.168 119.376 382.22 119C382.229 118.865 382.193 118.73 382.117 118.618C382.041 118.506 381.929 118.422 381.8 118.38C381.597 118.355 381.391 118.394 381.21 118.49C381.06 118.55 380.98 118.59 380.96 118.57C380.94 118.55 381.01 118.48 381.14 118.38C381.334 118.213 381.585 118.127 381.84 118.14C382.04 118.18 382.218 118.289 382.345 118.449C382.471 118.608 382.537 118.807 382.53 119.01C382.493 119.464 382.277 119.885 381.93 120.18L381.47 120.63C381.39 120.7 381.33 120.77 381.33 120.8H381.39H382.39C382.69 120.759 382.994 120.77 383.29 120.83Z" fill="#263238"/>
<path d="M334.799 120.77C334.799 120.77 334.799 120.43 334.799 119.84C334.799 119.25 334.799 118.38 334.749 117.37C334.749 115.27 334.689 112.37 334.679 109.05L334.839 109.22H331.709L331.879 109.05V112.52C331.879 113.63 331.879 114.69 331.879 115.69C331.879 117.69 331.879 119.39 331.829 120.76L331.729 120.66L334.009 120.71C334.549 120.71 334.849 120.71 334.859 120.76C334.596 120.777 334.332 120.777 334.069 120.76L331.729 120.81H331.629V120.71C331.629 119.34 331.629 117.62 331.629 115.64C331.629 114.64 331.629 113.58 331.629 112.47V109L331.799 108.83H334.999V108.99C334.999 112.38 334.999 115.33 334.919 117.42C334.919 118.42 334.919 119.24 334.919 119.86C334.905 120.166 334.865 120.47 334.799 120.77Z" fill="#263238"/>
<path d="M364.65 120.77C364.638 120.65 364.638 120.53 364.65 120.41C364.65 120.15 364.65 119.83 364.65 119.41C364.65 118.51 364.65 117.29 364.6 115.78C364.6 112.72 364.54 108.48 364.53 103.67L364.7 103.83H361.56L361.73 103.67V106.31C361.73 107.18 361.73 108.03 361.73 108.86C361.73 110.53 361.73 112.1 361.73 113.57C361.73 116.47 361.68 118.93 361.67 120.73L361.58 120.64H363.87H364.49H364.72C364.457 120.658 364.193 120.658 363.93 120.64L361.58 120.69H361.49V120.6C361.49 118.8 361.49 116.34 361.43 113.44C361.43 111.97 361.43 110.44 361.43 108.73C361.43 107.9 361.43 107.05 361.43 106.18V103.54L361.6 103.37H364.9V103.54C364.9 108.42 364.9 112.72 364.83 115.77C364.83 117.26 364.83 118.47 364.78 119.36C364.78 119.74 364.78 120.06 364.78 120.36C364.78 120.66 364.65 120.78 364.65 120.77Z" fill="#263238"/>
<path d="M342.35 120.77C342.338 120.623 342.338 120.476 342.35 120.33C342.35 120.01 342.35 119.6 342.35 119.09C342.35 118 342.349 116.47 342.299 114.57C342.299 110.74 342.3 105.45 342.23 99.4799L342.399 99.6499H339.26C339.6 99.3099 339.349 99.5599 339.429 99.4899V102.87C339.429 103.98 339.429 105.06 339.429 106.12C339.429 108.23 339.429 110.22 339.429 112.05C339.429 115.69 339.379 118.69 339.359 120.77L339.279 120.69H341.589H342.2H342.42H342.23H341.63H339.279H339.2V120.61C339.2 118.53 339.2 115.53 339.14 111.89C339.14 110.06 339.14 108.07 339.14 105.96C339.14 104.9 339.14 103.82 339.14 102.71V99.3299C339.22 99.2499 338.969 99.4899 339.309 99.1499H342.609V99.3099C342.609 105.31 342.56 110.66 342.54 114.52C342.54 116.4 342.539 117.92 342.489 119C342.489 119.5 342.489 119.9 342.489 120.2C342.489 120.5 342.35 120.78 342.35 120.77Z" fill="#263238"/>
<path d="M349.73 120.7C349.726 120.643 349.726 120.587 349.73 120.53V120C349.73 119.54 349.73 118.9 349.73 118.09C349.73 116.42 349.73 114.03 349.68 111.09C349.68 105.15 349.63 96.9399 349.6 87.7199L349.77 87.8899H346.6L346.76 87.7299V98.2999C346.76 101.64 346.76 104.78 346.76 107.64C346.76 113.32 346.7 117.87 346.68 120.64L346.62 120.58H348.93H349.75C349.75 120.58 349.69 120.58 349.56 120.58H349H346.65H346.58V120.51C346.58 117.69 346.58 113.14 346.51 107.51C346.51 104.65 346.51 101.51 346.51 98.1699C346.51 96.4899 346.51 94.7699 346.51 92.9999V87.5999C346.58 87.5199 346.34 87.7599 346.68 87.4199H349.98V87.5899C349.98 96.8499 349.98 105.11 349.91 111.08C349.91 114.02 349.91 116.4 349.86 118.08C349.86 118.88 349.86 119.51 349.86 119.96V120.44C349.74 120.66 349.74 120.71 349.73 120.7Z" fill="#263238"/>
<path d="M357.299 120.7C357.299 120.7 357.299 120.6 357.299 120.41C357.299 120.22 357.299 119.92 357.299 119.56C357.299 118.81 357.299 117.72 357.299 116.33C357.299 113.52 357.299 109.46 357.249 104.45C357.249 94.4498 357.249 80.5198 357.179 65.0198L357.349 65.1898H354.209C354.539 64.8598 354.309 65.1098 354.379 65.0398V74.6098C354.379 77.7298 354.379 80.7698 354.379 83.6998C354.379 89.5698 354.379 95.0098 354.379 99.8798C354.379 109.58 354.309 116.95 354.289 120.7H356.639H357.429C357.429 120.7 357.369 120.7 357.239 120.7H356.669H354.289H354.239V120.64C354.239 116.89 354.189 109.52 354.159 99.8198C354.159 94.9498 354.159 89.5098 354.159 83.6398C354.159 80.7098 354.159 77.6398 354.159 74.5498V64.9998C354.239 64.9198 353.989 65.1498 354.329 64.8098H357.629V64.9998C357.629 80.5498 357.629 94.4798 357.559 104.55C357.559 109.55 357.559 113.55 357.509 116.39C357.509 117.77 357.509 118.84 357.509 119.59C357.509 119.94 357.509 120.21 357.509 120.41C357.509 120.61 357.299 120.71 357.299 120.7Z" fill="#263238"/>
<path d="M21.5996 124L24.2696 170.83L102.62 166.36L21.5996 124ZM34.6896 142.17L68.3896 160.17L35.8196 162L34.6896 142.17Z" fill="#FED161"/>
<path d="M29.3801 128.09C29.1304 129.122 28.7114 130.105 28.1402 131C27.7185 131.981 27.1336 132.884 26.4102 133.67C26.655 132.627 27.0742 131.633 27.6502 130.73C28.0772 129.76 28.6618 128.868 29.3801 128.09Z" fill="#263238"/>
<path d="M41.3992 134.3C41.149 135.319 40.7299 136.289 40.1592 137.17C39.7453 138.127 39.1665 139.003 38.4492 139.76C38.6912 138.74 39.1073 137.769 39.6792 136.89C40.0912 135.93 40.674 135.052 41.3992 134.3Z" fill="#263238"/>
<path d="M53.4087 140.51C53.06 141.493 52.546 142.41 51.8887 143.22C51.3752 144.136 50.6972 144.95 49.8887 145.62C50.2359 144.633 50.7501 143.713 51.4087 142.9C51.9275 141.99 52.6048 141.181 53.4087 140.51Z" fill="#263238"/>
<path d="M65.229 147C64.8918 147.991 64.3767 148.913 63.709 149.72C63.1837 150.628 62.5073 151.44 61.709 152.12C62.0462 151.129 62.5613 150.207 63.229 149.4C63.7543 148.492 64.4307 147.68 65.229 147Z" fill="#263238"/>
<path d="M77.5696 153.33C77.277 154.365 76.8103 155.342 76.1896 156.22C75.7258 157.183 75.1039 158.062 74.3496 158.82C75.0921 156.815 76.1821 154.956 77.5696 153.33Z" fill="#263238"/>
<path d="M90.379 160C90.1427 160.98 89.7293 161.909 89.159 162.74C88.7428 163.657 88.1672 164.494 87.459 165.21C87.7005 164.227 88.1172 163.295 88.689 162.46C89.0949 161.542 89.668 160.708 90.379 160Z" fill="#263238"/>
<path d="M33.129 130.05C33.259 130.13 33.039 130.81 32.629 131.59C32.219 132.37 31.779 132.92 31.629 132.85C31.479 132.78 31.719 132.09 32.129 131.32C32.539 130.55 32.999 130 33.129 130.05Z" fill="#263238"/>
<path d="M37.0596 132C37.1996 132.07 36.9696 132.76 36.5596 133.53C36.1496 134.3 35.7196 134.87 35.5596 134.8C35.3996 134.73 35.6596 134.04 36.0596 133.26C36.4596 132.48 36.9296 131.94 37.0596 132Z" fill="#263238"/>
<path d="M45.8301 136.65C45.9601 136.73 45.7401 137.41 45.3301 138.19C44.9201 138.97 44.4801 139.53 44.3301 139.45C44.1801 139.37 44.4201 138.69 44.8301 137.92C45.2401 137.15 45.7001 136.58 45.8301 136.65Z" fill="#263238"/>
<path d="M49.7696 138.62C49.8996 138.69 49.6796 139.38 49.2696 140.15C48.8596 140.92 48.4196 141.49 48.2696 141.42C48.1196 141.35 48.3596 140.66 48.7696 139.88C49.1796 139.1 49.6296 138.55 49.7696 138.62Z" fill="#263238"/>
<path d="M57.6993 143.06C57.8393 143.13 57.6093 143.82 57.1993 144.59C56.7893 145.36 56.3593 145.93 56.1993 145.86C56.0393 145.79 56.2893 145.1 56.6993 144.32C57.1093 143.54 57.5693 143 57.6993 143.06Z" fill="#263238"/>
<path d="M61.459 145C61.599 145.07 61.369 145.76 60.959 146.53C60.549 147.3 60.119 147.87 59.959 147.8C59.799 147.73 60.049 147.03 60.459 146.26C60.869 145.49 61.329 145 61.459 145Z" fill="#263238"/>
<path d="M69.5704 149.24C69.7004 149.32 69.4804 150 69.0704 150.78C68.6604 151.56 68.2304 152.11 68.0704 152.04C67.9104 151.97 68.1604 151.28 68.5704 150.51C68.9804 149.74 69.4404 149.17 69.5704 149.24Z" fill="#263238"/>
<path d="M73.9297 151.55C74.0597 151.63 73.8397 152.31 73.4297 153.09C73.0197 153.87 72.5797 154.43 72.4297 154.35C72.2797 154.27 72.5197 153.59 72.9297 152.82C73.3397 152.05 73.7997 151.48 73.9297 151.55Z" fill="#263238"/>
<path d="M81.7696 155.68C81.8996 155.75 81.6796 156.44 81.2696 157.21C80.8596 157.98 80.4196 158.55 80.2696 158.48C80.1196 158.41 80.3596 157.72 80.7696 156.94C81.1796 156.16 81.6296 155.61 81.7696 155.68Z" fill="#263238"/>
<path d="M86.2891 158C86.4191 158.08 86.1991 158.77 85.7891 159.54C85.3791 160.31 84.9391 160.88 84.7891 160.8C84.6391 160.72 84.8791 160.04 85.2891 159.27C85.6991 158.5 86.1591 157.93 86.2891 158Z" fill="#263238"/>
<path d="M155.6 58.8398C155.6 58.8398 155.6 58.7798 155.6 58.6698C155.6 58.5598 155.6 58.3798 155.6 58.1698C155.6 57.7298 155.6 57.0898 155.6 56.2598C155.6 54.5798 155.6 52.1398 155.6 49.0398C155.6 42.8398 155.55 34.0398 155.52 23.3998L155.67 23.5398H120.23L120.39 23.3698C120.39 36.3698 120.39 48.5098 120.39 58.8098L120.25 58.6598L145.89 58.7398H153.11H153.17H145.99L120.25 58.8098H120V58.6598C120 48.3598 120 36.1998 120 23.2198V23.0498H120.17H155.61H155.75V23.1998C155.75 33.8398 155.7 42.7098 155.68 48.9398C155.68 52.0198 155.68 54.4498 155.68 56.1198C155.68 56.9398 155.68 57.5598 155.68 57.9998V58.6398L155.6 58.8398Z" fill="#704FE6"/>
<path d="M155.6 58.8398C155.686 58.7704 155.776 58.7069 155.87 58.6498L156.68 58.1298L159.82 56.1298L171.36 48.9998L171.3 49.1098C171.3 39.8598 171.3 27.6098 171.3 14.1998L171.46 14.3698H171.37H136.43H136.49L124.56 20.9998L121.3 22.8198L120.45 23.2798L120.16 23.4298C120.247 23.3653 120.337 23.3053 120.43 23.2498L121.27 22.7498L124.49 20.8798L136.33 14.0798H171.27H171.53V14.2498C171.53 27.6598 171.53 39.9098 171.53 49.1598V49.2298H171.47L159.87 56.3198L156.7 58.2398L155.87 58.7298L155.6 58.8398Z" fill="#704FE6"/>
<path d="M171.42 14.1598C171.47 14.2398 167.97 16.3698 163.6 18.9198C159.23 21.4698 155.6 23.4798 155.6 23.3998C155.6 23.3198 159.05 21.1898 163.43 18.6298C167.81 16.0698 171.38 14.0798 171.42 14.1598Z" fill="#704FE6"/>
<path d="M121.84 57.3799C121.84 57.4599 121.54 57.7499 121.08 58.0099C120.62 58.2699 120.2 58.4299 120.16 58.3499C120.12 58.2699 120.45 57.9899 120.91 57.7199C121.37 57.4499 121.79 57.2999 121.84 57.3799Z" fill="#704FE6"/>
<path d="M125.199 55.45C125.249 55.53 124.909 55.82 124.439 56.08C123.969 56.34 123.559 56.5 123.519 56.42C123.479 56.34 123.809 56.06 124.279 55.79C124.749 55.52 125.149 55.37 125.199 55.45Z" fill="#704FE6"/>
<path d="M128.56 53.52C128.61 53.6 128.27 53.89 127.81 54.15C127.35 54.41 126.93 54.57 126.88 54.49C126.83 54.41 127.17 54.13 127.64 53.86C128.11 53.59 128.52 53.44 128.56 53.52Z" fill="#704FE6"/>
<path d="M131.929 51.5898C131.929 51.6698 131.629 51.9499 131.169 52.2199C130.709 52.4899 130.289 52.6398 130.239 52.5598C130.189 52.4798 130.539 52.1999 130.999 51.9299C131.459 51.6599 131.879 51.5098 131.929 51.5898Z" fill="#704FE6"/>
<path d="M135.289 49.6599C135.289 49.7399 134.999 50.0199 134.529 50.2899C134.059 50.5599 133.649 50.7099 133.609 50.6299C133.569 50.5499 133.899 50.2699 134.359 49.9999C134.819 49.7299 135.239 49.5799 135.289 49.6599Z" fill="#704FE6"/>
<path d="M136.139 46.2699C136.229 46.2699 136.299 46.6999 136.299 47.2699C136.299 47.8399 136.219 48.2699 136.119 48.2699C136.019 48.2699 135.959 47.8399 135.959 47.2699C135.959 46.6999 136.049 46.2599 136.139 46.2699Z" fill="#704FE6"/>
<path d="M136.17 42.3899C136.26 42.3899 136.34 42.8199 136.33 43.3899C136.32 43.9599 136.25 44.3899 136.16 44.3899C136.07 44.3899 135.99 43.9499 135.99 43.3899C135.99 42.8299 136.08 42.3899 136.17 42.3899Z" fill="#704FE6"/>
<path d="M136.2 38.51C136.29 38.51 136.37 38.95 136.36 39.51C136.35 40.07 136.28 40.51 136.19 40.51C136.1 40.51 136.02 40.07 136.02 39.51C136.02 38.95 136.11 38.51 136.2 38.51Z" fill="#704FE6"/>
<path d="M136.229 34.6299C136.319 34.6299 136.399 35.0699 136.389 35.6299C136.379 36.1899 136.309 36.6299 136.219 36.6299C136.129 36.6299 136.049 36.1999 136.059 35.6299C136.069 35.0599 136.139 34.6299 136.229 34.6299Z" fill="#704FE6"/>
<path d="M136.259 30.76C136.349 30.76 136.429 31.19 136.419 31.76C136.409 32.33 136.339 32.76 136.249 32.76C136.159 32.76 136.079 32.33 136.089 31.76C136.099 31.19 136.169 30.76 136.259 30.76Z" fill="#704FE6"/>
<path d="M136.29 26.8799C136.39 26.8799 136.46 27.3099 136.45 27.8799C136.44 28.4499 136.37 28.8799 136.28 28.8799C136.19 28.8799 136.11 28.4399 136.12 27.8799C136.13 27.3199 136.2 26.8799 136.29 26.8799Z" fill="#704FE6"/>
<path d="M136.319 23C136.419 23 136.489 23.44 136.479 24C136.469 24.56 136.399 25 136.309 25C136.219 25 136.139 24.56 136.149 24C136.159 23.44 136.229 23 136.319 23Z" fill="#704FE6"/>
<path d="M136.351 19.1199C136.451 19.1199 136.521 19.5599 136.511 20.1199C136.501 20.6799 136.431 21.1199 136.341 21.1199C136.251 21.1199 136.171 20.6899 136.181 20.1199C136.191 19.5499 136.261 19.1199 136.351 19.1199Z" fill="#704FE6"/>
<path d="M136.38 15.25C136.48 15.25 136.55 15.68 136.54 16.25C136.53 16.82 136.46 17.25 136.37 17.25C136.28 17.25 136.2 16.82 136.21 16.25C136.22 15.68 136.29 15.25 136.38 15.25Z" fill="#704FE6"/>
<path d="M169.49 49.0799C169.49 48.9999 169.92 48.9299 170.49 48.9299C171.06 48.9299 171.49 48.9999 171.49 49.0799C171.49 49.1599 171.06 49.2399 170.49 49.2399C169.92 49.2399 169.49 49.1699 169.49 49.0799Z" fill="#704FE6"/>
<path d="M165.609 49.0799C165.609 48.9999 166.039 48.9299 166.609 48.9299C167.179 48.9299 167.609 48.9999 167.609 49.0799C167.609 49.1599 167.169 49.2399 166.609 49.2399C166.049 49.2399 165.609 49.1699 165.609 49.0799Z" fill="#704FE6"/>
<path d="M161.73 49.0799C161.73 48.9999 162.16 48.9299 162.73 48.9299C163.3 48.9299 163.73 48.9999 163.73 49.0799C163.73 49.1599 163.3 49.2399 162.73 49.2399C162.16 49.2399 161.73 49.1699 161.73 49.0799Z" fill="#704FE6"/>
<path d="M157.85 49.0799C157.85 48.9999 158.29 48.9299 158.85 48.9299C159.41 48.9299 159.85 48.9999 159.85 49.0799C159.85 49.1599 159.42 49.2399 158.85 49.2399C158.28 49.2399 157.85 49.1699 157.85 49.0799Z" fill="#704FE6"/>
<path d="M154 49.0799C154 48.9999 154.43 48.9299 155 48.9299C155.57 48.9299 156 48.9999 156 49.0799C156 49.1599 155.57 49.2399 155 49.2399C154.43 49.2399 154 49.1699 154 49.0799Z" fill="#704FE6"/>
<path d="M150.1 49.0799C150.1 48.9999 150.53 48.9299 151.1 48.9299C151.67 48.9299 152.1 48.9999 152.1 49.0799C152.1 49.1599 151.66 49.2399 151.1 49.2399C150.54 49.2399 150.1 49.1699 150.1 49.0799Z" fill="#704FE6"/>
<path d="M146.219 49.0799C146.219 48.9999 146.649 48.9299 147.219 48.9299C147.789 48.9299 148.219 48.9999 148.219 49.0799C148.219 49.1599 147.789 49.2399 147.219 49.2399C146.649 49.2399 146.219 49.1699 146.219 49.0799Z" fill="#704FE6"/>
<path d="M142.34 49.0799C142.34 48.9999 142.78 48.9299 143.34 48.9299C143.9 48.9299 144.34 48.9999 144.34 49.0799C144.34 49.1599 143.91 49.2399 143.34 49.2399C142.77 49.2399 142.34 49.1699 142.34 49.0799Z" fill="#704FE6"/>
<path d="M138.469 49.0799C138.469 48.9999 138.899 48.9299 139.469 48.9299C140.039 48.9299 140.469 48.9999 140.469 49.0799C140.469 49.1599 140.039 49.2399 139.469 49.2399C138.899 49.2399 138.469 49.1699 138.469 49.0799Z" fill="#704FE6"/>
<path d="M136.119 49.0799C136.119 48.9999 136.209 48.9299 136.319 48.9299C136.429 48.9299 136.529 48.9999 136.529 49.0799C136.529 49.1599 136.439 49.2399 136.319 49.2399C136.295 49.2427 136.272 49.2408 136.249 49.2342C136.226 49.2276 136.204 49.2166 136.186 49.2017C136.167 49.1868 136.152 49.1684 136.14 49.1475C136.129 49.1266 136.122 49.1036 136.119 49.0799Z" fill="#704FE6"/>
<path d="M175.709 37.27C176.005 37.2988 176.304 37.2988 176.599 37.27C176.988 37.1841 177.353 37.0154 177.671 36.7756C177.989 36.5357 178.251 36.2303 178.439 35.88C178.689 35.3501 178.811 34.7686 178.793 34.183C178.776 33.5974 178.62 33.0242 178.339 32.51C178.274 32.3686 178.177 32.2444 178.056 32.1472C177.934 32.05 177.792 31.9824 177.639 31.95C177.32 31.91 176.997 31.9961 176.739 32.19C176.206 32.7079 175.816 33.3558 175.609 34.07C175.33 34.8456 175.161 35.6571 175.109 36.48H174.779C174.779 33.91 174.729 31.67 174.729 30.07C174.729 29.32 174.729 28.69 174.729 28.19C174.702 27.9642 174.702 27.7359 174.729 27.51C174.775 27.7338 174.799 27.9616 174.799 28.19C174.799 28.69 174.799 29.32 174.879 30.07C174.939 31.67 174.999 33.91 175.049 36.48H174.719C174.773 35.6262 174.948 34.7844 175.239 33.98C175.377 33.604 175.537 33.2366 175.719 32.88C175.901 32.5174 176.16 32.1997 176.479 31.95C176.643 31.8255 176.83 31.7349 177.029 31.6834C177.228 31.6319 177.436 31.6205 177.639 31.65C177.833 31.6968 178.014 31.7855 178.17 31.91C178.325 32.0344 178.451 32.1914 178.539 32.37C178.836 32.9328 178.99 33.5591 178.99 34.195C178.99 34.8309 178.836 35.4572 178.539 36.02C178.333 36.3878 178.046 36.704 177.699 36.9448C177.353 37.1855 176.956 37.3446 176.539 37.41C176.314 37.447 176.085 37.447 175.859 37.41C175.802 37.372 175.751 37.3247 175.709 37.27Z" fill="#704FE6"/>
<path d="M77.4197 203.23C77.4197 203.23 77.5597 203.23 77.8297 203.35C78.0997 203.47 78.4997 203.56 79.0097 203.77C80.5033 204.359 81.9311 205.103 83.2697 205.99C85.4023 207.393 87.2935 209.132 88.8697 211.14C90.9852 213.794 92.4202 216.925 93.0497 220.26C93.7642 224.325 93.2235 228.51 91.4997 232.26C90.5508 234.348 89.2292 236.246 87.5997 237.86C86.7468 238.704 85.8122 239.461 84.8097 240.12C84.2797 240.42 83.8097 240.74 83.2097 241.02C82.6097 241.3 82.1097 241.57 81.5197 241.78C76.8597 243.63 71.5197 243.71 66.1597 243.2C63.4797 242.94 60.7797 242.55 58.0297 242.12C55.2367 241.72 52.4833 241.081 49.7997 240.21C47.0861 239.348 44.5779 237.939 42.4297 236.07C41.4001 235.127 40.493 234.059 39.7297 232.89C39.0059 231.72 38.4251 230.468 37.9997 229.16C37.194 226.613 36.925 223.926 37.2097 221.27C37.4912 218.735 38.2298 216.272 39.3897 214C41.6737 209.849 45.1219 206.456 49.3097 204.24C52.918 202.292 56.8593 201.037 60.9297 200.54C64.2767 200.143 67.6575 200.12 71.0097 200.47C73.5343 200.738 76.0416 201.148 78.5197 201.7C80.5197 202.16 82.1197 202.58 83.1797 202.87L84.3797 203.22L84.7897 203.36L84.3697 203.26L83.1597 202.95C82.0997 202.68 80.5297 202.28 78.4897 201.85C76.0101 201.325 73.5027 200.941 70.9797 200.7C67.6524 200.365 64.298 200.405 60.9797 200.82C56.9531 201.335 53.057 202.593 49.4897 204.53C45.3714 206.727 41.9832 210.077 39.7397 214.17C38.6069 216.408 37.8918 218.835 37.6297 221.33C37.3562 223.933 37.6217 226.564 38.4097 229.06C38.8189 230.337 39.3831 231.56 40.0897 232.7C40.8286 233.84 41.7089 234.881 42.7097 235.8C44.8209 237.627 47.2803 239.009 49.9397 239.86C52.6075 240.722 55.3441 241.354 58.1197 241.75C60.8497 242.18 63.5597 242.57 66.2197 242.83C71.5197 243.34 76.8297 243.27 81.4097 241.45C85.7772 239.763 89.3025 236.421 91.2197 232.15C92.9275 228.46 93.4783 224.339 92.7997 220.33C92.1814 217.044 90.7782 213.957 88.7097 211.33C87.1608 209.333 85.3043 207.594 83.2097 206.18C81.8825 205.287 80.4727 204.523 78.9997 203.9C78.4897 203.69 78.0997 203.56 77.8297 203.45L77.4197 203.23Z" fill="#263238"/>
<path d="M50.7197 229.07C50.455 229.137 50.1828 229.171 49.9097 229.17L47.6797 229.28H46.9397C46.6577 229.318 46.3717 229.318 46.0897 229.28C45.9113 229.224 45.761 229.103 45.6697 228.94C45.5941 228.79 45.5499 228.627 45.5397 228.46L45.4797 227.55C45.4097 226.29 45.3297 224.93 45.2497 223.55C45.1697 222.17 45.0797 220.76 45.0697 219.49C45.0528 218.867 45.1975 218.25 45.4897 217.7C45.7788 217.244 46.2065 216.894 46.7097 216.7C47.4314 216.449 48.2004 216.363 48.9597 216.45C49.2359 216.457 49.5093 216.507 49.7697 216.6C49.4969 216.624 49.2225 216.624 48.9497 216.6C48.2231 216.569 47.498 216.688 46.8197 216.95C46.3915 217.149 46.0402 217.482 45.8197 217.9C45.5696 218.402 45.4492 218.959 45.4697 219.52C45.4697 220.74 45.6197 222.13 45.6797 223.52C45.7397 224.91 45.8197 226.31 45.8897 227.52C45.9497 228.11 45.8197 228.85 46.2297 228.95C46.4784 228.986 46.731 228.986 46.9797 228.95H49.9797C50.2305 228.958 50.4792 228.998 50.7197 229.07Z" fill="#263238"/>
<path d="M49.5997 222.52C48.9265 222.725 48.2218 222.806 47.5197 222.76C46.8191 222.836 46.1106 222.782 45.4297 222.6C46.1017 222.389 46.8074 222.308 47.5097 222.36C48.2102 222.283 48.919 222.337 49.5997 222.52Z" fill="#263238"/>
<path d="M59.9999 220.66C58.9501 220.808 57.8892 220.861 56.8299 220.82C55.7782 220.903 54.7216 220.903 53.6699 220.82C54.6878 220.498 55.7531 220.353 56.8199 220.39C57.8876 220.306 58.9617 220.397 59.9999 220.66Z" fill="#263238"/>
<path d="M60.6191 225.44C59.5902 225.675 58.5309 225.75 57.4791 225.66C56.4294 225.702 55.3797 225.577 54.3691 225.29C55.4067 225.19 56.4515 225.19 57.4891 225.29C58.5349 225.245 59.5825 225.295 60.6191 225.44Z" fill="#263238"/>
<path d="M77.429 228.31C77.429 228.31 77.429 227.88 77.429 227.09C77.381 225.974 77.1791 224.87 76.829 223.81C76.6689 223.066 76.2597 222.399 75.669 221.92C75.5001 221.825 75.3072 221.781 75.1136 221.793C74.9201 221.805 74.7344 221.874 74.579 221.99C74.2262 222.252 73.9415 222.595 73.749 222.99C72.949 224.957 72.607 227.081 72.749 229.2H72.359C72.4733 227.668 72.4532 226.129 72.299 224.6C72.2439 223.979 72.1571 223.362 72.039 222.75C71.9401 222.185 71.6421 221.674 71.199 221.31C70.9864 221.157 70.731 221.075 70.469 221.075C70.2071 221.075 69.9517 221.157 69.739 221.31C69.29 221.605 68.9632 222.052 68.819 222.57C68.6757 223.09 68.582 223.622 68.539 224.16C68.479 224.69 68.429 225.21 68.409 225.72C68.354 226.669 68.354 227.621 68.409 228.57H68.099C68.019 226.32 67.949 224.48 67.899 223.13C67.899 222.53 67.899 222.04 67.899 221.65C67.8774 221.477 67.8774 221.303 67.899 221.13C67.9389 221.301 67.9623 221.475 67.969 221.65L68.089 223.13C68.169 224.47 68.289 226.31 68.429 228.55H68.119C68.0681 227.591 68.0681 226.629 68.119 225.67C68.119 225.16 68.179 224.67 68.239 224.09C68.2798 223.528 68.3769 222.972 68.529 222.43C68.6933 221.825 69.0695 221.3 69.589 220.95C69.8881 220.761 70.2356 220.664 70.589 220.67C70.9489 220.671 71.299 220.787 71.589 221C72.112 221.418 72.467 222.011 72.589 222.67C72.7166 223.298 72.81 223.932 72.869 224.57C73.0034 226.124 73.0034 227.686 72.869 229.24H72.479C72.3469 227.066 72.7236 224.892 73.579 222.89C73.8066 222.429 74.1515 222.036 74.579 221.75C74.7839 221.603 75.0268 221.518 75.2787 221.506C75.5306 221.493 75.7807 221.554 75.999 221.68C76.6451 222.202 77.0875 222.935 77.249 223.75C77.5794 224.839 77.7479 225.971 77.749 227.11C77.749 227.51 77.749 227.82 77.699 228.02C77.6252 228.13 77.534 228.228 77.429 228.31Z" fill="#263238"/>
<path d="M86.189 227.68C86.189 227.68 86.049 227.85 85.709 228.02C85.2251 228.255 84.6968 228.385 84.159 228.4C83.3465 228.425 82.5453 228.206 81.859 227.77C81.0175 227.212 80.418 226.357 80.1806 225.376C79.9432 224.395 80.0855 223.361 80.579 222.48C80.9931 221.781 81.6057 221.22 82.339 220.87C82.8231 220.637 83.3517 220.511 83.889 220.5C84.0858 220.485 84.2835 220.512 84.469 220.58C83.7752 220.638 83.0975 220.821 82.469 221.12C81.8157 221.478 81.2754 222.011 80.909 222.66C80.4898 223.467 80.3763 224.398 80.5895 225.282C80.8027 226.166 81.3281 226.943 82.069 227.47C82.6931 227.882 83.4215 228.107 84.169 228.12C84.8641 228.103 85.5496 227.953 86.189 227.68Z" fill="#263238"/>
<path d="M88.5502 216.35C87.043 216.441 85.5506 216.7 84.1002 217.12L83.4302 217.34L83.9302 216.83C84.8932 215.951 85.728 214.941 86.4102 213.83C86.9434 212.901 87.1277 211.812 86.9302 210.76C86.8202 210.29 86.5402 209.92 86.1602 209.91C85.7648 209.917 85.377 210.02 85.0302 210.21C84.4999 210.483 84.0304 210.86 83.6502 211.32C83.3802 211.65 83.2702 211.87 83.2402 211.85C83.2812 211.621 83.3811 211.408 83.5302 211.23C83.8751 210.703 84.3459 210.269 84.9002 209.97C85.2852 209.73 85.7267 209.595 86.1802 209.58C86.3196 209.584 86.4565 209.617 86.5822 209.678C86.708 209.738 86.8197 209.824 86.9102 209.93C87.0895 210.141 87.2163 210.391 87.2802 210.66C87.5274 211.806 87.3422 213.002 86.7602 214.02C86.0639 215.179 85.19 216.222 84.1702 217.11L84.0002 216.81C85.0652 216.49 86.1685 216.315 87.2802 216.29C87.7038 216.235 88.1338 216.255 88.5502 216.35Z" fill="#263238"/>
<path d="M155.519 204.52L176.829 200.41L217.709 209.79L238.429 214.11L238.729 242.42L192.509 250.93L161.319 241.69L149.529 224.34L155.519 204.52Z" fill="#FFBE9D"/>
<path d="M140.38 207.34L160.49 202.6C160.49 202.6 174.71 246.6 209.8 244.67C238.4 243.12 238.43 214.11 238.43 214.11L259.34 217.8C259.34 217.8 268.11 270.89 258.5 308.13C250.5 339.13 243.4 381.61 243.4 381.61H104.49L140.38 207.34Z" fill="#704FE6"/>
<path d="M344.149 343.37C344.149 343.37 286.859 243 276.549 230.12C265.259 216.02 256.249 217.65 256.249 217.65L250.189 285.26L298.899 354.37L310.509 358.56L344.149 343.37Z" fill="#704FE6"/>
<path d="M142.78 206.78C142.78 206.78 110.22 209.38 98.5398 262.78C93.2598 286.91 86.5398 315.19 84.6598 334.19C83.2598 347.98 91.7698 362.32 105.52 364.08L122.78 367.28C127.34 368.126 132.051 367.192 135.942 364.67C139.834 362.147 142.611 358.228 143.7 353.72L149.53 329.58L134 324.36L137.59 252.45L142.78 206.78Z" fill="#704FE6"/>
<path d="M262 255.12C262.076 255.361 262.127 255.609 262.15 255.86C262.24 256.4 262.34 257.12 262.48 258.01C262.55 258.48 262.62 259.01 262.71 259.57C262.8 260.13 262.83 260.76 262.89 261.43C263.03 262.76 263.19 264.28 263.26 265.97C263.502 269.922 263.528 273.885 263.34 277.84C263.107 282.681 262.626 287.508 261.9 292.3C261.15 297.4 260.21 302.22 259.26 306.58C258.31 310.94 257.36 314.85 256.55 318.13C255.74 321.41 255.03 324.04 254.55 325.86C254.31 326.73 254.12 327.43 253.97 327.95C253.91 328.195 253.833 328.436 253.74 328.67C253.761 328.42 253.804 328.172 253.87 327.93C253.99 327.39 254.16 326.69 254.36 325.81L256.2 318C256.97 314.71 257.89 310.8 258.8 306.44C259.71 302.08 260.65 297.27 261.4 292.18C262.15 287.09 262.66 282.18 262.87 277.77C263.08 273.36 263.1 269.31 262.87 265.95C262.87 264.27 262.69 262.75 262.58 261.41C262.53 260.75 262.48 260.13 262.44 259.55C262.4 258.97 262.31 258.47 262.26 257.99C262.16 257.1 262.09 256.38 262.03 255.84C262.004 255.601 261.994 255.361 262 255.12Z" fill="#263238"/>
<path d="M151.05 332.16C150.981 332.018 150.924 331.871 150.88 331.72C150.78 331.39 150.64 330.97 150.47 330.43L149.83 328.36C149.65 327.418 149.253 326.532 148.67 325.77C147.813 324.949 146.79 324.321 145.67 323.93C144.352 323.432 142.994 323.051 141.61 322.79C138.31 322.179 134.965 321.844 131.61 321.79H131.34V321.53L134.28 302.36C136.17 290.29 137.89 279.36 139.14 271.36C139.79 267.44 140.31 264.25 140.68 261.99C140.86 260.92 141.01 260.07 141.12 259.44C141.12 259.18 141.21 258.96 141.25 258.78C141.257 258.704 141.277 258.629 141.31 258.56C141.325 258.636 141.325 258.714 141.31 258.79C141.31 258.97 141.31 259.19 141.23 259.46C141.15 260.09 141.03 260.94 140.89 262.02C140.56 264.29 140.09 267.49 139.52 271.42C138.3 279.42 136.64 290.33 134.8 302.42C133.72 309.32 132.71 315.85 131.8 321.58L131.57 321.31C134.966 321.398 138.348 321.776 141.68 322.44C143.083 322.72 144.459 323.125 145.79 323.65C146.956 324.078 148.012 324.761 148.88 325.65C149.237 326.052 149.503 326.526 149.66 327.04L150.03 328.37C150.26 329.18 150.45 329.88 150.61 330.46C150.77 331.04 150.87 331.46 150.95 331.77C150.995 331.897 151.029 332.027 151.05 332.16Z" fill="#263238"/>
<path d="M106.199 340.32C106.231 339.865 106.319 339.415 106.459 338.98C106.774 337.775 107.195 336.6 107.719 335.47C109.425 331.693 112.083 328.425 115.433 325.986C118.784 323.548 122.711 322.022 126.829 321.56C128.063 321.409 129.308 321.369 130.549 321.44C131.008 321.446 131.464 321.503 131.909 321.61C130.238 321.62 128.569 321.723 126.909 321.92C122.885 322.475 119.06 324.016 115.774 326.407C112.489 328.797 109.846 331.962 108.079 335.62C107.369 337.152 106.742 338.721 106.199 340.32Z" fill="#263238"/>
<path d="M113.73 313.74C113.985 313.675 114.248 313.652 114.51 313.67C115.229 313.657 115.947 313.69 116.66 313.77C119.022 314.008 121.336 314.587 123.53 315.49C125.725 316.398 127.778 317.614 129.63 319.1C130.192 319.544 130.723 320.025 131.22 320.54C131.57 320.91 131.76 321.12 131.73 321.15C131.7 321.18 130.85 320.45 129.41 319.39C125.634 316.623 121.241 314.818 116.61 314.13C114.84 313.87 113.73 313.83 113.73 313.74Z" fill="#263238"/>
<path d="M147.43 244.67C147.364 244.196 147.341 243.718 147.36 243.24C147.36 242.32 147.3 241 147.18 239.37C146.88 235.117 146.149 230.906 145 226.8C143.834 222.701 142.263 218.728 140.31 214.94C139.55 213.49 138.91 212.33 138.44 211.55C138.176 211.151 137.949 210.729 137.76 210.29C138.079 210.646 138.364 211.031 138.61 211.44C139.14 212.2 139.83 213.33 140.61 214.77C144.772 222.323 147.133 230.735 147.51 239.35C147.58 240.99 147.57 242.35 147.51 243.24C147.53 243.718 147.504 244.197 147.43 244.67Z" fill="#263238"/>
<g opacity="0.3">
<path d="M260.52 299.91C268.82 285.84 269 267.56 261.75 252.91C264.081 268.519 263.58 284.42 260.27 299.85" fill="black"/>
</g>
<g opacity="0.3">
<path d="M186.619 315.82C180.319 317.67 171.619 318.12 165.449 315.82C170.259 322.65 179.529 325.12 187.569 322.9C195.609 320.68 203.029 312.63 203.649 304.3C199.759 309.56 192.929 314 186.619 315.82Z" fill="black"/>
</g>
<path d="M209.8 293.1C209.771 293.292 209.721 293.479 209.65 293.66C209.53 294.02 209.39 294.57 209.11 295.23C208.381 297.141 207.474 298.979 206.4 300.72C204.817 303.316 202.905 305.696 200.71 307.8C195.326 313.041 188.377 316.377 180.92 317.3C177.906 317.691 174.854 317.691 171.84 317.3C169.805 317.047 167.796 316.608 165.84 315.99C165.14 315.78 164.63 315.55 164.27 315.42C164.088 315.358 163.91 315.281 163.74 315.19C164.467 315.353 165.184 315.554 165.89 315.79C174.357 318.144 183.386 317.396 191.35 313.68C199.234 309.804 205.463 303.225 208.9 295.14C209.48 293.84 209.75 293.08 209.8 293.1Z" fill="#263238"/>
<path d="M139.559 363.11C139.559 363.11 139.489 363.22 139.309 363.38C139.057 363.631 138.786 363.861 138.499 364.07C137.453 364.85 136.293 365.464 135.059 365.89C133.225 366.5 131.311 366.837 129.379 366.89C127.043 366.964 124.704 366.881 122.379 366.64C117.379 366.21 112.939 365.48 109.729 364.91C108.119 364.62 106.819 364.37 105.929 364.18C105.455 364.116 104.989 364.002 104.539 363.84C105.015 363.847 105.49 363.894 105.959 363.98L109.789 364.54C113.009 365.03 117.469 365.69 122.429 366.12C124.754 366.36 127.092 366.457 129.429 366.41C131.322 366.37 133.2 366.067 135.009 365.51C136.637 364.943 138.171 364.134 139.559 363.11Z" fill="#263238"/>
<path d="M252.5 100L256.61 96C262.08 98.38 264.61 104.73 265.54 110.63C266.47 116.53 266.33 122.73 268.84 128.15C270.76 132.32 274.25 136.15 273.84 140.76C273.45 145.11 269.51 148.63 269.49 153C269.49 157.21 272.99 160.44 275.03 164.12C279.16 171.57 281.84 202.05 279.68 210.3C261.51 208.73 229.33 206.79 211.15 202.61C215.94 171.29 236.11 127.09 252.5 100Z" fill="#263238"/>
<path d="M260.63 127.92C261.89 106.63 246.43 87.1501 224.88 84.5801C202.01 81.8601 181.78 98.2401 179.88 120.52L174.52 210.46C174.422 212.198 174.908 213.92 175.9 215.35C181.18 223.07 190.74 229.11 199.29 230.3C207.56 231.45 215.95 229.3 222.99 225.38C224.158 224.72 225.132 223.765 225.815 222.61C226.497 221.455 226.865 220.141 226.88 218.8L227.25 198.67C227.249 198.653 227.251 198.635 227.257 198.619C227.263 198.602 227.272 198.587 227.285 198.575C227.297 198.562 227.312 198.553 227.329 198.547C227.345 198.541 227.363 198.539 227.38 198.54C229.264 198.682 231.157 198.629 233.03 198.38C238.35 197.08 251.92 191.86 256.48 171.94C258 165.34 259.52 146.59 260.63 127.92Z" fill="#FFBE9D"/>
<path d="M231.049 157.33C231.049 157.13 233.279 156.91 236.889 156.71C237.799 156.71 238.669 156.56 238.889 155.96C239.023 155.043 238.869 154.106 238.449 153.28L236.209 146.28C233.109 136.36 230.929 128.23 231.329 128.12C231.729 128.01 234.579 135.94 237.679 145.86C238.419 148.31 239.129 150.64 239.809 152.86C240.089 153.86 240.599 155.08 240.049 156.39C239.896 156.695 239.675 156.961 239.402 157.168C239.13 157.374 238.814 157.515 238.479 157.58C237.969 157.682 237.448 157.719 236.929 157.69C233.289 157.67 231.059 157.53 231.049 157.33Z" fill="#263238"/>
<path d="M254.749 135.45C254.359 135.88 251.999 133.9 248.619 133.8C245.239 133.7 242.719 135.47 242.359 135.01C242.179 134.8 242.589 134.01 243.689 133.19C245.143 132.146 246.9 131.611 248.689 131.67C250.476 131.732 252.19 132.39 253.559 133.54C254.609 134.44 254.999 135.26 254.749 135.45Z" fill="#263238"/>
<path d="M220.41 136.31C219.95 136.74 217.49 134.51 213.8 134.19C210.11 133.87 207.24 135.56 206.87 135.06C206.69 134.83 207.19 134.06 208.44 133.24C210.115 132.248 212.062 131.813 214 132C215.939 132.172 217.771 132.969 219.22 134.27C220.31 135.24 220.63 136.12 220.41 136.31Z" fill="#263238"/>
<path d="M227.25 198.53C227.25 198.53 213.47 198.68 196.99 187.36C196.99 187.36 201.25 205.54 227.14 204.97L227.25 198.53Z" fill="#EB996E"/>
<path d="M229 165.63C228.372 164.745 227.532 164.031 226.557 163.554C225.583 163.077 224.504 162.852 223.42 162.9C222.637 162.912 221.864 163.08 221.148 163.396C220.431 163.713 219.786 164.17 219.25 164.74C218.737 165.287 218.409 165.98 218.311 166.722C218.212 167.464 218.348 168.219 218.7 168.88C219.57 170.27 221.55 170.72 223.28 170.36C224.993 169.891 226.597 169.089 228 168C228.416 167.734 228.782 167.395 229.08 167C229.22 166.816 229.303 166.594 229.317 166.362C229.331 166.131 229.277 165.9 229.16 165.7" fill="#EB996E"/>
<path d="M220.45 159C221.03 159 220.8 162.8 223.92 165.72C227.04 168.64 231.17 168.5 231.17 169.03C231.17 169.28 230.17 169.71 228.47 169.63C226.216 169.505 224.075 168.604 222.41 167.08C220.824 165.63 219.869 163.616 219.75 161.47C219.7 159.88 220.19 159 220.45 159Z" fill="#263238"/>
<path d="M221 122.37C220.58 123.29 217.07 122.58 212.88 122.75C208.69 122.92 205.24 123.75 204.74 122.9C204.53 122.47 205.17 121.63 206.6 120.81C208.502 119.82 210.602 119.269 212.745 119.2C214.888 119.131 217.019 119.544 218.98 120.41C220.43 121.13 221.14 121.93 221 122.37Z" fill="#263238"/>
<path d="M255.48 123.12C254.76 123.92 251.91 123.12 248.48 123.12C245.05 123.12 242.17 123.69 241.48 122.86C241.18 122.46 241.63 121.66 242.89 120.86C244.635 119.946 246.582 119.489 248.551 119.53C250.52 119.572 252.446 120.112 254.15 121.1C255.39 121.91 255.8 122.73 255.48 123.12Z" fill="#263238"/>
<path d="M228.001 80.0801C226.141 76.9201 222.691 75.4801 218.831 74.9001C203.071 72.5101 185.491 82.0001 176.661 95.2601C167.831 108.52 167.361 128.31 173.821 142.87L183.651 136.73C203.381 128.59 217.311 109.58 230.001 89.9401C231.771 87.2701 229.651 82.8301 228.001 80.0801Z" fill="#263238"/>
<path d="M252.279 88.7502C245.689 81.2502 240.899 73.7502 227.219 78.9902C225.219 82.8202 229.219 87.7902 232.659 90.6902C237.659 94.9502 241.949 97.8202 245.209 100.87C251.789 107.02 259.269 127.71 259.919 139C259.919 139.71 261.169 129.31 261.919 129.2C262.839 129.06 266.549 124.52 266.039 118.32C264.279 97.1302 258.869 96.2402 252.279 88.7502Z" fill="#263238"/>
<path d="M218.869 74.9001C219.897 74.6996 220.96 74.7896 221.939 75.1601C224.36 75.9025 226.518 77.3216 228.159 79.2501C228.628 79.7922 229.043 80.3783 229.399 81.0001C229.71 81.6008 229.952 82.2349 230.119 82.8901C230.476 83.9465 230.747 85.03 230.929 86.1301C231.199 88.0601 230.739 89.2301 230.639 89.2001C230.539 89.1701 230.689 88.0201 230.269 86.2501C229.992 85.2029 229.658 84.1714 229.269 83.1601C229.092 82.5689 228.857 81.9962 228.569 81.4501C228.231 80.8769 227.843 80.3348 227.409 79.8301C225.861 78.0363 223.902 76.6434 221.699 75.7701C219.999 75.1601 218.849 75.0601 218.869 74.9001Z" fill="#455A64"/>
<path d="M251.629 142C251.63 142.767 251.337 143.506 250.811 144.064C250.285 144.622 249.565 144.957 248.799 145C248.419 145.036 248.035 144.995 247.671 144.881C247.306 144.766 246.968 144.58 246.677 144.333C246.385 144.086 246.146 143.784 245.973 143.443C245.8 143.103 245.697 142.731 245.669 142.35C245.649 141.571 245.934 140.815 246.462 140.242C246.99 139.669 247.721 139.324 248.499 139.28C248.885 139.243 249.275 139.285 249.644 139.403C250.013 139.522 250.355 139.714 250.648 139.968C250.94 140.223 251.178 140.534 251.347 140.883C251.516 141.233 251.612 141.613 251.629 142Z" fill="#263238"/>
<path d="M218.69 142.16C218.709 142.939 218.425 143.695 217.896 144.268C217.368 144.841 216.638 145.186 215.86 145.23C215.48 145.267 215.097 145.228 214.732 145.114C214.368 145.001 214.03 144.816 213.738 144.57C213.447 144.324 213.207 144.022 213.034 143.682C212.861 143.342 212.757 142.971 212.73 142.59C212.708 141.809 212.991 141.051 213.519 140.475C214.048 139.9 214.78 139.554 215.56 139.51C215.94 139.473 216.324 139.513 216.689 139.627C217.054 139.741 217.393 139.927 217.685 140.174C217.976 140.421 218.216 140.724 218.388 141.065C218.561 141.406 218.663 141.779 218.69 142.16Z" fill="#263238"/>
<path d="M128.05 167.19C129.91 164.13 132.05 161.25 135.45 159.98C138.85 158.71 142.71 157.98 145.38 155.5C149.57 151.65 149.38 145.25 149 139.67C148.62 134.09 148.52 127.67 152.8 123.92C156.38 120.79 162.07 120.51 165.17 116.92C167.24 114.53 167.65 111.23 168.37 108.18C170.37 100.01 174.84 85.74 198.92 77.53L177.62 158.47C179.21 158.92 183.01 162.54 183.22 164.99C183.41 167.28 182.42 169.6 182.4 171.9C182.4 174.71 185.46 176.39 187.4 178.47C189.86 181.12 190.62 184.94 190.24 188.47C189.452 193.295 188.161 198.024 186.39 202.58C166.63 200.58 137.79 199.94 122.73 187.34C120 185.06 123.91 174 128.05 167.19Z" fill="#263238"/>
<path d="M183.689 136.73C183.319 136.53 168.769 130.73 167.839 146.08C166.909 161.43 182.479 159.15 182.529 158.72C182.579 158.29 183.689 136.73 183.689 136.73Z" fill="#FFBE9D"/>
<path d="M178.209 152.64C178.139 152.58 177.929 152.81 177.459 152.98C176.809 153.218 176.091 153.193 175.459 152.91C173.879 152.21 172.669 149.56 172.759 146.8C172.81 145.485 173.151 144.198 173.759 143.03C173.933 142.561 174.218 142.141 174.588 141.805C174.959 141.469 175.405 141.228 175.889 141.1C176.201 141.038 176.525 141.087 176.804 141.238C177.084 141.39 177.301 141.635 177.419 141.93C177.599 142.37 177.479 142.67 177.559 142.7C177.639 142.73 177.909 142.46 177.819 141.82C177.761 141.434 177.57 141.08 177.279 140.82C176.878 140.475 176.357 140.302 175.829 140.34C175.193 140.425 174.589 140.672 174.076 141.057C173.563 141.442 173.158 141.953 172.899 142.54C172.168 143.83 171.763 145.278 171.719 146.76C171.629 149.85 173.029 152.83 175.209 153.6C175.612 153.747 176.043 153.799 176.469 153.754C176.895 153.709 177.306 153.568 177.669 153.34C178.159 153 178.259 152.67 178.209 152.64Z" fill="#EB996E"/>
<path d="M238.141 140.74C238.222 139.587 238.386 138.44 238.631 137.31C239.093 135.419 239.945 133.645 241.132 132.102C242.319 130.559 243.814 129.28 245.523 128.347C247.232 127.415 249.117 126.849 251.057 126.686C252.997 126.522 254.95 126.766 256.791 127.4C258.058 127.828 259.252 128.448 260.331 129.24C261.482 130.036 262.496 131.016 263.331 132.14C265.122 134.486 266.115 137.345 266.161 140.297C266.208 143.249 265.307 146.138 263.591 148.54C262.798 149.688 261.825 150.701 260.711 151.54C259.66 152.368 258.486 153.026 257.231 153.49C254.91 154.384 252.393 154.639 249.941 154.23C247.802 153.877 245.777 153.024 244.031 151.74C241.474 149.88 239.618 147.214 238.761 144.17C238.485 143.045 238.284 141.902 238.161 140.75C238.156 140.827 238.156 140.903 238.161 140.98C238.161 141.17 238.161 141.39 238.161 141.66C238.169 142.026 238.206 142.39 238.271 142.75C238.326 143.247 238.419 143.738 238.551 144.22C239.353 147.351 241.207 150.112 243.801 152.04C245.722 153.478 247.975 154.406 250.351 154.738C252.727 155.07 255.149 154.796 257.391 153.94C260.052 152.934 262.353 151.159 264.001 148.84C265.784 146.352 266.72 143.356 266.671 140.296C266.623 137.235 265.592 134.271 263.731 131.84C262.864 130.681 261.818 129.668 260.631 128.84C259.522 128.044 258.298 127.424 257.001 127C254.733 126.217 252.305 126.019 249.941 126.427C247.577 126.834 245.355 127.833 243.481 129.33C240.944 131.342 239.178 134.168 238.481 137.33C238.366 137.817 238.286 138.312 238.241 138.81C238.192 139.175 238.168 139.542 238.171 139.91C238.171 140.18 238.171 140.4 238.171 140.58C238.158 140.633 238.148 140.686 238.141 140.74Z" fill="#455A64"/>
<path d="M199.5 141.36C199.581 140.207 199.741 139.061 199.98 137.93C200.732 134.863 202.493 132.137 204.98 130.19C206.687 128.852 208.684 127.934 210.81 127.51C213.249 127.028 215.772 127.204 218.12 128.02C219.386 128.452 220.58 129.072 221.66 129.86C222.81 130.659 223.823 131.638 224.66 132.76C226.45 135.105 227.442 137.961 227.49 140.911C227.539 143.86 226.642 146.748 224.93 149.15C224.133 150.298 223.158 151.311 222.04 152.15C220.99 152.979 219.815 153.637 218.56 154.1C216.24 154.994 213.723 155.249 211.27 154.84C209.135 154.488 207.113 153.634 205.37 152.35C202.811 150.49 200.952 147.824 200.09 144.78C199.815 143.655 199.618 142.512 199.5 141.36C199.49 141.436 199.49 141.514 199.5 141.59C199.5 141.77 199.5 142 199.5 142.27C199.5 142.636 199.533 143.001 199.6 143.36C199.654 143.858 199.751 144.35 199.89 144.83C200.685 147.965 202.54 150.728 205.14 152.65C206.909 153.979 208.964 154.876 211.14 155.27C213.67 155.706 216.269 155.457 218.67 154.55C221.336 153.552 223.639 151.775 225.28 149.45C227.063 146.962 228 143.966 227.951 140.906C227.902 137.845 226.872 134.881 225.01 132.45C223.29 130.183 220.933 128.481 218.24 127.56C215.811 126.73 213.204 126.568 210.69 127.09C208.013 127.64 205.552 128.951 203.601 130.865C201.65 132.779 200.292 135.214 199.69 137.88C199.566 138.365 199.486 138.861 199.45 139.36C199.391 139.724 199.368 140.092 199.38 140.46V141.13C199.403 141.215 199.444 141.293 199.5 141.36Z" fill="#455A64"/>
<path d="M227.1 140.31C227.18 140.36 227.58 139.71 228.51 138.96C229.702 137.971 231.195 137.418 232.743 137.391C234.292 137.363 235.803 137.864 237.03 138.81C238.03 139.52 238.41 140.16 238.48 140.1C238.231 139.468 237.808 138.92 237.26 138.52C236.007 137.424 234.391 136.834 232.727 136.865C231.063 136.896 229.47 137.547 228.26 138.69C227.729 139.111 227.327 139.672 227.1 140.31Z" fill="#455A64"/>
<path d="M180.17 135.75C181.09 136.042 182.039 136.236 183 136.33C184.77 136.61 187.22 136.87 189.92 137.11L196.85 137.73C197.8 137.876 198.759 137.95 199.72 137.95C198.8 137.656 197.851 137.458 196.89 137.36C195.13 137.09 192.68 136.83 189.97 136.59L183.05 135.97C182.098 135.818 181.134 135.744 180.17 135.75Z" fill="#455A64"/>
<path d="M260.459 149.39C261.707 147.948 262.719 146.318 263.459 144.56C264.04 142.74 264.333 140.841 264.329 138.93C264.552 139.468 264.654 140.048 264.629 140.63C264.665 142.031 264.434 143.426 263.949 144.74C263.465 146.055 262.732 147.264 261.789 148.3C261.059 149.08 260.499 149.44 260.459 149.39Z" fill="white"/>
<path d="M262.88 133.59C262.96 133.47 263.53 133.76 263.88 134.44C264.23 135.12 264.08 135.74 263.94 135.73C263.8 135.72 263.68 135.21 263.41 134.66C263.14 134.11 262.79 133.7 262.88 133.59Z" fill="white"/>
<path d="M225.16 146.36C225.08 146.36 225.36 145.56 225.59 144.27C226.18 140.886 225.53 137.404 223.76 134.46C223.09 133.34 222.55 132.72 222.61 132.66C223.199 133.09 223.696 133.634 224.07 134.26C225.074 135.714 225.764 137.361 226.097 139.097C226.429 140.832 226.396 142.618 226 144.34C225.859 145.063 225.573 145.75 225.16 146.36Z" fill="white"/>
<path d="M172 158.51C172 158.51 171.79 158.81 171.49 159.36C171.06 160.141 170.833 161.018 170.83 161.91C170.814 162.557 170.932 163.2 171.176 163.799C171.42 164.398 171.786 164.939 172.25 165.39C172.809 165.946 173.492 166.362 174.243 166.604C174.994 166.845 175.791 166.906 176.57 166.78C177.344 166.621 178.07 166.284 178.691 165.797C179.312 165.309 179.812 164.684 180.15 163.97C180.423 163.384 180.574 162.748 180.593 162.102C180.612 161.455 180.499 160.811 180.26 160.21C179.944 159.378 179.429 158.636 178.76 158.05C178.28 157.64 177.96 157.47 177.98 157.43C178.31 157.515 178.618 157.672 178.88 157.89C179.643 158.445 180.238 159.199 180.6 160.07C180.89 160.715 181.04 161.413 181.04 162.12C181.04 162.827 180.89 163.526 180.6 164.17C180.256 164.974 179.718 165.679 179.033 166.224C178.349 166.768 177.541 167.134 176.68 167.289C175.82 167.443 174.934 167.382 174.104 167.11C173.273 166.838 172.522 166.364 171.92 165.73C171.422 165.23 171.035 164.631 170.785 163.97C170.535 163.31 170.428 162.605 170.47 161.9C170.504 160.959 170.799 160.045 171.32 159.26C171.67 158.71 172 158.49 172 158.51Z" fill="#E0E0E0"/>
<path d="M256.47 170.31C257.316 170.649 258.249 170.705 259.13 170.47C260.072 170.206 260.921 169.683 261.58 168.96C262.392 168.083 262.94 166.995 263.16 165.82C263.389 164.645 263.242 163.427 262.74 162.34C262.328 161.449 261.716 160.665 260.95 160.05C260.211 159.51 259.404 159.069 258.55 158.74C258.804 158.717 259.061 158.751 259.3 158.84C259.976 159.028 260.613 159.336 261.18 159.75C262.029 160.374 262.715 161.194 263.18 162.14C263.751 163.309 263.927 164.632 263.68 165.91C263.435 167.187 262.824 168.365 261.92 169.3C261.187 170.065 260.244 170.597 259.21 170.83C258.517 170.994 257.792 170.955 257.12 170.72C256.65 170.53 256.45 170.33 256.47 170.31Z" fill="#E0E0E0"/>
<path d="M201 368.87L215.83 373.26C215.83 373.26 224.01 376.77 227.99 377.68C232.93 378.81 236.3 377.28 236.48 374.53C236.66 371.78 232.82 371.43 232.82 371.43C229.556 370.187 226.382 368.72 223.32 367.04C221.097 365.495 219.279 363.437 218.02 361.04L223.32 361.77C223.32 361.77 234.47 369.77 238.67 372.19C242.87 374.61 243.79 370.36 244.15 369.08C244.51 367.8 231.73 354.83 231.73 354.83C231.73 354.83 243.97 362.69 246.16 364.65C248.35 366.61 251.65 367.25 252.38 365.98C253.11 364.71 255.12 364.7 252.38 359.28C249.64 353.86 227.71 339.28 227.71 339.28L233.71 338L240.29 340.93C240.748 343.188 241.682 345.322 243.03 347.19C245.4 350.71 249.61 347.19 249.61 347.19L247 333.69L234 325.55C234 325.55 220.48 327.2 218.47 328.11C216.46 329.02 214.26 332.85 214.26 332.85L210.61 334.33C204.94 335.97 205.13 341.64 203.3 341.82C201.47 342 148.13 331.6 148.13 331.6L143.3 330.34C135.3 336.41 132.11 346.44 130.7 355.34C130.7 355.34 129.23 359.7 130.7 362.1L201 368.87Z" fill="#FFBE9D"/>
<path d="M191.209 359.38C191.146 359.095 191.129 358.801 191.159 358.51C191.155 358.175 191.185 357.84 191.249 357.51C191.296 357.057 191.383 356.608 191.509 356.17C192.26 353.645 193.53 351.305 195.239 349.3C196.898 347.285 198.747 345.433 200.759 343.77C201.556 343.043 202.424 342.396 203.349 341.84C202.609 342.606 201.824 343.327 200.999 344C199.076 345.724 197.284 347.589 195.639 349.58C193.978 351.542 192.7 353.798 191.869 356.23C191.279 358.14 191.319 359.39 191.209 359.38Z" fill="#EB996E"/>
<path d="M214.31 332.85C214.31 332.85 213.87 333.08 213.19 333.63C212.242 334.43 211.423 335.371 210.76 336.42C210.282 337.129 209.873 337.883 209.54 338.67C209.232 339.597 209.038 340.557 208.96 341.53C208.822 342.662 208.418 343.745 207.78 344.69C207.056 345.605 206.461 346.614 206.01 347.69C205.325 349.508 205.325 351.512 206.01 353.33L206.08 353.52L205.91 353.63C203.591 355.128 201.913 357.434 201.2 360.1C200.954 361.151 200.804 362.222 200.75 363.3C200.669 363.021 200.635 362.73 200.65 362.44C200.639 361.629 200.726 360.82 200.91 360.03C201.548 357.229 203.247 354.784 205.65 353.21L205.55 353.51C204.826 351.576 204.826 349.445 205.55 347.51C206.011 346.403 206.631 345.369 207.39 344.44C207.998 343.544 208.382 342.515 208.51 341.44C208.63 339.534 209.328 337.71 210.51 336.21C211.216 335.147 212.103 334.217 213.13 333.46C213.407 333.252 213.709 333.08 214.03 332.95C214.119 332.905 214.213 332.871 214.31 332.85Z" fill="#EB996E"/>
<path d="M227.15 338.83C225.871 338.996 224.57 338.858 223.354 338.427C222.138 337.996 221.04 337.285 220.15 336.35C220.25 336.23 221.59 337.26 223.52 337.93C225.45 338.6 227.15 338.68 227.15 338.83Z" fill="#EB996E"/>
<path d="M230.571 353.6C228.64 353.058 226.762 352.342 224.961 351.46C223.089 350.742 221.283 349.865 219.561 348.84C221.487 349.396 223.363 350.112 225.171 350.98C227.042 351.699 228.848 352.575 230.571 353.6Z" fill="#EB996E"/>
<path d="M218.539 360.9C216.598 360.242 214.701 359.461 212.859 358.56C213.903 358.606 214.925 358.872 215.859 359.34C216.856 359.658 217.771 360.191 218.539 360.9Z" fill="#EB996E"/>
<path d="M228.73 354.55C227.869 355.012 227.112 355.645 226.505 356.41C225.897 357.175 225.453 358.057 225.2 359C225.13 359 225.07 358.65 225.2 358.09C225.341 357.356 225.657 356.668 226.119 356.081C226.582 355.495 227.179 355.028 227.86 354.72C228.35 354.51 228.71 354.49 228.73 354.55Z" fill="#EB996E"/>
<path d="M234.089 346.44C234.149 346.58 233.169 347.08 232.509 348.2C232.173 348.911 231.892 349.646 231.669 350.4C231.527 349.987 231.49 349.546 231.559 349.115C231.629 348.684 231.804 348.277 232.069 347.93C232.829 346.65 234.069 346.3 234.089 346.44Z" fill="#EB996E"/>
<path d="M232.58 331.75C232.53 331.75 232.33 331.52 232.18 331.04C232 330.386 232 329.695 232.18 329.04C232.354 328.394 232.7 327.806 233.18 327.34C233.54 326.99 233.84 326.87 233.87 326.92C233.393 327.618 233.007 328.374 232.72 329.17C232.571 330.021 232.524 330.888 232.58 331.75Z" fill="#EB996E"/>
<path d="M340.69 336.35C340.69 336.35 340.02 323.23 326.42 320.51C312.82 317.79 289 329.35 289 329.35L222.26 375.86L224.26 381.61L292 372.17L298.2 374.55L345.78 343.29L390.68 310.83L385.68 306.92C385.68 306.92 373.1 315.59 364.78 319.32C356.46 323.05 344.43 329.59 340.69 336.35Z" fill="#F5F5F5"/>
<path d="M221.23 383.51L277.71 348.42L337.42 338.83C337.42 338.83 340.42 343.17 345.49 342.11L394.59 308.11L395.52 310.16L300.3 377.06C298.902 377.571 297.391 377.69 295.93 377.405C294.469 377.119 293.114 376.44 292.01 375.44L221.23 383.51Z" fill="#455A64"/>
<path d="M337.42 338.83C337.284 338.977 337.13 339.105 336.96 339.21L335.58 340.21C334.38 341.07 332.65 342.32 330.58 343.9C326.34 347.05 320.58 351.54 314.36 356.63C308.14 361.72 302.55 366.45 298.55 369.9L293.78 374L292.48 375.1C292.339 375.24 292.181 375.361 292.01 375.46C292.01 375.46 292.13 375.3 292.41 375.03L293.64 373.85C294.72 372.85 296.29 371.39 298.27 369.64C302.21 366.12 307.74 361.36 313.99 356.25C320.24 351.14 325.99 346.7 330.32 343.62C332.46 342.07 334.23 340.87 335.47 340.06L336.9 339.14C337.063 339.021 337.237 338.917 337.42 338.83Z" fill="#263238"/>
<path d="M336.809 331.53C331.399 325.72 322.879 323.65 314.959 324.27C307.039 324.89 299.529 327.84 292.139 330.77L223.049 378.06L223.669 379.84L293.129 332.84C293.129 332.84 308.649 327.84 315.519 326.98C326.999 325.55 336.809 331.53 336.809 331.53Z" fill="#E0E0E0"/>
<path d="M347.65 337.75L380.87 315.34C380.87 315.34 353.65 329.5 347.65 337.75Z" fill="#E0E0E0"/>
<path d="M223.049 378.06C223.134 377.974 223.228 377.897 223.329 377.83L224.189 377.22L227.499 374.89L239.739 366.41L280.239 338.6L291.999 330.6C298.69 327.581 305.751 325.459 312.999 324.29C318.853 323.463 324.822 324.306 330.219 326.72C332.237 327.659 334.096 328.907 335.729 330.42C336.95 331.558 337.989 332.877 338.809 334.33C339.325 335.241 339.728 336.212 340.009 337.22C340.079 337.55 340.139 337.81 340.189 338.01C340.211 338.099 340.228 338.189 340.239 338.28C339.879 336.931 339.348 335.634 338.659 334.42C337.818 333.005 336.774 331.721 335.559 330.61C333.922 329.144 332.075 327.93 330.079 327.01C324.734 324.687 318.847 323.897 313.079 324.73C305.89 325.908 298.884 328.016 292.239 331H292.289L280.529 339L239.999 366.71L227.659 375.06L224.299 377.3L223.409 377.88C223.295 377.952 223.175 378.013 223.049 378.06Z" fill="#263238"/>
<path d="M283.529 342.31C283.687 342.18 283.862 342.072 284.049 341.99C284.399 341.8 284.919 341.51 285.589 341.17C286.939 340.47 288.909 339.49 291.389 338.37C297.82 335.356 304.644 333.265 311.659 332.16C318.712 331.096 325.917 331.754 332.659 334.08C334.685 334.811 336.632 335.746 338.469 336.87C339.129 337.25 339.599 337.62 339.929 337.87C340.104 337.978 340.268 338.102 340.419 338.24C340.419 338.24 339.689 337.82 338.369 337.07C336.509 336.026 334.558 335.152 332.539 334.46C325.828 332.259 318.694 331.659 311.709 332.71C304.744 333.812 297.955 335.829 291.519 338.71C289.029 339.79 287.039 340.71 285.659 341.36L284.079 342.09C283.904 342.181 283.719 342.255 283.529 342.31Z" fill="#263238"/>
<path d="M388.9 309.42C388.9 309.42 388.76 309.55 388.47 309.75L387.18 310.61L382.39 313.69C378.33 316.29 372.74 319.88 366.61 323.92C360.48 327.96 355 331.67 351 334.37L346.27 337.55L344.97 338.4C344.825 338.506 344.667 338.594 344.5 338.66C344.624 338.529 344.761 338.412 344.91 338.31L346.16 337.38C347.24 336.58 348.82 335.45 350.79 334.06C354.73 331.29 360.21 327.52 366.35 323.48C372.49 319.44 378.12 315.9 382.22 313.38C384.27 312.12 385.94 311.12 387.1 310.44L388.45 309.66C388.592 309.566 388.743 309.486 388.9 309.42Z" fill="#263238"/>
<path d="M358.68 345.38C358.001 347.013 357.139 348.563 356.109 350C354.829 351.52 350.65 353.64 350.32 356.53C349.99 359.42 350.67 366.2 346.15 371.36C343.236 374.57 339.549 376.98 335.44 378.36L317.61 376.62L289.13 365.41C288.493 365.249 287.945 364.844 287.605 364.283C287.264 363.722 287.158 363.049 287.31 362.41C287.486 361.715 287.866 361.089 288.4 360.612C288.935 360.134 289.6 359.827 290.31 359.73L290.99 359.62C290.99 359.62 289.35 358.28 291.7 355.93C293.7 353.93 297.97 355.06 300.17 355.79C302.37 356.52 315.27 361.91 317.58 362.74C319.63 363.47 321.21 364.12 321.21 364.12C321.21 364.12 304.7 352.98 304.47 351.52C304.2 349.77 304.38 348.97 306.07 347.75C308.07 346.3 311.35 347.85 314.53 349.19C316.9 350.19 332.01 357.65 332.01 357.65C332.01 357.65 332.69 356.99 332.01 355.65C331.33 354.31 326.31 347.85 325.52 346.65C324.73 345.45 324.52 344.77 325.31 343.76C326.41 342.33 329.31 341.65 331.98 344.09C333.67 345.65 339.68 349.69 339.68 349.69L367.42 329.45C367.42 329.45 370.87 329.36 369.67 334.17C368.47 338.98 358.68 345.38 358.68 345.38Z" fill="#FFBE9D"/>
<path d="M338 362.25C336.89 362.004 335.856 361.493 334.986 360.762C334.116 360.031 333.434 359.101 333 358.05C333.13 357.97 333.94 359.21 335.32 360.36C336.7 361.51 338.07 362.1 338 362.25Z" fill="#EB996E"/>
<path d="M340.279 350.18C340.279 350.12 340.649 350.01 341.279 350.09C342.065 350.204 342.805 350.532 343.417 351.039C344.029 351.545 344.49 352.21 344.749 352.96C344.939 353.54 344.909 353.96 344.839 353.96C344.42 353.026 343.822 352.184 343.079 351.48C342.239 350.869 341.288 350.428 340.279 350.18Z" fill="#EB996E"/>
<path d="M341.59 355.75C341.44 355.75 341.37 354.26 340.78 352.56C340.19 350.86 339.36 349.61 339.48 349.56C340.359 350.309 340.984 351.311 341.27 352.43C341.718 353.477 341.829 354.637 341.59 355.75Z" fill="#EB996E"/>
<path d="M358 343.94C358 343.99 357.65 343.79 357.29 343.31C356.833 342.673 356.548 341.929 356.46 341.15C356.373 340.371 356.486 339.583 356.79 338.86C357.03 338.32 357.3 338.05 357.35 338.09C356.993 339.048 356.867 340.076 356.98 341.092C357.092 342.108 357.442 343.084 358 343.94Z" fill="#EB996E"/>
<path d="M332.93 369.23C332.288 369.377 331.622 369.377 330.98 369.23C329.426 368.955 327.935 368.399 326.58 367.59C325.231 366.797 323.962 365.876 322.79 364.84C322.268 364.457 321.806 363.999 321.42 363.48C321.995 363.769 322.533 364.128 323.02 364.55C324.239 365.491 325.515 366.356 326.84 367.14C328.152 367.917 329.57 368.5 331.05 368.87C332.19 369.11 332.93 369.15 332.93 369.23Z" fill="#EB996E"/>
<path d="M337.569 366.37C337.709 366.37 337.719 367.37 336.879 368.2C336.039 369.03 335.019 368.99 335.039 368.85C335.059 368.71 335.829 368.51 336.509 367.85C337.189 367.19 337.419 366.35 337.569 366.37Z" fill="#EB996E"/>
<path d="M344.38 361.37C344.44 361.37 344.44 361.64 344.25 362C343.987 362.444 343.592 362.793 343.12 363C342.652 363.228 342.124 363.305 341.61 363.22C341.21 363.14 341.01 362.98 341.04 362.92C341.07 362.86 341.96 363 342.9 362.53C343.84 362.06 344.24 361.32 344.38 361.37Z" fill="#EB996E"/>
<path d="M320.359 372.72C320.309 372.85 313.679 370.09 305.559 366.54C297.439 362.99 290.899 360 290.999 359.88C291.099 359.76 297.689 362.52 305.809 366.07C313.929 369.62 320.419 372.59 320.359 372.72Z" fill="#EB996E"/>
<path d="M437.16 381.64C437.16 381.78 336.34 381.9 212.01 381.9C87.6798 381.9 -13.1602 381.78 -13.1602 381.64C-13.1602 381.5 87.6398 381.38 212.01 381.38C336.38 381.38 437.16 381.49 437.16 381.64Z" fill="#263238"/>
<path d="M-0.28081 275.11L21.4192 381.64H209.769C210.766 381.64 211.723 381.244 212.428 380.539C213.133 379.833 213.529 378.877 213.529 377.88C213.531 377.385 213.434 376.895 213.246 376.438C213.057 375.981 212.781 375.565 212.431 375.215C212.082 374.864 211.667 374.587 211.21 374.397C210.754 374.207 210.264 374.11 209.769 374.11H171.849L151.729 275C151.543 274.075 151.043 273.243 150.314 272.643C149.586 272.044 148.673 271.714 147.729 271.71L3.79919 270.17C3.18502 270.164 2.57721 270.295 2.02023 270.553C1.46326 270.812 0.971201 271.192 0.580079 271.666C0.188958 272.14 -0.0913329 272.695 -0.240287 273.291C-0.389241 273.886 -0.403086 274.508 -0.28081 275.11Z" fill="#E0E0E0"/>
<path d="M-0.280565 275.11L-0.340567 274.79C-0.381269 274.458 -0.381269 274.122 -0.340567 273.79C-0.269531 273.152 -0.05204 272.54 0.294908 272.001C0.641857 271.461 1.10886 271.009 1.65943 270.68C2.04179 270.445 2.46098 270.276 2.89943 270.18C3.38831 270.099 3.88431 270.068 4.37943 270.09H7.76943L16.2494 270.16L70.6794 270.67L108.619 271.06L129.879 271.27L141.019 271.39L146.719 271.45C147.209 271.45 147.659 271.45 148.179 271.45C148.687 271.507 149.182 271.653 149.639 271.88C150.563 272.33 151.293 273.097 151.699 274.04C151.887 274.507 152.021 274.993 152.099 275.49L152.389 276.92C152.579 277.92 152.779 278.84 152.979 279.8C153.366 281.727 153.759 283.667 154.159 285.62C154.953 289.52 155.756 293.47 156.569 297.47C158.196 305.47 159.863 313.647 161.569 322C164.959 338.7 168.499 356.07 172.129 374L171.879 373.8H209.169C209.661 373.782 210.154 373.812 210.639 373.89C211.64 374.105 212.521 374.695 213.099 375.54C213.685 376.382 213.925 377.416 213.769 378.43C213.678 379.044 213.446 379.628 213.09 380.137C212.734 380.645 212.265 381.064 211.719 381.36C211.17 381.653 210.561 381.817 209.939 381.84H109.849H21.4194H21.2594V381.68C14.6194 348.93 9.25944 322.3 5.48944 303.84C3.62944 294.62 2.18943 287.44 1.20943 282.56C0.729432 280.12 0.362767 278.27 0.109434 277.01C-0.140566 275.75 -0.250567 275.11 -0.250567 275.11C-0.250567 275.11 -0.100567 275.75 0.159433 276.99C0.419433 278.23 0.819433 280.11 1.31943 282.53C2.31943 287.41 3.80943 294.58 5.70943 303.8C9.48943 322.25 14.9394 348.87 21.6494 381.6L21.4494 381.44L109.879 381.39H209.899C210.437 381.369 210.963 381.229 211.439 380.98C211.913 380.72 212.32 380.354 212.63 379.912C212.94 379.47 213.145 378.963 213.229 378.43C213.358 377.544 213.152 376.641 212.649 375.9C212.138 375.17 211.37 374.66 210.499 374.47C210.049 374.402 209.594 374.375 209.139 374.39H171.639V374.19C168.009 356.28 164.479 338.91 161.099 322.19C159.399 313.83 157.733 305.65 156.099 297.65L153.699 285.8C153.309 283.85 152.909 281.91 152.519 279.99C152.329 278.99 152.129 278.06 151.939 277.11L151.649 275.67C151.575 275.206 151.454 274.75 151.289 274.31C151.014 273.679 150.577 273.132 150.022 272.724C149.467 272.317 148.814 272.063 148.129 271.99C147.689 271.99 147.189 271.99 146.719 271.99L141.019 271.92L129.869 271.8L108.619 271.55L70.6694 271.1L16.2394 270.43L7.76943 270.32L4.37943 270.27C3.89131 270.24 3.40136 270.267 2.91943 270.35C2.48974 270.439 2.07757 270.597 1.69943 270.82C1.15997 271.135 0.699463 271.569 0.352903 272.089C0.00634363 272.609 -0.217142 273.201 -0.300566 273.82C-0.340283 274.249 -0.333578 274.682 -0.280565 275.11Z" fill="#263238"/>
<path d="M80.2903 330.08C83.7255 330.08 86.5103 327.295 86.5103 323.86C86.5103 320.425 83.7255 317.64 80.2903 317.64C76.8551 317.64 74.0703 320.425 74.0703 323.86C74.0703 327.295 76.8551 330.08 80.2903 330.08Z" fill="white"/>
<path d="M-0.0996094 276C-0.0996094 276 0.120388 276 0.550388 276H9.77039L36.7004 276.13L125.55 276.75L138.4 276.86H141.56C142.099 276.84 142.638 276.873 143.17 276.96C143.984 277.126 144.736 277.513 145.343 278.08C145.95 278.646 146.389 279.37 146.61 280.17C146.85 281.17 147.02 282.17 147.23 283.17L151.82 306.31C154.73 321.06 157.36 334.31 159.56 345.5C161.76 356.69 163.56 365.67 164.74 371.92C165.34 375.03 165.8 377.45 166.12 379.11C166.27 379.92 166.39 380.55 166.47 380.99C166.55 381.43 166.57 381.63 166.57 381.63C166.57 381.63 166.51 381.42 166.42 381C166.33 380.58 166.19 379.94 166.02 379.13L164.54 372C163.28 365.75 161.46 356.74 159.2 345.61C156.94 334.48 154.3 321.18 151.35 306.44C149.88 299.07 148.35 291.33 146.73 283.31C146.52 282.31 146.34 281.31 146.12 280.31C145.857 279.36 145.251 278.541 144.42 278.01C144.009 277.746 143.55 277.563 143.07 277.47C142.568 277.388 142.059 277.358 141.55 277.38H138.4L125.55 277.28L36.7004 276.5L9.77039 276.2L2.45039 276H0.54039H-0.0996094Z" fill="#263238"/>
</g>
<defs>
<clipPath id="clip0_179_2328">
<rect width="396" height="384" fill="white"/>
</clipPath>
</defs>
</svg>
