<svg width="500" height="500" viewBox="0 0 500 500" fill="none" xmlns="http://www.w3.org/2000/svg">
<path d="M296.74 433.74L181.24 433.2C174.577 433.16 168.202 430.478 163.515 425.742C158.827 421.006 156.211 414.603 156.24 407.94L157.46 118.37C157.49 111.702 160.164 105.319 164.897 100.622C169.629 95.925 176.033 93.2987 182.7 93.32L298.2 93.85C304.864 93.8949 311.237 96.5803 315.924 101.317C320.61 106.054 323.227 112.457 323.2 119.12L322 408.68C321.971 415.352 319.294 421.739 314.558 426.439C309.821 431.138 303.413 433.764 296.74 433.74Z" fill="#263238"/>
<path d="M298 103.85L275.6 103.74C274.87 103.753 274.15 103.91 273.48 104.201C272.81 104.493 272.205 104.913 271.698 105.439C271.191 105.964 270.792 106.585 270.525 107.264C270.258 107.944 270.127 108.67 270.14 109.4V113.46C270.153 114.19 270.023 114.916 269.755 115.595C269.488 116.275 269.09 116.895 268.583 117.421C268.076 117.946 267.47 118.367 266.8 118.658C266.131 118.95 265.41 119.107 264.68 119.12L221.03 118.92C219.556 118.878 218.159 118.253 217.145 117.183C216.131 116.113 215.583 114.684 215.62 113.21V109.15C215.658 107.674 215.108 106.244 214.092 105.173C213.076 104.102 211.676 103.479 210.2 103.44H202.33L182.73 103.35C178.055 103.331 173.564 105.169 170.243 108.46C166.923 111.75 165.044 116.225 165.02 120.9L163.83 403.53C163.812 408.202 165.648 412.691 168.937 416.01C172.226 419.328 176.698 421.206 181.37 421.23L296.64 421.76C298.954 421.77 301.247 421.325 303.389 420.449C305.531 419.573 307.479 418.284 309.123 416.656C310.767 415.027 312.073 413.09 312.968 410.957C313.864 408.823 314.33 406.534 314.34 404.22L315.53 121.58C315.547 119.263 315.107 116.967 314.235 114.821C313.362 112.675 312.075 110.723 310.446 109.075C308.818 107.428 306.88 106.119 304.744 105.222C302.608 104.325 300.317 103.859 298 103.85Z" fill="#FAFAFA"/>
<path d="M232.801 394.66C232.874 395.147 232.797 395.645 232.579 396.086C232.361 396.528 232.013 396.892 231.581 397.13C231.15 397.368 230.656 397.468 230.166 397.417C229.676 397.365 229.214 397.165 228.841 396.842C228.469 396.52 228.204 396.091 228.082 395.614C227.961 395.137 227.988 394.634 228.162 394.172C228.335 393.711 228.645 393.314 229.051 393.035C229.457 392.755 229.938 392.607 230.431 392.61C231.015 392.574 231.591 392.768 232.034 393.151C232.477 393.535 232.752 394.076 232.801 394.66Z" fill="#455A64"/>
<path d="M240.171 394.7C240.243 395.187 240.164 395.684 239.944 396.125C239.724 396.565 239.375 396.928 238.943 397.164C238.512 397.4 238.018 397.499 237.528 397.446C237.039 397.393 236.577 397.192 236.206 396.869C235.834 396.546 235.571 396.117 235.45 395.64C235.33 395.162 235.358 394.66 235.532 394.199C235.706 393.739 236.016 393.342 236.422 393.064C236.828 392.785 237.309 392.637 237.801 392.64C238.388 392.604 238.965 392.8 239.408 393.185C239.851 393.57 240.125 394.114 240.171 394.7Z" fill="#455A64"/>
<path d="M247.541 394.73C247.615 395.217 247.537 395.715 247.319 396.156C247.101 396.598 246.753 396.962 246.321 397.2C245.89 397.438 245.396 397.538 244.906 397.486C244.416 397.435 243.954 397.235 243.581 396.912C243.209 396.59 242.944 396.161 242.822 395.684C242.701 395.207 242.729 394.703 242.902 394.242C243.075 393.781 243.385 393.384 243.791 393.105C244.197 392.825 244.678 392.677 245.171 392.68C245.756 392.641 246.333 392.835 246.777 393.218C247.22 393.602 247.495 394.145 247.541 394.73Z" fill="#455A64"/>
<path d="M199.52 240.1C201.4 240.37 314.7 262.59 314.7 262.59V240.1H199.52Z" fill="#EBEBEB"/>
<path d="M163.871 382.9C163.871 382.9 287.131 365.46 286.051 366C284.971 366.54 163.871 366 163.871 366V382.9Z" fill="#EBEBEB"/>
<path d="M307 52.9097C307.14 52.9097 307.26 59.1397 307.26 66.8197C307.26 74.4997 307.14 80.7397 307 80.7397C306.86 80.7397 306.74 74.5097 306.74 66.8197C306.74 59.1297 306.86 52.9097 307 52.9097Z" fill="#263238"/>
<path d="M356.33 84.9399C356.39 85.0699 350.73 87.6899 343.7 90.7899C336.67 93.8899 330.92 96.3099 330.86 96.1699C330.8 96.0299 336.46 93.4199 343.49 90.3199C350.52 87.2199 356.27 84.7999 356.33 84.9399Z" fill="#263238"/>
<path d="M355.08 36.3599C355.021 36.5519 354.933 36.7339 354.82 36.8999C354.59 37.2799 354.31 37.7699 353.96 38.3699C353.21 39.6499 352.1 41.4799 350.7 43.7199C347.9 48.2199 343.87 54.3199 339.3 60.9799C334.73 67.6399 330.67 73.7099 327.79 78.1499C326.38 80.3199 325.23 82.1499 324.39 83.4099L323.45 84.8299C323.35 85.0041 323.229 85.1653 323.09 85.3099C323.164 85.1223 323.254 84.9416 323.36 84.7699C323.59 84.3899 323.87 83.8999 324.22 83.2999C324.96 82.0199 326.08 80.1999 327.48 77.9499C330.28 73.4499 334.31 67.3499 338.87 60.6899C343.43 54.0299 347.51 47.9999 350.39 43.5299L353.79 38.2599L354.73 36.8399C354.833 36.6705 354.95 36.51 355.08 36.3599Z" fill="#263238"/>
<path d="M424.231 154.09H198.781C197.623 154.09 196.476 154.318 195.407 154.761C194.337 155.205 193.366 155.855 192.548 156.674C191.729 157.493 191.081 158.465 190.638 159.535C190.196 160.605 189.969 161.752 189.971 162.91V232.84C189.969 233.998 190.196 235.144 190.638 236.214C191.081 237.284 191.729 238.257 192.548 239.076C193.366 239.895 194.337 240.545 195.407 240.988C196.476 241.432 197.623 241.66 198.781 241.66H215.581C216.931 248.96 218.511 258.17 218.511 258.17L233.711 241.66H424.231C425.389 241.66 426.535 241.432 427.604 240.988C428.674 240.545 429.646 239.895 430.464 239.076C431.282 238.257 431.931 237.284 432.373 236.214C432.815 235.144 433.042 233.998 433.041 232.84V162.91C433.042 161.752 432.815 160.605 432.373 159.535C431.931 158.465 431.282 157.493 430.464 156.674C429.646 155.855 428.674 155.205 427.604 154.761C426.535 154.318 425.389 154.09 424.231 154.09Z" fill="#FED161"/>
<path d="M331.211 192C331.211 192.14 304.381 192.26 271.291 192.26C238.201 192.26 211.361 192.14 211.361 192C211.361 191.86 238.191 191.73 271.291 191.73C304.391 191.73 331.211 191.88 331.211 192Z" fill="#263238"/>
<path d="M331.211 181.28C331.211 181.42 304.381 181.54 271.291 181.54C238.201 181.54 211.361 181.42 211.361 181.28C211.361 181.14 238.191 181.02 271.291 181.02C304.391 181.02 331.211 181.13 331.211 181.28Z" fill="#263238"/>
<path d="M331.211 202.66C331.211 202.8 304.381 202.92 271.291 202.92C238.201 202.92 211.361 202.8 211.361 202.66C211.361 202.52 238.191 202.4 271.291 202.4C304.391 202.4 331.211 202.51 331.211 202.66Z" fill="#263238"/>
<path d="M289.861 213.67C289.861 213.81 272.291 213.93 250.611 213.93C228.931 213.93 211.361 213.81 211.361 213.67C211.361 213.53 228.931 213.41 250.611 213.41C272.291 213.41 289.861 213.52 289.861 213.67Z" fill="#263238"/>
<path d="M322.36 279.82H95.0704C94.259 279.819 93.4552 279.978 92.7054 280.288C91.9556 280.598 91.2744 281.053 90.7011 281.628C90.1278 282.202 89.6735 282.884 89.3645 283.634C89.0555 284.384 88.8978 285.188 88.9004 286V360C88.9004 361.636 89.5505 363.206 90.7076 364.363C91.8647 365.52 93.434 366.17 95.0704 366.17H260.15L275.15 382.5C275.15 382.5 276.72 373.32 278.05 366.17H322.33C323.967 366.17 325.536 365.52 326.693 364.363C327.85 363.206 328.5 361.636 328.5 360V286C328.503 285.191 328.346 284.389 328.039 283.641C327.732 282.893 327.281 282.212 326.71 281.638C326.14 281.064 325.463 280.608 324.716 280.296C323.97 279.984 323.169 279.822 322.36 279.82Z" fill="#455A64"/>
<path d="M313.45 318C313.45 318.14 286.62 318.26 253.52 318.26C220.42 318.26 193.59 318.14 193.59 318C193.59 317.86 220.42 317.74 253.52 317.74C286.62 317.74 313.45 317.82 313.45 318Z" fill="#F5F5F5"/>
<path d="M313.45 307.22C313.45 307.36 286.62 307.48 253.52 307.48C220.42 307.48 193.59 307.36 193.59 307.22C193.59 307.08 220.42 306.96 253.52 306.96C286.62 306.96 313.45 307.07 313.45 307.22Z" fill="#F5F5F5"/>
<path d="M313.45 328.6C313.45 328.74 286.62 328.86 253.52 328.86C220.42 328.86 193.59 328.74 193.59 328.6C193.59 328.46 220.42 328.34 253.52 328.34C286.62 328.34 313.45 328.46 313.45 328.6Z" fill="#F5F5F5"/>
<path d="M272.1 339.61C272.1 339.76 254.53 339.87 232.85 339.87C211.17 339.87 193.59 339.76 193.59 339.61C193.59 339.46 211.17 339.35 232.85 339.35C254.53 339.35 272.1 339.47 272.1 339.61Z" fill="#F5F5F5"/>
<path d="M367.55 124.43C367.69 122.59 366.05 120.06 364.55 118.6C363.68 117.817 363.059 116.797 362.763 115.665C362.466 114.533 362.507 113.339 362.88 112.23C363.49 109.96 364.93 110.13 365.5 108.79C365.777 107.754 365.888 106.681 365.83 105.61C365.948 104.706 366.252 103.835 366.722 103.053C367.192 102.271 367.818 101.595 368.561 101.066C369.305 100.536 370.149 100.166 371.041 99.9776C371.934 99.7891 372.856 99.7866 373.75 99.9702C374.246 98.1956 375.265 96.6113 376.673 95.4229C378.082 94.2346 379.815 93.4971 381.648 93.3063C383.481 93.1154 385.329 93.48 386.952 94.3527C388.575 95.2255 389.898 96.566 390.75 98.2002C391.785 97.6742 392.934 97.4113 394.095 97.4348C395.256 97.4582 396.393 97.7673 397.406 98.3347C398.42 98.9021 399.277 99.7104 399.904 100.688C400.531 101.666 400.907 102.783 401 103.94C402.049 103.271 403.305 103.003 404.537 103.187C405.768 103.371 406.891 103.993 407.7 104.94C408.459 105.931 408.909 107.123 408.994 108.368C409.08 109.613 408.796 110.855 408.18 111.94C407.546 113.016 406.677 113.935 405.638 114.628C404.599 115.32 403.417 115.769 402.18 115.94C399.699 116.255 397.181 115.798 394.97 114.63C392.767 113.47 390.768 111.961 389.05 110.16" fill="#263238"/>
<path d="M383.899 239.35C407.808 239.35 427.189 220.421 427.189 197.07C427.189 173.719 407.808 154.79 383.899 154.79C359.991 154.79 340.609 173.719 340.609 197.07C340.609 220.421 359.991 239.35 383.899 239.35Z" fill="#E0E0E0"/>
<path d="M427.37 197.1L422.58 184.82L405.41 195.61L420.71 219.2C420.71 219.2 426.93 211.12 427.37 197.1Z" fill="#EB996E"/>
<path d="M379.999 170.5C382.957 170.518 385.808 169.397 387.962 167.369C390.116 165.342 391.408 162.564 391.569 159.61C391.819 154.52 392.039 149.61 392.039 149.61C392.039 149.61 401.479 148.93 402.349 139.69C403.219 130.45 403.349 109.1 403.349 109.1C398.228 106.412 392.485 105.128 386.706 105.38C380.928 105.631 375.318 107.408 370.449 110.53L369.549 111.1L368.459 158.9C368.449 160.422 368.74 161.93 369.315 163.338C369.89 164.746 370.739 166.027 371.812 167.105C372.885 168.184 374.161 169.039 375.566 169.622C376.971 170.204 378.478 170.503 379.999 170.5Z" fill="#FFBE9D"/>
<path d="M385.379 123.32C385.628 123.408 385.845 123.567 386.004 123.777C386.162 123.988 386.256 124.24 386.271 124.504C386.287 124.767 386.225 125.029 386.093 125.257C385.96 125.485 385.764 125.669 385.527 125.785C385.291 125.902 385.026 125.947 384.764 125.913C384.503 125.88 384.257 125.77 384.057 125.598C383.858 125.425 383.714 125.198 383.643 124.944C383.572 124.69 383.578 124.421 383.659 124.17C383.775 123.83 384.021 123.55 384.344 123.39C384.666 123.231 385.038 123.206 385.379 123.32Z" fill="#263238"/>
<path d="M388 123.8C387.84 123.95 387 123.19 385.68 123.11C384.36 123.03 383.42 123.63 383.29 123.46C383.16 123.29 383.39 123.1 383.81 122.82C384.385 122.457 385.062 122.289 385.74 122.34C386.415 122.386 387.057 122.649 387.57 123.09C387.92 123.43 388.05 123.73 388 123.8Z" fill="#263238"/>
<path d="M399.479 123.32C399.727 123.408 399.945 123.567 400.103 123.777C400.262 123.988 400.355 124.24 400.371 124.504C400.387 124.767 400.325 125.029 400.192 125.257C400.06 125.485 399.863 125.669 399.627 125.785C399.391 125.902 399.125 125.947 398.864 125.913C398.602 125.88 398.356 125.77 398.157 125.598C397.958 125.425 397.813 125.198 397.743 124.944C397.672 124.69 397.677 124.421 397.759 124.17C397.875 123.83 398.121 123.55 398.443 123.39C398.766 123.231 399.138 123.206 399.479 123.32Z" fill="#263238"/>
<path d="M402.24 123.82C402.09 123.98 401.24 123.22 399.92 123.14C398.6 123.06 397.66 123.66 397.53 123.49C397.4 123.32 397.63 123.13 398.06 122.85C398.631 122.486 399.305 122.318 399.98 122.37C400.658 122.418 401.303 122.681 401.82 123.12C402.2 123.46 402.32 123.76 402.24 123.82Z" fill="#263238"/>
<path d="M392.539 133.81C393.222 133.6 393.935 133.508 394.649 133.54C394.989 133.54 395.259 133.48 395.299 133.3C395.346 132.959 395.29 132.611 395.139 132.3C394.879 131.43 394.609 130.55 394.329 129.63C393.229 125.83 392.499 122.71 392.689 122.63C392.879 122.55 393.939 125.63 395.039 129.41C395.299 130.33 395.539 131.22 395.789 132.09C395.97 132.536 395.995 133.029 395.859 133.49C395.799 133.615 395.711 133.724 395.601 133.809C395.492 133.894 395.365 133.953 395.229 133.98C395.036 134.004 394.842 134.004 394.649 133.98C393.941 134.044 393.228 133.987 392.539 133.81Z" fill="#263238"/>
<path d="M391.999 149.49C387.691 149.224 383.558 147.689 380.119 145.08C380.119 145.08 382.449 151.97 391.829 151.89L391.999 149.49Z" fill="#EB996E"/>
<path d="M369.269 124.68C369.277 124.317 369.144 123.965 368.898 123.699C368.652 123.432 368.311 123.271 367.949 123.25C366.209 123.17 363.349 123.8 362.949 128.56C362.429 135.36 369.069 133.79 369.099 133.56C369.129 133.33 369.239 127.33 369.269 124.68Z" fill="#FFBE9D"/>
<path d="M367.68 130.89C367.68 130.89 367.55 130.97 367.34 131.04C367.199 131.099 367.048 131.129 366.895 131.129C366.742 131.129 366.591 131.099 366.45 131.04C366.028 130.73 365.696 130.312 365.491 129.83C365.285 129.348 365.212 128.82 365.28 128.3C365.305 127.716 365.462 127.145 365.74 126.63C365.826 126.42 365.962 126.233 366.136 126.087C366.31 125.94 366.517 125.839 366.74 125.79C366.88 125.762 367.025 125.785 367.15 125.855C367.275 125.925 367.37 126.036 367.42 126.17C367.5 126.36 367.42 126.5 367.48 126.51C367.54 126.52 367.64 126.41 367.6 126.12C367.575 125.95 367.49 125.794 367.36 125.68C367.184 125.524 366.955 125.441 366.72 125.45C366.43 125.487 366.156 125.599 365.922 125.774C365.689 125.949 365.506 126.183 365.39 126.45C365.047 127.012 364.854 127.653 364.83 128.31C364.752 128.915 364.855 129.529 365.126 130.075C365.396 130.622 365.822 131.076 366.35 131.38C366.531 131.446 366.724 131.471 366.916 131.453C367.108 131.436 367.293 131.377 367.46 131.28C367.65 131.06 367.7 130.91 367.68 130.89Z" fill="#EB996E"/>
<path d="M381.88 120.17C382.22 120.61 383.4 120.41 384.94 120.34C386.48 120.27 387.67 120.28 387.94 119.8C388.21 119.32 386.78 118.17 384.8 118.34C382.82 118.51 381.5 119.72 381.88 120.17Z" fill="#263238"/>
<path d="M396.86 119.72C397.04 120.31 398.17 120.49 399.42 120.48C400.67 120.47 401.79 120.25 401.96 119.65C402.13 119.05 400.96 118.24 399.39 118.26C397.82 118.28 396.67 119.14 396.86 119.72Z" fill="#263238"/>
<path d="M404.619 112C404.619 112 399.009 114.72 391.719 111.08C386.929 108.69 381.359 107.52 380.129 108.48C378.899 109.44 378.639 114.38 373.899 115.82C373.899 115.82 374.219 125.22 370.469 124.89C366.719 124.56 369.059 110 369.059 110L378.239 105.52L388.239 103.63L397.669 104.96L404.969 106.96L404.619 112Z" fill="#263238"/>
<path d="M341.811 166.48C351.621 156.39 368.881 157.48 368.881 157.48L383.191 167.73L391.301 158.28C397.051 159.063 402.632 160.79 407.821 163.39L408.371 163.56V163.67C414.651 167.08 423.531 175.26 432.001 183.19L421.871 192.59L410.651 202.59C410.676 202.654 410.676 202.726 410.651 202.79C410.541 203.4 412.211 217.09 413.931 227.49C409.047 232.307 403.064 235.861 396.499 237.845C389.934 239.83 382.984 240.185 376.251 238.88C371.661 238.07 369.441 236.96 365.191 235.88C362.128 235.069 359.391 233.332 357.353 230.907C355.314 228.482 354.074 225.486 353.801 222.33C353.041 213.61 352.461 202.81 352.461 202.81" fill="#455A64"/>
<path d="M400.27 160.05C400.52 160.569 400.728 161.107 400.89 161.66C401.26 162.66 401.75 164.23 402.34 166.12C403.52 169.9 405.03 175.12 406.45 181.05C407.87 186.98 408.94 192.31 409.61 196.21C409.95 198.21 410.2 199.75 410.35 200.85C410.457 201.415 410.52 201.986 410.54 202.56C410.363 202.012 410.233 201.45 410.15 200.88C409.92 199.71 409.62 198.16 409.25 196.28C408.48 192.4 407.36 187.05 405.94 181.17C404.52 175.29 403.08 170 402 166.23L400.7 161.72C400.517 161.174 400.374 160.616 400.27 160.05Z" fill="#263238"/>
<path d="M409.48 196.1C409.39 195.99 413.67 192.35 419.04 187.98C424.41 183.61 428.83 180.15 428.92 180.26C429.01 180.37 424.74 184.01 419.37 188.38C414 192.75 409.58 196.21 409.48 196.1Z" fill="#263238"/>
<path opacity="0.2" d="M354.76 180.32L346 209.19L349.27 210.89L352.49 202.73C352.49 202.73 355.77 185.57 354.76 180.32Z" fill="black"/>
<g opacity="0.2">
<path d="M399.32 160.07C404.05 162.56 392.19 168.56 386.84 168.4L390.73 158.14C390.73 158.14 397.73 159.23 399.32 160.07Z" fill="black"/>
</g>
<path d="M367.471 158.14V150.49C367.471 150.49 382.401 154.34 382.941 163.27C382.941 163.27 384.841 153.39 392.541 152.92L393.631 166.81L384.631 174.61H375.601L368.411 168.4L367.471 158.76" fill="#455A64"/>
<path d="M386.311 206.13C386.259 205.585 386.259 205.036 386.311 204.49C386.311 203.43 386.311 201.9 386.361 200.01C386.361 196.24 386.251 191.01 385.781 185.28C385.311 179.55 384.551 174.37 383.921 170.65C383.601 168.86 383.331 167.38 383.131 166.25C383.001 165.715 382.921 165.17 382.891 164.62C383.078 165.138 383.225 165.67 383.331 166.21C383.591 167.21 383.921 168.73 384.281 170.59C385.206 175.435 385.873 180.325 386.281 185.24C386.685 190.156 386.825 195.089 386.701 200.02C386.651 201.91 386.581 203.44 386.491 204.5C386.469 205.047 386.409 205.592 386.311 206.13Z" fill="#263238"/>
<path d="M382.259 160.7C381.961 160.65 381.654 160.677 381.369 160.78C380.636 161.193 380.097 161.88 379.869 162.69C378.636 165.357 377.675 168.141 376.999 171L376.919 171.34L376.619 171.16C375.729 170.62 374.809 170.04 373.889 169.42C372.213 168.279 370.597 167.05 369.049 165.74C368.345 165.152 367.781 164.414 367.399 163.58C367.099 162.845 366.929 162.064 366.899 161.27C366.869 160.147 366.98 159.025 367.229 157.93C367.289 157.521 367.4 157.122 367.559 156.74C367.547 157.15 367.503 157.557 367.429 157.96C367.26 159.048 367.206 160.151 367.269 161.25C367.317 161.993 367.497 162.721 367.799 163.4C368.166 164.176 368.702 164.86 369.369 165.4C370.779 166.58 372.419 167.8 374.179 169C375.099 169.62 375.999 170.21 376.889 170.75L376.509 170.91C377.178 168.038 378.185 165.255 379.509 162.62C379.713 162.159 379.975 161.725 380.289 161.33C380.535 161.025 380.866 160.799 381.239 160.68C381.999 160.44 382.279 160.69 382.259 160.7Z" fill="#263238"/>
<path d="M392.539 152.92C392.63 153.311 392.677 153.71 392.679 154.11L392.919 157.37C393.029 158.74 393.199 160.37 393.479 162.16C393.719 163.121 393.78 164.118 393.659 165.1C393.28 166.131 392.579 167.011 391.659 167.61C390.49 168.336 389.392 169.17 388.379 170.1L387.979 170.55V169.95C387.798 167.338 387.043 164.798 385.769 162.51C384.819 160.8 384.039 159.93 384.099 159.88C384.159 159.83 384.339 160.06 384.689 160.47C385.191 161.06 385.646 161.689 386.049 162.35C387.44 164.649 388.272 167.242 388.479 169.92L388.039 169.77C389.066 168.8 390.189 167.936 391.389 167.19C392.202 166.657 392.825 165.88 393.169 164.97C393.274 164.055 393.22 163.128 393.009 162.23C392.759 160.42 392.629 158.77 392.559 157.39C392.489 156.01 392.479 154.89 392.489 154.12C392.455 153.72 392.472 153.317 392.539 152.92Z" fill="#263238"/>
<path d="M440.61 154.84C440 155.55 418 185 418 185L421.1 186.76L443.66 157.76L440.61 154.84Z" fill="#263238"/>
<path d="M352.279 178.08C352.279 178.08 375.409 211.38 376.809 212.03C379.549 213.32 411.189 185.98 414.209 183.36C414.629 182.8 415.489 181.63 417.209 179.3C417.209 179.3 419.709 167.88 422.369 168.75C425.029 169.62 420.909 174.56 422.649 178.9C424.389 183.24 432.329 172.9 432.649 171.96L434.7 169.28C434.7 169.28 436.85 175.37 436.7 177.92C436.23 186.07 428.519 195.76 428.519 195.76C428.519 195.76 393.89 238.66 370.17 239.99C363.34 240.37 351.169 220.99 343.079 206.45C340.717 202.205 339.989 197.241 341.034 192.496C342.078 187.751 344.823 183.552 348.75 180.69L352.279 178.08Z" fill="#FFBE9D"/>
<path d="M432.77 179.36C433.213 178.336 433.707 177.335 434.25 176.36C434.696 175.334 435.197 174.333 435.75 173.36C435.12 175.525 434.103 177.558 432.75 179.36H432.77Z" fill="#EB996E"/>
<path d="M348.37 161.83C348.37 161.83 323.54 170.66 342 212.41L370.66 195.11L366.58 185.35L348.37 161.83Z" fill="#455A64"/>
<path d="M346.47 162.56C347.477 162.467 348.492 162.551 349.47 162.81C350.614 163.107 351.709 163.568 352.72 164.18C354.056 165.013 355.274 166.022 356.34 167.18C359.048 170.205 361.316 173.594 363.08 177.25C365.18 181.31 367.14 185.94 369.15 190.79C369.75 192.25 370.35 193.68 370.91 195.04L371 195.26L370.79 195.37C362.5 199.89 355.28 204.12 350.18 207.29C347.62 208.87 345.59 210.17 344.18 211.07L342.58 212.07C342.397 212.198 342.203 212.308 342 212.4C342.159 212.246 342.333 212.109 342.52 211.99C342.87 211.73 343.39 211.35 344.08 210.88C345.44 209.88 347.45 208.58 349.98 206.96C355.04 203.71 362.24 199.41 370.54 194.88L370.42 195.2C369.86 193.84 369.26 192.41 368.66 190.95C366.66 186.1 364.66 181.48 362.66 177.43C360.93 173.814 358.717 170.45 356.08 167.43C355.049 166.282 353.873 165.273 352.58 164.43C351.591 163.81 350.521 163.329 349.4 163C348.438 162.771 347.457 162.624 346.47 162.56Z" fill="#263238"/>
<path d="M399.871 100.66C399.934 100.799 399.974 100.948 399.991 101.1C400.066 101.526 400.093 101.959 400.071 102.39C399.975 104.014 399.301 105.55 398.171 106.72C397.312 107.577 396.238 108.186 395.063 108.483C393.887 108.781 392.653 108.755 391.491 108.41C390.083 108.036 388.864 107.152 388.071 105.93C387.65 105.256 387.471 104.459 387.561 103.67C387.606 103.259 387.739 102.862 387.952 102.506C388.164 102.151 388.45 101.845 388.791 101.61C389.146 101.386 389.551 101.255 389.97 101.227C390.389 101.199 390.809 101.276 391.191 101.45C391.932 101.765 392.521 102.357 392.831 103.1C393.077 103.793 393.146 104.538 393.031 105.264C392.915 105.991 392.62 106.677 392.171 107.26C391.42 108.232 390.35 108.907 389.15 109.167C387.949 109.427 386.696 109.255 385.611 108.68C384.827 108.27 383.998 107.955 383.141 107.74C382.499 107.596 381.828 107.666 381.231 107.94C380.73 108.21 380.255 108.525 379.811 108.88C379.811 108.88 379.901 108.75 380.101 108.53C380.224 108.393 380.361 108.269 380.511 108.16C380.706 107.998 380.921 107.86 381.151 107.75C381.769 107.441 382.469 107.336 383.151 107.45C384.041 107.643 384.904 107.945 385.721 108.35C386.184 108.554 386.666 108.712 387.161 108.82C387.693 108.92 388.238 108.92 388.771 108.82C389.968 108.63 391.044 107.981 391.771 107.01C392.166 106.493 392.426 105.886 392.527 105.244C392.628 104.601 392.568 103.943 392.351 103.33C392.231 103.02 392.048 102.739 391.813 102.504C391.578 102.269 391.296 102.086 390.986 101.968C390.676 101.849 390.344 101.797 390.012 101.814C389.681 101.832 389.356 101.919 389.061 102.07C388.784 102.268 388.553 102.521 388.38 102.814C388.208 103.107 388.099 103.433 388.061 103.77C387.989 104.444 388.144 105.123 388.501 105.7C389.226 106.817 390.336 107.628 391.621 107.98C392.705 108.313 393.859 108.35 394.963 108.088C396.067 107.826 397.081 107.274 397.901 106.49C399 105.395 399.689 103.954 399.851 102.41C399.893 101.828 399.9 101.243 399.871 100.66Z" fill="#455A64"/>
<path d="M394.46 138.37C394.46 138.43 394.16 138.57 393.61 138.59C392.889 138.6 392.177 138.436 391.533 138.112C390.889 137.788 390.332 137.314 389.91 136.73C389.61 136.27 389.52 135.94 389.58 135.91C390.238 136.575 390.973 137.159 391.77 137.65C392.635 137.997 393.538 138.239 394.46 138.37Z" fill="#263238"/>
<path d="M368.239 134C368.289 134 368.569 134.44 368.239 135.13C368.135 135.325 367.993 135.497 367.821 135.636C367.649 135.775 367.452 135.879 367.239 135.94C366.967 136.001 366.684 135.996 366.414 135.924C366.145 135.853 365.896 135.718 365.689 135.53C365.464 135.346 365.284 135.112 365.164 134.847C365.045 134.581 364.988 134.291 364.999 134C365.017 133.561 365.178 133.139 365.459 132.8C365.939 132.24 366.459 132.18 366.459 132.24C366.459 132.3 366.099 132.49 365.779 133.02C365.575 133.328 365.486 133.698 365.53 134.065C365.574 134.431 365.748 134.77 366.019 135.02C366.167 135.154 366.342 135.253 366.532 135.31C366.722 135.367 366.923 135.381 367.119 135.35C367.449 135.276 367.741 135.084 367.939 134.81C368.259 134.4 368.159 134 368.239 134Z" fill="#263238"/>
<path d="M401.519 104C401.848 104.556 402.014 105.194 401.999 105.84C402.078 107.419 401.543 108.968 400.507 110.162C399.471 111.357 398.013 112.105 396.439 112.25C395.801 112.359 395.145 112.283 394.549 112.03C394.549 111.94 395.279 112.03 396.389 111.88C397.83 111.659 399.146 110.935 400.105 109.837C401.063 108.739 401.603 107.337 401.629 105.88C401.659 104.74 401.429 104.05 401.519 104Z" fill="#455A64"/>
<path d="M367.7 187.7C367.76 187.83 361.17 191.22 352.97 195.27C344.77 199.32 338.08 202.51 337.97 202.38C337.86 202.25 344.49 198.86 352.69 194.8C360.89 190.74 367.64 187.57 367.7 187.7Z" fill="#E0E0E0"/>
<path d="M361.689 176.36C361.759 176.48 355.889 179.77 348.579 183.69C341.269 187.61 335.289 190.69 335.229 190.56C335.169 190.43 341.029 187.15 348.339 183.23C355.649 179.31 361.619 176.23 361.689 176.36Z" fill="#E0E0E0"/>
<path d="M355.879 167.19C354.945 167.837 353.966 168.415 352.949 168.92L345.769 172.92L338.629 177C337.669 177.611 336.666 178.153 335.629 178.62C336.512 177.898 337.456 177.252 338.449 176.69C340.229 175.56 342.719 174.06 345.519 172.47C348.319 170.88 350.899 169.54 352.789 168.6C353.777 168.043 354.81 167.571 355.879 167.19Z" fill="#E0E0E0"/>
<path d="M377.85 165C377.173 164.969 376.511 164.791 375.91 164.48C374.444 163.823 373.093 162.935 371.91 161.85C370.723 160.766 369.632 159.582 368.65 158.31C368.201 157.82 367.821 157.272 367.52 156.68C367.58 156.68 368.1 157.17 368.93 158.08C369.76 158.99 370.88 160.23 372.26 161.46C373.422 162.516 374.716 163.417 376.11 164.14C377.14 164.71 377.87 164.94 377.85 165Z" fill="#E0E0E0"/>
<path d="M392.429 159.6C392.098 160.806 391.369 161.863 390.359 162.6C389.463 163.474 388.295 164.014 387.049 164.13C388.085 163.545 389.087 162.901 390.049 162.2C390.885 161.374 391.679 160.506 392.429 159.6Z" fill="#E0E0E0"/>
<path d="M418.44 174.65C418.258 174.707 418.07 174.74 417.88 174.75L416.27 174.95C414.87 175.11 412.84 175.3 410.34 175.5C405.34 175.9 398.34 176.29 390.71 176.57C383.08 176.85 376.09 176.94 371.05 176.9C368.54 176.9 366.5 176.83 365.1 176.78L363.48 176.7C363.291 176.701 363.103 176.677 362.92 176.63C363.106 176.607 363.294 176.607 363.48 176.63H365.1L371.05 176.58C376.05 176.53 383.05 176.37 390.69 176.1C398.33 175.83 405.29 175.48 410.31 175.18L416.25 174.8L417.87 174.7C418.057 174.658 418.249 174.641 418.44 174.65Z" fill="#E0E0E0"/>
<path d="M410.539 186.51C409.999 186.634 409.451 186.721 408.899 186.77C407.829 186.9 406.289 187.06 404.389 187.24C400.579 187.59 395.309 187.95 389.479 188.19C383.649 188.43 378.359 188.48 374.479 188.44C372.569 188.44 371.019 188.38 369.949 188.34C369.393 188.345 368.838 188.301 368.289 188.21C368.84 188.144 369.395 188.118 369.949 188.13L374.479 188.07C378.299 188.07 383.579 187.9 389.399 187.67C395.219 187.44 400.499 187.13 404.309 186.87L408.829 186.56C409.396 186.49 409.969 186.473 410.539 186.51Z" fill="#E0E0E0"/>
<path d="M392.61 201.13C391.522 201.382 390.415 201.539 389.3 201.6C387.24 201.81 384.4 202.04 381.25 202.2C378.1 202.36 375.25 202.41 373.18 202.4C372.065 202.453 370.947 202.409 369.84 202.27C370.942 202.102 372.055 202.022 373.17 202.03L381.22 201.68L389.22 201.23C390.346 201.119 391.479 201.086 392.61 201.13Z" fill="#E0E0E0"/>
<path d="M369.7 166.43C369.7 166.58 366.63 166.61 362.85 166.77C359.07 166.93 356.02 167.14 356 166.99C360.521 166.191 365.129 166.003 369.7 166.43Z" fill="#E0E0E0"/>
<path d="M411.879 165.89C408.926 166.133 405.961 166.207 402.999 166.11C400.033 166.188 397.064 166.091 394.109 165.82C397.066 165.57 400.034 165.494 402.999 165.59C405.963 165.511 408.928 165.612 411.879 165.89Z" fill="#E0E0E0"/>
<path d="M413.419 226.74C413.138 226.949 412.832 227.124 412.509 227.26C411.909 227.57 411.019 227.98 409.909 228.45C406.993 229.651 403.982 230.611 400.909 231.32C397.837 232.021 394.714 232.472 391.569 232.67C390.369 232.74 389.389 232.76 388.709 232.74C388.374 232.756 388.038 232.732 387.709 232.67C387.709 232.59 389.189 232.53 391.579 232.3C394.691 232.001 397.781 231.503 400.829 230.81C403.886 230.108 406.893 229.203 409.829 228.1C411.999 227.26 413.389 226.66 413.419 226.74Z" fill="#E0E0E0"/>
<path d="M143.29 362.85C167.198 362.85 186.58 344.359 186.58 321.55C186.58 298.741 167.198 280.25 143.29 280.25C119.382 280.25 100 298.741 100 321.55C100 344.359 119.382 362.85 143.29 362.85Z" fill="#E0E0E0"/>
<path d="M134.47 222C127.61 222.36 124.91 229.52 124.09 231.12C123.386 232.778 123.012 234.558 122.99 236.36C122.969 238.164 122.517 239.937 121.67 241.53C120.16 243.94 116.98 245.19 116.12 247.9C115.12 250.97 117.65 254.25 116.98 257.4C116.62 259.09 115.39 260.48 114.98 262.15C114.602 263.935 114.936 265.797 115.91 267.34C118.16 271.22 122.84 273.16 127.32 273.34C131.8 273.52 136.18 272.16 140.47 270.84" fill="#263238"/>
<path d="M164.689 230.88C164.426 231.638 164.38 232.455 164.557 233.238C164.734 234.021 165.126 234.738 165.689 235.31C166.841 236.415 168.086 237.418 169.409 238.31C170.071 238.766 170.635 239.347 171.071 240.022C171.507 240.696 171.806 241.45 171.949 242.24C172.079 243.7 171.339 245.16 171.539 246.61C172.059 250.36 178.029 251.48 178.339 255.24C178.559 257.75 175.979 260.06 176.699 262.47C177.089 263.374 177.593 264.224 178.199 265C179.899 267.82 178.749 271.7 176.289 273.88C173.829 276.06 170.429 276.83 167.149 276.98C164.389 277.1 161.249 276.65 159.629 274.42C158.139 272.37 158.449 269.59 158.739 267.08C160.129 255.36 159.889 243.52 159.659 231.72" fill="#263238"/>
<path d="M136.28 285.11C136.33 278.95 136.28 272.47 136.28 272.47C136.28 272.47 128.37 271.06 126.84 260.7C125.39 250.81 127.84 229.55 127.84 229.55C139.31 225.02 152.23 226.77 160.26 236L159 286C158.86 291.8 153.75 296.3 147.54 296.1C141.27 295.89 136.23 291 136.28 285.11Z" fill="#FFBE9D"/>
<path d="M130 245.87C129.992 246.216 130.119 246.552 130.354 246.806C130.59 247.06 130.915 247.212 131.26 247.23C131.429 247.245 131.6 247.226 131.761 247.175C131.923 247.124 132.073 247.041 132.202 246.931C132.332 246.821 132.438 246.687 132.515 246.535C132.592 246.384 132.638 246.219 132.65 246.05C132.656 245.703 132.527 245.367 132.29 245.114C132.053 244.86 131.727 244.708 131.38 244.69C131.212 244.675 131.042 244.694 130.881 244.745C130.72 244.797 130.571 244.88 130.442 244.99C130.314 245.1 130.208 245.234 130.132 245.385C130.057 245.537 130.012 245.701 130 245.87Z" fill="#263238"/>
<path d="M127.87 244.85C128.03 245.02 129.04 244.29 130.47 244.31C133.16 244.7 133.11 245.11 133.09 244.88C133.17 244.81 133.01 244.49 132.55 244.16C131.941 243.721 131.211 243.483 130.46 243.48C129.716 243.473 128.988 243.7 128.38 244.13C127.94 244.46 127.79 244.77 127.87 244.85Z" fill="#263238"/>
<path d="M144.62 246.3C144.611 246.645 144.739 246.98 144.974 247.232C145.21 247.484 145.535 247.634 145.88 247.65C146.048 247.667 146.219 247.649 146.38 247.598C146.542 247.547 146.692 247.464 146.821 247.354C146.949 247.244 147.055 247.108 147.13 246.957C147.206 246.805 147.25 246.639 147.26 246.47C147.268 246.124 147.141 245.788 146.906 245.534C146.67 245.28 146.345 245.128 146 245.11C145.831 245.096 145.661 245.117 145.499 245.169C145.338 245.222 145.189 245.306 145.061 245.417C144.932 245.527 144.827 245.662 144.751 245.814C144.676 245.966 144.631 246.131 144.62 246.3Z" fill="#263238"/>
<path d="M142.761 245.34C142.921 245.52 143.941 244.78 145.361 244.8C146.781 244.82 147.831 245.55 147.991 245.38C148.151 245.21 147.901 244.99 147.451 244.65C146.838 244.212 146.104 243.978 145.351 243.98C144.607 243.967 143.879 244.191 143.271 244.62C142.831 245 142.681 245.26 142.761 245.34Z" fill="#263238"/>
<path d="M137.449 255.59C136.703 255.336 135.926 255.184 135.139 255.14C134.779 255.14 134.429 255.02 134.369 254.77C134.348 254.393 134.438 254.017 134.629 253.69L135.739 250.93C136.762 248.585 137.601 246.165 138.249 243.69C138.089 243.63 136.709 246.78 135.159 250.69C134.789 251.69 134.439 252.59 134.099 253.47C133.86 253.907 133.786 254.414 133.889 254.9C133.939 255.031 134.02 255.148 134.124 255.242C134.229 255.336 134.354 255.404 134.489 255.44C134.686 255.502 134.892 255.532 135.099 255.53C135.877 255.649 136.666 255.669 137.449 255.59Z" fill="#263238"/>
<path d="M136.27 272.47C141.14 272.602 145.952 271.38 150.17 268.94C150.17 268.94 146.73 276.01 136.38 274.94L136.27 272.47Z" fill="#EB996E"/>
<path d="M138 259C138.277 258.662 138.635 258.399 139.04 258.237C139.446 258.074 139.886 258.017 140.32 258.07C140.649 258.099 140.969 258.196 141.259 258.357C141.548 258.517 141.801 258.736 142 259C142.187 259.242 142.297 259.535 142.313 259.841C142.329 260.147 142.251 260.45 142.09 260.71C141.855 260.961 141.552 261.138 141.218 261.218C140.883 261.298 140.533 261.278 140.21 261.16C139.539 260.914 138.924 260.536 138.4 260.05C138.242 259.932 138.106 259.786 138 259.62C137.946 259.542 137.918 259.45 137.918 259.355C137.918 259.261 137.946 259.168 138 259.09" fill="#EB996E"/>
<path d="M141.651 256.62C141.411 256.62 141.391 258.16 140.051 259.24C138.711 260.32 137.051 260.14 137.051 260.35C137.051 260.56 137.421 260.66 138.111 260.68C139.021 260.712 139.913 260.414 140.621 259.84C141.298 259.296 141.738 258.512 141.851 257.65C141.921 257 141.751 256.61 141.651 256.62Z" fill="#263238"/>
<path d="M155.761 228.62C151.981 234.02 141.951 239.57 134.761 240.86C135.591 239.76 140.001 237.04 140.841 235.94C137.591 238.36 132.931 241.62 128.621 241.83C128.112 241.904 127.593 241.824 127.131 241.6C126.889 241.406 126.695 241.159 126.565 240.878C126.435 240.597 126.372 240.29 126.381 239.98C126.135 236.852 126.236 233.706 126.681 230.6C127.023 227.975 128.357 225.581 130.411 223.91C133.181 221.77 137.131 221.25 140.861 221.16C143.982 220.957 147.113 221.379 150.071 222.4C152.931 223.52 155.381 225.75 155.801 228.4" fill="#263238"/>
<path d="M166.62 252.81C167.093 250.526 167.427 248.215 167.62 245.89C167.93 240.55 166.39 220.89 147.98 222.43L147.23 228.04C147.23 228.04 144.39 247.23 156.3 247.37C157.1 251.655 159.194 255.591 162.3 258.65C162.3 258.65 165.42 258.56 166.54 252.81" fill="#263238"/>
<path d="M156.33 247.37C157.442 247.151 158.593 247.238 159.66 247.62C160.728 248.023 161.594 248.832 162.07 249.87C162.485 250.931 162.485 252.109 162.07 253.17C161.641 254.22 160.986 255.163 160.15 255.93C159.599 256.522 158.912 256.971 158.15 257.24C157.765 257.373 157.353 257.407 156.952 257.341C156.55 257.275 156.171 257.109 155.85 256.86" fill="#FFBE9D"/>
<path d="M156.861 254.09C156.731 254.09 157.211 254.8 158.221 254.54C158.493 254.454 158.744 254.314 158.961 254.128C159.177 253.943 159.354 253.716 159.481 253.46C159.794 252.898 159.991 252.279 160.061 251.64C160.156 250.941 159.997 250.231 159.611 249.64C159.455 249.393 159.243 249.186 158.993 249.035C158.744 248.884 158.462 248.793 158.171 248.77C157.171 248.77 156.801 249.45 156.911 249.47C157.021 249.49 157.401 249.19 158.081 249.36C158.497 249.522 158.84 249.828 159.048 250.224C159.256 250.619 159.313 251.076 159.211 251.51C159.081 252.65 158.631 253.69 158.021 253.94C157.411 254.19 156.931 254 156.861 254.09Z" fill="#EB996E"/>
<path d="M158.341 226.6C159.768 227.41 161.456 227.629 163.042 227.21C164.629 226.792 165.989 225.768 166.831 224.36C167.414 223.476 167.622 222.397 167.411 221.36C167.175 220.682 166.765 220.078 166.223 219.608C165.681 219.138 165.025 218.818 164.321 218.68C163.314 218.417 162.259 218.406 161.247 218.649C160.235 218.891 159.299 219.379 158.521 220.07C157.76 220.783 157.215 221.695 156.95 222.704C156.685 223.712 156.709 224.775 157.021 225.77C157.374 226.748 158.024 227.591 158.879 228.182C159.733 228.774 160.751 229.084 161.791 229.07" fill="#263238"/>
<path d="M160 256.44C158.946 257.139 157.985 257.969 157.14 258.91C156.293 259.866 155.852 261.114 155.91 262.39C156.064 263.079 156.142 263.784 156.14 264.49C155.835 265.415 155.341 266.267 154.69 266.99C154.085 268.097 153.85 269.367 154.017 270.617C154.184 271.867 154.746 273.031 155.62 273.94C157.435 275.725 159.884 276.717 162.43 276.7C163.894 276.825 165.36 276.474 166.61 275.7C168.33 274.5 168.99 272.24 169.04 270.13" fill="#263238"/>
<path d="M161.26 230.73C161.005 231.412 160.64 232.047 160.18 232.61C159.163 234.047 157.971 235.35 156.63 236.49C155.299 237.643 153.831 238.627 152.26 239.42C151.638 239.785 150.963 240.051 150.26 240.21C152.385 239.001 154.411 237.627 156.32 236.1C158.104 234.442 159.756 232.646 161.26 230.73Z" fill="#455A64"/>
<path d="M163.17 230.62C163.199 231.476 163.087 232.33 162.84 233.15C162.347 235.152 161.559 237.07 160.5 238.84C159.435 240.605 158.11 242.2 156.57 243.57C155.961 244.172 155.258 244.671 154.49 245.05C156.628 243.152 158.499 240.972 160.05 238.57C161.45 236.076 162.5 233.401 163.17 230.62Z" fill="#455A64"/>
<path d="M123.2 239C123.35 239 123.55 240.72 124.2 242.77C124.85 244.82 125.54 246.39 125.4 246.46C123.853 244.29 123.078 241.663 123.2 239Z" fill="#455A64"/>
<path d="M167.31 274.34C167.763 274.638 168.288 274.807 168.83 274.83C169.459 274.821 170.072 274.627 170.59 274.27C171.255 273.78 171.726 273.072 171.92 272.27C172.16 271.284 172.16 270.256 171.92 269.27C171.71 268.18 171.29 267.06 170.92 265.83C170.467 264.548 170.313 263.18 170.47 261.83C170.7 260.37 171.65 259.18 172.11 257.83C172.327 257.185 172.414 256.504 172.364 255.826C172.314 255.147 172.129 254.486 171.82 253.88C171.251 252.731 170.274 251.836 169.08 251.37C168.494 251.151 167.919 250.9 167.36 250.62C166.802 250.344 166.328 249.923 165.99 249.4C165.494 248.428 165.279 247.337 165.37 246.25C165.437 245.402 165.403 244.55 165.27 243.71C165.16 243.085 164.903 242.496 164.52 241.99C164.175 241.568 163.7 241.273 163.17 241.15C163.314 241.115 163.465 241.115 163.61 241.15C164.025 241.258 164.397 241.488 164.68 241.81C165.104 242.333 165.405 242.945 165.56 243.6C165.731 244.459 165.791 245.336 165.74 246.21C165.669 247.219 165.884 248.227 166.36 249.12C166.92 250.04 168.08 250.42 169.26 250.89C170.566 251.388 171.637 252.359 172.26 253.61C172.603 254.276 172.809 255.004 172.868 255.751C172.926 256.498 172.835 257.249 172.6 257.96C172.08 259.39 171.16 260.53 170.96 261.84C170.808 263.125 170.948 264.427 171.37 265.65C171.72 266.85 172.13 268 172.37 269.13C172.593 270.189 172.562 271.285 172.28 272.33C172.042 273.208 171.5 273.974 170.75 274.49C170.178 274.864 169.502 275.046 168.82 275.01C168.392 274.991 167.977 274.856 167.62 274.62C167.498 274.549 167.392 274.454 167.31 274.34Z" fill="#455A64"/>
<path d="M160.09 273.63C160.09 273.63 160.22 273.95 160.7 274.18C161.036 274.32 161.41 274.343 161.761 274.247C162.112 274.151 162.421 273.941 162.64 273.65C162.898 273.162 163.019 272.614 162.991 272.063C162.963 271.512 162.786 270.979 162.48 270.52C161.91 269.39 160.78 268.28 160.48 266.63C160.398 266.228 160.405 265.813 160.5 265.414C160.595 265.015 160.776 264.642 161.03 264.32C161.52 263.72 162.1 263.32 162.47 262.83C163.11 261.895 163.362 260.747 163.17 259.63C163.046 258.858 162.856 258.099 162.6 257.36C162.484 257.092 162.403 256.809 162.36 256.52C162.36 256.52 162.55 256.78 162.78 257.29C163.129 258.017 163.381 258.787 163.53 259.58C163.658 260.183 163.665 260.806 163.55 261.412C163.435 262.018 163.2 262.595 162.86 263.11C162.43 263.69 161.86 264.11 161.44 264.64C161.23 264.906 161.081 265.215 161.003 265.545C160.925 265.875 160.921 266.218 160.99 266.55C161.23 267.98 162.29 269.07 162.9 270.3C163.229 270.837 163.403 271.455 163.403 272.085C163.403 272.715 163.229 273.333 162.9 273.87C162.748 274.067 162.557 274.231 162.338 274.35C162.12 274.469 161.878 274.54 161.63 274.56C161.265 274.603 160.895 274.533 160.57 274.36C160.07 274 160.07 273.62 160.09 273.63Z" fill="#455A64"/>
<path d="M120.89 271C120.583 270.766 120.308 270.494 120.07 270.19C119.356 269.41 118.769 268.522 118.33 267.56C118.034 266.873 117.89 266.129 117.91 265.38C117.915 264.493 118.225 263.635 118.79 262.95C119.41 262.24 120.31 261.86 120.85 261.19C121.112 260.822 121.285 260.399 121.356 259.953C121.427 259.507 121.394 259.051 121.26 258.62C121.016 257.696 120.649 256.808 120.17 255.98C119.701 255.161 119.363 254.274 119.17 253.35C119.008 252.476 119.191 251.573 119.68 250.83C120.117 250.237 120.627 249.703 121.2 249.24C122.027 248.641 122.629 247.782 122.91 246.8C122.978 246.437 122.978 246.064 122.91 245.7C122.91 245.7 122.99 245.78 123.06 245.96C123.16 246.239 123.191 246.537 123.15 246.83C122.934 247.893 122.345 248.843 121.49 249.51C120.962 249.971 120.489 250.492 120.08 251.06C119.666 251.717 119.522 252.51 119.68 253.27C119.886 254.14 120.223 254.973 120.68 255.74C121.185 256.605 121.572 257.533 121.83 258.5C121.978 259.007 122.008 259.54 121.918 260.06C121.828 260.58 121.62 261.073 121.31 261.5C120.63 262.3 119.73 262.65 119.21 263.26C118.704 263.852 118.418 264.601 118.4 265.38C118.369 266.063 118.482 266.744 118.73 267.38C119.123 268.329 119.648 269.218 120.29 270.02C120.521 270.327 120.722 270.655 120.89 271Z" fill="#455A64"/>
<path d="M162.589 227.9C161.875 226.93 161.057 226.042 160.149 225.25C159.142 224.594 158.065 224.051 156.939 223.63C158.212 223.65 159.446 224.075 160.462 224.842C161.477 225.61 162.223 226.681 162.589 227.9Z" fill="#704FE6"/>
<path d="M164 218.33C164.06 218.33 164.39 218.69 164.66 219.46C165.006 220.485 165.037 221.589 164.75 222.631C164.463 223.674 163.871 224.607 163.05 225.31C162.41 225.84 161.93 226 161.9 225.95C161.87 225.9 162.27 225.61 162.79 225.05C163.482 224.335 163.984 223.458 164.25 222.499C164.515 221.54 164.536 220.529 164.31 219.56C164.171 219.16 164.068 218.748 164 218.33Z" fill="#455A64"/>
<path opacity="0.3" d="M113.25 341.34C113.25 341.34 138.1 364.94 152.87 360.66C167.64 356.38 172 345.31 172 345.31L172.36 341.31L170.88 340.31L114 335.77L113.25 341.34Z" fill="black"/>
<path d="M98.5605 319.24L103.351 307L120.521 317.79L105.221 341.38C105.221 341.38 99.0005 333.26 98.5605 319.24Z" fill="#EB996E"/>
<path d="M117.929 285.3C125.929 281.12 136.269 279.92 136.269 279.92C139.269 285.92 148.739 286.69 154.469 282.59L159.309 279.32C159.977 279.31 160.645 279.34 161.309 279.41C166.829 279.928 172.035 282.211 176.156 285.919C180.277 289.628 183.094 294.565 184.189 300C185.144 304.264 185.55 308.633 185.399 313C184.769 323.93 173.459 324.92 173.459 324.92C173.459 324.92 172.879 335.71 172.109 344.44C171.944 347.481 170.929 350.415 169.181 352.909C167.433 355.403 165.022 357.357 162.219 358.55C158.259 360.531 153.998 361.846 149.609 362.44C142.758 363.512 135.749 362.888 129.196 360.621C122.642 358.355 116.744 354.516 112.019 349.44C113.739 339.04 115.379 325.57 115.259 324.96C115.24 324.895 115.24 324.825 115.259 324.76L104.049 314.81L97.6895 309.47C97.6895 309.47 111.689 288.77 117.909 285.37" fill="#704FE6"/>
<path d="M131.831 292C130.985 291.519 130.033 291.255 129.061 291.23C128.021 291.228 127.012 291.58 126.201 292.23C125.74 292.653 125.312 293.111 124.921 293.6C124.474 294.198 123.835 294.622 123.111 294.8C122.361 294.894 121.605 294.693 121.001 294.24C120.421 293.87 119.931 293.47 119.421 293.18C118.982 292.922 118.492 292.765 117.985 292.72C117.478 292.675 116.968 292.743 116.491 292.92C115.822 293.147 115.23 293.556 114.781 294.1C114.471 294.49 114.361 294.75 114.311 294.73C114.348 294.458 114.455 294.199 114.621 293.98C115.04 293.343 115.648 292.853 116.361 292.58C116.887 292.354 117.459 292.253 118.032 292.285C118.604 292.316 119.161 292.478 119.661 292.76C120.221 293.06 120.721 293.47 121.271 293.81C121.771 294.187 122.397 294.359 123.021 294.29C123.627 294.134 124.165 293.783 124.551 293.29C124.956 292.783 125.408 292.314 125.901 291.89C126.803 291.194 127.922 290.839 129.061 290.89C129.813 290.916 130.547 291.126 131.201 291.5C131.661 291.78 131.851 292 131.831 292Z" fill="#FAFAFA"/>
<path d="M143.219 307C142.573 306.27 141.755 305.714 140.839 305.38C139.867 305.047 138.811 305.047 137.839 305.38C137.273 305.639 136.725 305.936 136.199 306.27C135.584 306.692 134.843 306.889 134.099 306.83C133.358 306.68 132.705 306.245 132.279 305.62C131.849 305.09 131.509 304.55 131.119 304.11C130.786 303.727 130.372 303.422 129.907 303.218C129.442 303.014 128.937 302.915 128.429 302.93C127.723 302.937 127.033 303.134 126.429 303.5C126.009 303.77 125.819 303.98 125.779 303.95C125.739 303.92 125.909 303.67 126.319 303.33C127.084 302.756 128.035 302.485 128.987 302.569C129.94 302.654 130.828 303.089 131.479 303.79C131.909 304.26 132.259 304.79 132.669 305.3C133.029 305.806 133.563 306.162 134.169 306.3C134.8 306.334 135.424 306.162 135.949 305.81C136.497 305.457 137.076 305.156 137.679 304.91C138.761 304.541 139.939 304.573 140.999 305C141.708 305.26 142.341 305.693 142.839 306.26C143.139 306.67 143.239 306.94 143.219 307Z" fill="#FAFAFA"/>
<path d="M168.529 285.1C167.601 284.812 166.616 284.753 165.659 284.93C164.641 285.146 163.728 285.704 163.069 286.51C162.715 287.02 162.397 287.555 162.119 288.11C161.806 288.791 161.27 289.345 160.599 289.68C159.885 289.918 159.106 289.879 158.419 289.57C157.779 289.33 157.209 289.04 156.649 288.86C156.165 288.703 155.652 288.656 155.147 288.722C154.642 288.787 154.158 288.964 153.729 289.24C153.129 289.607 152.639 290.128 152.309 290.75C152.089 291.19 152.029 291.48 151.989 291.47C151.949 291.46 151.989 291.17 152.129 290.66C152.492 289.774 153.169 289.053 154.032 288.638C154.894 288.222 155.88 288.141 156.799 288.41C157.409 288.59 157.989 288.87 158.589 289.09C159.157 289.355 159.806 289.391 160.399 289.19C160.962 288.901 161.412 288.433 161.679 287.86C161.963 287.281 162.297 286.729 162.679 286.21C163.419 285.339 164.443 284.758 165.569 284.57C166.31 284.432 167.074 284.483 167.789 284.72C168.065 284.781 168.319 284.912 168.529 285.1Z" fill="#FAFAFA"/>
<path d="M156.85 301.5C156.353 300.949 155.742 300.513 155.06 300.22C154.324 299.934 153.512 299.909 152.76 300.15C152.314 300.322 151.883 300.529 151.47 300.77C150.968 301.081 150.376 301.211 149.79 301.14C149.212 301 148.711 300.641 148.39 300.14C148.08 299.71 147.84 299.28 147.56 298.93C147.323 298.625 147.02 298.376 146.674 298.203C146.328 298.03 145.947 297.937 145.56 297.93C144.821 297.935 144.1 298.161 143.49 298.58C143.49 298.58 143.59 298.36 143.91 298.11C144.521 297.683 145.269 297.499 146.009 297.593C146.748 297.687 147.426 298.053 147.91 298.62C148.23 299 148.49 299.43 148.78 299.82C149.027 300.221 149.417 300.514 149.87 300.64C150.79 300.8 151.63 299.97 152.59 299.7C153.448 299.45 154.368 299.518 155.18 299.89C156.59 300.52 156.91 301.52 156.85 301.5Z" fill="#FAFAFA"/>
<path d="M131.101 315.32C130.598 314.771 129.985 314.334 129.301 314.04C128.562 313.763 127.749 313.749 127.001 314C126.556 314.173 126.124 314.38 125.711 314.62C125.203 314.943 124.598 315.077 124.001 315C123.427 314.856 122.93 314.498 122.611 314C122.291 313.57 122.051 313.14 121.781 312.8C121.542 312.496 121.239 312.249 120.893 312.076C120.547 311.903 120.167 311.809 119.781 311.8C119.041 311.799 118.318 312.026 117.711 312.45C117.711 312.45 117.801 312.23 118.131 311.98C118.61 311.628 119.187 311.435 119.781 311.43C120.231 311.413 120.679 311.499 121.09 311.683C121.501 311.867 121.864 312.143 122.151 312.49C122.471 312.87 122.721 313.3 123.021 313.69C123.263 314.091 123.65 314.384 124.101 314.51C125.021 314.67 125.871 313.84 126.831 313.57C127.686 313.32 128.602 313.387 129.411 313.76C130.831 314.34 131.151 315.34 131.101 315.32Z" fill="#FAFAFA"/>
<path d="M155.17 315.64C154.525 315.266 153.803 315.047 153.06 315C152.27 314.971 151.495 315.211 150.86 315.68C150.5 315.986 150.165 316.32 149.86 316.68C149.484 317.134 148.966 317.448 148.39 317.57C147.793 317.614 147.203 317.428 146.74 317.05C146.3 316.75 145.94 316.42 145.56 316.18C145.235 315.972 144.869 315.837 144.487 315.787C144.105 315.737 143.717 315.772 143.35 315.89C142.651 316.136 142.041 316.585 141.6 317.18C141.6 317.18 141.6 316.94 141.85 316.59C142.193 316.105 142.679 315.738 143.24 315.54C143.659 315.378 144.11 315.315 144.558 315.357C145.005 315.399 145.437 315.544 145.82 315.78C146.24 316.03 146.62 316.36 147.03 316.63C147.389 316.931 147.852 317.082 148.32 317.05C149.24 316.91 149.77 315.85 150.59 315.28C151.321 314.769 152.211 314.535 153.1 314.62C153.499 314.624 153.893 314.717 154.251 314.894C154.609 315.07 154.923 315.326 155.17 315.64Z" fill="#FAFAFA"/>
<path d="M147.221 326.62C146.571 326.259 145.852 326.041 145.111 325.98C144.319 325.952 143.54 326.191 142.901 326.66C142.543 326.968 142.209 327.302 141.901 327.66C141.526 328.115 141.008 328.429 140.431 328.55C139.836 328.592 139.247 328.41 138.781 328.04C138.341 327.73 137.981 327.4 137.601 327.17C137.278 326.958 136.912 326.821 136.53 326.769C136.147 326.717 135.758 326.751 135.391 326.87C134.69 327.112 134.079 327.562 133.641 328.16C133.663 327.944 133.746 327.74 133.881 327.57C134.322 326.955 134.98 326.53 135.722 326.38C136.463 326.23 137.235 326.365 137.881 326.76C138.311 327.01 138.691 327.34 139.101 327.61C139.46 327.911 139.923 328.061 140.391 328.03C141.311 327.89 141.841 326.83 142.661 326.26C143.394 325.752 144.282 325.518 145.171 325.6C145.566 325.609 145.955 325.705 146.31 325.881C146.664 326.057 146.975 326.309 147.221 326.62Z" fill="#FAFAFA"/>
<path d="M130.429 353.88C129.918 353.337 129.298 352.908 128.609 352.62C127.865 352.358 127.053 352.358 126.309 352.62C125.866 352.803 125.438 353.02 125.029 353.27C124.533 353.585 123.943 353.719 123.359 353.65C122.777 353.513 122.271 353.154 121.949 352.65C121.629 352.23 121.379 351.8 121.099 351.46C120.859 351.158 120.555 350.912 120.21 350.739C119.864 350.566 119.485 350.471 119.099 350.46C118.357 350.471 117.637 350.712 117.039 351.15C117.039 351.15 117.129 350.92 117.449 350.66C117.929 350.309 118.505 350.113 119.099 350.1C119.546 350.074 119.993 350.151 120.405 350.324C120.818 350.497 121.185 350.763 121.479 351.1C121.799 351.48 122.059 351.91 122.359 352.29C122.61 352.688 123.004 352.974 123.459 353.09C124.379 353.24 125.209 352.4 126.169 352.09C127.024 351.833 127.942 351.889 128.759 352.25C130.139 352.9 130.479 353.89 130.429 353.88Z" fill="#FAFAFA"/>
<path d="M150.079 359.68C149.443 359.306 148.734 359.074 147.999 359C147.21 358.962 146.432 359.191 145.789 359.65C145.429 359.956 145.095 360.29 144.789 360.65C144.408 361.096 143.886 361.4 143.309 361.51C142.715 361.553 142.127 361.363 141.669 360.98C141.229 360.67 140.869 360.33 140.499 360.09C140.178 359.876 139.813 359.736 139.431 359.679C139.049 359.622 138.659 359.65 138.289 359.76C137.589 359.998 136.975 360.44 136.529 361.03C136.529 361.03 136.529 360.79 136.779 360.45C137.134 359.983 137.622 359.634 138.179 359.45C138.603 359.301 139.055 359.248 139.501 359.297C139.948 359.345 140.378 359.493 140.759 359.73C141.179 359.99 141.559 360.32 141.959 360.6C142.32 360.902 142.78 361.059 143.249 361.04C144.169 360.9 144.719 359.86 145.539 359.3C146.28 358.802 147.171 358.579 148.059 358.67C148.449 358.682 148.832 358.779 149.18 358.953C149.529 359.127 149.836 359.375 150.079 359.68Z" fill="#FAFAFA"/>
<path d="M85.32 277C85.92 277.71 107.91 307.11 107.91 307.11L104.82 308.87L82.25 279.87L85.32 277Z" fill="#263238"/>
<path d="M171.131 298C171.131 298 150.511 333.57 149.131 334.22C146.381 335.51 114.741 308.16 111.721 305.55C111.311 304.99 110.451 303.82 108.721 301.49C108.721 301.49 106.231 290.06 103.561 290.94C100.891 291.82 105.021 296.75 103.291 301.09C101.561 305.43 93.6107 295.09 93.2907 294.15L91.2907 291.47C91.2907 291.47 89.1407 297.56 89.2907 300.11C89.7507 308.26 97.4607 317.95 97.4607 317.95C97.4607 317.95 128.801 357.21 152.521 358.54C159.351 358.93 172.401 339.26 180.521 324.72C185.421 315.94 183.141 307.03 175.021 301.1L171.131 298Z" fill="#FFBE9D"/>
<path d="M93.1602 301.5C91.8067 299.697 90.7903 297.664 90.1602 295.5C90.2402 295.5 90.8302 296.85 91.6602 298.5C92.4902 300.15 93.2302 301.46 93.1602 301.5Z" fill="#EB996E"/>
<path d="M170.16 288.06C169.35 288.55 150.16 324.15 150.16 324.15L174.85 343.48C178.624 334.104 181.895 324.534 184.65 314.81C185.57 311.32 185.1 301.99 183.8 298.39C181.96 293.28 179.18 294.55 175.01 291.56L170.16 288.06Z" fill="#704FE6"/>
<g opacity="0.7">
<path d="M178.27 288.06C178.27 288.06 178.03 287.92 177.57 287.69C176.9 287.349 176.151 287.194 175.4 287.24C174.216 287.351 173.094 287.819 172.18 288.58C170.958 289.558 169.886 290.71 169 292C167.914 293.613 166.912 295.282 166 297C165 298.81 163.86 300.75 162.7 302.79C160.37 306.86 157.8 311.34 155.12 316.04C153.47 318.89 151.88 321.66 150.38 324.26L150.32 323.94L167.02 337.14L171.87 341.03L173.15 342.09C173.307 342.205 173.451 342.335 173.58 342.48C173.41 342.39 173.249 342.283 173.1 342.16L171.76 341.16L166.82 337.38L150.01 324.38L149.83 324.24L150 324C151.5 321.4 153.09 318.63 154.72 315.77C157.42 311.08 160 306.62 162.34 302.55L165.68 296.78C166.591 295.062 167.593 293.393 168.68 291.78C169.608 290.455 170.734 289.281 172.02 288.3C172.988 287.53 174.166 287.07 175.4 286.98C176.183 286.952 176.957 287.15 177.63 287.55C177.805 287.647 177.972 287.757 178.13 287.88C178.23 288 178.28 288.05 178.27 288.06Z" fill="black"/>
</g>
<path d="M170.899 321.44C170.405 320.886 169.793 320.449 169.109 320.16C168.373 319.875 167.563 319.847 166.809 320.08C166.363 320.255 165.931 320.466 165.519 320.71C165.016 321.016 164.425 321.146 163.839 321.08C163.261 320.94 162.76 320.581 162.439 320.08C162.129 319.65 161.889 319.22 161.609 318.87C161.372 318.565 161.069 318.316 160.723 318.143C160.376 317.97 159.996 317.877 159.609 317.87C158.87 317.875 158.148 318.101 157.539 318.52C157.539 318.52 157.639 318.3 157.959 318.04C158.447 317.7 159.024 317.512 159.619 317.5C160.068 317.483 160.514 317.57 160.923 317.754C161.333 317.937 161.694 318.213 161.979 318.56C162.299 318.94 162.559 319.37 162.849 319.76C163.099 320.158 163.487 320.45 163.939 320.58C164.859 320.74 165.699 319.91 166.659 319.64C167.516 319.387 168.435 319.451 169.249 319.82C170.639 320.45 170.999 321.45 170.899 321.44Z" fill="#FAFAFA"/>
<path d="M182.179 316.84C181.861 316.163 181.388 315.571 180.799 315.11C180.167 314.642 179.396 314.399 178.609 314.42C178.134 314.475 177.663 314.562 177.199 314.68C176.631 314.84 176.025 314.805 175.479 314.58C174.961 314.282 174.577 313.794 174.409 313.22C174.229 312.72 174.109 312.22 173.939 311.84C173.791 311.482 173.565 311.162 173.278 310.903C172.991 310.644 172.65 310.451 172.279 310.34C171.565 310.144 170.809 310.169 170.109 310.41C170.109 310.41 170.259 310.22 170.639 310.07C171.196 309.858 171.806 309.83 172.379 309.99C172.818 310.094 173.227 310.298 173.574 310.586C173.92 310.874 174.196 311.238 174.379 311.65C174.579 312.1 174.709 312.58 174.889 313.04C175.018 313.49 175.315 313.873 175.719 314.11C176.559 314.52 177.589 313.95 178.589 313.94C179.481 313.939 180.344 314.25 181.029 314.82C181.36 315.049 181.636 315.349 181.835 315.699C182.034 316.048 182.152 316.438 182.179 316.84Z" fill="#FAFAFA"/>
<path d="M182.759 302.12C182.436 301.45 181.964 300.861 181.379 300.4C180.749 299.928 179.977 299.685 179.189 299.71C178.713 299.755 178.241 299.842 177.779 299.97C177.21 300.132 176.603 300.093 176.059 299.86C175.543 299.563 175.161 299.08 174.989 298.51C174.809 298.01 174.689 297.51 174.519 297.12C174.368 296.765 174.141 296.447 173.854 296.188C173.568 295.929 173.228 295.735 172.859 295.62C172.146 295.425 171.389 295.449 170.689 295.69C170.689 295.69 170.839 295.51 171.219 295.35C171.777 295.143 172.385 295.115 172.959 295.27C173.396 295.379 173.802 295.585 174.149 295.872C174.495 296.16 174.772 296.521 174.959 296.93C175.159 297.38 175.289 297.87 175.469 298.32C175.598 298.773 175.895 299.16 176.299 299.4C177.139 299.8 178.169 299.23 179.169 299.23C180.062 299.219 180.929 299.532 181.609 300.11C181.939 300.338 182.213 300.637 182.412 300.985C182.611 301.333 182.73 301.721 182.759 302.12Z" fill="#FAFAFA"/>
<path d="M177.3 336C176.972 335.333 176.501 334.745 175.92 334.28C175.287 333.807 174.511 333.564 173.72 333.59C173.247 333.636 172.779 333.723 172.32 333.85C171.752 334.01 171.146 333.975 170.6 333.75C170.086 333.447 169.704 332.962 169.53 332.39C169.34 331.89 169.23 331.39 169.05 331C168.901 330.645 168.676 330.327 168.391 330.068C168.106 329.809 167.768 329.615 167.4 329.5C166.687 329.298 165.927 329.326 165.23 329.58C165.23 329.58 165.38 329.39 165.76 329.23C166.467 328.98 167.242 329.003 167.932 329.296C168.623 329.588 169.179 330.128 169.49 330.81C169.7 331.26 169.83 331.75 170.01 332.2C170.138 332.651 170.431 333.036 170.83 333.28C171.68 333.68 172.71 333.11 173.71 333.11C174.603 333.1 175.47 333.412 176.15 333.99C176.48 334.219 176.754 334.517 176.953 334.865C177.152 335.213 177.271 335.601 177.3 336Z" fill="#FAFAFA"/>
</svg>
