<svg width="167" height="72" viewBox="0 0 167 72" fill="none" xmlns="http://www.w3.org/2000/svg">
<path d="M156.671 1.49658H10.7407C5.2068 1.49658 0.720703 5.98269 0.720703 11.5166V58.2466C0.720703 63.7805 5.2068 68.2666 10.7407 68.2666H156.671C162.205 68.2666 166.691 63.7805 166.691 58.2466V11.5166C166.691 5.98269 162.205 1.49658 156.671 1.49658Z" fill="white"/>
<path d="M156.681 68.3063H156.971C157.171 68.3063 157.461 68.3063 157.831 68.2363C158.955 68.0825 160.046 67.7446 161.061 67.2363C162.702 66.4162 164.086 65.1604 165.061 63.6063C165.688 62.6207 166.132 61.5299 166.371 60.3863C166.586 59.0646 166.659 57.7237 166.591 56.3863C166.591 50.7063 166.591 43.7763 166.541 35.7163C166.541 31.7163 166.541 27.4163 166.541 22.8163C166.541 20.5263 166.541 18.1863 166.541 15.7663V12.1063C166.579 10.8703 166.41 9.63653 166.041 8.45633C165.429 6.61222 164.285 4.99065 162.753 3.79639C161.22 2.60213 159.368 1.88875 157.431 1.74634C156.101 1.67634 154.711 1.74634 153.331 1.74634H136.081H98.0108H10.7708C8.8856 1.74414 7.04028 2.2891 5.4587 3.31508C3.87713 4.34106 2.62727 5.80397 1.8608 7.52634C1.48063 8.37525 1.2247 9.27447 1.10082 10.1963C1.01188 11.1302 0.978485 12.0685 1.00082 13.0063V51.7863C1.00082 53.5763 1.00082 55.3563 1.00082 57.1363C0.885373 58.8695 1.17645 60.6056 1.85082 62.2063C2.5433 63.76 3.62864 65.1064 4.9999 66.113C6.37116 67.1195 7.98103 67.7514 9.67083 67.9463C10.5008 68.0263 11.3508 68.0163 12.2108 68.0163H19.8208L91.0708 68.0763L139.071 68.1563H152.131L139.071 68.2063L91.0708 68.2863L19.8208 68.3463H12.2108C11.347 68.371 10.4825 68.351 9.62081 68.2863C7.84752 68.0825 6.15731 67.4227 4.71496 66.3711C3.27261 65.3196 2.12736 63.9123 1.39083 62.2863C0.694318 60.6211 0.3898 58.818 0.500817 57.0163V40.9563C0.500817 33.623 0.500817 26.203 0.500817 18.6963V13.0163C0.473295 12.055 0.510029 11.0928 0.610803 10.1363C0.733846 9.16578 1.00008 8.21883 1.40081 7.32634C2.21344 5.5149 3.53182 3.9766 5.19753 2.89629C6.86325 1.81597 8.80546 1.23956 10.7908 1.23633L98.0008 1.30634H136.071H153.321C154.711 1.30634 156.061 1.30634 157.441 1.30634C159.458 1.45321 161.385 2.19746 162.977 3.44417C164.57 4.69088 165.754 6.38354 166.381 8.30634C166.757 9.52294 166.929 10.7934 166.891 12.0663C166.891 13.3063 166.891 14.5263 166.891 15.7263C166.891 18.1463 166.891 20.4863 166.891 22.7763C166.891 27.343 166.891 31.643 166.891 35.6763C166.891 43.7363 166.891 50.6763 166.891 56.3463C166.955 57.6844 166.875 59.0255 166.651 60.3463C166.405 61.5115 165.944 62.6205 165.291 63.6163C164.292 65.19 162.872 66.4514 161.191 67.2563C160.165 67.7509 159.063 68.0687 157.931 68.1963C157.081 68.3063 156.681 68.3063 156.681 68.3063Z" fill="#263238"/>
<path d="M143.57 49.2262C140.587 49.0085 137.813 47.6165 135.856 45.3554C133.898 43.0944 132.918 40.1492 133.13 37.1662C133.348 34.1844 134.74 31.4109 137.001 29.4552C139.263 27.4995 142.208 26.5215 145.19 26.7362C148.162 26.9515 150.927 28.3347 152.882 30.5835C154.836 32.8323 155.821 35.7635 155.62 38.7362C155.521 40.2174 155.13 41.6645 154.471 42.9943C153.811 44.3242 152.895 45.5105 151.775 46.4853C150.655 47.46 149.354 48.2039 147.946 48.6743C146.538 49.1447 145.051 49.3322 143.57 49.2262Z" fill="#704FE6"/>
<path d="M143.692 43.9065L136.932 38.6465L138.762 36.2765L143.302 39.8065L149.792 32.3965L152.042 34.3665L143.692 43.9065Z" fill="white"/>
<path d="M118.341 32.7764H75.9306C72.1806 32.7764 69.1406 35.8163 69.1406 39.5664C69.1406 43.3164 72.1806 46.3564 75.9306 46.3564H118.341C122.091 46.3564 125.131 43.3164 125.131 39.5664C125.131 35.8163 122.091 32.7764 118.341 32.7764Z" fill="#E0E0E0"/>
<path d="M52.9698 55.8615C64.0846 47.2399 66.1058 31.2403 57.4843 20.1255C48.8627 9.01059 32.8631 6.98938 21.7483 15.611C10.6334 24.2325 8.61222 40.2321 17.2338 51.3469C25.8554 62.4618 41.8549 64.483 52.9698 55.8615Z" fill="white"/>
<path d="M14.7404 47.1666C14.7404 47.1666 14.8204 47.2766 14.9604 47.5166L15.5704 48.5766L16.0104 49.3466C16.1904 49.6266 16.4104 49.9166 16.6304 50.2366C17.1272 50.9868 17.6752 51.7019 18.2704 52.3766C19.8667 54.2568 21.7379 55.8851 23.8204 57.2066C26.8559 59.1649 30.2717 60.4581 33.843 61.001C37.4143 61.5439 41.0601 61.3243 44.5404 60.3566C45.5638 60.0612 46.5661 59.6971 47.5404 59.2666C48.0404 59.0466 48.5404 58.8466 49.0604 58.5966L50.5304 57.7766C50.7804 57.6266 51.0304 57.5066 51.2704 57.3466L51.9704 56.8566C52.4404 56.5166 52.9704 56.2066 53.3904 55.8566C54.3069 55.1159 55.1753 54.3176 55.9904 53.4666C56.8275 52.5959 57.6059 51.6705 58.3204 50.6966C58.6704 50.1966 58.9904 49.6966 59.3204 49.1466C59.6645 48.627 59.9687 48.0821 60.2304 47.5166C60.8127 46.3959 61.3172 45.2365 61.7404 44.0466C62.1324 42.8184 62.4431 41.5657 62.6704 40.2966C63.1477 37.6959 63.205 35.0355 62.8404 32.4166C62.1076 26.9728 59.6183 21.9168 55.7504 18.0166L54.3004 16.6266L52.7404 15.4066C52.4859 15.1955 52.2151 15.0049 51.9304 14.8366L51.1004 14.3066L50.2704 13.7766L49.4004 13.3366C48.2569 12.7432 47.0741 12.2287 45.8604 11.7966C44.659 11.4059 43.433 11.0952 42.1904 10.8666C41.581 10.7326 40.9627 10.6424 40.3404 10.5966C39.7304 10.5466 39.1204 10.4666 38.5004 10.4466C37.2918 10.4161 36.0824 10.4662 34.8804 10.5966C33.7089 10.7276 32.5466 10.9313 31.4004 11.2066C30.8404 11.3566 30.2904 11.5466 29.7404 11.7166L28.9204 11.9666C28.6504 12.0566 28.4004 12.1866 28.1404 12.2966L26.5904 12.9666C26.0804 13.1966 25.5904 13.4966 25.1304 13.7466C24.1825 14.2723 23.2705 14.8602 22.4004 15.5066C19.5128 17.6781 17.1167 20.4355 15.3692 23.5978C13.6217 26.7602 12.5623 30.2562 12.2604 33.8566C12.0437 36.3125 12.1988 38.787 12.7204 41.1966C12.882 42.079 13.1093 42.9481 13.4004 43.7966C13.5204 44.1766 13.6204 44.5266 13.7304 44.7966L14.0804 45.6266L14.5404 46.7566C14.6404 47.0066 14.6904 47.1466 14.6904 47.1466C14.6904 47.1466 14.6204 47.0166 14.5104 46.7666C14.4004 46.5166 14.2204 46.1366 14.0104 45.6566C13.9004 45.4066 13.7804 45.1366 13.6404 44.8366C13.5004 44.5366 13.4204 44.1766 13.3004 43.8366C12.9956 42.985 12.7517 42.1128 12.5704 41.2266C12.0239 38.8038 11.8519 36.3115 12.0604 33.8366C12.3362 30.1954 13.385 26.6549 15.1369 23.451C16.8889 20.2472 19.3037 17.4536 22.2204 15.2566C23.0946 14.6001 24.0135 14.0054 24.9704 13.4766C25.4604 13.2066 25.9704 12.9166 26.4504 12.6666L28.0104 11.9966C28.2804 11.8866 28.5404 11.7566 28.8104 11.6566L29.6404 11.3966C30.2004 11.2266 30.7504 11.0266 31.3204 10.8766C32.4831 10.5971 33.6621 10.39 34.8504 10.2566C36.0685 10.1176 37.2948 10.0642 38.5204 10.0966C39.1404 10.0966 39.7604 10.1966 40.3804 10.2466C41.0094 10.2917 41.6344 10.3819 42.2504 10.5166C43.5127 10.7451 44.7587 11.0557 45.9804 11.4466C47.2102 11.8907 48.4095 12.4151 49.5704 13.0166L50.4504 13.4666L51.2904 13.9966L52.1304 14.5266C52.4195 14.6967 52.6938 14.8907 52.9504 15.1066L54.5404 16.3566L56.0204 17.7566C59.9469 21.7105 62.469 26.8425 63.2004 32.3666C63.58 35.0247 63.5226 37.727 63.0304 40.3666C62.8012 41.6535 62.4838 42.9232 62.0804 44.1666C61.6463 45.3715 61.1352 46.5472 60.5504 47.6866C60.2818 48.2557 59.971 48.8039 59.6204 49.3266C59.2804 49.8566 58.9604 50.3966 58.6204 50.8966C57.9015 51.8881 57.1128 52.8272 56.2604 53.7066C55.4309 54.5702 54.5456 55.3787 53.6104 56.1266C53.1504 56.4866 52.6104 56.8066 52.1804 57.1266L51.4704 57.6266C51.2304 57.7866 50.9704 57.9066 50.7204 58.0566L49.2204 58.8866C48.7204 59.1366 48.2204 59.3366 47.6904 59.5666C46.6856 59.9978 45.6534 60.362 44.6004 60.6566C41.0808 61.6249 37.3955 61.8342 33.7889 61.2704C30.1823 60.7067 26.7367 59.3828 23.6804 57.3866C21.5889 56.0411 19.717 54.3817 18.1304 52.4666C17.5371 51.7847 16.9956 51.0593 16.5104 50.2966C16.2904 49.9766 16.0704 49.6866 15.9004 49.3966L15.4704 48.6066L14.8904 47.5366L14.7404 47.1666Z" fill="#263238"/>
<path d="M18.2715 52.3764L28.0515 48.9564L43.6515 48.3564L58.0015 51.1164C58.0015 51.1164 51.0015 61.9464 38.1215 61.5764C34.3599 61.4798 30.658 60.6136 27.2441 59.0314C23.8301 57.4491 20.7765 55.1842 18.2715 52.3764Z" fill="#704FE6"/>
<path d="M47.8906 13.4263C51.1806 13.4963 54.0006 18.4263 53.5106 21.1463C53.2706 22.4863 52.6605 24.0163 53.7405 25.0163C54.8205 26.0163 57.0705 25.9163 58.0905 26.9263C58.859 27.7333 59.2762 28.8122 59.2505 29.9263C59.1105 31.6163 59.3806 33.8663 60.7206 34.4663L54.0005 36.8463C53.3105 36.1463 53.0006 35.0463 52.3506 34.3463C53.1406 35.0763 53.9006 37.6863 50.3506 37.9763L48.1306 35.9763C42.0506 37.5363 35.6605 39.4763 30.8105 36.8263" fill="#263238"/>
<path d="M16.9116 28.0466C17.4644 26.8255 17.955 25.5772 18.3816 24.3065C19.0316 21.5065 17.7216 18.3065 19.1316 15.8065C20.1316 14.0165 22.2316 13.1766 24.2016 12.6066C26.1716 12.0366 28.0516 11.7066 29.5416 10.2966C30.6316 9.29655 31.2616 7.82654 32.3516 6.78654C34.0306 5.42742 36.1425 4.71755 38.3016 4.78654C40.5031 4.6216 42.7102 5.02445 44.7116 5.95654C45.7037 6.42789 46.571 7.1261 47.2433 7.9947C47.9156 8.86331 48.374 9.87794 48.5816 10.9565C48.6069 12.0298 48.7139 13.0995 48.9016 14.1566C49.394 15.2251 49.9726 16.2518 50.6316 17.2265C51.1567 18.3604 51.2904 19.6366 51.0117 20.8547C50.7329 22.0728 50.0575 23.1638 49.0916 23.9565L33.6516 43.1366C30.4716 44.2766 27.0016 40.2165 24.6516 37.8365C22.3016 35.4565 15.8016 31.2366 16.9116 28.0466Z" fill="#263238"/>
<path d="M48.7406 21.4665C48.2006 17.0365 44.9406 11.7565 40.5406 12.4665L26.9106 16.7665C25.5706 16.9865 24.8506 18.0565 24.3906 17.8565L28.3906 49.5665L37.7506 56.1865L43.5606 49.1865C43.5606 49.1865 43.1306 44.8365 43.1306 44.8565C43.1306 44.8765 48.7606 43.5865 49.5106 36.1065C49.8706 32.4265 49.3406 26.3965 48.7406 21.4665Z" fill="#FFBF9D"/>
<path d="M36.8014 28.2162C36.818 28.4624 36.7372 28.7053 36.5763 28.8924C36.4154 29.0795 36.1874 29.1958 35.9415 29.2162C35.703 29.2415 35.4642 29.1717 35.2769 29.0219C35.0896 28.8721 34.9691 28.6544 34.9415 28.4162C34.9391 28.1736 35.025 27.9383 35.1832 27.7543C35.3414 27.5704 35.5612 27.4502 35.8014 27.4162C36.0399 27.3909 36.2787 27.4607 36.466 27.6105C36.6532 27.7603 36.7738 27.978 36.8014 28.2162Z" fill="#263238"/>
<path d="M46.1901 27.7363C46.1925 27.979 46.1066 28.2142 45.9484 28.3982C45.7902 28.5822 45.5704 28.7023 45.3301 28.7363C45.0922 28.759 44.8548 28.6882 44.6681 28.5389C44.4815 28.3895 44.3602 28.1734 44.3301 27.9363C44.3277 27.6937 44.4137 27.4584 44.5719 27.2744C44.7301 27.0904 44.9499 26.9703 45.1901 26.9363C45.3085 26.9224 45.4283 26.9322 45.5429 26.965C45.6574 26.9978 45.7643 27.053 45.8573 27.1274C45.9503 27.2018 46.0276 27.2939 46.0848 27.3985C46.1419 27.503 46.1777 27.6178 46.1901 27.7363Z" fill="#263238"/>
<path d="M47.8611 24.8565C47.7611 25.0265 46.8611 24.4565 45.7811 24.5965C44.7011 24.7365 43.9411 25.4765 43.7811 25.3365C43.6211 25.1965 43.7811 24.9765 44.1211 24.6365C44.5249 24.1939 45.0758 23.9131 45.6712 23.8465C46.2639 23.7779 46.8619 23.9195 47.3611 24.2465C47.7611 24.5065 47.9211 24.7765 47.8611 24.8565Z" fill="#263238"/>
<path d="M37.7205 25.7865C37.5905 25.9365 36.7205 25.2965 35.5405 25.3265C34.3605 25.3565 33.5405 26.0065 33.3605 25.8565C33.1805 25.7065 33.4305 25.5065 33.8005 25.1965C34.2991 24.81 34.9098 24.5959 35.5405 24.5865C36.168 24.5652 36.7833 24.7632 37.2805 25.1465C37.6605 25.4365 37.7905 25.7165 37.7205 25.7865Z" fill="#263238"/>
<path d="M41.721 32.8361C42.2477 32.6311 42.7991 32.4966 43.361 32.4361C43.621 32.4361 43.871 32.3261 43.901 32.1461C43.9052 31.8765 43.8286 31.6118 43.681 31.3861L42.791 29.3861C41.9918 27.7412 41.3231 26.0359 40.791 24.2861C41.7257 25.8932 42.5315 27.5718 43.201 29.3061C43.501 29.9861 43.781 30.6361 44.051 31.3061C44.2349 31.6049 44.3058 31.9596 44.251 32.3061C44.2198 32.4019 44.1663 32.489 44.0951 32.5602C44.0238 32.6315 43.9368 32.6849 43.841 32.7161C43.6982 32.7626 43.5506 32.7928 43.401 32.8061C42.8439 32.8785 42.2804 32.8886 41.721 32.8361Z" fill="#263238"/>
<path d="M43.12 44.8962C39.6199 45.1587 36.1159 44.442 33 42.8262C33 42.8262 35.81 48.1062 43.19 46.9862L43.12 44.8962Z" fill="#FF9A6C"/>
<path d="M41.4314 35.3065C41.2238 35.0716 40.9593 34.894 40.6634 34.7907C40.3675 34.6874 40.05 34.6619 39.7414 34.7165C39.5156 34.7472 39.2986 34.8244 39.1041 34.9432C38.9096 35.0619 38.7419 35.2197 38.6114 35.4065C38.4843 35.5845 38.416 35.7978 38.416 36.0165C38.416 36.2352 38.4843 36.4485 38.6114 36.6265C38.785 36.8025 39.008 36.9217 39.2509 36.9681C39.4938 37.0145 39.745 36.9861 39.9714 36.8865C40.4445 36.6911 40.8731 36.402 41.2314 36.0365C41.3432 35.9475 41.438 35.8391 41.5114 35.7165C41.548 35.6599 41.5674 35.5939 41.5674 35.5265C41.5674 35.4591 41.548 35.3931 41.5114 35.3365" fill="#FF9A6C"/>
<path d="M38.751 33.7163C38.911 33.7163 38.981 34.8063 39.981 35.5363C40.981 36.2663 42.151 36.0863 42.161 36.2363C42.171 36.3863 41.911 36.4663 41.421 36.5063C40.7686 36.5562 40.1197 36.3718 39.591 35.9863C39.0712 35.6259 38.7125 35.077 38.591 34.4563C38.561 33.9963 38.671 33.7163 38.751 33.7163Z" fill="#263238"/>
<path d="M37.6912 22.3063C37.6112 22.5963 36.5812 22.5263 35.3912 22.7363C34.2012 22.9463 33.2412 23.3363 33.0712 23.0963C32.9012 22.8563 33.1412 22.7063 33.5212 22.4163C34.0219 22.052 34.6005 21.8089 35.2112 21.7063C35.8213 21.5982 36.4484 21.6359 37.0412 21.8163C37.4912 21.9563 37.7312 22.1663 37.6912 22.3063Z" fill="#263238"/>
<path d="M47.5506 21.1666C47.3606 21.4066 46.5506 21.1666 45.5506 21.2566C44.5506 21.3466 43.7706 21.5166 43.5506 21.2566C43.3306 20.9966 43.5506 20.9066 43.9206 20.6666C44.3949 20.3601 44.946 20.1937 45.5106 20.1866C46.0689 20.1617 46.6231 20.2933 47.1106 20.5665C47.5106 20.8165 47.6306 21.0466 47.5506 21.1666Z" fill="#263238"/>
<path d="M12.5315 26.6162C13.2315 25.3262 11.8815 23.8862 12.9615 22.6862C14.0415 21.4862 16.5215 21.5662 17.4415 20.4562C17.7071 20.2172 17.9152 19.9213 18.0503 19.5905C18.1853 19.2598 18.2439 18.9028 18.2215 18.5462C18.2215 17.5462 18.7115 13.2562 24.9515 12.3962L25.8215 16.2762C26.2115 16.0962 26.6115 15.9362 27.0115 15.7962C32.1028 13.9415 37.3967 12.6994 42.7815 12.0962C43.0331 12.6881 43.071 13.3491 42.8885 13.9658C42.7061 14.5825 42.3147 15.1165 41.7815 15.4762C40.6894 16.1647 39.4944 16.6745 38.2415 16.9862C37.6137 17.1447 37.0245 17.4284 36.509 17.8202C35.9935 18.212 35.5624 18.7038 35.2415 19.2662C34.6915 20.5162 35.1015 22.0162 34.6215 23.2662C33.7815 25.4762 30.6715 26.1262 29.8415 28.3362C29.2115 30.0062 30.8415 31.9162 31.0815 33.6862C31.3215 35.6862 31.7315 38.7962 30.2415 40.1562C29.1271 41.1034 27.9584 41.9849 26.7415 42.7962L8.32153 31.2162C7.35153 28.9062 11.5715 28.3862 12.5315 26.6162Z" fill="#263238"/>
<path d="M25.6113 40.8665C26.1087 40.7713 26.5901 40.6063 27.0414 40.3765C28.6098 39.6052 29.8458 38.2919 30.5205 36.6795C31.1952 35.0672 31.263 33.265 30.7113 31.6065C30.5413 31.0565 30.3313 30.4965 30.1913 29.9265C30.0411 29.3445 30.0241 28.7361 30.1414 28.1465C30.2116 27.8512 30.3408 27.5732 30.5212 27.3292C30.7017 27.0851 30.9296 26.8801 31.1913 26.7265C31.7663 26.422 32.3649 26.1645 32.9814 25.9565C33.6321 25.7562 34.2162 25.3829 34.6714 24.8765C35.068 24.3394 35.2913 23.6939 35.3113 23.0265C35.4113 21.7665 35.1913 20.5265 35.6213 19.4765L35.7014 19.2865L35.8013 19.1065C35.8723 18.9902 35.9526 18.8798 36.0414 18.7765C36.2185 18.5774 36.424 18.4056 36.6513 18.2665C37.0986 18.0025 37.5796 17.8007 38.0813 17.6665C39.0214 17.4642 39.9274 17.1274 40.7713 16.6665C41.4492 16.2447 42.0316 15.6861 42.4814 15.0265C42.8214 14.5338 43.0813 13.9905 43.2513 13.4165C43.3608 13.0551 43.4312 12.6829 43.4613 12.3065C43.4746 12.1768 43.4746 12.0462 43.4613 11.9165C43.4054 12.4145 43.305 12.9064 43.1613 13.3865C42.9799 13.9472 42.7134 14.4767 42.3713 14.9565C41.9176 15.5866 41.3431 16.1203 40.6813 16.5265C39.8456 16.963 38.954 17.2826 38.0313 17.4765C37.5093 17.6112 37.008 17.8164 36.5414 18.0865C36.2933 18.2333 36.0705 18.419 35.8813 18.6365C35.7804 18.7455 35.6931 18.8664 35.6213 18.9965L35.5013 19.1865L35.4113 19.3965C34.9513 20.5265 35.1813 21.7865 35.0714 23.0065C35.0534 23.6248 34.8514 24.2236 34.4913 24.7265C34.0573 25.1925 33.5093 25.5372 32.9013 25.7265C32.267 25.9295 31.6541 26.1941 31.0714 26.5165C30.7772 26.6803 30.5215 26.9052 30.3214 27.1759C30.1213 27.4467 29.9815 27.7572 29.9113 28.0865C29.7854 28.7094 29.8059 29.353 29.9713 29.9665C30.1113 30.5665 30.3313 31.1165 30.5013 31.6665C30.8217 32.6254 30.9365 33.641 30.8383 34.6472C30.74 35.6534 30.431 36.6276 29.9313 37.5065C29.2398 38.6987 28.2237 39.6698 27.0013 40.3065C26.6771 40.473 26.3432 40.62 26.0013 40.7465L25.6113 40.8665Z" fill="#263238"/>
<path d="M47.1511 13.7966C47.523 13.7029 47.9004 13.6328 48.2811 13.5866C49.3181 13.4921 50.3602 13.7005 51.2811 14.1866C51.9534 14.5537 52.5384 15.062 52.9958 15.6765C53.4533 16.291 53.7723 16.9972 53.9311 17.7466C54.0911 18.6408 54.1248 19.553 54.0311 20.4566C54.0311 20.9266 53.9411 21.4066 53.8911 21.9066C53.8366 22.4168 53.8569 22.9322 53.9511 23.4366C53.9974 23.7006 54.1011 23.9511 54.2549 24.1705C54.4087 24.39 54.6088 24.573 54.8411 24.7066C55.3064 24.9115 55.8134 25.004 56.3211 24.9766C56.7806 24.9514 57.2415 24.9884 57.6911 25.0866C58.112 25.2021 58.5062 25.3991 58.8511 25.6666C59.5042 26.1526 59.9505 26.8666 60.1011 27.6666C60.2108 28.3757 60.2108 29.0975 60.1011 29.8066C60.002 30.3987 59.9419 30.9966 59.9211 31.5966C59.9123 32.0525 59.9695 32.5072 60.0911 32.9466C60.1652 33.2285 60.287 33.4957 60.4511 33.7366C60.491 33.7958 60.5343 33.8526 60.5811 33.9066L60.6411 33.9666C60.4409 33.6569 60.286 33.3202 60.1811 32.9666C60.0741 32.5319 60.0336 32.0835 60.0611 31.6366C60.0959 31.0434 60.1627 30.4526 60.2611 29.8666C60.3943 29.1439 60.4111 28.4046 60.3111 27.6766C60.1569 26.8223 59.6853 26.0578 58.9911 25.5366C58.6228 25.25 58.2013 25.0393 57.7511 24.9166C57.2859 24.8085 56.8081 24.7648 56.3311 24.7866C55.8651 24.8157 55.3989 24.7335 54.9711 24.5466C54.7651 24.4319 54.5884 24.2711 54.4549 24.0768C54.3213 23.8825 54.2345 23.66 54.2011 23.4266C54.0993 22.461 54.1228 21.4862 54.2711 20.5266C54.3729 19.5992 54.3324 18.6618 54.1511 17.7466C53.9848 16.9699 53.6495 16.2393 53.1691 15.6067C52.6886 14.9742 52.0747 14.4552 51.3711 14.0866C50.4184 13.6013 49.3419 13.4132 48.2811 13.5466C47.9956 13.5828 47.7143 13.6464 47.4411 13.7366C47.2411 13.7466 47.1411 13.7866 47.1511 13.7966Z" fill="#263238"/>
<path d="M16.1209 35.9363C16.1209 35.9363 16.1209 35.9363 16.1209 35.8263C16.0769 35.7154 16.0401 35.6019 16.0109 35.4863C15.8872 35.0503 15.8667 34.5915 15.9509 34.1463C16.0797 33.4363 16.4297 32.7852 16.9509 32.2863C17.2832 31.9866 17.6802 31.7676 18.1109 31.6463C18.5709 31.5263 19.1109 31.4763 19.5909 31.3063C19.8566 31.2158 20.1014 31.073 20.3109 30.8863C20.5227 30.6813 20.6867 30.432 20.7909 30.1563C20.993 29.5618 21.0646 28.9309 21.0009 28.3063C20.9408 27.6677 20.9408 27.0249 21.0009 26.3863C21.0416 26.0588 21.147 25.7427 21.3109 25.4563C21.4918 25.167 21.7342 24.9211 22.0209 24.7363C22.6442 24.3918 23.3199 24.1519 24.0209 24.0263C24.7711 23.8874 25.4916 23.6202 26.1509 23.2363C26.484 23.0164 26.7613 22.7219 26.9609 22.3763C27.1499 22.0226 27.2815 21.6412 27.3509 21.2463C27.5009 20.4563 27.5009 19.6463 27.6509 18.8563C27.8059 18.089 28.152 17.3734 28.6572 16.7755C29.1624 16.1777 29.8103 15.717 30.5409 15.4363C31.2511 15.2171 31.9879 15.096 32.7309 15.0763C33.1009 15.0469 33.4665 14.9765 33.8209 14.8663C34.1749 14.7634 34.4979 14.5745 34.7609 14.3163C35.2049 13.7766 35.5226 13.1445 35.6909 12.4663C35.9078 11.8566 36.2482 11.2983 36.6909 10.8263C37.4771 9.97574 38.5408 9.43329 39.6909 9.29627C40.6409 9.18975 41.5997 9.39695 42.4209 9.88626C43.04 10.2548 43.5722 10.7529 43.9809 11.3463C44.2379 11.7187 44.4399 12.1263 44.5809 12.5563C44.6237 12.67 44.6571 12.7871 44.6809 12.9063C44.6809 12.9763 44.6809 13.0163 44.6809 13.0163C44.6557 12.8604 44.619 12.7066 44.5709 12.5563C44.4501 12.1114 44.2576 11.6892 44.0009 11.3063C43.5893 10.7038 43.0541 10.1959 42.4309 9.81626C41.5947 9.30705 40.6148 9.08577 39.6409 9.18627C38.4616 9.32407 37.3698 9.87706 36.5609 10.7463C36.117 11.2326 35.7767 11.8042 35.5609 12.4263C35.3922 13.0803 35.0853 13.6907 34.6609 14.2163C34.1161 14.6774 33.4247 14.9291 32.7109 14.9263C31.9506 14.9519 31.1972 15.0797 30.4709 15.3063C29.7114 15.5871 29.0366 16.0583 28.5113 16.6746C27.9861 17.2909 27.6278 18.0318 27.4709 18.8263C27.3109 19.6363 27.3109 20.4463 27.1709 21.2163C27.1034 21.5944 26.975 21.9591 26.7909 22.2963C26.603 22.6237 26.3431 22.9041 26.0309 23.1163C24.7509 23.9363 23.1309 23.8363 21.9009 24.6263C21.5969 24.8167 21.3432 25.0773 21.1609 25.3863C20.9806 25.6921 20.868 26.0332 20.8309 26.3863C20.7621 27.0512 20.7621 27.7214 20.8309 28.3863C20.8831 28.9804 20.8151 29.579 20.6309 30.1463C20.5263 30.4029 20.3736 30.6371 20.1809 30.8363C19.981 31.0106 19.7504 31.1462 19.5009 31.2363C19.0009 31.4063 18.5009 31.4563 18.0209 31.5863C17.5816 31.7165 17.1779 31.9457 16.8409 32.2563C16.3062 32.7653 15.9547 33.4368 15.8409 34.1663C15.7564 34.6193 15.7839 35.0862 15.9209 35.5263C15.955 35.6429 15.9984 35.7566 16.0509 35.8663L16.1209 35.9363Z" fill="#455A64"/>
</svg>
