<svg width="504" height="339" viewBox="0 0 504 339" fill="none" xmlns="http://www.w3.org/2000/svg">
<g clip-path="url(#clip0_180_2518)">
<path d="M465.949 24.77H30.029C21.9822 24.77 15.459 31.2932 15.459 39.34V317.74C15.459 325.787 21.9822 332.31 30.029 332.31H465.949C473.996 332.31 480.519 325.787 480.519 317.74V39.34C480.519 31.2932 473.996 24.77 465.949 24.77Z" fill="#455A64"/>
<path d="M0.23922 312.44H504.089V321.55C504.089 326.271 502.214 330.798 498.876 334.136C495.538 337.475 491.01 339.35 486.289 339.35H17.9992C13.2784 339.35 8.75087 337.475 5.41272 334.136C2.07457 330.798 0.199219 326.271 0.199219 321.55V312.44H0.23922Z" fill="#455A64"/>
<path d="M202.148 309.56L208.398 319.51H296.378L302.178 309.56H202.148Z" fill="#263238"/>
<path d="M476.519 309.56C476.519 309.73 373.299 309.86 246.009 309.86C118.719 309.86 15.459 309.73 15.459 309.56C15.459 309.39 118.659 309.26 246.009 309.26C373.359 309.26 476.519 309.39 476.519 309.56Z" fill="#263238"/>
<path d="M462.109 42.4502H32.0493C30.2433 42.4502 28.7793 43.9142 28.7793 45.7202V298.16C28.7793 299.966 30.2433 301.43 32.0493 301.43H462.109C463.915 301.43 465.379 299.966 465.379 298.16V45.7202C465.379 43.9142 463.915 42.4502 462.109 42.4502Z" fill="#EBEBEB"/>
<path d="M464.909 301.81H28.3086L28.7786 61.8101H464.909V301.81Z" fill="white"/>
<path d="M64.5892 52.46C64.5952 53.1515 64.3956 53.8292 64.0157 54.4071C63.6359 54.9849 63.0929 55.4369 62.4557 55.7057C61.8186 55.9744 61.1159 56.0478 60.437 55.9166C59.758 55.7853 59.1333 55.4553 58.6423 54.9684C58.1512 54.4816 57.8158 53.8598 57.6787 53.182C57.5416 52.5042 57.6089 51.8009 57.8721 51.1615C58.1354 50.522 58.5827 49.9752 59.1572 49.5903C59.7318 49.2055 60.4077 49 61.0993 49C62.0205 48.9974 62.9052 49.3601 63.5594 50.0087C64.2136 50.6573 64.584 51.5388 64.5892 52.46Z" fill="#263238"/>
<path d="M43.4584 52.4601C43.4643 53.1529 43.2639 53.8318 42.8827 54.4103C42.5015 54.9888 41.9568 55.4407 41.3179 55.7086C40.6789 55.9765 39.9748 56.0481 39.295 55.9144C38.6152 55.7807 37.9906 55.4477 37.5007 54.9578C37.0108 54.4679 36.6778 53.8433 36.5441 53.1635C36.4104 52.4838 36.4821 51.7796 36.7499 51.1406C37.0178 50.5017 37.4697 49.957 38.0482 49.5758C38.6267 49.1946 39.3056 48.9942 39.9984 49.0001C40.9144 49.0054 41.7914 49.3716 42.4392 50.0193C43.0869 50.6671 43.4532 51.5441 43.4584 52.4601Z" fill="#263238"/>
<path d="M53.5991 52.4602C53.5991 53.1505 53.3945 53.8252 53.011 54.3992C52.6275 54.9731 52.0824 55.4204 51.4447 55.6846C50.807 55.9487 50.1053 56.0178 49.4283 55.8832C48.7513 55.7485 48.1294 55.4161 47.6413 54.928C47.1533 54.4399 46.8209 53.8181 46.6862 53.1411C46.5515 52.4641 46.6207 51.7624 46.8848 51.1247C47.149 50.4869 47.5963 49.9419 48.1702 49.5584C48.7441 49.1749 49.4189 48.9702 50.1091 48.9702C50.5678 48.9689 51.0222 49.0583 51.4463 49.2332C51.8703 49.4081 52.2556 49.6651 52.5799 49.9895C52.9042 50.3138 53.1612 50.6991 53.3362 51.1231C53.5111 51.5471 53.6005 52.0016 53.5991 52.4602Z" fill="#263238"/>
<path d="M465.379 278.63H28.3086V301.81H465.379V278.63Z" fill="#263238"/>
<path d="M44.8302 292.9V293.64H41.3502V293.06L43.2202 291.28C43.6802 290.84 43.7601 290.56 43.7601 290.28C43.7601 289.85 43.4602 289.6 42.8802 289.6C42.6711 289.589 42.4623 289.627 42.271 289.712C42.0798 289.797 41.9115 289.927 41.7802 290.09L41.1602 289.62C41.3794 289.36 41.6561 289.154 41.9684 289.018C42.2807 288.883 42.6202 288.822 42.9602 288.84C43.9602 288.84 44.6501 289.35 44.6501 290.19C44.6436 290.483 44.5688 290.77 44.4316 291.029C44.2945 291.287 44.0988 291.51 43.8602 291.68L42.6002 292.88L44.8302 292.9Z" fill="white"/>
<path d="M45.2999 290.56C45.2999 290.449 45.333 290.34 45.395 290.248C45.457 290.155 45.5451 290.084 45.648 290.042C45.7509 290 45.864 289.989 45.9729 290.012C46.0818 290.034 46.1816 290.088 46.2595 290.168C46.3374 290.247 46.3899 290.348 46.4104 290.457C46.4308 290.566 46.4183 290.679 46.3744 290.781C46.3304 290.883 46.2571 290.97 46.1637 291.03C46.0703 291.091 45.9611 291.122 45.8499 291.12C45.7765 291.121 45.7035 291.108 45.6354 291.08C45.5674 291.052 45.5058 291.011 45.4543 290.958C45.4028 290.906 45.3626 290.844 45.336 290.775C45.3095 290.707 45.2972 290.633 45.2999 290.56ZM45.2999 293.13C45.2893 293.051 45.2957 292.97 45.3187 292.894C45.3417 292.817 45.3808 292.747 45.4334 292.687C45.4859 292.627 45.5507 292.578 45.6234 292.545C45.6961 292.512 45.7751 292.495 45.8549 292.495C45.9348 292.495 46.0137 292.512 46.0864 292.545C46.1591 292.578 46.2239 292.627 46.2765 292.687C46.329 292.747 46.3681 292.817 46.3912 292.894C46.4142 292.97 46.4206 293.051 46.4099 293.13C46.4206 293.209 46.4142 293.29 46.3912 293.366C46.3681 293.442 46.329 293.513 46.2765 293.573C46.2239 293.633 46.1591 293.682 46.0864 293.715C46.0137 293.748 45.9348 293.765 45.8549 293.765C45.7751 293.765 45.6961 293.748 45.6234 293.715C45.5507 293.682 45.4859 293.633 45.4334 293.573C45.3808 293.513 45.3417 293.442 45.3187 293.366C45.2957 293.29 45.2893 293.209 45.2999 293.13Z" fill="white"/>
<path d="M48.5985 288.92V293.64H47.7285V289.64H46.7285V288.9L48.5985 288.92Z" fill="white"/>
<path d="M53.7487 292.57H52.9088V293.64H52.0587V292.57H49.4688V292L51.7988 289H52.7388L50.5387 291.91H52.0887V290.96H52.9088V291.91H53.7487V292.57Z" fill="white"/>
<path d="M419.699 290.68H61.459V292.31H419.699V290.68Z" fill="white"/>
<path d="M173.139 288.93H61.1895V293.29H173.139V288.93Z" fill="#704FE6"/>
<path d="M176.759 291.5C176.759 292.578 176.44 293.631 175.841 294.528C175.242 295.424 174.391 296.122 173.395 296.535C172.399 296.947 171.303 297.055 170.246 296.845C169.189 296.635 168.218 296.116 167.456 295.354C166.693 294.591 166.174 293.62 165.964 292.563C165.754 291.506 165.862 290.41 166.274 289.414C166.687 288.418 167.385 287.567 168.282 286.968C169.178 286.369 170.231 286.05 171.309 286.05C172.755 286.05 174.141 286.624 175.163 287.646C176.185 288.668 176.759 290.054 176.759 291.5Z" fill="#704FE6"/>
<path d="M428.719 291.45C428.717 291.668 428.67 291.882 428.581 292.081C428.492 292.28 428.362 292.457 428.2 292.603C428.038 292.749 427.848 292.86 427.641 292.928C427.434 292.996 427.216 293.021 426.999 293C425.709 293 424.999 292.17 424.999 290.65C424.959 290.327 424.991 289.999 425.091 289.69C425.191 289.38 425.357 289.096 425.577 288.857C425.798 288.618 426.068 288.43 426.369 288.307C426.67 288.183 426.994 288.126 427.319 288.14C427.753 288.129 428.181 288.236 428.559 288.45L428.229 289.11C427.962 288.945 427.652 288.865 427.339 288.88C426.449 288.88 425.889 289.43 425.889 290.5C426.051 290.331 426.247 290.2 426.465 290.115C426.682 290.031 426.916 289.995 427.149 290.01C427.348 289.996 427.547 290.023 427.735 290.089C427.923 290.155 428.096 290.258 428.243 290.393C428.39 290.528 428.508 290.691 428.589 290.872C428.671 291.054 428.715 291.251 428.719 291.45ZM427.869 291.45C427.869 290.96 427.499 290.65 426.929 290.65C426.809 290.63 426.686 290.636 426.569 290.667C426.451 290.698 426.341 290.753 426.247 290.83C426.152 290.906 426.075 291.002 426.02 291.111C425.966 291.219 425.934 291.338 425.929 291.46C425.929 291.9 426.279 292.25 426.929 292.25C427.042 292.268 427.157 292.263 427.267 292.233C427.378 292.204 427.481 292.152 427.569 292.08C427.658 292.009 427.731 291.919 427.782 291.817C427.834 291.715 427.863 291.604 427.869 291.49V291.45Z" fill="white"/>
<path d="M429.15 289.83C429.139 289.751 429.145 289.67 429.168 289.594C429.191 289.517 429.23 289.447 429.283 289.387C429.336 289.327 429.4 289.278 429.473 289.245C429.546 289.212 429.625 289.195 429.705 289.195C429.784 289.195 429.863 289.212 429.936 289.245C430.009 289.278 430.073 289.327 430.126 289.387C430.179 289.447 430.218 289.517 430.241 289.594C430.264 289.67 430.27 289.751 430.26 289.83C430.27 289.909 430.264 289.99 430.241 290.066C430.218 290.143 430.179 290.213 430.126 290.273C430.073 290.333 430.009 290.382 429.936 290.415C429.863 290.448 429.784 290.465 429.705 290.465C429.625 290.465 429.546 290.448 429.473 290.415C429.4 290.382 429.336 290.333 429.283 290.273C429.23 290.213 429.191 290.143 429.168 290.066C429.145 289.99 429.139 289.909 429.15 289.83ZM429.15 292.4C429.139 292.321 429.145 292.24 429.168 292.164C429.191 292.087 429.23 292.017 429.283 291.957C429.336 291.897 429.4 291.848 429.473 291.815C429.546 291.782 429.625 291.765 429.705 291.765C429.784 291.765 429.863 291.782 429.936 291.815C430.009 291.848 430.073 291.897 430.126 291.957C430.179 292.017 430.218 292.087 430.241 292.164C430.264 292.24 430.27 292.321 430.26 292.4C430.27 292.479 430.264 292.56 430.241 292.636C430.218 292.713 430.179 292.783 430.126 292.843C430.073 292.903 430.009 292.952 429.936 292.985C429.863 293.018 429.784 293.035 429.705 293.035C429.625 293.035 429.546 293.018 429.473 292.985C429.4 292.952 429.336 292.903 429.283 292.843C429.23 292.783 429.191 292.713 429.168 292.636C429.145 292.56 429.139 292.479 429.15 292.4Z" fill="white"/>
<path d="M430.818 290.55C430.818 289 431.668 288.12 432.818 288.12C433.968 288.12 434.818 289 434.818 290.55C434.818 292.1 433.968 292.98 432.818 292.98C431.668 292.98 430.818 292.1 430.818 290.55ZM433.878 290.55C433.878 289.41 433.438 288.89 432.788 288.89C432.138 288.89 431.698 289.41 431.698 290.55C431.698 291.69 432.148 292.22 432.788 292.22C433.428 292.22 433.878 291.69 433.878 290.55Z" fill="white"/>
<path d="M435.35 290.55C435.35 289 436.2 288.12 437.35 288.12C438.5 288.12 439.35 289 439.35 290.55C439.35 292.1 438.5 292.98 437.35 292.98C436.2 292.98 435.35 292.1 435.35 290.55ZM438.42 290.55C438.42 289.41 437.97 288.89 437.32 288.89C436.67 288.89 436.24 289.41 436.24 290.55C436.24 291.69 436.68 292.22 437.32 292.22C437.96 292.22 438.42 291.69 438.42 290.55Z" fill="white"/>
<path d="M446.929 290.26H445.289V285.55H449.999V287.18H446.929V290.26Z" fill="white"/>
<path d="M449.999 296.4H445.289V291.7H446.919V294.77H449.999V296.4Z" fill="white"/>
<path d="M457.499 296.4H452.799V294.77H455.859V291.69H457.499V296.4Z" fill="white"/>
<path d="M457.499 290.25H455.869V287.18H452.789V285.55H457.499V290.25Z" fill="white"/>
<path d="M88.1898 76.0801H62.4498L49.5898 98.3701L62.4498 120.65H88.1898L101.05 98.3701L88.1898 76.0801Z" fill="#EBEBEB"/>
<path d="M64.5492 102.73C63.3525 101.5 62.2991 100.138 61.4092 98.67C60.5119 97.1886 60.1353 95.4499 60.3392 93.73C60.6092 92.7659 60.8262 91.7878 60.9892 90.8C61.0892 89.42 60.5092 87.98 60.9892 86.69C61.7492 84.69 64.4592 84.36 66.1092 82.97C67.3892 81.88 68.0192 80.12 69.4292 79.21C70.7388 78.5166 72.2521 78.3111 73.6992 78.63C75.131 78.9599 76.6019 79.0878 78.0692 79.01C79.0828 78.793 80.0841 78.5226 81.0692 78.2C82.0598 77.8885 83.1316 77.9635 84.0692 78.41C84.5272 78.6601 84.8693 79.0793 85.0225 79.5782C85.1757 80.077 85.1278 80.616 84.8892 81.08C86.5792 80.3 88.7192 81.62 89.1792 83.41C89.3555 84.3263 89.272 85.2736 88.938 86.1448C88.604 87.0161 88.0328 87.7765 87.2892 88.34C85.7931 89.4546 84.0381 90.1704 82.1892 90.42C77.0192 91.42 71.4192 90.85 66.9692 88.05" fill="#263238"/>
<path d="M88.4086 108.23C88.2386 105.04 87.3486 98.5 86.4686 92.59C86.0135 89.5284 84.4244 86.7496 82.0164 84.8047C79.6084 82.8598 76.5575 81.8909 73.4686 82.09H72.8286C65.9886 82.95 62.8986 89.24 63.9486 96.09L65.9486 120.64H82.6486C82.6486 120.64 82.2486 116.33 82.2486 116.29C82.2486 116.25 88.7686 114.83 88.4086 108.23Z" fill="#FFBE9D"/>
<path d="M82.2388 116.21C79.1949 116.466 76.1434 115.815 73.4688 114.34C73.4688 114.34 75.8287 118.95 82.3687 117.92L82.2388 116.21Z" fill="#EB996E"/>
<path d="M84.3383 98.25C84.3578 98.4936 84.2806 98.7351 84.1234 98.9222C83.9662 99.1094 83.7417 99.2271 83.4984 99.25C83.3813 99.2654 83.2624 99.2573 83.1486 99.2263C83.0347 99.1953 82.9281 99.1419 82.8351 99.0693C82.742 98.9967 82.6643 98.9064 82.6065 98.8035C82.5487 98.7006 82.5119 98.5872 82.4984 98.47C82.4815 98.2269 82.5596 97.9868 82.7163 97.8003C82.873 97.6137 83.096 97.4953 83.3383 97.47C83.4554 97.4546 83.5743 97.4627 83.6881 97.4937C83.802 97.5247 83.9086 97.578 84.0016 97.6506C84.0947 97.7232 84.1724 97.8136 84.2302 97.9165C84.288 98.0194 84.3248 98.1327 84.3383 98.25Z" fill="#263238"/>
<path d="M85.2689 95.91C85.1589 96.04 84.4089 95.56 83.3889 95.63C82.3689 95.7 81.6689 96.26 81.5489 96.14C81.4289 96.02 81.5489 95.86 81.9089 95.6C82.3272 95.2691 82.8366 95.0737 83.3689 95.04C83.8968 95.0021 84.4228 95.1353 84.8689 95.42C85.1989 95.64 85.3189 95.85 85.2689 95.91Z" fill="#263238"/>
<path d="M74.76 98.9402C74.7631 99.1799 74.68 99.4127 74.5258 99.5963C74.3716 99.7798 74.1566 99.9019 73.92 99.9402C73.6831 99.9657 73.4456 99.8972 73.2586 99.7495C73.0716 99.6018 72.9501 99.3866 72.92 99.1502C72.9169 98.9105 73 98.6777 73.1542 98.4942C73.3084 98.3106 73.5234 98.1886 73.76 98.1502C73.9969 98.1248 74.2344 98.1933 74.4214 98.341C74.6084 98.4887 74.7299 98.7039 74.76 98.9402Z" fill="#263238"/>
<path d="M75.3099 96.77C75.1999 96.9 74.4499 96.42 73.4299 96.49C72.4099 96.56 71.7099 97.11 71.5899 97C71.4699 96.89 71.5899 96.72 71.9499 96.46C72.3687 96.1216 72.8823 95.9216 73.4197 95.8875C73.9571 95.8535 74.4918 95.9871 74.9499 96.27C75.2399 96.49 75.3599 96.71 75.3099 96.77Z" fill="#263238"/>
<path d="M79.489 104C80.0127 103.795 80.5604 103.657 81.119 103.59C81.379 103.59 81.619 103.48 81.649 103.3C81.653 103.033 81.5763 102.772 81.429 102.55L80.529 100.63C79.7097 99.0197 79.0176 97.348 78.459 95.6299C79.4127 97.1837 80.2388 98.8124 80.929 100.5C81.229 101.17 81.519 101.82 81.799 102.43C81.9736 102.732 82.0439 103.084 81.999 103.43C81.9661 103.523 81.9133 103.608 81.8443 103.679C81.7752 103.75 81.6915 103.805 81.599 103.84C81.4562 103.886 81.3086 103.916 81.159 103.93C80.6076 104.024 80.0464 104.048 79.489 104Z" fill="#263238"/>
<path d="M75.2986 92.77C75.2186 93.05 74.1986 92.99 73.0186 93.22C71.8386 93.45 70.8986 93.83 70.7186 93.59C70.5386 93.35 70.7986 93.21 71.1686 92.91C71.6611 92.5443 72.2335 92.301 72.8386 92.2C73.4402 92.0816 74.0617 92.1125 74.6486 92.29C75.0986 92.44 75.3386 92.64 75.2986 92.77Z" fill="#263238"/>
<path d="M84.6991 93.0002C84.5291 93.2402 83.8191 93.0502 82.9791 93.0902C82.1391 93.1302 81.4391 93.3502 81.2591 93.0902C81.0791 92.8302 81.2591 92.7402 81.5691 92.5002C81.9649 92.2032 82.4444 92.0387 82.9391 92.0302C83.4325 92.0084 83.9209 92.1375 84.3391 92.4002C84.6491 92.6502 84.7691 92.8802 84.6991 93.0002Z" fill="#263238"/>
<path d="M64.7995 101C64.6795 101 60.1694 99.9999 60.6194 104.47C61.0694 108.94 65.9495 107.47 65.9395 107.37C65.9295 107.27 64.7995 101 64.7995 101Z" fill="#FFBE9D"/>
<path d="M63.9385 105.85C63.9385 105.85 63.8685 105.91 63.7485 105.98C63.5684 106.079 63.3568 106.104 63.1585 106.05C62.8493 105.895 62.5871 105.661 62.399 105.371C62.2108 105.081 62.1036 104.745 62.0885 104.4C62.0365 104.017 62.0741 103.626 62.1985 103.26C62.2244 103.113 62.2864 102.975 62.3789 102.858C62.4715 102.741 62.5916 102.649 62.7285 102.59C62.816 102.56 62.911 102.561 62.9981 102.591C63.0852 102.622 63.1594 102.682 63.2085 102.76C63.2885 102.88 63.2685 102.98 63.2885 102.98C63.3085 102.98 63.3785 102.9 63.2885 102.71C63.2523 102.604 63.182 102.512 63.0885 102.45C63.0223 102.408 62.9482 102.38 62.8708 102.368C62.7934 102.356 62.7143 102.36 62.6385 102.38C62.4582 102.437 62.2951 102.538 62.1641 102.674C62.033 102.811 61.9383 102.978 61.8885 103.16C61.7385 103.569 61.6905 104.008 61.7485 104.44C61.7596 104.844 61.8925 105.234 62.1299 105.561C62.3673 105.888 62.698 106.135 63.0785 106.27C63.2035 106.293 63.3321 106.288 63.4548 106.255C63.5776 106.222 63.6916 106.162 63.7885 106.08C63.9985 106 63.9985 105.85 63.9385 105.85Z" fill="#EB996E"/>
<path d="M86.1393 86.4202C85.8293 88.2102 82.1893 89.8602 79.1393 89.7702C76.3593 89.6902 74.9793 88.3102 72.9693 87.3302C71.6893 86.7102 71.6893 86.7102 69.9693 86.9902C68.5693 87.2202 67.8393 88.8702 67.0593 90.0602C68.5593 93.3302 67.9493 97.1302 67.3093 100.67C67.2846 101.068 67.126 101.445 66.8593 101.74C66.5711 101.917 66.2298 101.987 65.8952 101.938C65.5606 101.889 65.2541 101.723 65.0293 101.47C64.2894 100.674 63.7962 99.6808 63.6093 98.6102C62.9794 96.22 62.8298 93.7286 63.1693 91.2802C63.5009 88.8308 64.544 86.5325 66.1693 84.6702C68.3121 82.4115 71.2488 81.074 74.3593 80.9402C77.4565 80.8259 80.5111 81.6901 83.0893 83.4102C84.3193 84.1503 85.3493 85.1803 86.0893 86.4102" fill="#263238"/>
<path d="M80.1584 106.32L77.8584 105.25C77.7308 105.177 77.5851 105.143 77.4384 105.15C77.2782 105.186 77.1383 105.283 77.0484 105.42C76.7787 105.741 76.61 106.134 76.5638 106.55C76.5175 106.967 76.5957 107.388 76.7884 107.76C76.9983 108.124 77.3298 108.403 77.7248 108.548C78.1197 108.692 78.553 108.693 78.9484 108.55C79.3349 108.338 79.6569 108.025 79.8805 107.645C80.104 107.264 80.2208 106.831 80.2184 106.39L80.1584 106.32Z" fill="#EB996E"/>
<path d="M78.9987 108.72C78.9987 108.72 78.5187 109.09 77.6487 108.84C77.1408 108.668 76.7161 108.311 76.4588 107.84C76.2953 107.558 76.197 107.242 76.171 106.917C76.145 106.592 76.1921 106.265 76.3087 105.96C76.4309 105.642 76.6222 105.355 76.8687 105.12C76.9882 105.01 77.1189 104.913 77.2587 104.83C77.3511 104.781 77.4541 104.755 77.5587 104.755C77.6633 104.755 77.7663 104.781 77.8587 104.83C78.3887 105.12 78.7387 105.37 79.0887 105.59C79.7587 106.04 80.1587 106.35 80.0887 106.41C80.0187 106.47 79.5887 106.28 78.8687 105.91L77.6387 105.27C77.5487 105.27 77.5588 105.27 77.4588 105.27C77.3583 105.338 77.2645 105.415 77.1787 105.5C76.9905 105.685 76.8468 105.911 76.7587 106.16C76.6692 106.395 76.63 106.647 76.6438 106.899C76.6576 107.15 76.724 107.396 76.8387 107.62C77.0335 107.997 77.3509 108.297 77.7387 108.47C78.4887 108.79 78.9987 108.63 78.9987 108.72Z" fill="#263238"/>
<path d="M78.2899 98.3602C78.2899 98.3602 78.2899 97.9502 78.0499 97.2402C77.7602 96.2492 77.1522 95.3812 76.3199 94.7702C75.6535 94.2747 74.8625 93.9741 74.0352 93.9021C73.2079 93.8301 72.3769 93.9894 71.6349 94.3623C70.8929 94.7352 70.2691 95.307 69.8333 96.0138C69.3974 96.7207 69.1666 97.5348 69.1666 98.3652C69.1666 99.1956 69.3974 100.01 69.8333 100.717C70.2691 101.423 70.8929 101.995 71.6349 102.368C72.3769 102.741 73.2079 102.9 74.0352 102.828C74.8625 102.756 75.6535 102.456 76.3199 101.96C77.1522 101.349 77.7602 100.481 78.0499 99.4902C78.2499 98.7802 78.2399 98.3602 78.2899 98.3602C78.3399 98.3602 78.2899 98.4702 78.2899 98.6702C78.2962 98.9628 78.266 99.2551 78.1999 99.5402C77.975 100.615 77.3761 101.575 76.5099 102.25C75.8622 102.756 75.0978 103.09 74.287 103.223C73.4762 103.356 72.645 103.283 71.8699 103.01C70.9108 102.669 70.0808 102.039 69.4938 101.208C68.9069 100.376 68.5918 99.3831 68.5918 98.3652C68.5918 97.3473 68.9069 96.3543 69.4938 95.5226C70.0808 94.6909 70.9108 94.0613 71.8699 93.7202C72.645 93.4477 73.4762 93.3745 74.287 93.5073C75.0978 93.6401 75.8622 93.9747 76.5099 94.4802C77.3761 95.1551 77.975 96.1153 78.1999 97.1902C78.2664 97.4752 78.2967 97.7676 78.2899 98.0602C78.3199 98.2602 78.3099 98.3602 78.2899 98.3602Z" fill="#263238"/>
<path d="M89.5193 97.9201C89.4693 97.9201 89.5193 97.5201 89.2793 96.8301C88.9992 95.8667 88.4085 95.023 87.5993 94.43C86.9506 93.9482 86.1809 93.6561 85.3759 93.5863C84.5709 93.5166 83.7624 93.6718 83.0405 94.0348C82.3186 94.3979 81.7119 94.9543 81.2879 95.6421C80.8639 96.3299 80.6393 97.122 80.6393 97.93C80.6393 98.738 80.8639 99.5302 81.2879 100.218C81.7119 100.906 82.3186 101.462 83.0405 101.825C83.7624 102.188 84.5709 102.344 85.3759 102.274C86.1809 102.204 86.9506 101.912 87.5993 101.43C88.4085 100.837 88.9992 99.9934 89.2793 99.0301C89.4793 98.3401 89.4693 97.93 89.5193 97.93C89.5693 97.93 89.5193 98.03 89.5193 98.23C89.5248 98.5155 89.4979 98.8007 89.4393 99.0801C89.216 100.126 88.6319 101.061 87.7892 101.72C87.1573 102.214 86.4109 102.541 85.6191 102.671C84.8273 102.8 84.0156 102.728 83.2592 102.46C82.3248 102.126 81.5164 101.512 80.9448 100.701C80.3732 99.8901 80.0664 98.9222 80.0664 97.93C80.0664 96.9379 80.3732 95.97 80.9448 95.159C81.5164 94.348 82.3248 93.7336 83.2592 93.4C84.0156 93.1325 84.8273 93.06 85.6191 93.1894C86.4109 93.3187 87.1573 93.6457 87.7892 94.1401C88.6326 94.8029 89.2166 95.7407 89.4393 96.79C89.4987 97.0693 89.5256 97.3546 89.5193 97.6401C89.5493 97.8201 89.5393 97.9201 89.5193 97.9201Z" fill="#263238"/>
<path d="M80.3595 96.8899C80.2595 96.9799 79.8095 96.6899 79.2095 96.7099C78.6095 96.7299 78.2095 97.0199 78.0695 96.9299C77.9295 96.8399 78.3495 96.2099 79.1995 96.1899C80.0495 96.1699 80.4895 96.8099 80.3595 96.8899Z" fill="#263238"/>
<path d="M69.1694 97.7002C69.2594 97.8102 68.3795 98.6102 67.2195 99.4802C66.5635 100.079 65.7954 100.541 64.9595 100.84C64.8695 100.73 65.7495 99.9302 66.9095 99.0602C67.5638 98.4596 68.3324 97.9971 69.1694 97.7002Z" fill="#263238"/>
<path d="M161.998 98.1399C161.998 98.2799 150.428 98.3999 136.158 98.3999C121.888 98.3999 110.318 98.2799 110.318 98.1399C110.318 97.9999 121.888 97.8799 136.158 97.8799C150.428 97.8799 161.998 97.9999 161.998 98.1399Z" fill="#263238"/>
<path d="M138.088 103.55C138.088 103.69 131.948 103.81 124.368 103.81C116.788 103.81 110.648 103.69 110.648 103.55C110.648 103.41 116.788 103.28 124.368 103.28C131.948 103.28 138.088 103.4 138.088 103.55Z" fill="#263238"/>
<path d="M316.789 138.09C321.316 140.664 325.287 144.111 328.473 148.231C331.658 152.35 333.996 157.061 335.349 162.09C340.179 179.37 354.949 224.37 354.949 224.37C354.949 224.37 363.389 234.3 364.289 241.65C365.189 249 363.389 266.79 360.669 270.11C359.881 271.073 358.869 271.829 357.723 272.312C356.576 272.795 355.328 272.99 354.089 272.88L318.559 269.51L304.559 175.83L316.789 138.09Z" fill="#704FE6"/>
<path d="M199.308 136.46C199.308 136.46 173.898 144.46 167.568 151.36L188.368 248.12L187.998 278.66H308.478C308.478 277.15 309.558 177.28 309.558 177.28L316.788 138.09L273.998 130.56L265.558 123.92L217.928 126.34L210.688 133.57L199.308 136.46Z" fill="#704FE6"/>
<g opacity="0.3">
<path d="M209 220.41C208.63 219.59 208.09 218.7 207.21 218.52C205.76 218.22 204.79 219.93 204.3 221.33C200.458 232.299 195.136 242.692 188.48 252.22L188.17 267.08C195.17 261.17 202.11 254.84 206.59 246.83C211.07 238.82 212.74 228.77 209 220.41Z" fill="black"/>
</g>
<path d="M167.569 151.36C167.569 151.36 159.199 162.77 155.729 170.22C152.259 177.67 123.449 240.22 121.729 246.69C120.009 253.16 115.529 273.5 128.679 278.22H155.749L182.909 223.29L184.299 159.54L167.569 151.36Z" fill="#704FE6"/>
<path d="M157.46 238.54C157.46 238.54 156.86 238.01 155.61 237.3C153.826 236.343 151.913 235.649 149.93 235.24C148.567 234.941 147.183 234.747 145.79 234.66C144.185 234.539 142.572 234.654 141 235C137.443 235.913 134.259 237.913 131.89 240.72C129.482 243.495 127.72 246.771 126.73 250.31C125.913 253.202 125.371 256.166 125.11 259.16C124.85 261.72 124.76 263.81 124.67 265.24C124.67 265.92 124.59 266.47 124.57 266.9C124.571 267.096 124.544 267.291 124.49 267.48C124.477 267.287 124.477 267.093 124.49 266.9C124.49 266.46 124.49 265.9 124.49 265.24C124.49 263.79 124.55 261.71 124.76 259.13C124.972 256.087 125.484 253.072 126.29 250.13C127.273 246.511 129.061 243.161 131.52 240.33C133.962 237.444 137.251 235.401 140.92 234.49C142.524 234.156 144.169 234.065 145.8 234.22C147.212 234.324 148.613 234.541 149.99 234.87C151.995 235.316 153.918 236.071 155.69 237.11C156.167 237.405 156.619 237.739 157.04 238.11C157.195 238.238 157.336 238.382 157.46 238.54Z" fill="#263238"/>
<path d="M144.629 227.6C144.925 227.514 145.231 227.467 145.539 227.46C146.374 227.395 147.213 227.395 148.049 227.46C149.293 227.533 150.528 227.717 151.739 228.01C154.719 228.73 157.515 230.065 159.949 231.93C160.94 232.684 161.861 233.528 162.699 234.45C163.267 235.075 163.785 235.744 164.249 236.45C164.438 236.695 164.592 236.964 164.709 237.25C164.629 237.31 163.889 236.25 162.429 234.73C161.566 233.865 160.64 233.067 159.659 232.34C158.45 231.46 157.165 230.69 155.819 230.04C154.465 229.408 153.06 228.893 151.619 228.5C150.437 228.195 149.233 227.981 148.019 227.86C145.939 227.59 144.629 227.7 144.629 227.6Z" fill="#263238"/>
<path d="M169.09 224.59C168.671 224.607 168.252 224.577 167.84 224.5C167.04 224.4 165.89 224.28 164.45 224.17C156.972 223.612 149.456 224.512 142.32 226.82C140.95 227.26 139.85 227.65 139.1 227.94C138.717 228.109 138.319 228.24 137.91 228.33C138.254 228.091 138.627 227.896 139.02 227.75C139.75 227.4 140.84 226.96 142.2 226.47C149.341 223.942 156.955 223.033 164.49 223.81C165.92 223.96 167.08 224.13 167.87 224.3C168.285 224.358 168.694 224.455 169.09 224.59Z" fill="#263238"/>
<path d="M246.179 171.14C246.069 171.045 245.975 170.934 245.899 170.81L245.159 169.81L242.439 166.05C240.109 162.75 236.849 158.15 233.019 152.75L233.439 152.69C231.979 156.97 230.369 161.69 228.679 166.69L228.569 167L228.289 166.82L227.729 166.46C225.55 165.065 223.569 163.383 221.839 161.46C220.24 159.669 218.829 157.719 217.629 155.64C215.631 152.122 214.076 148.37 212.999 144.47C212.276 141.836 211.692 139.165 211.249 136.47C211.089 135.57 210.969 134.84 210.869 134.29C210.84 134.103 210.797 133.919 210.739 133.74C210.739 133.62 210.669 133.56 210.679 133.55C210.689 133.54 211.089 134.55 211.449 136.44C211.809 138.33 212.379 141.05 213.359 144.34C214.466 148.204 216.041 151.918 218.049 155.4C219.246 157.44 220.643 159.356 222.219 161.12C223.919 162.997 225.863 164.639 227.999 166L228.549 166.36L228.169 166.5C229.879 161.5 231.499 156.81 232.979 152.5L233.129 152.06L233.399 152.44C237.159 157.89 240.399 162.53 242.669 165.85C243.759 167.47 244.669 168.76 245.279 169.7L245.949 170.7C246.041 170.838 246.118 170.986 246.179 171.14Z" fill="#263238"/>
<g opacity="0.3">
<path d="M277.53 217.33C276.451 228.614 278.897 239.954 284.53 249.79C290.13 259.53 298.35 268.22 308.58 272.88C308.91 262.95 308.43 251.25 308.76 241.32L277.53 217.33Z" fill="black"/>
</g>
<path d="M276.399 204.26C276.399 204.26 272.019 205.47 275.299 214.44C278.579 223.41 279.679 222.86 281.869 231.24C284.059 239.62 286.609 247.24 290.429 252.02C294.249 256.8 308.479 266.42 308.479 266.42L321.239 254.42C321.239 254.42 319.139 245.42 319.639 239.36C320.139 233.3 321.419 218.36 321.239 215.77C321.059 213.18 318.319 207.02 318.319 207.02V202.78L311.759 182.6C311.759 182.6 308.109 180.96 306.839 186.79L304.649 180.6C304.649 180.6 301.189 180.05 300.279 187.16C299.369 194.27 301.009 204.11 301.009 204.11L299.179 216.5L296.449 224.89L294.079 225.25C294.079 225.25 290.509 224.25 288.559 217.56C286.609 210.87 281.319 202.8 276.399 204.26Z" fill="#FFBE9D"/>
<path d="M317 236C317 236 317 235.85 316.94 235.55C316.88 235.25 316.88 234.76 316.85 234.21C316.78 232.99 316.69 231.3 316.58 229.21C316.38 224.86 316.11 218.8 315.79 211.73L315.84 211.88C315.513 211.541 315.1 211.299 314.645 211.179C314.19 211.059 313.711 211.066 313.26 211.2C312.771 211.319 312.31 211.534 311.905 211.832C311.499 212.131 311.158 212.508 310.9 212.94C309.78 214.73 309.72 217.07 309.37 219.32C308.68 224.43 308.02 229.32 307.42 233.73C307.12 235.95 306.8 238.05 306.37 240C305.965 241.808 305.434 243.586 304.78 245.32C304.22 246.91 303.72 248.32 303.41 249.65C303.133 250.745 302.995 251.87 303 253C303.035 253.972 303.203 254.934 303.5 255.86C303.38 255.636 303.279 255.401 303.2 255.16C302.963 254.466 302.828 253.742 302.8 253.01C302.752 251.85 302.863 250.689 303.13 249.56C303.48 248.075 303.918 246.613 304.44 245.18C305.058 243.452 305.559 241.685 305.94 239.89C306.35 237.96 306.66 235.89 306.94 233.65C307.52 229.21 308.17 224.35 308.85 219.23C309.01 218.1 309.13 216.97 309.33 215.85C309.494 214.718 309.874 213.628 310.45 212.64C310.747 212.154 311.138 211.733 311.6 211.4C312.062 211.067 312.585 210.829 313.14 210.7C313.679 210.538 314.252 210.531 314.795 210.679C315.338 210.828 315.828 211.126 316.21 211.54L316.26 211.61V211.69C316.51 218.76 316.72 224.82 316.87 229.18C316.87 231.29 316.96 232.98 317 234.18C317 234.73 317 235.18 317 235.52C317.017 235.679 317.017 235.84 317 236Z" fill="#EB996E"/>
<path d="M310 213C309.772 212.644 309.591 212.261 309.46 211.86C309.042 210.794 308.685 209.706 308.39 208.6C307.961 206.959 307.656 205.287 307.48 203.6C307.356 202.605 307.336 201.599 307.42 200.6C307.512 199.483 307.891 198.408 308.52 197.48C309.08 196.648 309.905 196.028 310.86 195.72L311.05 195.67L311.15 195.84C313 199.1 314.61 201.98 315.73 204.05L317.04 206.5C317.219 206.787 317.36 207.096 317.46 207.42C317.236 207.166 317.041 206.887 316.88 206.59L315.44 204.22C314.24 202.22 312.57 199.35 310.71 196.1L311 196.22C310.163 196.5 309.442 197.048 308.95 197.78C308.374 198.638 308.029 199.63 307.95 200.66C307.849 201.637 307.849 202.622 307.95 203.6C308.1 205.282 308.364 206.953 308.74 208.6C309.06 210 309.41 211.12 309.64 211.89C309.796 212.247 309.917 212.619 310 213Z" fill="#EB996E"/>
<path d="M306.939 214.64C306.85 214.256 306.81 213.863 306.819 213.47C306.819 212.61 306.739 211.55 306.689 210.3C306.609 207.62 306.519 203.92 306.469 199.83C306.32 196.333 306.373 192.83 306.629 189.34C306.754 188.28 306.982 187.235 307.309 186.22C307.406 185.837 307.565 185.472 307.779 185.14C307.412 186.532 307.148 187.949 306.989 189.38C306.739 192.03 306.989 195.73 306.989 199.82C306.989 203.91 307.069 207.61 307.059 210.29C307.059 211.55 307.059 212.61 307.059 213.47C307.062 213.863 307.022 214.255 306.939 214.64Z" fill="#EB996E"/>
<path d="M296.149 248.25C296.079 248.19 296.879 247.25 297.859 245.54C298.433 244.542 298.932 243.502 299.349 242.43C299.84 241.11 300.221 239.752 300.489 238.37C300.722 236.982 300.84 235.577 300.839 234.17C300.824 233.02 300.723 231.874 300.539 230.74C300.209 228.79 299.789 227.63 299.879 227.6C300.036 227.844 300.158 228.11 300.239 228.39C300.521 229.13 300.742 229.893 300.899 230.67C301.144 231.818 301.284 232.986 301.319 234.16C301.407 237.052 300.885 239.931 299.789 242.61C299.347 243.696 298.808 244.74 298.179 245.73C297.762 246.401 297.29 247.036 296.769 247.63C296.399 248.05 296.179 248.27 296.149 248.25Z" fill="#EB996E"/>
<path d="M318.548 242L329.618 245.84C329.618 245.84 340.198 240.37 347.488 245.84C354.778 251.31 361.108 265.72 359.108 271.55C359.108 271.55 354.109 277.77 350.249 278.68C346.389 279.59 331.539 275.98 325.349 274.68C319.159 273.38 308.479 266.44 308.479 266.44L318.548 242Z" fill="#FFBE9D"/>
<path d="M319.909 258.29C319.832 257.962 319.791 257.627 319.789 257.29C319.789 256.54 319.699 255.65 319.639 254.61C319.519 252.35 319.369 249.23 319.319 245.77C319.269 242.31 319.369 239.18 319.569 236.92C319.669 235.79 319.799 234.92 319.909 234.25C319.934 233.907 320.012 233.569 320.139 233.25C320.219 233.25 320.049 234.65 319.939 236.91C319.829 239.17 319.789 242.28 319.839 245.73C319.889 249.18 319.959 252.16 319.999 254.56C319.999 255.69 319.999 256.61 319.999 257.24C320.026 257.593 319.996 257.947 319.909 258.29Z" fill="#EB996E"/>
<path d="M356.419 245.38C355.272 244.188 354.042 243.079 352.739 242.06C349.537 239.664 345.698 238.269 341.705 238.05C337.712 237.831 333.743 238.799 330.299 240.83C328.901 241.701 327.565 242.667 326.299 243.72C326.563 243.353 326.868 243.017 327.209 242.72C328.109 241.884 329.09 241.14 330.139 240.5C333.617 238.334 337.678 237.293 341.77 237.52C345.861 237.748 349.782 239.232 352.999 241.77C353.971 242.518 354.863 243.366 355.659 244.3C355.954 244.629 356.209 244.991 356.419 245.38Z" fill="#263238"/>
<path d="M355 236.15C353.57 235.123 352.022 234.27 350.39 233.61C346.378 232.186 342.02 232.056 337.93 233.24C335.68 233.871 333.515 234.771 331.48 235.92C329.824 236.872 328.26 237.977 326.81 239.22C325.57 240.28 324.62 241.22 323.97 241.85C323.651 242.214 323.299 242.549 322.92 242.85C323.18 242.446 323.482 242.071 323.82 241.73C324.684 240.756 325.602 239.831 326.57 238.96C328.007 237.662 329.572 236.513 331.24 235.53C333.295 234.329 335.497 233.398 337.79 232.76C341.98 231.536 346.456 231.722 350.53 233.29C351.747 233.776 352.893 234.422 353.94 235.21C354.31 235.48 354.56 235.74 354.75 235.9C354.94 236.06 355 236.14 355 236.15Z" fill="#263238"/>
<path d="M355.088 228.15C355.088 228.25 353.088 227.66 349.908 227.23C348.029 226.978 346.134 226.857 344.238 226.87C341.916 226.895 339.599 227.102 337.308 227.49C335.023 227.91 332.773 228.505 330.578 229.27C328.79 229.905 327.049 230.667 325.368 231.55C322.498 233.05 320.878 234.27 320.818 234.18C321.158 233.85 321.53 233.555 321.928 233.3C322.364 232.957 322.822 232.643 323.298 232.36C323.848 232.01 324.468 231.6 325.188 231.22C326.869 230.29 328.617 229.488 330.418 228.82C332.628 228.013 334.903 227.398 337.218 226.98C339.531 226.588 341.873 226.391 344.218 226.39C346.138 226.399 348.053 226.556 349.948 226.86C350.758 226.96 351.478 227.15 352.108 227.28C352.656 227.39 353.196 227.531 353.728 227.7C354.194 227.81 354.649 227.961 355.088 228.15Z" fill="#263238"/>
<path d="M270.259 130.23C270.674 131.161 270.93 132.155 271.019 133.17C271.317 136.038 271.176 138.935 270.599 141.76C270.248 143.788 269.771 145.792 269.169 147.76C268.381 150.05 267.411 152.274 266.269 154.41C263.879 159.01 260.879 164.02 257.399 169.41L256.999 170.04V169.29C256.999 165.75 256.999 162.04 256.999 158.19L257.389 158.38L247.999 165.87L248.079 165.75C245.852 173.049 244.482 180.584 243.999 188.2C243.079 200.37 243.819 212.01 244.389 222.57C244.959 233.13 245.209 242.66 245.539 250.66C245.869 258.66 246.139 265.12 246.379 269.59C246.519 271.81 246.619 273.53 246.689 274.73C246.689 275.3 246.759 275.73 246.779 276.07C246.799 276.41 246.779 276.53 246.779 276.53C246.779 276.53 246.779 276.38 246.709 276.08C246.639 275.78 246.629 275.31 246.569 274.74C246.459 273.57 246.319 271.84 246.169 269.6C245.869 265.14 245.519 258.67 245.169 250.67C244.819 242.67 244.389 233.16 243.909 222.59C243.429 212.02 242.559 200.37 243.479 188.16C243.985 180.498 245.391 172.923 247.669 165.59V165.52H247.729L257.089 158.01L257.479 157.69V158.19C257.479 162.04 257.479 165.75 257.479 169.29L257.069 169.16C263.939 158.51 269.529 149.25 270.389 141.76C270.983 138.961 271.165 136.091 270.929 133.24C270.847 132.491 270.71 131.749 270.519 131.02C270.319 130.48 270.259 130.23 270.259 130.23Z" fill="#263238"/>
<path d="M252.319 259.22H251.999C251.271 259.266 250.59 259.595 250.099 260.135C249.608 260.675 249.347 261.385 249.371 262.114C249.394 262.843 249.7 263.535 250.224 264.043C250.748 264.55 251.449 264.834 252.179 264.834C252.909 264.834 253.61 264.55 254.134 264.043C254.658 263.535 254.964 262.843 254.988 262.114C255.011 261.385 254.75 260.675 254.259 260.135C253.769 259.595 253.087 259.266 252.359 259.22H252.319Z" fill="white"/>
<path d="M252.319 220.68H251.999C251.273 220.726 250.595 221.054 250.106 221.592C249.617 222.13 249.357 222.837 249.38 223.564C249.404 224.291 249.709 224.98 250.231 225.485C250.753 225.991 251.452 226.274 252.179 226.274C252.906 226.274 253.604 225.991 254.127 225.485C254.649 224.98 254.954 224.291 254.977 223.564C255.001 222.837 254.741 222.13 254.252 221.592C253.763 221.054 253.084 220.726 252.359 220.68H252.319Z" fill="white"/>
<path d="M252 186.2C252.746 186.249 253.482 185.999 254.044 185.506C254.607 185.013 254.951 184.316 255 183.57C255.049 182.823 254.799 182.088 254.306 181.525C253.813 180.963 253.116 180.619 252.37 180.57H252C251.252 180.57 250.534 180.867 250.006 181.396C249.477 181.925 249.18 182.642 249.18 183.39C249.18 184.138 249.477 184.855 250.006 185.384C250.534 185.913 251.252 186.21 252 186.21V186.2Z" fill="white"/>
<path d="M208.77 85.0699C205.27 81.1799 201.77 77.2598 199.18 72.6998C196.59 68.1398 195.1 62.8098 195.94 57.6998C196.44 54.6998 197.72 51.7998 197.94 48.6998C198.22 44.4998 196.46 40.1098 197.94 36.1798C200.26 30.0198 208.55 29.0699 213.57 24.8199C217.48 21.5099 219.38 16.1399 223.68 13.3599C227.44 10.9199 232.27 10.9798 236.68 11.5998C241.09 12.2198 245.57 13.3498 250.01 12.7498C253.17 12.3298 256.15 11.0498 259.24 10.2798C262.33 9.50985 265.8 9.27985 268.55 10.9198C271.3 12.5598 272.86 16.4298 271.05 19.0598C276.19 16.6898 282.72 20.6998 284.13 26.1798C285.54 31.6598 282.72 37.5898 278.36 41.1798C274 44.7698 268.36 46.4799 262.81 47.5299C247.07 50.5299 229.98 48.8199 216.41 40.2999" fill="#263238"/>
<path d="M264.139 138C263.369 132 262.739 127.07 262.699 126.45C262.699 126.45 282.619 121.97 281.519 101.83C280.989 92.0899 278.269 72.1299 275.589 54.0999C274.212 44.7532 269.363 36.2688 262.009 30.338C254.655 24.4072 245.336 21.4657 235.909 22.0999L233.909 22.2199C213.059 24.8499 203.629 44.0299 206.829 64.8099L218.089 134.48C218.089 134.48 222.889 149.89 233.159 152.56L246.159 171.08L248.299 163.08L257.959 154.66C259.81 152.483 261.411 150.105 262.729 147.57C264.204 144.611 264.698 141.259 264.139 138Z" fill="#FFBE9D"/>
<path d="M262.709 126.17C262.709 126.17 250.059 128.05 235.969 120.46C235.969 120.46 243.149 134.53 263.109 131.38L262.709 126.17Z" fill="#EB996E"/>
<path d="M269.12 71.42C269.176 72.1694 268.938 72.9112 268.456 73.488C267.974 74.0649 267.287 74.4315 266.54 74.51C266.176 74.5633 265.805 74.5431 265.449 74.4506C265.093 74.3581 264.759 74.1951 264.467 73.9714C264.176 73.7476 263.932 73.4676 263.75 73.1478C263.568 72.8281 263.453 72.4752 263.41 72.11C263.343 71.3546 263.578 70.6035 264.063 70.0207C264.548 69.438 265.245 69.071 266 69C266.364 68.9482 266.735 68.9702 267.091 69.0646C267.447 69.159 267.781 69.324 268.072 69.5497C268.363 69.7754 268.605 70.0572 268.785 70.3785C268.965 70.6998 269.079 71.054 269.12 71.42Z" fill="#263238"/>
<path d="M271.928 64.2797C271.598 64.6797 269.308 63.2097 266.218 63.4297C263.128 63.6497 260.998 65.3397 260.598 64.9997C260.428 64.8497 260.748 64.1497 261.688 63.3597C262.962 62.3414 264.52 61.7439 266.148 61.6497C267.759 61.5327 269.364 61.9359 270.728 62.7997C271.728 63.4397 272.088 64.0997 271.928 64.2797Z" fill="#263238"/>
<path d="M239.9 73.5097C239.958 74.2586 239.721 75.0006 239.239 75.5764C238.756 76.1523 238.067 76.5161 237.32 76.5897C236.957 76.6445 236.586 76.6257 236.23 76.5343C235.874 76.443 235.54 76.281 235.248 76.0581C234.956 75.8351 234.712 75.5557 234.53 75.2364C234.348 74.9172 234.233 74.5646 234.19 74.1997C234.134 73.4518 234.37 72.7114 234.85 72.1348C235.329 71.5582 236.014 71.1906 236.76 71.1097C237.124 71.0563 237.496 71.0764 237.852 71.1688C238.209 71.2613 238.543 71.4241 238.836 71.6477C239.128 71.8714 239.373 72.1514 239.556 72.4711C239.739 72.7909 239.856 73.144 239.9 73.5097Z" fill="#263238"/>
<path d="M241.569 66.8901C241.229 67.2901 238.949 65.8201 235.859 66.0401C232.769 66.2601 230.599 67.9501 230.239 67.5901C230.059 67.4401 230.379 66.7401 231.319 65.9501C232.598 64.9333 234.159 64.3361 235.789 64.2401C237.396 64.1246 238.998 64.5277 240.359 65.3901C241.359 66.0501 241.729 66.7101 241.569 66.8901Z" fill="#263238"/>
<path d="M254.319 89.08C254.319 88.9 256.199 88.44 259.319 87.83C260.099 87.7 260.839 87.49 260.939 86.95C260.949 86.1278 260.708 85.3221 260.249 84.64L257.509 78.78C253.699 70.44 250.879 63.55 251.219 63.4C251.559 63.25 254.919 69.89 258.739 78.24L261.379 84.14C261.939 85.0593 262.158 86.1456 261.999 87.21C261.902 87.4952 261.742 87.7548 261.531 87.9695C261.32 88.1843 261.063 88.3485 260.779 88.45C260.349 88.5991 259.903 88.6932 259.449 88.73C256.289 89.11 254.349 89.25 254.319 89.08Z" fill="#263238"/>
<path d="M241.55 54.7096C241.3 55.5796 238.19 55.3796 234.55 56.0596C230.91 56.7396 228.08 57.9296 227.55 57.2096C227.31 56.8596 227.77 56.0396 228.9 55.1396C230.414 54.0412 232.156 53.2997 233.997 52.9706C235.838 52.6416 237.73 52.7335 239.53 53.2396C240.94 53.6896 241.66 54.3096 241.55 54.7096Z" fill="#263238"/>
<path d="M270.19 55.3997C269.7 56.1397 267.52 55.5598 264.95 55.6898C262.38 55.8198 260.25 56.4797 259.7 55.7797C259.46 55.4397 259.76 54.7097 260.7 53.9797C261.922 53.101 263.376 52.6036 264.88 52.5502C266.383 52.4968 267.869 52.8898 269.15 53.6797C270.07 54.3397 270.41 54.9997 270.19 55.3997Z" fill="#263238"/>
<path d="M209.52 79.6597C209.17 79.5397 195.42 76.4997 196.78 90.2297C198.14 103.96 213 99.4797 213 99.0897C213 98.6997 209.52 79.6597 209.52 79.6597Z" fill="#FFBE9D"/>
<path d="M206.92 94.5797C206.85 94.5797 206.7 94.7697 206.31 94.9897C205.768 95.2923 205.129 95.3713 204.53 95.2097C203.02 94.8197 201.53 92.6397 201.26 90.2097C201.111 89.0362 201.223 87.8443 201.59 86.7197C201.68 86.2807 201.874 85.8698 202.156 85.5217C202.438 85.1736 202.799 84.8985 203.21 84.7197C203.479 84.6205 203.774 84.6182 204.044 84.7131C204.314 84.808 204.543 84.9943 204.69 85.2397C204.91 85.6097 204.85 85.8897 204.92 85.8997C204.99 85.9097 205.19 85.6497 205.03 85.0897C204.918 84.7563 204.695 84.4709 204.4 84.2797C204.197 84.1431 203.968 84.048 203.728 84C203.488 83.9519 203.24 83.9518 203 83.9997C202.449 84.1688 201.95 84.4763 201.55 84.8929C201.151 85.3095 200.865 85.8214 200.72 86.3797C200.251 87.6263 200.097 88.9691 200.27 90.2897C200.63 93.0497 202.27 95.4997 204.34 95.8697C204.721 95.942 205.113 95.9274 205.487 95.827C205.861 95.7265 206.207 95.5428 206.5 95.2897C206.93 94.9097 207 94.5997 206.92 94.5797Z" fill="#EB996E"/>
<path d="M274.579 35.3499C273.639 40.8199 262.579 45.8299 253.359 45.5599C244.889 45.3099 240.699 41.1099 234.549 38.1199C230.649 36.2299 230.649 36.2299 225.359 37.1199C221.089 37.8099 218.869 42.8599 216.469 46.4599C221.039 56.4599 219.189 68.0199 217.249 78.82C217.166 80.0379 216.676 81.1928 215.859 82.0999C214.319 83.4599 211.859 82.6499 210.299 81.2599C207.869 79.0299 206.759 75.7299 205.969 72.5299C204.032 65.2517 203.569 57.6595 204.609 50.1999C205.661 42.704 208.887 35.6808 213.89 29.9999C220.431 23.1063 229.395 19.0226 238.89 18.6099C248.337 18.2713 257.65 20.9164 265.509 26.1699C269.149 28.5599 272.509 31.5099 274.609 35.3399" fill="#263238"/>
<path d="M256.349 95.9999L249.349 92.7399C248.965 92.5129 248.524 92.4018 248.079 92.4199C247.586 92.5308 247.154 92.8237 246.869 93.2399C246.048 94.222 245.536 95.4248 245.398 96.6969C245.259 97.9691 245.499 99.254 246.089 100.39C246.729 101.496 247.737 102.344 248.937 102.786C250.137 103.228 251.453 103.236 252.659 102.81C255.139 101.81 256.339 98.8999 256.539 96.2199L256.349 95.9999Z" fill="#EB996E"/>
<path d="M252.88 103.33C252.88 103.39 252.55 103.59 251.88 103.74C250.877 103.92 249.845 103.844 248.88 103.52C247.403 103.023 246.166 101.992 245.41 100.63C244.931 99.7999 244.645 98.8735 244.57 97.9185C244.496 96.9635 244.636 96.0039 244.98 95.1098C245.332 94.1833 245.885 93.3464 246.6 92.6598C246.947 92.3317 247.329 92.0433 247.74 91.7998C247.986 91.6532 248.264 91.5675 248.55 91.5498C248.828 91.5387 249.104 91.5899 249.36 91.6998C249.733 91.8881 250.097 92.095 250.45 92.3198L251.4 92.9098L253.11 93.9698C255.18 95.2898 256.43 96.1698 256.36 96.2898C256.29 96.4098 254.91 95.7698 252.74 94.6098L250.97 93.6098L249.97 93.0598C249.63 92.8898 249.27 92.6598 248.97 92.5398C248.847 92.4808 248.709 92.457 248.573 92.4711C248.438 92.4852 248.308 92.5367 248.2 92.6198C247.868 92.8293 247.559 93.0741 247.28 93.3498C246.686 93.9407 246.223 94.6492 245.92 95.4298C245.63 96.1872 245.506 96.9982 245.558 97.8076C245.61 98.6169 245.835 99.4056 246.22 100.12C246.843 101.317 247.865 102.258 249.11 102.78C249.971 103.127 250.892 103.3 251.82 103.29C252.48 103.32 252.85 103.26 252.88 103.33Z" fill="#263238"/>
<path d="M250.669 71.7697C250.569 70.598 250.386 69.4349 250.119 68.2897C249.624 66.3749 248.733 64.5848 247.505 63.0346C246.277 61.4844 244.738 60.2082 242.987 59.2881C241.236 58.368 239.313 57.8243 237.339 57.692C235.366 57.5596 233.387 57.8416 231.529 58.5197C230.248 58.9792 229.045 59.6299 227.959 60.4497C226.801 61.2786 225.788 62.2921 224.959 63.4497C223.176 65.8594 222.215 68.7775 222.215 71.7747C222.215 74.7719 223.176 77.69 224.959 80.0997C225.788 81.2572 226.801 82.2707 227.959 83.0997C229.045 83.9195 230.248 84.5702 231.529 85.0297C233.387 85.7014 235.365 85.9785 237.336 85.8432C239.308 85.7079 241.229 85.1633 242.978 84.244C244.727 83.3248 246.266 82.0511 247.495 80.5042C248.725 78.9573 249.618 77.1711 250.119 75.2597C250.384 74.1175 250.568 72.9579 250.669 71.7897C250.68 71.8659 250.68 71.9434 250.669 72.0197C250.669 72.1997 250.669 72.4297 250.669 72.6997C250.678 73.0714 250.651 73.4431 250.589 73.8097C250.533 74.3152 250.443 74.8164 250.319 75.3097C250.002 76.671 249.479 77.9761 248.769 79.1797C247.061 82.099 244.384 84.3277 241.203 85.4786C238.023 86.6295 234.539 86.6299 231.359 85.4797C230.034 85.0058 228.789 84.3312 227.669 83.4797C226.475 82.6243 225.428 81.5807 224.569 80.3897C222.722 77.8934 221.725 74.87 221.725 71.7647C221.725 68.6593 222.722 65.6359 224.569 63.1397C225.422 61.9467 226.466 60.9027 227.659 60.0497C228.779 59.1981 230.024 58.5236 231.349 58.0497C233.799 57.1697 236.441 56.9625 238.999 57.4497C241.024 57.837 242.942 58.6531 244.626 59.8432C246.309 61.0333 247.718 62.5699 248.759 64.3497C249.469 65.5533 249.992 66.8583 250.309 68.2197C250.433 68.7129 250.523 69.2141 250.579 69.7197C250.641 70.0863 250.668 70.458 250.659 70.8297C250.659 71.0997 250.659 71.3297 250.659 71.5097C250.675 71.5953 250.678 71.683 250.669 71.7697Z" fill="#263238"/>
<path d="M284.909 70.4199C284.811 69.279 284.634 68.1463 284.379 67.0299C283.578 64.0054 281.781 61.3388 279.279 59.4599C277.575 58.1635 275.587 57.2896 273.479 56.9099C271.061 56.466 268.568 56.6766 266.259 57.5199C265.017 57.9693 263.848 58.5994 262.789 59.3899C261.675 60.2052 260.697 61.1906 259.889 62.3099C258.161 64.6606 257.228 67.5021 257.228 70.4199C257.228 73.3377 258.161 76.1792 259.889 78.5299C260.694 79.6484 261.673 80.6308 262.789 81.4399C263.845 82.2372 265.015 82.8709 266.259 83.3199C268.569 84.1584 271.061 84.3689 273.479 83.9299C275.587 83.5502 277.575 82.6763 279.279 81.3799C281.781 79.501 283.578 76.8344 284.379 73.8099C284.634 72.6935 284.811 71.5608 284.909 70.4199C284.933 70.7161 284.933 71.0137 284.909 71.3099C284.913 71.6748 284.886 72.0394 284.829 72.3999C284.776 72.8919 284.689 73.3798 284.569 73.8599C283.932 76.4789 282.557 78.8602 280.607 80.7213C278.658 82.5824 276.215 83.8452 273.569 84.3599C271.074 84.8308 268.499 84.6272 266.109 83.7699C263.466 82.8071 261.164 81.0894 259.489 78.8299C257.69 76.3951 256.719 73.4474 256.719 70.4199C256.719 67.3924 257.69 64.4447 259.489 62.0099C261.164 59.7504 263.466 58.0327 266.109 57.0699C268.499 56.2126 271.074 56.0089 273.569 56.4799C276.215 56.9946 278.658 58.2574 280.607 60.1185C282.557 61.9796 283.932 64.3609 284.569 66.9799C284.689 67.46 284.776 67.9479 284.829 68.4399C284.886 68.8004 284.913 69.165 284.909 69.5299C284.933 69.8261 284.933 70.1237 284.909 70.4199Z" fill="#263238"/>
<path d="M256.999 67.2597C256.939 67.3097 256.609 67.0397 255.999 66.7497C255.212 66.3752 254.35 66.187 253.479 66.1997C252.61 66.2121 251.756 66.4315 250.989 66.8397C250.389 67.1497 250.069 67.4397 249.989 67.3797C249.909 67.3197 250.169 66.9397 250.769 66.5197C251.559 65.9814 252.489 65.6861 253.445 65.6701C254.401 65.6541 255.341 65.9181 256.149 66.4297C256.759 66.8297 256.999 67.2197 256.999 67.2597Z" fill="#263238"/>
<path d="M222.85 69.73C220.871 71.5273 218.78 73.1973 216.59 74.73C214.495 76.3961 212.297 77.9291 210.01 79.32C211.986 77.516 214.081 75.8456 216.28 74.32C218.369 72.6503 220.563 71.1171 222.85 69.73Z" fill="#263238"/>
<g opacity="0.3">
<path d="M211 134.81C209.61 148.38 214.77 162.71 225.66 170.93C226.51 171.58 227.58 172.22 228.59 171.85C229.263 171.524 229.801 170.972 230.11 170.29C233.159 165.021 234.303 158.863 233.35 152.85C231.63 157.39 230.15 161.85 228.41 166.59C218.94 160.83 213 148.59 211 134.81Z" fill="black"/>
</g>
<path opacity="0.3" d="M247.869 165.67L255.869 162.75L257.189 176.26C257.189 176.26 265.809 160.55 269.379 153.39C272.949 146.23 271.109 133.57 271.109 133.57C271.109 133.57 272.379 144.57 263.749 158.64L257.229 169.24V158.14L247.869 165.67Z" fill="black"/>
<g opacity="0.3">
<path d="M154.999 234.33C151.352 232.781 147.346 232.278 143.429 232.88C139.256 233.221 135.263 234.732 131.909 237.24C128.669 239.85 126.479 243.97 126.909 248.11L127.309 248.16C130.099 240.62 135.639 235.16 142.789 234.47C149.939 233.78 156.909 236.98 161.789 242.23C161.259 238.31 158.519 236 154.999 234.33Z" fill="black"/>
</g>
<g opacity="0.3">
<path d="M356.939 242C354.167 239.155 350.545 237.291 346.619 236.69C343.199 236.118 339.695 236.321 336.365 237.285C333.035 238.249 329.964 239.949 327.379 242.26L328.899 241.02C332.766 238.691 337.205 237.486 341.719 237.54C346.249 237.617 350.593 239.354 353.929 242.42C356.929 245.26 358.719 249.11 360.429 252.86C360.706 250.904 360.536 248.91 359.931 247.029C359.327 245.148 358.304 243.429 356.939 242Z" fill="black"/>
</g>
<path d="M305.449 179.3C305.531 178.925 305.651 178.559 305.809 178.21C306.119 177.42 306.499 176.45 306.939 175.3C307.939 172.85 309.239 169.47 310.639 165.7C312.039 161.93 313.249 158.5 314.119 156.02L315.119 153.07C315.226 152.701 315.374 152.346 315.559 152.01C315.528 152.393 315.444 152.77 315.309 153.13C315.119 153.85 314.819 154.87 314.429 156.13C313.649 158.65 312.489 162.13 311.089 165.88C309.689 169.63 308.299 173.03 307.239 175.44C306.719 176.65 306.239 177.62 305.949 178.29C305.825 178.646 305.657 178.985 305.449 179.3Z" fill="#263238"/>
<path d="M179.38 180.28C179.24 180.28 178.15 175.55 176.95 169.65C175.75 163.75 174.89 159 175 158.92C175.11 158.84 176.22 163.65 177.42 169.55C178.62 175.45 179.52 180.25 179.38 180.28Z" fill="#263238"/>
<path d="M177.49 239.77C177.81 239.93 173.83 208.61 173.83 208.61C173.83 208.61 176.34 184.84 177.75 183.74V175.35C177.75 175.35 181.64 173 182.68 176.8C182.68 176.8 186.13 173.8 186.68 180.93C187.23 188.06 187.41 195.34 187.41 195.34L195.08 214.52L196.34 215.16C196.34 215.16 197.99 200.16 198.95 197.92C199.91 195.68 200.57 190.33 204.2 191.14C207.83 191.95 208.14 194.95 207.49 199.85C206.84 204.75 206.02 209.85 206.33 212.99C206.64 216.13 208.07 223.12 207.63 228.66C207.19 234.2 204.15 240.04 200.97 244.14C197.79 248.24 191.7 256.73 188.4 259.28C187.33 260.18 177.49 239.77 177.49 239.77Z" fill="#FFBE9D"/>
<path d="M181.369 214.28C181.319 213.835 181.319 213.385 181.369 212.94C181.429 211.94 181.519 210.76 181.619 209.3C181.849 206.23 182.209 201.99 182.619 197.3C182.839 194.97 183.049 192.75 183.239 190.71C183.353 189.77 183.353 188.82 183.239 187.88C183.132 187.075 182.784 186.322 182.239 185.72C181.839 185.289 181.355 184.945 180.816 184.709C180.278 184.473 179.697 184.351 179.109 184.35C178.669 184.371 178.231 184.424 177.799 184.51C177.897 184.441 178.005 184.387 178.119 184.35C178.44 184.23 178.777 184.159 179.119 184.14C179.749 184.104 180.38 184.204 180.969 184.434C181.557 184.663 182.089 185.017 182.529 185.47C183.133 186.119 183.521 186.941 183.639 187.82C183.764 188.793 183.764 189.777 183.639 190.75C183.459 192.75 183.259 195.02 183.059 197.35C182.629 202.03 182.209 206.26 181.879 209.35L181.469 212.98C181.473 213.415 181.439 213.85 181.369 214.28Z" fill="#EB996E"/>
<path d="M185.49 201.47C184.931 202.231 184.474 203.061 184.13 203.94C183.52 206.154 183.095 208.415 182.86 210.7C182.44 213.38 182.04 215.8 181.72 217.55C181.603 218.504 181.396 219.445 181.1 220.36C181.103 219.398 181.19 218.437 181.36 217.49C181.58 215.73 181.93 213.3 182.36 210.62C182.79 207.94 183.07 205.49 183.81 203.81C184.073 203.152 184.441 202.54 184.9 202C185.23 201.6 185.47 201.45 185.49 201.47Z" fill="#EB996E"/>
<path d="M182.67 176.39C182.809 176.708 182.9 177.045 182.94 177.39C183.08 178.03 183.25 178.96 183.44 180.12C183.82 182.43 184.24 185.64 184.51 189.21C184.78 192.78 184.83 196.02 184.79 198.36C184.79 199.53 184.74 200.48 184.69 201.13C184.698 201.467 184.658 201.804 184.57 202.13C184.449 200.873 184.399 199.611 184.42 198.35C184.37 196.01 184.25 192.79 183.99 189.24C183.73 185.69 183.37 182.48 183.08 180.16C182.869 178.912 182.732 177.653 182.67 176.39Z" fill="#EB996E"/>
<path d="M204.8 205.75C204.42 205.994 203.987 206.143 203.537 206.181C203.087 206.219 202.635 206.147 202.22 205.97C200.75 205.53 200.07 204.4 200.22 204.35C200.908 204.787 201.634 205.162 202.39 205.47C203.184 205.63 203.99 205.723 204.8 205.75Z" fill="#EB996E"/>
<path d="M177.918 235.87L157.658 244.39H145.578C145.578 244.39 133.638 248.12 131.798 259.32C129.958 270.52 129.698 276.27 134.948 277.66C140.198 279.05 155.028 279.2 162.378 276.76C169.728 274.32 188.988 258.76 188.988 258.76L190.838 247.52L177.918 235.87Z" fill="#FFBE9D"/>
<path d="M182.668 248.25C182.668 248.25 182.438 248.08 182.088 247.72C181.606 247.197 181.168 246.635 180.778 246.04C179.51 244.062 178.555 241.899 177.948 239.63C177.321 237.38 176.903 235.076 176.698 232.75C176.564 231.789 176.537 230.816 176.618 229.85C176.835 230.787 176.982 231.74 177.058 232.7C177.367 234.992 177.831 237.26 178.448 239.49C179.052 241.714 179.939 243.852 181.088 245.85C181.998 247.36 182.738 248.18 182.668 248.25Z" fill="#EB996E"/>
<path d="M191.499 251.8C192.036 250.398 192.421 248.943 192.649 247.46C193.103 243.842 192.127 240.19 189.929 237.28C188.699 235.56 187.31 234.06 186.14 232.6C185.074 231.327 184.155 229.938 183.399 228.46C182.904 227.451 182.566 226.372 182.399 225.26C182.338 224.856 182.338 224.444 182.399 224.04C182.634 225.52 183.1 226.954 183.779 228.29C184.567 229.717 185.502 231.058 186.57 232.29C187.74 233.71 189.139 235.21 190.399 236.97C191.625 238.621 192.487 240.512 192.929 242.52C193.27 244.166 193.314 245.859 193.059 247.52C192.891 248.628 192.582 249.71 192.14 250.74C191.98 251.1 191.83 251.37 191.73 251.55C191.63 251.73 191.509 251.81 191.499 251.8Z" fill="#EB996E"/>
<path d="M160.249 203C158.452 200.085 156.803 197.081 155.309 194C152.709 189 150.709 184.84 150.829 184.77C152.627 187.685 154.275 190.689 155.769 193.77C157.419 196.768 158.914 199.849 160.249 203Z" fill="white"/>
<path d="M193 166.51C193.853 163.946 194.871 161.441 196.05 159.01C197.073 156.512 198.252 154.08 199.58 151.73C198.722 154.292 197.703 156.797 196.53 159.23C195.51 161.729 194.33 164.161 193 166.51Z" fill="white"/>
<path d="M225.13 190.19C223.471 188.594 221.933 186.876 220.53 185.05C219 183.332 217.6 181.504 216.34 179.58C218 181.172 219.535 182.891 220.93 184.72C222.464 186.436 223.868 188.265 225.13 190.19Z" fill="white"/>
<path d="M217.738 222.76C218.753 220.932 219.91 219.186 221.198 217.54C222.358 215.799 223.659 214.157 225.088 212.63C224.076 214.46 222.919 216.205 221.628 217.85C220.475 219.595 219.173 221.238 217.738 222.76Z" fill="white"/>
<path d="M207.799 268.77C207.332 268.151 206.94 267.48 206.629 266.77C205.969 265.49 205.119 263.7 204.259 261.69C203.399 259.68 202.709 257.81 202.259 256.46C201.96 255.74 201.745 254.989 201.619 254.22C202.031 254.883 202.366 255.591 202.619 256.33L204.769 261.48C205.599 263.39 206.339 265.12 206.989 266.61C207.339 267.297 207.61 268.022 207.799 268.77Z" fill="white"/>
<path d="M236 249.21C233.955 249.074 231.924 248.77 229.93 248.3C227.893 247.998 225.886 247.523 223.93 246.88C227.988 247.317 232.002 248.097 235.93 249.21H236Z" fill="white"/>
<path d="M258 206.22C259.792 203.899 261.722 201.688 263.78 199.6C265.715 197.387 267.779 195.29 269.96 193.32C268.161 195.641 266.228 197.855 264.17 199.95C262.235 202.156 260.175 204.25 258 206.22Z" fill="white"/>
<path d="M280 263.55C279.89 263.65 276.66 259.9 272.78 255.2C268.9 250.5 265.85 246.6 265.96 246.51C266.07 246.42 269.3 250.16 273.18 254.86C277.06 259.56 280.09 263.46 280 263.55Z" fill="white"/>
<path d="M143.2 239.12C143.27 239.26 140.32 240.76 137.1 243.23C133.88 245.7 131.64 248.14 131.52 248.03C131.883 247.397 132.342 246.823 132.88 246.33C134.077 245.051 135.382 243.876 136.78 242.82C138.171 241.757 139.65 240.814 141.2 240C141.82 239.611 142.494 239.314 143.2 239.12Z" fill="white"/>
<path d="M151.439 217C150.803 218.415 150.015 219.756 149.089 221C148.299 222.339 147.364 223.587 146.299 224.72C146.936 223.306 147.724 221.965 148.649 220.72C149.436 219.379 150.372 218.131 151.439 217Z" fill="white"/>
<path d="M170 238.72C168.399 236.174 167.715 233.158 168.06 230.17C168.21 230.17 168.26 232.17 168.81 234.5C169.36 236.83 170.14 238.65 170 238.72Z" fill="white"/>
<path d="M172.749 169.8C171.505 170.234 170.211 170.506 168.899 170.61C167.608 170.881 166.286 170.979 164.969 170.9C166.216 170.467 167.513 170.194 168.829 170.09C170.117 169.824 171.435 169.727 172.749 169.8Z" fill="white"/>
<path d="M186.689 145.07C184.536 146.664 182.182 147.968 179.689 148.95C180.713 148.082 181.846 147.352 183.059 146.78C184.192 146.058 185.412 145.484 186.689 145.07Z" fill="white"/>
<path d="M225.9 155.52C224.487 154.083 223.195 152.531 222.04 150.88C220.757 149.329 219.606 147.673 218.6 145.93C221.305 148.91 223.748 152.118 225.9 155.52Z" fill="white"/>
<path d="M275.669 180.38C272.913 177.663 270.839 174.332 269.619 170.66C269.769 170.6 270.839 172.93 272.519 175.6C274.199 178.27 275.789 180.28 275.669 180.38Z" fill="white"/>
<path d="M294.668 186.64C293.462 190.155 291.921 193.547 290.068 196.77C290.602 194.988 291.294 193.257 292.138 191.6C292.823 189.87 293.67 188.209 294.668 186.64Z" fill="white"/>
<path d="M297.329 160.71C295.511 158.945 293.82 157.053 292.269 155.05C290.584 153.158 289.03 151.154 287.619 149.05C291.118 152.71 294.363 156.606 297.329 160.71Z" fill="white"/>
<path d="M268.31 139.65C267.993 138.056 267.842 136.434 267.86 134.81C267.709 133.189 267.732 131.556 267.93 129.94C268.247 131.533 268.397 133.155 268.38 134.78C268.537 136.401 268.513 138.034 268.31 139.65Z" fill="white"/>
<path d="M292 138.34C289.973 138.871 287.906 139.236 285.82 139.43C283.759 139.792 281.672 139.983 279.58 140C281.607 139.469 283.674 139.104 285.76 138.91C287.821 138.547 289.908 138.357 292 138.34Z" fill="white"/>
<path d="M329.23 165.71C327.841 163.431 326.598 161.066 325.51 158.63C324.273 156.266 323.191 153.824 322.27 151.32C323.664 153.597 324.91 155.962 326 158.4C327.232 160.765 328.311 163.206 329.23 165.71Z" fill="white"/>
<path d="M323 189.36C323.418 185.541 324.175 181.766 325.26 178.08C325.139 179.999 324.848 181.903 324.39 183.77C324.098 185.672 323.633 187.543 323 189.36Z" fill="white"/>
<path d="M340.24 208C339.073 205.508 338.071 202.943 337.24 200.32C336.248 197.756 335.423 195.13 334.77 192.46C335.929 194.958 336.931 197.527 337.77 200.15C338.757 202.712 339.582 205.334 340.24 208Z" fill="white"/>
<path d="M337.83 218.91C336.045 218.641 334.329 218.026 332.78 217.1C331.153 216.318 329.7 215.216 328.51 213.86C328.61 213.74 330.45 215.26 333.03 216.64C335.61 218.02 337.88 218.76 337.83 218.91Z" fill="white"/>
<path d="M359.999 243.77C358.652 241.587 357.606 239.232 356.889 236.77C358.235 238.953 359.281 241.308 359.999 243.77Z" fill="white"/>
<path d="M229.21 278.45C228.783 277.007 228.522 275.521 228.43 274.02C228.176 272.537 228.089 271.031 228.17 269.53C228.626 270.981 228.905 272.482 229 274C229.239 275.47 229.31 276.963 229.21 278.45Z" fill="white"/>
<path d="M297.139 276.73C297.185 275.266 297.403 273.812 297.789 272.4C298.014 270.952 298.407 269.536 298.959 268.18C298.913 269.644 298.691 271.098 298.299 272.51C298.079 273.957 297.69 275.374 297.139 276.73Z" fill="white"/>
<path d="M310.16 78.44L319 63C313.548 54.1999 311.586 43.6787 313.499 33.5051C315.412 23.3314 321.061 14.2413 329.336 8.02201C337.612 1.80275 347.915 -1.09569 358.219 -0.103446C368.523 0.888798 378.083 5.69994 385.02 13.384C391.957 21.0681 395.768 31.0692 395.704 41.421C395.64 51.7727 391.706 61.7261 384.676 69.3242C377.645 76.9223 368.026 81.6153 357.71 82.4806C347.395 83.3458 337.128 80.3207 328.93 74L310.16 78.44Z" fill="#FAFAFA"/>
<path d="M310.161 78.4399L328.931 74.16H329.121L329.001 73.9999L328.821 74.1699C331.451 76.2093 334.31 77.9343 337.341 79.3099C340.953 80.9266 344.779 82.0177 348.701 82.5499C350.874 82.8533 353.069 82.9637 355.261 82.88C356.391 82.82 357.531 82.7899 358.691 82.6999L362.191 82.1699C372.621 80.1247 381.879 74.1814 388.081 65.5499C391.526 60.7753 393.912 55.3205 395.081 49.55C396.271 43.445 396.103 37.1531 394.591 31.1199C393.019 24.8299 389.975 19.0033 385.711 14.12L384.001 12.1699C383.441 11.5399 382.781 11.0299 382.181 10.4499C381.581 9.86995 380.981 9.28995 380.301 8.80995L378.301 7.32995C377.649 6.82633 376.96 6.37175 376.241 5.96995L374.141 4.68995L371.941 3.61995C371.221 3.24372 370.48 2.90982 369.721 2.61995C363.821 0.295233 357.476 -0.678609 351.151 -0.230055C345.186 0.171067 339.383 1.87799 334.151 4.76995C324.718 10.0164 317.667 18.6932 314.461 28.9999C313.176 33.3716 312.569 37.9144 312.661 42.47C312.763 46.4228 313.437 50.34 314.661 54.1C315.692 57.2246 317.085 60.2182 318.811 63.02V62.8899C313.271 72.82 310.561 77.6699 310.131 78.4299C310.571 77.6799 313.351 72.8599 319.021 63.0099V62.9499V62.8899C317.337 60.0944 315.988 57.1106 315.001 54C313.783 50.2658 313.11 46.376 313.001 42.4499C312.935 37.9364 313.552 33.4389 314.831 29.1099C318.04 18.9425 325.022 10.3902 334.341 5.20995C339.521 2.32416 345.275 0.616914 351.191 0.209948C357.439 -0.230382 363.706 0.736702 369.531 3.03995C370.28 3.32975 371.011 3.66367 371.721 4.03995L373.901 5.09995L376.001 6.39995C376.698 6.79983 377.366 7.24756 378.001 7.73995L380.001 9.20995C380.671 9.68995 381.231 10.29 381.851 10.83C382.471 11.37 383.101 11.9099 383.651 12.5299L385.321 14.3599C389.537 19.1967 392.546 24.9646 394.101 31.19C395.603 37.1464 395.771 43.3613 394.591 49.3899C393.448 55.099 391.095 60.4968 387.691 65.2199C381.568 73.7658 372.422 79.6614 362.111 81.71L358.651 82.2499C357.501 82.3399 356.371 82.3799 355.251 82.4399C353.08 82.5285 350.905 82.4281 348.751 82.1399C344.854 81.6359 341.049 80.5786 337.451 78.9999C334.433 77.6505 331.584 75.9523 328.961 73.9399L328.191 73.35L328.781 74.1199L328.851 73.9199L310.161 78.4399Z" fill="#263238"/>
<path d="M365.401 39.5498C365.411 40.3366 365.652 41.103 366.096 41.7531C366.539 42.4032 367.164 42.9081 367.893 43.2046C368.622 43.5011 369.422 43.5761 370.193 43.4202C370.964 43.2642 371.672 42.8843 372.229 42.3279C372.785 41.7716 373.165 41.0634 373.321 40.2922C373.477 39.521 373.402 38.7209 373.105 37.992C372.809 37.2632 372.304 36.638 371.654 36.1947C371.004 35.7514 370.238 35.5097 369.451 35.4998C368.917 35.4931 368.387 35.5933 367.893 35.7944C367.399 35.9956 366.949 36.2937 366.572 36.6711C366.195 37.0485 365.896 37.4976 365.695 37.992C365.494 38.4864 365.394 39.0161 365.401 39.5498Z" fill="#263238"/>
<path d="M349.211 39.55C349.221 40.3389 349.464 41.1073 349.91 41.7585C350.355 42.4097 350.983 42.9146 351.715 43.2097C352.447 43.5048 353.249 43.5769 354.022 43.4169C354.794 43.257 355.502 42.8722 356.057 42.3108C356.611 41.7495 356.987 41.0367 357.138 40.2622C357.288 39.4876 357.206 38.6859 356.902 37.9579C356.598 37.23 356.085 36.6082 355.428 36.1708C354.772 35.7335 354 35.5001 353.211 35.5C352.682 35.5 352.157 35.6051 351.669 35.8092C351.18 36.0133 350.737 36.3124 350.365 36.6892C349.993 37.0659 349.699 37.5128 349.501 38.0039C349.303 38.495 349.205 39.0205 349.211 39.55Z" fill="#263238"/>
<path d="M333.06 37.5301C332.673 38.2162 332.498 39.0013 332.556 39.7868C332.613 40.5723 332.902 41.3232 333.385 41.9455C333.867 42.5678 334.523 43.0337 335.27 43.2849C336.016 43.536 336.82 43.5612 337.581 43.3572C338.342 43.1532 339.025 42.7292 339.546 42.1383C340.067 41.5474 340.401 40.816 340.508 40.0356C340.615 39.2553 340.489 38.4608 340.146 37.7518C339.803 37.0428 339.258 36.4508 338.58 36.0501C338.122 35.7793 337.614 35.6027 337.087 35.5305C336.56 35.4584 336.023 35.4923 335.509 35.6301C334.995 35.7679 334.514 36.007 334.093 36.3332C333.673 36.6595 333.321 37.0664 333.06 37.5301Z" fill="#263238"/>
</g>
<defs>
<clipPath id="clip0_180_2518">
<rect width="504" height="339" fill="white"/>
</clipPath>
</defs>
</svg>
